<?xml version="1.0" encoding="UTF-8" standalone="no"?>
<svg
   xmlns:dc="http://purl.org/dc/elements/1.1/"
   xmlns:cc="http://creativecommons.org/ns#"
   xmlns:rdf="http://www.w3.org/1999/02/22-rdf-syntax-ns#"
   xmlns:svg="http://www.w3.org/2000/svg"
   xmlns="http://www.w3.org/2000/svg"
   xmlns:sodipodi="http://sodipodi.sourceforge.net/DTD/sodipodi-0.dtd"
   xmlns:inkscape="http://www.inkscape.org/namespaces/inkscape"
   width="1100"
   height="139.9561"
   viewBox="0 0 291.04166 37.030054"
   version="1.1"
   id="svg8"
   inkscape:version="1.0 (4035a4fb49, 2020-05-01)"
   sodipodi:docname="next_primary.svg">
  <defs
     id="defs2" />
  <sodipodi:namedview
     id="base"
     pagecolor="#ffffff"
     bordercolor="#666666"
     borderopacity="1.0"
     inkscape:pageopacity="0.0"
     inkscape:pageshadow="2"
     inkscape:zoom="0.7"
     inkscape:cx="545.66213"
     inkscape:cy="-231.55334"
     inkscape:document-units="mm"
     inkscape:current-layer="layer1"
     showgrid="false"
     units="px"
     inkscape:snap-global="true"
     inkscape:snap-page="true"
     inkscape:window-width="1920"
     inkscape:window-height="1137"
     inkscape:window-x="-8"
     inkscape:window-y="-8"
     inkscape:window-maximized="1"
     fit-margin-top="0"
     fit-margin-left="0"
     fit-margin-right="0"
     fit-margin-bottom="0"
     inkscape:document-rotation="0" />
  <metadata
     id="metadata5">
    <rdf:RDF>
      <cc:Work
         rdf:about="">
        <dc:format>image/svg+xml</dc:format>
        <dc:type
           rdf:resource="http://purl.org/dc/dcmitype/StillImage" />
        <dc:title></dc:title>
      </cc:Work>
    </rdf:RDF>
  </metadata>
  <g
     inkscape:label="Layer 1"
     inkscape:groupmode="layer"
     id="layer1"
     transform="translate(18.758024,-252.02661)">
    <g
       transform="translate(-26.458333)"
       id="g1809">
      <rect
         rx="1.7103499"
         ry="1.4827397"
         y="252.57567"
         x="14.048535"
         height="36.030052"
         width="278.34521"
         id="rect817"
         style="opacity:0.97;fill:#ee2a24;fill-opacity:1;stroke:#ee2a24;stroke-width:1;stroke-linecap:butt;stroke-linejoin:round;stroke-miterlimit:4;stroke-dasharray:none;stroke-dashoffset:0;stroke-opacity:1;paint-order:normal" />
      <g
         aria-label="Next Tutorial"
         id="text827"
         style="font-style:normal;font-weight:normal;font-size:9.87778px;line-height:1.25;font-family:sans-serif;letter-spacing:0px;word-spacing:0px;fill:#000000;fill-opacity:1;stroke:none;stroke-width:0.264583">
        <path
           d="m 115.27338,267.86475 h -2.03949 l -3.48369,-5.63343 v 5.63343 h -1.94028 v -8.20761 H 110.34 l 2.9931,4.70187 v -4.70187 h 1.94028 z"
           style="font-style:normal;font-variant:normal;font-weight:bold;font-stretch:normal;font-size:11.2889px;line-height:1.25;font-family:sans-serif;-inkscape-font-specification:'sans-serif Bold';fill:#ffffff;fill-opacity:1;stroke-width:0.264583"
           id="path857" />
        <path
           d="m 123.36523,265.13623 h -4.54202 q 0.0441,0.7276 0.55122,1.11345 0.51263,0.38585 1.50482,0.38585 0.62839,0 1.21819,-0.22599 0.5898,-0.226 0.93155,-0.48507 h 0.22049 v 1.59301 q -0.67249,0.2701 -1.2678,0.39136 -0.59531,0.12127 -1.31741,0.12127 -1.8631,0 -2.85529,-0.83785 -0.99219,-0.83785 -0.99219,-2.38676 0,-1.53238 0.93707,-2.42535 0.94257,-0.89848 2.57969,-0.89848 1.51033,0 2.271,0.76619 0.76068,0.76067 0.76068,2.19384 z m -1.97335,-1.16307 q -0.0165,-0.62287 -0.30868,-0.93706 -0.29215,-0.3142 -0.90951,-0.3142 -0.57326,0 -0.94258,0.29766 -0.36931,0.29766 -0.41341,0.9536 z"
           style="font-style:normal;font-variant:normal;font-weight:bold;font-stretch:normal;font-size:11.2889px;line-height:1.25;font-family:sans-serif;-inkscape-font-specification:'sans-serif Bold';fill:#ffffff;fill-opacity:1;stroke-width:0.264583"
           id="path859" />
        <path
           d="m 131.2366,267.86475 h -2.31511 l -1.32292,-1.85209 -1.35599,1.85209 h -2.27101 l 2.44189,-3.09232 -2.4033,-3.09784 h 2.3151 l 1.30087,1.81901 1.30638,-1.81901 h 2.27652 l -2.40881,3.04823 z"
           style="font-style:normal;font-variant:normal;font-weight:bold;font-stretch:normal;font-size:11.2889px;line-height:1.25;font-family:sans-serif;-inkscape-font-specification:'sans-serif Bold';fill:#ffffff;fill-opacity:1;stroke-width:0.264583"
           id="path861" />
        <path
           d="m 136.28573,267.80962 q -0.3197,0.0827 -0.67799,0.12678 -0.3583,0.0496 -0.87644,0.0496 -1.15755,0 -1.7253,-0.46853 -0.56224,-0.46853 -0.56224,-1.60404 v -2.89388 h -0.8158 v -1.34497 h 0.8158 v -1.7694 h 1.98437 v 1.7694 h 1.8576 v 1.34497 h -1.8576 v 2.19384 q 0,0.32522 0.006,0.56775 0.006,0.24254 0.0882,0.43546 0.0772,0.19293 0.2701,0.30868 0.19843,0.11024 0.57326,0.11024 0.15434,0 0.40239,-0.0661 0.25356,-0.0661 0.35278,-0.12127 h 0.16536 z"
           style="font-style:normal;font-variant:normal;font-weight:bold;font-stretch:normal;font-size:11.2889px;line-height:1.25;font-family:sans-serif;-inkscape-font-specification:'sans-serif Bold';fill:#ffffff;fill-opacity:1;stroke-width:0.264583"
           id="path863" />
        <path
           d="m 147.85575,261.24464 h -2.56315 v 6.62011 h -2.11667 v -6.62011 h -2.56316 v -1.5875 h 7.24298 z"
           style="font-style:normal;font-variant:normal;font-weight:bold;font-stretch:normal;font-size:11.2889px;line-height:1.25;font-family:sans-serif;-inkscape-font-specification:'sans-serif Bold';fill:#ffffff;fill-opacity:1;stroke-width:0.264583"
           id="path865" />
        <path
           d="m 155.18692,267.86475 h -1.98438 v -0.68351 q -0.55121,0.41892 -1.00872,0.63941 -0.45751,0.21497 -1.09141,0.21497 -1.02526,0 -1.58199,-0.5898 -0.55121,-0.5898 -0.55121,-1.74184 v -4.02939 h 1.9954 v 3.07027 q 0,0.46854 0.0276,0.78273 0.0331,0.30868 0.14331,0.51263 0.10474,0.20395 0.3142,0.29766 0.21497,0.0937 0.59531,0.0937 0.25356,0 0.56224,-0.0937 0.30868,-0.0937 0.59531,-0.27561 v -4.38768 h 1.98438 z"
           style="font-style:normal;font-variant:normal;font-weight:bold;font-stretch:normal;font-size:11.2889px;line-height:1.25;font-family:sans-serif;-inkscape-font-specification:'sans-serif Bold';fill:#ffffff;fill-opacity:1;stroke-width:0.264583"
           id="path867" />
        <path
           d="m 161.0243,267.80962 q -0.31971,0.0827 -0.678,0.12678 -0.35829,0.0496 -0.87643,0.0496 -1.15755,0 -1.72531,-0.46853 -0.56224,-0.46853 -0.56224,-1.60404 v -2.89388 h -0.8158 v -1.34497 h 0.8158 v -1.7694 h 1.98438 v 1.7694 h 1.8576 v 1.34497 h -1.8576 v 2.19384 q 0,0.32522 0.006,0.56775 0.006,0.24254 0.0882,0.43546 0.0772,0.19293 0.27009,0.30868 0.19844,0.11024 0.57327,0.11024 0.15434,0 0.40239,-0.0661 0.25355,-0.0661 0.35277,-0.12127 h 0.16537 z"
           style="font-style:normal;font-variant:normal;font-weight:bold;font-stretch:normal;font-size:11.2889px;line-height:1.25;font-family:sans-serif;-inkscape-font-specification:'sans-serif Bold';fill:#ffffff;fill-opacity:1;stroke-width:0.264583"
           id="path869" />
        <path
           d="m 168.53186,264.77243 q 0,1.52686 -0.89297,2.40881 -0.88746,0.87643 -2.49701,0.87643 -1.60955,0 -2.50252,-0.87643 -0.88746,-0.88195 -0.88746,-2.40881 0,-1.5379 0.89297,-2.41433 0.89849,-0.87643 2.49701,-0.87643 1.62058,0 2.50252,0.88194 0.88746,0.88195 0.88746,2.40882 z m -2.44189,1.50481 q 0.19293,-0.23702 0.28664,-0.56775 0.0992,-0.33624 0.0992,-0.92604 0,-0.5457 -0.0992,-0.91502 -0.0992,-0.36931 -0.27561,-0.5898 -0.17639,-0.226 -0.42444,-0.3197 -0.24805,-0.0937 -0.53468,-0.0937 -0.28663,0 -0.51263,0.0772 -0.22049,0.0772 -0.42444,0.30868 -0.1819,0.21497 -0.29214,0.5898 -0.10473,0.37483 -0.10473,0.94258 0,0.50712 0.0937,0.88194 0.0937,0.36932 0.2756,0.59532 0.17639,0.21497 0.41893,0.31419 0.24805,0.0992 0.56224,0.0992 0.27009,0 0.51263,-0.0882 0.24805,-0.0937 0.41892,-0.30869 z"
           style="font-style:normal;font-variant:normal;font-weight:bold;font-stretch:normal;font-size:11.2889px;line-height:1.25;font-family:sans-serif;-inkscape-font-specification:'sans-serif Bold';fill:#ffffff;fill-opacity:1;stroke-width:0.264583"
           id="path871" />
        <path
           d="m 174.45192,263.56526 h -0.17639 q -0.12678,-0.0441 -0.4079,-0.0661 -0.28112,-0.022 -0.46853,-0.022 -0.42444,0 -0.74966,0.0551 -0.32522,0.0551 -0.70004,0.18741 v 4.14515 h -1.98438 v -6.19016 h 1.98438 v 0.90951 q 0.65594,-0.56224 1.14101,-0.74414 0.48507,-0.18742 0.89297,-0.18742 0.10474,0 0.23703,0.006 0.13229,0.006 0.23151,0.0165 z"
           style="font-style:normal;font-variant:normal;font-weight:bold;font-stretch:normal;font-size:11.2889px;line-height:1.25;font-family:sans-serif;-inkscape-font-specification:'sans-serif Bold';fill:#ffffff;fill-opacity:1;stroke-width:0.264583"
           id="path873" />
        <path
           d="m 177.5718,267.86475 h -1.98438 v -6.19016 h 1.98438 z m 0.0551,-7.0721 h -2.09462 v -1.50482 h 2.09462 z"
           style="font-style:normal;font-variant:normal;font-weight:bold;font-stretch:normal;font-size:11.2889px;line-height:1.25;font-family:sans-serif;-inkscape-font-specification:'sans-serif Bold';fill:#ffffff;fill-opacity:1;stroke-width:0.264583"
           id="path875" />
        <path
           d="m 183.1942,266.24968 v -1.28984 q -0.40239,0.0331 -0.87092,0.0937 -0.46853,0.0551 -0.71107,0.13229 -0.29766,0.0937 -0.45751,0.27561 -0.15434,0.17638 -0.15434,0.46853 0,0.19292 0.0331,0.31419 0.0331,0.12127 0.16537,0.23151 0.12678,0.11025 0.30317,0.16537 0.17639,0.0496 0.55121,0.0496 0.29766,0 0.60083,-0.12127 0.30868,-0.12127 0.54019,-0.31971 z m 0,0.95912 q -0.15985,0.12127 -0.39688,0.29214 -0.23702,0.17088 -0.44648,0.2701 -0.29214,0.13229 -0.60634,0.19292 -0.31419,0.0661 -0.68902,0.0661 -0.88194,0 -1.47726,-0.5457 -0.59531,-0.54571 -0.59531,-1.39458 0,-0.67799 0.30317,-1.10794 0.30317,-0.42995 0.8599,-0.678 0.55121,-0.24805 1.36701,-0.35278 0.8158,-0.10473 1.69223,-0.15434 v -0.0331 q 0,-0.51263 -0.41892,-0.70556 -0.41892,-0.19843 -1.23472,-0.19843 -0.49059,0 -1.04731,0.17639 -0.55673,0.17087 -0.79927,0.26458 h -0.1819 v -1.4938 q 0.3142,-0.0827 1.01975,-0.19292 0.71107,-0.11576 1.42214,-0.11576 1.69223,0 2.44188,0.52366 0.75517,0.51814 0.75517,1.6316 v 4.21129 h -1.96784 z"
           style="font-style:normal;font-variant:normal;font-weight:bold;font-stretch:normal;font-size:11.2889px;line-height:1.25;font-family:sans-serif;-inkscape-font-specification:'sans-serif Bold';fill:#ffffff;fill-opacity:1;stroke-width:0.264583"
           id="path877" />
        <path
           d="m 188.97094,267.86475 h -1.98437 v -8.57692 h 1.98437 z"
           style="font-style:normal;font-variant:normal;font-weight:bold;font-stretch:normal;font-size:11.2889px;line-height:1.25;font-family:sans-serif;-inkscape-font-specification:'sans-serif Bold';fill:#ffffff;fill-opacity:1;stroke-width:0.264583"
           id="path879" />
      </g>
      <text
         id="text839"
         y="289.05667"
         x="119.58125"
         style="font-style:normal;font-weight:normal;font-size:10.5833px;line-height:1.25;font-family:sans-serif;letter-spacing:0px;word-spacing:0px;writing-mode:tb-rl;fill:#000000;fill-opacity:1;stroke:none;stroke-width:0.264583"
         xml:space="preserve"><tspan
           style="stroke-width:0.264583"
           y="119.58125"
           x="289.05667"
           id="tspan837"
           sodipodi:role="line" /></text>
      <g
         aria-label="Your First Application – Sending and Receiving Data"
         id="text827-8"
         style="font-style:normal;font-weight:normal;font-size:8.46667px;line-height:1.25;font-family:sans-serif;letter-spacing:0px;word-spacing:0px;fill:#000000;fill-opacity:1;stroke:none;stroke-width:0.264583">
        <path
           d="m 36.138837,274.18543 -3.137794,3.77444 -0.549837,2.38126 h -1.595769 l 0.533301,-2.30684 -1.413868,-3.84886 h 1.699122 l 0.789616,2.41019 1.839682,-2.41019 z"
           style="font-style:italic;font-variant:normal;font-weight:bold;font-stretch:normal;font-size:8.46667px;line-height:1.25;font-family:sans-serif;-inkscape-font-specification:'sans-serif Bold';fill:#ffffff;fill-opacity:1;stroke-width:0.264583"
           id="path882" />
        <path
           d="m 40.80212,277.39763 q 0,0.6532 -0.219108,1.2237 -0.219108,0.57051 -0.615983,0.97979 -0.413412,0.42581 -0.959115,0.65732 -0.545703,0.22738 -1.273308,0.22738 -1.037663,0 -1.591634,-0.49609 -0.553972,-0.4961 -0.553972,-1.37253 0,-0.62012 0.206706,-1.17822 0.206706,-0.55811 0.611849,-0.98392 0.392741,-0.41755 0.963249,-0.65733 0.574642,-0.24391 1.28571,-0.24391 1.041797,0 1.591635,0.49196 0.553971,0.48782 0.553971,1.35185 z m -1.934766,1.52136 q 0.190169,-0.28939 0.285254,-0.63252 0.09922,-0.34313 0.09922,-0.83509 0,-0.42582 -0.186035,-0.65319 -0.186036,-0.23151 -0.591179,-0.23151 -0.314193,0 -0.553972,0.15296 -0.235644,0.15296 -0.417545,0.43408 -0.169499,0.26045 -0.268718,0.64492 -0.09508,0.38448 -0.09508,0.78962 0,0.47542 0.210839,0.68213 0.21084,0.20257 0.578777,0.20257 0.268717,0 0.516764,-0.14469 0.248047,-0.14883 0.42168,-0.40928 z"
           style="font-style:italic;font-variant:normal;font-weight:bold;font-stretch:normal;font-size:8.46667px;line-height:1.25;font-family:sans-serif;-inkscape-font-specification:'sans-serif Bold';fill:#ffffff;fill-opacity:1;stroke-width:0.264583"
           id="path884" />
        <path
           d="m 46.95782,275.69851 -1.07487,4.64262 h -1.496551 l 0.11989,-0.51263 q -0.223242,0.14469 -0.438217,0.27285 -0.210839,0.12402 -0.401009,0.19843 -0.239779,0.0992 -0.438216,0.1323 -0.198438,0.0372 -0.392741,0.0372 -0.611849,0 -0.967383,-0.29352 -0.3514,-0.29352 -0.3514,-0.86816 0,-0.1571 0.01654,-0.28939 0.01654,-0.13643 0.05374,-0.29766 l 0.698665,-3.02204 h 1.504819 l -0.533301,2.30271 q -0.06201,0.26458 -0.09509,0.45475 -0.02894,0.19017 -0.02894,0.32246 0,0.27285 0.132292,0.39687 0.132292,0.11989 0.500228,0.11989 0.181901,0 0.417546,-0.0785 0.239778,-0.0786 0.516764,-0.22738 l 0.760678,-3.29076 z"
           style="font-style:italic;font-variant:normal;font-weight:bold;font-stretch:normal;font-size:8.46667px;line-height:1.25;font-family:sans-serif;-inkscape-font-specification:'sans-serif Bold';fill:#ffffff;fill-opacity:1;stroke-width:0.264583"
           id="path886" />
        <path
           d="m 51.406129,277.11651 h -0.132292 q -0.09922,-0.0331 -0.28112,-0.0496 -0.181901,-0.0165 -0.359668,-0.0165 -0.293522,0 -0.566374,0.0455 -0.272852,0.0413 -0.56224,0.13643 l -0.719336,3.10886 h -1.49655 l 1.07487,-4.64262 h 1.49655 l -0.157096,0.68213 q 0.42168,-0.31006 0.839225,-0.50436 0.42168,-0.1943 0.847494,-0.1943 0.07855,0 0.173633,0.004 0.09922,0.004 0.173633,0.0124 z"
           style="font-style:italic;font-variant:normal;font-weight:bold;font-stretch:normal;font-size:8.46667px;line-height:1.25;font-family:sans-serif;-inkscape-font-specification:'sans-serif Bold';fill:#ffffff;fill-opacity:1;stroke-width:0.264583"
           id="path888" />
        <path
           d="m 60.315149,274.18543 -0.276986,1.19062 h -2.827735 l -0.264584,1.14515 h 2.62103 l -0.272852,1.19063 h -2.62103 l -0.607715,2.6293 h -1.5875 l 1.422136,-6.1557 z"
           style="font-style:italic;font-variant:normal;font-weight:bold;font-stretch:normal;font-size:8.46667px;line-height:1.25;font-family:sans-serif;-inkscape-font-specification:'sans-serif Bold';fill:#ffffff;fill-opacity:1;stroke-width:0.264583"
           id="path890" />
        <path
           d="m 62.477292,275.69851 -1.07487,4.64262 h -1.49655 l 1.07487,-4.64262 z m 0.454753,-1.79007 -0.260449,1.12861 h -1.579233 l 0.260449,-1.12861 z"
           style="font-style:italic;font-variant:normal;font-weight:bold;font-stretch:normal;font-size:8.46667px;line-height:1.25;font-family:sans-serif;-inkscape-font-specification:'sans-serif Bold';fill:#ffffff;fill-opacity:1;stroke-width:0.264583"
           id="path892" />
        <path
           d="m 66.917332,277.11651 h -0.132291 q -0.09922,-0.0331 -0.28112,-0.0496 -0.181901,-0.0165 -0.359668,-0.0165 -0.293523,0 -0.566374,0.0455 -0.272852,0.0413 -0.56224,0.13643 l -0.719336,3.10886 h -1.49655 l 1.07487,-4.64262 h 1.49655 l -0.157097,0.68213 q 0.42168,-0.31006 0.839226,-0.50436 0.42168,-0.1943 0.847494,-0.1943 0.07855,0 0.173633,0.004 0.09922,0.004 0.173633,0.0124 z"
           style="font-style:italic;font-variant:normal;font-weight:bold;font-stretch:normal;font-size:8.46667px;line-height:1.25;font-family:sans-serif;-inkscape-font-specification:'sans-serif Bold';fill:#ffffff;fill-opacity:1;stroke-width:0.264583"
           id="path894" />
        <path
           d="m 68.806626,280.46928 q -0.595313,0 -1.153419,-0.11162 -0.558105,-0.11162 -0.855762,-0.26045 l 0.285254,-1.2237 h 0.136426 q 0.09095,0.0786 0.227376,0.17364 0.14056,0.0951 0.396876,0.19843 0.219108,0.0951 0.508496,0.16537 0.289388,0.0661 0.624251,0.0661 0.500228,0 0.748275,-0.11576 0.252182,-0.11576 0.252182,-0.33073 0,-0.16536 -0.177767,-0.25218 -0.177767,-0.0868 -0.735873,-0.21497 -0.946713,-0.21911 -1.298113,-0.52917 -0.347265,-0.31006 -0.347265,-0.77308 0,-0.78548 0.702799,-1.2361 0.7028,-0.45475 1.901694,-0.45475 0.520898,0 1.041797,0.10748 0.520899,0.10336 0.764812,0.22324 l -0.272852,1.17409 h -0.128158 q -0.293522,-0.22737 -0.711068,-0.36793 -0.413411,-0.1447 -0.851628,-0.1447 -0.475423,0 -0.731738,0.11576 -0.252181,0.11162 -0.252181,0.34726 0,0.18191 0.219108,0.28112 0.219108,0.0951 0.690397,0.19844 0.876433,0.19017 1.260906,0.47956 0.388607,0.28939 0.388607,0.81029 0,0.77721 -0.711068,1.22783 -0.711068,0.44648 -1.922364,0.44648 z"
           style="font-style:italic;font-variant:normal;font-weight:bold;font-stretch:normal;font-size:8.46667px;line-height:1.25;font-family:sans-serif;-inkscape-font-specification:'sans-serif Bold';fill:#ffffff;fill-opacity:1;stroke-width:0.264583"
           id="path896" />
        <path
           d="m 73.825442,280.43208 q -0.77308,0 -1.103809,-0.25219 -0.33073,-0.25631 -0.33073,-0.75654 0,-0.13229 0.02067,-0.25631 0.02067,-0.12403 0.05374,-0.28939 l 0.504362,-2.19935 h -0.61185 l 0.227377,-0.97979 h 0.611849 l 0.305925,-1.32705 h 1.492416 l -0.305925,1.32705 h 1.397331 l -0.227376,0.97979 h -1.397331 l -0.384473,1.67432 q -0.04134,0.17363 -0.07855,0.3514 -0.03721,0.17363 -0.03721,0.29765 0,0.24805 0.136425,0.34727 0.14056,0.0951 0.429949,0.0951 0.115755,0 0.30179,-0.0413 0.190169,-0.0455 0.30179,-0.0992 h 0.124024 l -0.231511,0.99632 q -0.252181,0.062 -0.533301,0.0951 -0.276985,0.0372 -0.665592,0.0372 z"
           style="font-style:italic;font-variant:normal;font-weight:bold;font-stretch:normal;font-size:8.46667px;line-height:1.25;font-family:sans-serif;-inkscape-font-specification:'sans-serif Bold';fill:#ffffff;fill-opacity:1;stroke-width:0.264583"
           id="path898" />
        <path
           d="m 84.623751,280.34113 h -1.599903 l -0.14056,-1.25678 h -2.265495 l -0.719336,1.25678 h -1.657781 l 3.691766,-6.1557 h 1.835547 z m -1.860352,-2.36058 -0.248047,-2.21176 -1.269174,2.21176 z"
           style="font-style:italic;font-variant:normal;font-weight:bold;font-stretch:normal;font-size:8.46667px;line-height:1.25;font-family:sans-serif;-inkscape-font-specification:'sans-serif Bold';fill:#ffffff;fill-opacity:1;stroke-width:0.264583"
           id="path900" />
        <path
           d="m 90.853868,277.18266 q 0,0.64079 -0.21084,1.24437 -0.206706,0.59945 -0.566374,1.03353 -0.376205,0.45889 -0.851628,0.7152 -0.471289,0.25632 -1.058334,0.25632 -0.37207,0 -0.686263,-0.0868 -0.310059,-0.0827 -0.56224,-0.23565 l -0.446484,1.93477 h -1.49655 l 1.467611,-6.34587 h 1.49655 l -0.111621,0.48369 q 0.42168,-0.28938 0.777214,-0.45061 0.359668,-0.16123 0.79375,-0.16123 0.7028,0 1.079004,0.42994 0.376205,0.42582 0.376205,1.18236 z m -1.938901,1.62884 q 0.177767,-0.26045 0.272852,-0.60771 0.09508,-0.3514 0.09508,-0.76068 0,-0.3762 -0.165365,-0.57464 -0.165365,-0.20257 -0.591179,-0.20257 -0.219108,0 -0.429948,0.0785 -0.21084,0.0744 -0.446484,0.19844 l -0.537435,2.33578 q 0.132291,0.0579 0.305924,0.091 0.177767,0.0289 0.363802,0.0289 0.376205,0 0.665593,-0.16123 0.289388,-0.16123 0.467155,-0.42582 z"
           style="font-style:italic;font-variant:normal;font-weight:bold;font-stretch:normal;font-size:8.46667px;line-height:1.25;font-family:sans-serif;-inkscape-font-specification:'sans-serif Bold';fill:#ffffff;fill-opacity:1;stroke-width:0.264583"
           id="path902" />
        <path
           d="m 96.773919,277.18266 q 0,0.64079 -0.21084,1.24437 -0.206705,0.59945 -0.566373,1.03353 -0.376205,0.45889 -0.851628,0.7152 -0.47129,0.25632 -1.058334,0.25632 -0.372071,0 -0.686263,-0.0868 -0.310059,-0.0827 -0.56224,-0.23565 l -0.446485,1.93477 h -1.49655 l 1.467611,-6.34587 h 1.49655 l -0.111621,0.48369 q 0.42168,-0.28938 0.777214,-0.45061 0.359668,-0.16123 0.79375,-0.16123 0.7028,0 1.079005,0.42994 0.376204,0.42582 0.376204,1.18236 z m -1.9389,1.62884 q 0.177767,-0.26045 0.272852,-0.60771 0.09508,-0.3514 0.09508,-0.76068 0,-0.3762 -0.165364,-0.57464 -0.165365,-0.20257 -0.591179,-0.20257 -0.219108,0 -0.429948,0.0785 -0.21084,0.0744 -0.446485,0.19844 l -0.537435,2.33578 q 0.132292,0.0579 0.305925,0.091 0.177767,0.0289 0.363802,0.0289 0.376205,0 0.665593,-0.16123 0.289388,-0.16123 0.467155,-0.42582 z"
           style="font-style:italic;font-variant:normal;font-weight:bold;font-stretch:normal;font-size:8.46667px;line-height:1.25;font-family:sans-serif;-inkscape-font-specification:'sans-serif Bold';fill:#ffffff;fill-opacity:1;stroke-width:0.264583"
           id="path904" />
        <path
           d="m 100.19696,273.90844 -1.488277,6.43269 h -1.49655 l 1.488282,-6.43269 z"
           style="font-style:italic;font-variant:normal;font-weight:bold;font-stretch:normal;font-size:8.46667px;line-height:1.25;font-family:sans-serif;-inkscape-font-specification:'sans-serif Bold';fill:#ffffff;fill-opacity:1;stroke-width:0.264583"
           id="path906" />
        <path
           d="m 102.67744,275.69851 -1.07487,4.64262 h -1.49655 l 1.07487,-4.64262 z m 0.45475,-1.79007 -0.26045,1.12861 h -1.57923 l 0.26045,-1.12861 z"
           style="font-style:italic;font-variant:normal;font-weight:bold;font-stretch:normal;font-size:8.46667px;line-height:1.25;font-family:sans-serif;-inkscape-font-specification:'sans-serif Bold';fill:#ffffff;fill-opacity:1;stroke-width:0.264583"
           id="path908" />
        <path
           d="m 105.39769,280.46515 q -0.47543,0 -0.89297,-0.11989 -0.41341,-0.11576 -0.72347,-0.3638 -0.30179,-0.24392 -0.47129,-0.61185 -0.1695,-0.36794 -0.1695,-0.85163 0,-0.62425 0.23564,-1.15755 0.23978,-0.53744 0.66973,-0.93845 0.42168,-0.39274 1.02939,-0.62011 0.60772,-0.23151 1.31465,-0.23151 0.42582,0 0.84336,0.0951 0.42168,0.0951 0.78135,0.27699 l -0.31419,1.26917 h -0.21084 q -0.24391,-0.29352 -0.55397,-0.43408 -0.30593,-0.1447 -0.6904,-0.1447 -0.7028,0 -1.12861,0.50023 -0.42582,0.4961 -0.42582,1.24024 0,0.51676 0.26045,0.77308 0.26458,0.25631 0.81856,0.25631 0.42994,0 0.78134,-0.17363 0.35554,-0.17777 0.60772,-0.39274 h 0.21084 l -0.31419,1.26917 q -0.44649,0.1943 -0.78549,0.27699 -0.33486,0.0827 -0.87229,0.0827 z"
           style="font-style:italic;font-variant:normal;font-weight:bold;font-stretch:normal;font-size:8.46667px;line-height:1.25;font-family:sans-serif;-inkscape-font-specification:'sans-serif Bold';fill:#ffffff;fill-opacity:1;stroke-width:0.264583"
           id="path910" />
        <path
           d="m 111.29707,278.15004 q -0.39687,0.0331 -0.74414,0.0786 -0.34726,0.0455 -0.59118,0.13229 -0.25218,0.0909 -0.38447,0.25632 -0.13229,0.16536 -0.13229,0.43822 0,0.23977 0.17363,0.33899 0.17777,0.0951 0.51263,0.0951 0.21911,0 0.46716,-0.0992 0.25218,-0.10335 0.47129,-0.26045 z m -0.39274,1.69913 q -0.14056,0.0909 -0.339,0.2191 -0.19843,0.12816 -0.36793,0.20258 -0.23151,0.0951 -0.43409,0.14469 -0.20257,0.0496 -0.56224,0.0496 -0.57877,0 -0.94671,-0.32246 -0.3638,-0.3266 -0.3638,-0.8475 0,-0.54983 0.26045,-0.93017 0.26045,-0.38447 0.77308,-0.61185 0.47956,-0.21498 1.14102,-0.31006 0.66559,-0.0951 1.43867,-0.14056 0.004,-0.0248 0.0165,-0.0786 0.0124,-0.0579 0.0124,-0.12816 0,-0.29352 -0.27286,-0.40927 -0.27285,-0.11989 -0.81442,-0.11989 -0.36793,0 -0.81442,0.12402 -0.44235,0.12402 -0.66559,0.20671 H 108.829 l 0.21911,-1.09968 q 0.26045,-0.0661 0.80616,-0.14883 0.5457,-0.0827 1.08727,-0.0827 1.0914,0 1.5999,0.28526 0.51263,0.28525 0.51263,0.8847 0,0.0827 -0.0165,0.21497 -0.0124,0.13229 -0.0372,0.23151 l -0.72761,3.15847 h -1.48001 z"
           style="font-style:italic;font-variant:normal;font-weight:bold;font-stretch:normal;font-size:8.46667px;line-height:1.25;font-family:sans-serif;-inkscape-font-specification:'sans-serif Bold';fill:#ffffff;fill-opacity:1;stroke-width:0.264583"
           id="path912" />
        <path
           d="m 115.41465,280.43208 q -0.77308,0 -1.10381,-0.25219 -0.33073,-0.25631 -0.33073,-0.75654 0,-0.13229 0.0207,-0.25631 0.0207,-0.12403 0.0537,-0.28939 l 0.50436,-2.19935 h -0.61185 l 0.22738,-0.97979 h 0.61185 l 0.30592,-1.32705 h 1.49242 l -0.30593,1.32705 h 1.39733 l -0.22737,0.97979 h -1.39733 l -0.38448,1.67432 q -0.0413,0.17363 -0.0785,0.3514 -0.0372,0.17363 -0.0372,0.29765 0,0.24805 0.13642,0.34727 0.14056,0.0951 0.42995,0.0951 0.11576,0 0.30179,-0.0413 0.19017,-0.0455 0.30179,-0.0992 h 0.12403 l -0.23151,0.99632 q -0.25219,0.062 -0.53331,0.0951 -0.27698,0.0372 -0.66559,0.0372 z"
           style="font-style:italic;font-variant:normal;font-weight:bold;font-stretch:normal;font-size:8.46667px;line-height:1.25;font-family:sans-serif;-inkscape-font-specification:'sans-serif Bold';fill:#ffffff;fill-opacity:1;stroke-width:0.264583"
           id="path914" />
        <path
           d="m 120.05727,275.69851 -1.07487,4.64262 h -1.49656 l 1.07488,-4.64262 z m 0.45475,-1.79007 -0.26045,1.12861 h -1.57923 l 0.26045,-1.12861 z"
           style="font-style:italic;font-variant:normal;font-weight:bold;font-stretch:normal;font-size:8.46667px;line-height:1.25;font-family:sans-serif;-inkscape-font-specification:'sans-serif Bold';fill:#ffffff;fill-opacity:1;stroke-width:0.264583"
           id="path916" />
        <path
           d="m 125.7334,277.39763 q 0,0.6532 -0.21911,1.2237 -0.21911,0.57051 -0.61598,0.97979 -0.41341,0.42581 -0.95912,0.65732 -0.5457,0.22738 -1.2733,0.22738 -1.03767,0 -1.59164,-0.49609 -0.55397,-0.4961 -0.55397,-1.37253 0,-0.62012 0.20671,-1.17822 0.2067,-0.55811 0.61185,-0.98392 0.39274,-0.41755 0.96324,-0.65733 0.57465,-0.24391 1.28571,-0.24391 1.0418,0 1.59164,0.49196 0.55397,0.48782 0.55397,1.35185 z m -1.93477,1.52136 q 0.19017,-0.28939 0.28526,-0.63252 0.0992,-0.34313 0.0992,-0.83509 0,-0.42582 -0.18604,-0.65319 -0.18603,-0.23151 -0.59118,-0.23151 -0.31419,0 -0.55397,0.15296 -0.23564,0.15296 -0.41754,0.43408 -0.1695,0.26045 -0.26872,0.64492 -0.0951,0.38448 -0.0951,0.78962 0,0.47542 0.21084,0.68213 0.21084,0.20257 0.57878,0.20257 0.26872,0 0.51676,-0.14469 0.24805,-0.14883 0.42168,-0.40928 z"
           style="font-style:italic;font-variant:normal;font-weight:bold;font-stretch:normal;font-size:8.46667px;line-height:1.25;font-family:sans-serif;-inkscape-font-specification:'sans-serif Bold';fill:#ffffff;fill-opacity:1;stroke-width:0.264583"
           id="path918" />
        <path
           d="m 131.62039,276.74858 q 0,0.12402 -0.0165,0.26872 -0.0165,0.14469 -0.0537,0.30179 l -0.69453,3.02204 h -1.50482 l 0.52917,-2.30271 q 0.0579,-0.25631 0.0909,-0.43821 0.0331,-0.1819 0.0331,-0.339 0,-0.26872 -0.13643,-0.39274 -0.13642,-0.12403 -0.50022,-0.12403 -0.17777,0 -0.40928,0.0786 -0.23151,0.0744 -0.5209,0.22738 l -0.75654,3.29076 h -1.49655 l 1.07073,-4.64262 h 1.49655 l -0.11989,0.51263 q 0.45889,-0.30179 0.83509,-0.47129 0.38034,-0.16949 0.8351,-0.16949 0.62425,0 0.97151,0.30179 0.34727,0.30179 0.34727,0.87643 z"
           style="font-style:italic;font-variant:normal;font-weight:bold;font-stretch:normal;font-size:8.46667px;line-height:1.25;font-family:sans-serif;-inkscape-font-specification:'sans-serif Bold';fill:#ffffff;fill-opacity:1;stroke-width:0.264583"
           id="path920" />
        <path
           d="m 140.31857,278.15831 h -4.78731 l 0.25631,-1.10794 h 4.78731 z"
           style="font-style:italic;font-variant:normal;font-weight:bold;font-stretch:normal;font-size:8.46667px;line-height:1.25;font-family:sans-serif;-inkscape-font-specification:'sans-serif Bold';fill:#ffffff;fill-opacity:1;stroke-width:0.264583"
           id="path922" />
        <path
           d="m 146.36678,280.45275 q -0.78962,0 -1.40974,-0.13643 -0.61598,-0.13643 -1.0666,-0.339 l 0.31833,-1.47588 h 0.17363 q 0.42582,0.38861 1.00046,0.60358 0.57464,0.21084 1.2361,0.21084 0.67799,0 0.99632,-0.1819 0.31833,-0.18603 0.31833,-0.52916 0,-0.12816 -0.0537,-0.21911 -0.0496,-0.0951 -0.19843,-0.18604 -0.14883,-0.091 -0.40928,-0.17776 -0.25632,-0.0909 -0.66559,-0.20671 -0.45062,-0.12402 -0.81029,-0.26872 -0.35553,-0.14469 -0.60772,-0.34313 -0.25218,-0.20257 -0.38447,-0.46715 -0.12816,-0.26459 -0.12816,-0.63252 0,-0.92605 0.81443,-1.47588 0.81855,-0.55397 2.23655,-0.55397 0.68213,0 1.28571,0.11162 0.60772,0.11162 1.0294,0.30179 l -0.30179,1.418 h -0.1695 q -0.32246,-0.29766 -0.85163,-0.4961 -0.52503,-0.20257 -1.14928,-0.20257 -0.61185,0 -0.94672,0.17777 -0.33486,0.17777 -0.33486,0.49196 0,0.14469 0.0496,0.23978 0.0496,0.0951 0.20257,0.18603 0.13229,0.0827 0.41755,0.18191 0.28525,0.0951 0.66972,0.19843 1.03353,0.27699 1.47588,0.64906 0.44235,0.37207 0.44235,1.00872 0,0.5333 -0.23978,0.93845 -0.23977,0.40514 -0.66145,0.65732 -0.44235,0.26872 -1.00459,0.39274 -0.56224,0.12403 -1.27331,0.12403 z"
           style="font-style:italic;font-variant:normal;font-weight:bold;font-stretch:normal;font-size:8.46667px;line-height:1.25;font-family:sans-serif;-inkscape-font-specification:'sans-serif Bold';fill:#ffffff;fill-opacity:1;stroke-width:0.264583"
           id="path924" />
        <path
           d="m 153.80405,277.42244 q 0.0124,-0.0744 0.0165,-0.13643 0.008,-0.062 0.008,-0.12815 0,-0.3266 -0.20258,-0.50023 -0.20257,-0.17363 -0.58291,-0.17363 -0.45888,0 -0.77308,0.24804 -0.31005,0.24805 -0.47128,0.6904 z m -1.13688,3.04271 q -1.18649,0 -1.83141,-0.52503 -0.64493,-0.52504 -0.64493,-1.45108 0,-0.63252 0.21084,-1.16169 0.21084,-0.52916 0.60772,-0.93017 0.38034,-0.38861 0.95085,-0.61598 0.5705,-0.22738 1.25263,-0.22738 1.03767,0 1.5627,0.42168 0.52917,0.41754 0.52917,1.2361 0,0.28112 -0.0579,0.54984 -0.0538,0.26871 -0.1447,0.5333 h -3.44785 q 0,0.0248 0,0.0496 0,0.0207 0,0.0455 0,0.48369 0.339,0.75655 0.339,0.27285 1.03766,0.27285 0.48783,0 0.92191,-0.16537 0.43822,-0.16536 0.76068,-0.36793 h 0.16536 l -0.27698,1.19476 q -0.43409,0.19017 -0.91364,0.28525 -0.47956,0.0992 -1.02113,0.0992 z"
           style="font-style:italic;font-variant:normal;font-weight:bold;font-stretch:normal;font-size:8.46667px;line-height:1.25;font-family:sans-serif;-inkscape-font-specification:'sans-serif Bold';fill:#ffffff;fill-opacity:1;stroke-width:0.264583"
           id="path926" />
        <path
           d="m 161.1049,276.74858 q 0,0.12402 -0.0165,0.26872 -0.0165,0.14469 -0.0537,0.30179 l -0.69453,3.02204 h -1.50482 l 0.52917,-2.30271 q 0.0579,-0.25631 0.0909,-0.43821 0.0331,-0.1819 0.0331,-0.339 0,-0.26872 -0.13642,-0.39274 -0.13643,-0.12403 -0.50023,-0.12403 -0.17777,0 -0.40928,0.0786 -0.23151,0.0744 -0.5209,0.22738 l -0.75654,3.29076 h -1.49655 l 1.07073,-4.64262 h 1.49655 l -0.11988,0.51263 q 0.45888,-0.30179 0.83509,-0.47129 0.38034,-0.16949 0.83509,-0.16949 0.62425,0 0.97152,0.30179 0.34726,0.30179 0.34726,0.87643 z"
           style="font-style:italic;font-variant:normal;font-weight:bold;font-stretch:normal;font-size:8.46667px;line-height:1.25;font-family:sans-serif;-inkscape-font-specification:'sans-serif Bold';fill:#ffffff;fill-opacity:1;stroke-width:0.264583"
           id="path928" />
        <path
           d="m 167.71536,273.90844 -1.48829,6.43269 h -1.49655 l 0.11163,-0.4837 q -0.21498,0.13643 -0.38034,0.24805 -0.16123,0.10749 -0.35967,0.19844 -0.18604,0.0827 -0.36794,0.12402 -0.17777,0.0413 -0.42995,0.0413 -0.67386,0 -1.079,-0.43821 -0.40101,-0.43822 -0.40101,-1.24437 0,-0.66146 0.21084,-1.24024 0.21497,-0.58291 0.58704,-1.02939 0.36381,-0.43408 0.8599,-0.6904 0.49609,-0.25631 1.03766,-0.25631 0.38034,0 0.66146,0.0785 0.28112,0.0744 0.57878,0.23565 l 0.45889,-1.97611 z m -2.16215,2.87321 q -0.11989,-0.0579 -0.31419,-0.10335 -0.1943,-0.0496 -0.34313,-0.0496 -0.35554,0 -0.64079,0.1571 -0.28525,0.15709 -0.48369,0.42994 -0.17777,0.24392 -0.28112,0.62426 -0.10335,0.3762 -0.10335,0.7276 0,0.41755 0.1943,0.60771 0.1943,0.19017 0.59118,0.19017 0.20257,0 0.42581,-0.091 0.22738,-0.091 0.42995,-0.21497 z"
           style="font-style:italic;font-variant:normal;font-weight:bold;font-stretch:normal;font-size:8.46667px;line-height:1.25;font-family:sans-serif;-inkscape-font-specification:'sans-serif Bold';fill:#ffffff;fill-opacity:1;stroke-width:0.264583"
           id="path930" />
        <path
           d="m 170.19583,275.69851 -1.07487,4.64262 h -1.49655 l 1.07487,-4.64262 z m 0.45475,-1.79007 -0.26045,1.12861 h -1.57923 l 0.26045,-1.12861 z"
           style="font-style:italic;font-variant:normal;font-weight:bold;font-stretch:normal;font-size:8.46667px;line-height:1.25;font-family:sans-serif;-inkscape-font-specification:'sans-serif Bold';fill:#ffffff;fill-opacity:1;stroke-width:0.264583"
           id="path932" />
        <path
           d="m 175.95465,276.74858 q 0,0.12402 -0.0165,0.26872 -0.0165,0.14469 -0.0537,0.30179 l -0.69453,3.02204 h -1.50482 l 0.52917,-2.30271 q 0.0579,-0.25631 0.0909,-0.43821 0.0331,-0.1819 0.0331,-0.339 0,-0.26872 -0.13643,-0.39274 -0.13642,-0.12403 -0.50023,-0.12403 -0.17776,0 -0.40927,0.0786 -0.23151,0.0744 -0.5209,0.22738 l -0.75654,3.29076 h -1.49655 l 1.07073,-4.64262 h 1.49655 l -0.11989,0.51263 q 0.45889,-0.30179 0.83509,-0.47129 0.38034,-0.16949 0.83509,-0.16949 0.62426,0 0.97152,0.30179 0.34727,0.30179 0.34727,0.87643 z"
           style="font-style:italic;font-variant:normal;font-weight:bold;font-stretch:normal;font-size:8.46667px;line-height:1.25;font-family:sans-serif;-inkscape-font-specification:'sans-serif Bold';fill:#ffffff;fill-opacity:1;stroke-width:0.264583"
           id="path934" />
        <path
           d="m 182.14756,275.69851 -0.93431,4.10931 q -0.15297,0.66146 -0.43409,1.09968 -0.28112,0.43822 -0.68212,0.69867 -0.41342,0.26871 -0.89711,0.3762 -0.48369,0.10749 -1.08727,0.10749 -0.50023,0 -0.95912,-0.062 -0.45888,-0.0579 -0.77308,-0.13642 l 0.22738,-1.14102 h 0.1819 q 0.34313,0.13229 0.69453,0.21084 0.3514,0.0786 0.62426,0.0786 0.39274,0 0.68212,-0.0744 0.28939,-0.0703 0.45476,-0.20671 0.17776,-0.14469 0.28112,-0.35553 0.10748,-0.21084 0.17363,-0.51677 l 0.0207,-0.0868 q -0.32246,0.2191 -0.64079,0.34726 -0.31832,0.12816 -0.71933,0.12816 -0.78135,0 -1.2237,-0.39274 -0.43822,-0.39274 -0.43822,-1.18649 0,-1.3684 0.77308,-2.24483 0.77308,-0.88056 1.87689,-0.88056 0.39688,0 0.71934,0.0951 0.32659,0.0951 0.52503,0.23978 l 0.10335,-0.20671 z m -1.7446,1.07487 q -0.11989,-0.0537 -0.31833,-0.0992 -0.1943,-0.0496 -0.34313,-0.0496 -0.66559,0 -1.07073,0.50023 -0.40515,0.50023 -0.40515,1.28571 0,0.35554 0.17363,0.55397 0.17364,0.19844 0.62426,0.19844 0.2191,0 0.44235,-0.0827 0.22737,-0.0868 0.42581,-0.20257 z"
           style="font-style:italic;font-variant:normal;font-weight:bold;font-stretch:normal;font-size:8.46667px;line-height:1.25;font-family:sans-serif;-inkscape-font-specification:'sans-serif Bold';fill:#ffffff;fill-opacity:1;stroke-width:0.264583"
           id="path936" />
        <path
           d="m 188.68773,278.15004 q -0.39688,0.0331 -0.74414,0.0786 -0.34727,0.0455 -0.59118,0.13229 -0.25218,0.0909 -0.38448,0.25632 -0.13229,0.16536 -0.13229,0.43822 0,0.23977 0.17364,0.33899 0.17776,0.0951 0.51263,0.0951 0.2191,0 0.46715,-0.0992 0.25218,-0.10335 0.47129,-0.26045 z m -0.39274,1.69913 q -0.14056,0.0909 -0.339,0.2191 -0.19844,0.12816 -0.36794,0.20258 -0.23151,0.0951 -0.43408,0.14469 -0.20257,0.0496 -0.56224,0.0496 -0.57878,0 -0.94671,-0.32246 -0.3638,-0.3266 -0.3638,-0.8475 0,-0.54983 0.26044,-0.93017 0.26045,-0.38447 0.77308,-0.61185 0.47956,-0.21498 1.14102,-0.31006 0.66559,-0.0951 1.43867,-0.14056 0.004,-0.0248 0.0165,-0.0786 0.0124,-0.0579 0.0124,-0.12816 0,-0.29352 -0.27285,-0.40927 -0.27285,-0.11989 -0.81442,-0.11989 -0.36794,0 -0.81442,0.12402 -0.44235,0.12402 -0.66559,0.20671 h -0.13643 l 0.21911,-1.09968 q 0.26045,-0.0661 0.80615,-0.14883 0.5457,-0.0827 1.08727,-0.0827 1.09141,0 1.59991,0.28526 0.51263,0.28525 0.51263,0.8847 0,0.0827 -0.0165,0.21497 -0.0124,0.13229 -0.0372,0.23151 l -0.7276,3.15847 h -1.48001 z"
           style="font-style:italic;font-variant:normal;font-weight:bold;font-stretch:normal;font-size:8.46667px;line-height:1.25;font-family:sans-serif;-inkscape-font-specification:'sans-serif Bold';fill:#ffffff;fill-opacity:1;stroke-width:0.264583"
           id="path938" />
        <path
           d="m 196.45987,276.74858 q 0,0.12402 -0.0165,0.26872 -0.0165,0.14469 -0.0537,0.30179 l -0.69453,3.02204 h -1.50482 l 0.52916,-2.30271 q 0.0579,-0.25631 0.0909,-0.43821 0.0331,-0.1819 0.0331,-0.339 0,-0.26872 -0.13643,-0.39274 -0.13642,-0.12403 -0.50023,-0.12403 -0.17776,0 -0.40927,0.0786 -0.23151,0.0744 -0.5209,0.22738 l -0.75655,3.29076 h -1.49655 l 1.07074,-4.64262 h 1.49655 l -0.11989,0.51263 q 0.45889,-0.30179 0.83509,-0.47129 0.38034,-0.16949 0.83509,-0.16949 0.62426,0 0.97152,0.30179 0.34727,0.30179 0.34727,0.87643 z"
           style="font-style:italic;font-variant:normal;font-weight:bold;font-stretch:normal;font-size:8.46667px;line-height:1.25;font-family:sans-serif;-inkscape-font-specification:'sans-serif Bold';fill:#ffffff;fill-opacity:1;stroke-width:0.264583"
           id="path940" />
        <path
           d="m 203.07032,273.90844 -1.48828,6.43269 h -1.49655 l 0.11162,-0.4837 q -0.21497,0.13643 -0.38034,0.24805 -0.16123,0.10749 -0.35967,0.19844 -0.18603,0.0827 -0.36793,0.12402 -0.17777,0.0413 -0.42995,0.0413 -0.67386,0 -1.07901,-0.43821 -0.401,-0.43822 -0.401,-1.24437 0,-0.66146 0.21084,-1.24024 0.21497,-0.58291 0.58704,-1.02939 0.3638,-0.43408 0.8599,-0.6904 0.49609,-0.25631 1.03766,-0.25631 0.38034,0 0.66146,0.0785 0.28112,0.0744 0.57877,0.23565 l 0.45889,-1.97611 z m -2.16214,2.87321 q -0.11989,-0.0579 -0.31419,-0.10335 -0.19431,-0.0496 -0.34314,-0.0496 -0.35553,0 -0.64078,0.1571 -0.28526,0.15709 -0.4837,0.42994 -0.17776,0.24392 -0.28112,0.62426 -0.10335,0.3762 -0.10335,0.7276 0,0.41755 0.1943,0.60771 0.19431,0.19017 0.59118,0.19017 0.20258,0 0.42582,-0.091 0.22737,-0.091 0.42995,-0.21497 z"
           style="font-style:italic;font-variant:normal;font-weight:bold;font-stretch:normal;font-size:8.46667px;line-height:1.25;font-family:sans-serif;-inkscape-font-specification:'sans-serif Bold';fill:#ffffff;fill-opacity:1;stroke-width:0.264583"
           id="path942" />
        <path
           d="m 212.13644,275.73572 q 0,0.74001 -0.45062,1.24437 -0.45062,0.50436 -1.2237,0.76068 l 1.42214,2.60036 h -1.77354 l -1.15755,-2.25723 h -0.89297 l -0.5209,2.25723 h -1.5875 l 1.42213,-6.1557 h 2.40193 q 1.12861,0 1.74459,0.38447 0.61599,0.38034 0.61599,1.16582 z m -1.71153,0.26458 q 0,-0.37207 -0.23978,-0.52503 -0.23564,-0.1571 -0.69866,-0.1571 h -0.78548 l -0.38448,1.65778 h 0.78135 q 0.63252,0 0.97979,-0.25631 0.34726,-0.26045 0.34726,-0.71934 z"
           style="font-style:italic;font-variant:normal;font-weight:bold;font-stretch:normal;font-size:8.46667px;line-height:1.25;font-family:sans-serif;-inkscape-font-specification:'sans-serif Bold';fill:#ffffff;fill-opacity:1;stroke-width:0.264583"
           id="path944" />
        <path
           d="m 216.26228,277.42244 q 0.0124,-0.0744 0.0165,-0.13643 0.008,-0.062 0.008,-0.12815 0,-0.3266 -0.20258,-0.50023 -0.20257,-0.17363 -0.58291,-0.17363 -0.45888,0 -0.77308,0.24804 -0.31006,0.24805 -0.47129,0.6904 z m -1.13688,3.04271 q -1.18649,0 -1.83141,-0.52503 -0.64493,-0.52504 -0.64493,-1.45108 0,-0.63252 0.21084,-1.16169 0.21084,-0.52916 0.60772,-0.93017 0.38034,-0.38861 0.95084,-0.61598 0.57051,-0.22738 1.25264,-0.22738 1.03767,0 1.5627,0.42168 0.52917,0.41754 0.52917,1.2361 0,0.28112 -0.0579,0.54984 -0.0538,0.26871 -0.1447,0.5333 h -3.44785 q 0,0.0248 0,0.0496 0,0.0207 0,0.0455 0,0.48369 0.339,0.75655 0.339,0.27285 1.03766,0.27285 0.48783,0 0.92191,-0.16537 0.43822,-0.16536 0.76068,-0.36793 h 0.16536 l -0.27698,1.19476 q -0.43409,0.19017 -0.91364,0.28525 -0.47956,0.0992 -1.02113,0.0992 z"
           style="font-style:italic;font-variant:normal;font-weight:bold;font-stretch:normal;font-size:8.46667px;line-height:1.25;font-family:sans-serif;-inkscape-font-specification:'sans-serif Bold';fill:#ffffff;fill-opacity:1;stroke-width:0.264583"
           id="path946" />
        <path
           d="m 220.52455,280.46515 q -0.47543,0 -0.89297,-0.11989 -0.41341,-0.11576 -0.72347,-0.3638 -0.30179,-0.24392 -0.47129,-0.61185 -0.1695,-0.36794 -0.1695,-0.85163 0,-0.62425 0.23564,-1.15755 0.23978,-0.53744 0.66973,-0.93845 0.42168,-0.39274 1.0294,-0.62011 0.60771,-0.23151 1.31465,-0.23151 0.42581,0 0.84335,0.0951 0.42168,0.0951 0.78135,0.27699 l -0.31419,1.26917 h -0.21084 q -0.24391,-0.29352 -0.55397,-0.43408 -0.30593,-0.1447 -0.6904,-0.1447 -0.7028,0 -1.12861,0.50023 -0.42582,0.4961 -0.42582,1.24024 0,0.51676 0.26045,0.77308 0.26459,0.25631 0.81856,0.25631 0.42995,0 0.78135,-0.17363 0.35553,-0.17777 0.60771,-0.39274 h 0.21084 l -0.31419,1.26917 q -0.44649,0.1943 -0.78548,0.27699 -0.33487,0.0827 -0.8723,0.0827 z"
           style="font-style:italic;font-variant:normal;font-weight:bold;font-stretch:normal;font-size:8.46667px;line-height:1.25;font-family:sans-serif;-inkscape-font-specification:'sans-serif Bold';fill:#ffffff;fill-opacity:1;stroke-width:0.264583"
           id="path948" />
        <path
           d="m 226.86215,277.42244 q 0.0124,-0.0744 0.0165,-0.13643 0.008,-0.062 0.008,-0.12815 0,-0.3266 -0.20257,-0.50023 -0.20257,-0.17363 -0.58291,-0.17363 -0.45888,0 -0.77308,0.24804 -0.31006,0.24805 -0.47129,0.6904 z m -1.13688,3.04271 q -1.18649,0 -1.83142,-0.52503 -0.64492,-0.52504 -0.64492,-1.45108 0,-0.63252 0.21084,-1.16169 0.21084,-0.52916 0.60772,-0.93017 0.38034,-0.38861 0.95084,-0.61598 0.57051,-0.22738 1.25264,-0.22738 1.03766,0 1.5627,0.42168 0.52916,0.41754 0.52916,1.2361 0,0.28112 -0.0579,0.54984 -0.0538,0.26871 -0.1447,0.5333 h -3.44785 q 0,0.0248 0,0.0496 0,0.0207 0,0.0455 0,0.48369 0.339,0.75655 0.33899,0.27285 1.03766,0.27285 0.48783,0 0.92191,-0.16537 0.43821,-0.16536 0.76068,-0.36793 h 0.16536 L 227.66,280.0807 q -0.43408,0.19017 -0.91364,0.28525 -0.47955,0.0992 -1.02112,0.0992 z"
           style="font-style:italic;font-variant:normal;font-weight:bold;font-stretch:normal;font-size:8.46667px;line-height:1.25;font-family:sans-serif;-inkscape-font-specification:'sans-serif Bold';fill:#ffffff;fill-opacity:1;stroke-width:0.264583"
           id="path950" />
        <path
           d="m 231.29806,275.69851 -1.07487,4.64262 h -1.49655 l 1.07487,-4.64262 z m 0.45476,-1.79007 -0.26045,1.12861 h -1.57923 l 0.26044,-1.12861 z"
           style="font-style:italic;font-variant:normal;font-weight:bold;font-stretch:normal;font-size:8.46667px;line-height:1.25;font-family:sans-serif;-inkscape-font-specification:'sans-serif Bold';fill:#ffffff;fill-opacity:1;stroke-width:0.264583"
           id="path952" />
        <path
           d="m 237.32147,275.69851 -2.86495,4.64262 h -1.69498 l -0.7028,-4.64262 h 1.53375 l 0.339,3.19567 1.79007,-3.19567 z"
           style="font-style:italic;font-variant:normal;font-weight:bold;font-stretch:normal;font-size:8.46667px;line-height:1.25;font-family:sans-serif;-inkscape-font-specification:'sans-serif Bold';fill:#ffffff;fill-opacity:1;stroke-width:0.264583"
           id="path954" />
        <path
           d="m 239.68205,275.69851 -1.07487,4.64262 h -1.49655 l 1.07487,-4.64262 z m 0.45475,-1.79007 -0.26044,1.12861 h -1.57924 l 0.26045,-1.12861 z"
           style="font-style:italic;font-variant:normal;font-weight:bold;font-stretch:normal;font-size:8.46667px;line-height:1.25;font-family:sans-serif;-inkscape-font-specification:'sans-serif Bold';fill:#ffffff;fill-opacity:1;stroke-width:0.264583"
           id="path956" />
        <path
           d="m 245.44087,276.74858 q 0,0.12402 -0.0165,0.26872 -0.0165,0.14469 -0.0537,0.30179 l -0.69453,3.02204 h -1.50482 l 0.52917,-2.30271 q 0.0579,-0.25631 0.0909,-0.43821 0.0331,-0.1819 0.0331,-0.339 0,-0.26872 -0.13643,-0.39274 -0.13642,-0.12403 -0.50022,-0.12403 -0.17777,0 -0.40928,0.0786 -0.23151,0.0744 -0.5209,0.22738 l -0.75654,3.29076 h -1.49655 l 1.07073,-4.64262 h 1.49655 l -0.11989,0.51263 q 0.45889,-0.30179 0.83509,-0.47129 0.38034,-0.16949 0.8351,-0.16949 0.62425,0 0.97151,0.30179 0.34727,0.30179 0.34727,0.87643 z"
           style="font-style:italic;font-variant:normal;font-weight:bold;font-stretch:normal;font-size:8.46667px;line-height:1.25;font-family:sans-serif;-inkscape-font-specification:'sans-serif Bold';fill:#ffffff;fill-opacity:1;stroke-width:0.264583"
           id="path958" />
        <path
           d="m 251.63378,275.69851 -0.93431,4.10931 q -0.15296,0.66146 -0.43408,1.09968 -0.28112,0.43822 -0.68213,0.69867 -0.41342,0.26871 -0.89711,0.3762 -0.48369,0.10749 -1.08727,0.10749 -0.50023,0 -0.95911,-0.062 -0.45889,-0.0579 -0.77308,-0.13642 l 0.22737,-1.14102 h 0.1819 q 0.34314,0.13229 0.69454,0.21084 0.35139,0.0786 0.62425,0.0786 0.39274,0 0.68213,-0.0744 0.28938,-0.0703 0.45475,-0.20671 0.17777,-0.14469 0.28112,-0.35553 0.10749,-0.21084 0.17363,-0.51677 l 0.0207,-0.0868 q -0.32246,0.2191 -0.64079,0.34726 -0.31832,0.12816 -0.71933,0.12816 -0.78135,0 -1.2237,-0.39274 -0.43822,-0.39274 -0.43822,-1.18649 0,-1.3684 0.77308,-2.24483 0.77308,-0.88056 1.87689,-0.88056 0.39688,0 0.71934,0.0951 0.32659,0.0951 0.52503,0.23978 l 0.10335,-0.20671 z m -1.7446,1.07487 q -0.11989,-0.0537 -0.31833,-0.0992 -0.1943,-0.0496 -0.34313,-0.0496 -0.66559,0 -1.07073,0.50023 -0.40515,0.50023 -0.40515,1.28571 0,0.35554 0.17364,0.55397 0.17363,0.19844 0.62425,0.19844 0.21911,0 0.44235,-0.0827 0.22737,-0.0868 0.42581,-0.20257 z"
           style="font-style:italic;font-variant:normal;font-weight:bold;font-stretch:normal;font-size:8.46667px;line-height:1.25;font-family:sans-serif;-inkscape-font-specification:'sans-serif Bold';fill:#ffffff;fill-opacity:1;stroke-width:0.264583"
           id="path960" />
        <path
           d="m 261.56392,276.58735 q 0,1.04593 -0.54983,1.93063 -0.54984,0.8847 -1.40974,1.35599 -0.5209,0.28112 -1.08727,0.3762 -0.56637,0.091 -1.35599,0.091 h -2.22829 l 1.42214,-6.1557 h 1.99264 q 0.88057,0 1.418,0.13642 0.53744,0.13643 0.86817,0.36794 0.45475,0.31419 0.6904,0.78548 0.23977,0.46716 0.23977,1.11208 z m -1.66191,0.14469 q 0,-0.42168 -0.1571,-0.72347 -0.15709,-0.30592 -0.47955,-0.49196 -0.14883,-0.0827 -0.30593,-0.12402 -0.15296,-0.0455 -0.3514,-0.0661 -0.19017,-0.0165 -0.43408,-0.0165 -0.24391,0 -0.42582,0 h -0.0537 l -0.9095,3.9026 h 0.14469 q 0.23978,0 0.51263,0 0.27285,0 0.44235,-0.0207 0.21911,-0.0207 0.39274,-0.0661 0.17777,-0.0455 0.38861,-0.15297 0.59531,-0.30592 0.91364,-0.91364 0.32246,-0.60771 0.32246,-1.32705 z"
           style="font-style:italic;font-variant:normal;font-weight:bold;font-stretch:normal;font-size:8.46667px;line-height:1.25;font-family:sans-serif;-inkscape-font-specification:'sans-serif Bold';fill:#ffffff;fill-opacity:1;stroke-width:0.264583"
           id="path962" />
        <path
           d="m 265.20195,278.15004 q -0.39688,0.0331 -0.74414,0.0786 -0.34727,0.0455 -0.59118,0.13229 -0.25218,0.0909 -0.38447,0.25632 -0.1323,0.16536 -0.1323,0.43822 0,0.23977 0.17364,0.33899 0.17776,0.0951 0.51263,0.0951 0.21911,0 0.46715,-0.0992 0.25218,-0.10335 0.47129,-0.26045 z m -0.39274,1.69913 q -0.14056,0.0909 -0.339,0.2191 -0.19844,0.12816 -0.36794,0.20258 -0.23151,0.0951 -0.43408,0.14469 -0.20257,0.0496 -0.56224,0.0496 -0.57877,0 -0.94671,-0.32246 -0.3638,-0.3266 -0.3638,-0.8475 0,-0.54983 0.26045,-0.93017 0.26045,-0.38447 0.77308,-0.61185 0.47955,-0.21498 1.14101,-0.31006 0.66559,-0.0951 1.43867,-0.14056 0.004,-0.0248 0.0165,-0.0786 0.0124,-0.0579 0.0124,-0.12816 0,-0.29352 -0.27285,-0.40927 -0.27285,-0.11989 -0.81442,-0.11989 -0.36794,0 -0.81442,0.12402 -0.44235,0.12402 -0.66559,0.20671 h -0.13643 l 0.21911,-1.09968 q 0.26045,-0.0661 0.80615,-0.14883 0.54571,-0.0827 1.08727,-0.0827 1.09141,0 1.59991,0.28526 0.51263,0.28525 0.51263,0.8847 0,0.0827 -0.0165,0.21497 -0.0124,0.13229 -0.0372,0.23151 l -0.7276,3.15847 h -1.48001 z"
           style="font-style:italic;font-variant:normal;font-weight:bold;font-stretch:normal;font-size:8.46667px;line-height:1.25;font-family:sans-serif;-inkscape-font-specification:'sans-serif Bold';fill:#ffffff;fill-opacity:1;stroke-width:0.264583"
           id="path964" />
        <path
           d="m 269.31953,280.43208 q -0.77308,0 -1.10381,-0.25219 -0.33073,-0.25631 -0.33073,-0.75654 0,-0.13229 0.0207,-0.25631 0.0207,-0.12403 0.0537,-0.28939 l 0.50437,-2.19935 h -0.61185 l 0.22737,-0.97979 h 0.61185 l 0.30593,-1.32705 h 1.49241 l -0.30592,1.32705 h 1.39733 l -0.22738,0.97979 h -1.39733 l -0.38447,1.67432 q -0.0413,0.17363 -0.0786,0.3514 -0.0372,0.17363 -0.0372,0.29765 0,0.24805 0.13643,0.34727 0.14056,0.0951 0.42995,0.0951 0.11575,0 0.30179,-0.0413 0.19017,-0.0455 0.30179,-0.0992 h 0.12402 l -0.23151,0.99632 q -0.25218,0.062 -0.5333,0.0951 -0.27698,0.0372 -0.66559,0.0372 z"
           style="font-style:italic;font-variant:normal;font-weight:bold;font-stretch:normal;font-size:8.46667px;line-height:1.25;font-family:sans-serif;-inkscape-font-specification:'sans-serif Bold';fill:#ffffff;fill-opacity:1;stroke-width:0.264583"
           id="path966" />
        <path
           d="m 274.71042,278.15004 q -0.39688,0.0331 -0.74414,0.0786 -0.34727,0.0455 -0.59118,0.13229 -0.25218,0.0909 -0.38448,0.25632 -0.13229,0.16536 -0.13229,0.43822 0,0.23977 0.17364,0.33899 0.17776,0.0951 0.51263,0.0951 0.2191,0 0.46715,-0.0992 0.25218,-0.10335 0.47129,-0.26045 z m -0.39274,1.69913 q -0.14056,0.0909 -0.339,0.2191 -0.19844,0.12816 -0.36794,0.20258 -0.23151,0.0951 -0.43408,0.14469 -0.20257,0.0496 -0.56224,0.0496 -0.57878,0 -0.94671,-0.32246 -0.3638,-0.3266 -0.3638,-0.8475 0,-0.54983 0.26044,-0.93017 0.26045,-0.38447 0.77308,-0.61185 0.47956,-0.21498 1.14102,-0.31006 0.66559,-0.0951 1.43867,-0.14056 0.004,-0.0248 0.0165,-0.0786 0.0124,-0.0579 0.0124,-0.12816 0,-0.29352 -0.27285,-0.40927 -0.27285,-0.11989 -0.81442,-0.11989 -0.36794,0 -0.81442,0.12402 -0.44235,0.12402 -0.66559,0.20671 h -0.13643 l 0.21911,-1.09968 q 0.26045,-0.0661 0.80615,-0.14883 0.5457,-0.0827 1.08727,-0.0827 1.09141,0 1.59991,0.28526 0.51263,0.28525 0.51263,0.8847 0,0.0827 -0.0165,0.21497 -0.0124,0.13229 -0.0372,0.23151 l -0.7276,3.15847 h -1.48002 z"
           style="font-style:italic;font-variant:normal;font-weight:bold;font-stretch:normal;font-size:8.46667px;line-height:1.25;font-family:sans-serif;-inkscape-font-specification:'sans-serif Bold';fill:#ffffff;fill-opacity:1;stroke-width:0.264583"
           id="path968" />
      </g>
    </g>
  </g>
</svg>
