<?xml version="1.0" encoding="UTF-8" standalone="no"?>
<svg
   xmlns:osb="http://www.openswatchbook.org/uri/2009/osb"
   xmlns:dc="http://purl.org/dc/elements/1.1/"
   xmlns:cc="http://creativecommons.org/ns#"
   xmlns:rdf="http://www.w3.org/1999/02/22-rdf-syntax-ns#"
   xmlns:svg="http://www.w3.org/2000/svg"
   xmlns="http://www.w3.org/2000/svg"
   xmlns:xlink="http://www.w3.org/1999/xlink"
   xmlns:sodipodi="http://sodipodi.sourceforge.net/DTD/sodipodi-0.dtd"
   xmlns:inkscape="http://www.inkscape.org/namespaces/inkscape"
   width="1100"
   height="139.9561"
   viewBox="0 0 291.04166 37.030054"
   version="1.1"
   id="svg8"
   inkscape:version="1.0 (4035a4fb49, 2020-05-01)"
   sodipodi:docname="next_secondary.svg">
  <defs
     id="defs2">
    <marker
       inkscape:isstock="true"
       style="overflow:visible"
       id="marker16193"
       refX="0"
       refY="0"
       orient="auto"
       inkscape:stockid="TriangleOutM">
      <path
         transform="scale(0.4)"
         style="fill:#000000;fill-opacity:1;fill-rule:evenodd;stroke:#000000;stroke-width:1pt;stroke-opacity:1"
         d="M 5.77,0 -2.88,5 V -5 Z"
         id="path16191"
         inkscape:connector-curvature="0" />
    </marker>
    <inkscape:path-effect
       lpeversion="0"
       effect="spiro"
       id="path-effect16183"
       is_visible="true" />
    <inkscape:path-effect
       lpeversion="0"
       effect="spiro"
       id="path-effect11801"
       is_visible="true" />
    <inkscape:path-effect
       lpeversion="0"
       effect="spiro"
       id="path-effect11523"
       is_visible="true" />
    <marker
       inkscape:stockid="TriangleInM"
       orient="auto"
       refY="0"
       refX="0"
       id="TriangleInM"
       style="overflow:visible"
       inkscape:isstock="true">
      <path
         id="path9461"
         d="M 5.77,0 -2.88,5 V -5 Z"
         style="fill:#000000;fill-opacity:1;fill-rule:evenodd;stroke:#000000;stroke-width:1pt;stroke-opacity:1"
         transform="scale(-0.4)"
         inkscape:connector-curvature="0" />
    </marker>
    <inkscape:path-effect
       lpeversion="0"
       effect="spiro"
       id="path-effect9987"
       is_visible="true" />
    <inkscape:path-effect
       lpeversion="0"
       effect="spiro"
       id="path-effect9983"
       is_visible="true" />
    <inkscape:path-effect
       lpeversion="0"
       effect="spiro"
       id="path-effect9979"
       is_visible="true" />
    <inkscape:path-effect
       lpeversion="0"
       effect="spiro"
       id="path-effect9975"
       is_visible="true" />
    <inkscape:path-effect
       lpeversion="0"
       effect="spiro"
       id="path-effect9971"
       is_visible="true" />
    <inkscape:path-effect
       lpeversion="0"
       effect="spiro"
       id="path-effect9967"
       is_visible="true" />
    <inkscape:path-effect
       lpeversion="0"
       effect="spiro"
       id="path-effect9963"
       is_visible="true" />
    <inkscape:path-effect
       lpeversion="0"
       effect="spiro"
       id="path-effect9959"
       is_visible="true" />
    <inkscape:path-effect
       lpeversion="0"
       effect="spiro"
       id="path-effect9955"
       is_visible="true" />
    <marker
       inkscape:stockid="Arrow1Lstart"
       orient="auto"
       refY="0"
       refX="0"
       id="marker9603"
       style="overflow:visible"
       inkscape:isstock="true">
      <path
         id="path9601"
         d="M 0,0 5,-5 -12.5,0 5,5 Z"
         style="fill:#000000;fill-opacity:1;fill-rule:evenodd;stroke:#000000;stroke-width:1pt;stroke-opacity:1"
         transform="matrix(0.8,0,0,0.8,10,0)"
         inkscape:connector-curvature="0" />
    </marker>
    <marker
       inkscape:stockid="Arrow1Lstart"
       orient="auto"
       refY="0"
       refX="0"
       id="Arrow1Lstart"
       style="overflow:visible"
       inkscape:isstock="true">
      <path
         id="path9325"
         d="M 0,0 5,-5 -12.5,0 5,5 Z"
         style="fill:#000000;fill-opacity:1;fill-rule:evenodd;stroke:#000000;stroke-width:1pt;stroke-opacity:1"
         transform="matrix(0.8,0,0,0.8,10,0)"
         inkscape:connector-curvature="0" />
    </marker>
    <pattern
       inkscape:collect="always"
       xlink:href="#Strips1_1"
       id="pattern9280"
       patternTransform="matrix(37.795276,0,0,37.795276,-422.71207,-175.80531)" />
    <pattern
       inkscape:isstock="true"
       inkscape:stockid="Stripes 1:1"
       id="Strips1_1"
       patternTransform="translate(0,0) scale(10,10)"
       height="1"
       width="2"
       patternUnits="userSpaceOnUse"
       inkscape:collect="always">
      <rect
         id="rect8437"
         height="2"
         width="1"
         y="-0.5"
         x="0"
         style="fill:black;stroke:none" />
    </pattern>
    <linearGradient
       id="linearGradient9263"
       osb:paint="solid">
      <stop
         style="stop-color:#ffd53a;stop-opacity:1;"
         offset="0"
         id="stop9261" />
    </linearGradient>
    <pattern
       inkscape:collect="always"
       xlink:href="#Strips1_1white"
       id="pattern9231"
       patternTransform="matrix(37.795276,0,0,37.795276,-422.71206,-175.80532)" />
    <pattern
       inkscape:isstock="true"
       inkscape:stockid="Stripes 1:1 white"
       id="Strips1_1white"
       patternTransform="translate(0,0) scale(10,10)"
       height="1"
       width="2"
       patternUnits="userSpaceOnUse"
       inkscape:collect="always">
      <rect
         id="rect8440"
         height="2"
         width="1"
         y="-0.5"
         x="0"
         style="fill:white;stroke:none" />
    </pattern>
    <style
       id="style4565">.cls-1{fill:#231f20;}</style>
    <style
       id="style4626">.cls-1{fill:#666;}.cls-2{fill:#fff;}.cls-3{fill:none;stroke:#f68d1e;stroke-miterlimit:10;stroke-width:0.56px;}.cls-4{fill:#808184;}</style>
    <clipPath
       id="clipPath4987"
       clipPathUnits="userSpaceOnUse">
      <path
         inkscape:connector-curvature="0"
         id="path4985"
         d="M 0,551.986 H 530.973 V 0 H 0 Z" />
    </clipPath>
    <clipPath
       id="clipPath4987-2"
       clipPathUnits="userSpaceOnUse">
      <path
         inkscape:connector-curvature="0"
         id="path4985-1"
         d="M 0,551.986 H 530.973 V 0 H 0 Z" />
    </clipPath>
    <style
       id="style7170">.cls-1{fill:#808184;}.cls-2{fill:#fff;}</style>
    <pattern
       patternUnits="userSpaceOnUse"
       width="98.697779"
       height="10.928571"
       patternTransform="matrix(0.26458333,0,0,0.26458333,111.84257,46.515157)"
       id="pattern9228">
      <rect
         y="1.2113879"
         x="1.2113879"
         height="8.5057955"
         width="96.275002"
         id="rect7719"
         style="fill:url(#pattern9231);fill-opacity:1;fill-rule:nonzero;stroke:#0a0b0f;stroke-width:2.42277575;stroke-miterlimit:4;stroke-dasharray:none;stroke-opacity:1" />
    </pattern>
    <pattern
       patternUnits="userSpaceOnUse"
       width="98.697776"
       height="10.928571"
       patternTransform="matrix(0.26458333,0,0,0.26458333,111.84257,46.515156)"
       id="pattern9277">
      <rect
         id="rect9233"
         y="-2.8421709e-14"
         x="0"
         height="10.928571"
         width="98.697777"
         style="fill:url(#pattern9280);fill-opacity:1;stroke:none;stroke-width:3.77952766" />
    </pattern>
    <pattern
       patternUnits="userSpaceOnUse"
       width="98.697776"
       height="10.928571"
       patternTransform="matrix(0.26458333,0,0,0.26458333,111.84257,46.515156)"
       id="pattern9277-3">
      <rect
         id="rect9233-7"
         y="-2.8421709e-14"
         x="0"
         height="10.928571"
         width="98.697777"
         style="fill:url(#pattern9280-7);fill-opacity:1;stroke:none;stroke-width:3.77952766" />
    </pattern>
    <pattern
       inkscape:collect="always"
       xlink:href="#Strips1_1-5"
       id="pattern9280-7"
       patternTransform="matrix(37.795276,0,0,37.795276,-422.71207,-175.80531)" />
    <pattern
       inkscape:isstock="true"
       inkscape:stockid="Stripes 1:1"
       id="Strips1_1-5"
       patternTransform="translate(0,0) scale(10,10)"
       height="1"
       width="2"
       patternUnits="userSpaceOnUse"
       inkscape:collect="always">
      <rect
         id="rect8437-6"
         height="2"
         width="1"
         y="-0.5"
         x="0"
         style="fill:black;stroke:none" />
    </pattern>
  </defs>
  <sodipodi:namedview
     id="base"
     pagecolor="#ffffff"
     bordercolor="#666666"
     borderopacity="1.0"
     inkscape:pageopacity="0.0"
     inkscape:pageshadow="2"
     inkscape:zoom="0.7"
     inkscape:cx="457.0196"
     inkscape:cy="177.35364"
     inkscape:document-units="mm"
     inkscape:current-layer="layer1"
     showgrid="false"
     units="px"
     inkscape:snap-global="true"
     inkscape:snap-page="true"
     inkscape:window-width="1920"
     inkscape:window-height="1137"
     inkscape:window-x="-8"
     inkscape:window-y="-8"
     inkscape:window-maximized="1"
     fit-margin-top="0"
     fit-margin-left="0"
     fit-margin-right="0"
     fit-margin-bottom="0"
     inkscape:document-rotation="0" />
  <metadata
     id="metadata5">
    <rdf:RDF>
      <cc:Work
         rdf:about="">
        <dc:format>image/svg+xml</dc:format>
        <dc:type
           rdf:resource="http://purl.org/dc/dcmitype/StillImage" />
        <dc:title></dc:title>
      </cc:Work>
    </rdf:RDF>
  </metadata>
  <g
     inkscape:label="Layer 1"
     inkscape:groupmode="layer"
     id="layer1"
     transform="translate(18.758024,-252.02661)">
    <rect
       style="opacity:0.97;fill:#1d9ce4;fill-opacity:1;stroke:#1d9ce4;stroke-width:1;stroke-linecap:butt;stroke-linejoin:round;stroke-miterlimit:4;stroke-dasharray:none;stroke-dashoffset:0;stroke-opacity:0.972549;paint-order:normal"
       id="rect817"
       width="278.34521"
       height="36.030052"
       x="-12.409798"
       y="252.57567"
       ry="1.4827397"
       rx="1.7103499" />
    <g
       style="font-style:normal;font-weight:normal;font-size:9.87778px;line-height:1.25;font-family:sans-serif;letter-spacing:0px;word-spacing:0px;fill:#000000;fill-opacity:1;stroke:none;stroke-width:0.264583"
       id="text827"
       aria-label="Learn More">
      <path
         id="path905"
         style="font-style:normal;font-variant:normal;font-weight:bold;font-stretch:normal;font-size:11.2889px;line-height:1.25;font-family:sans-serif;-inkscape-font-specification:'sans-serif Bold';fill:#ffffff;fill-opacity:1;stroke-width:0.264583"
         d="m 97.774375,267.86475 h -5.920058 v -8.20761 h 2.116669 v 6.6201 h 3.803389 z" />
      <path
         id="path907"
         style="font-style:normal;font-variant:normal;font-weight:bold;font-stretch:normal;font-size:11.2889px;line-height:1.25;font-family:sans-serif;-inkscape-font-specification:'sans-serif Bold';fill:#ffffff;fill-opacity:1;stroke-width:0.264583"
         d="m 105.02838,265.13623 h -4.54202 q 0.0441,0.7276 0.55121,1.11345 0.51263,0.38585 1.50482,0.38585 0.62839,0 1.21819,-0.22599 0.5898,-0.226 0.93155,-0.48507 h 0.22049 v 1.59301 q -0.67248,0.2701 -1.2678,0.39136 -0.59531,0.12127 -1.3174,0.12127 -1.86311,0 -2.8553,-0.83785 -0.992188,-0.83785 -0.992188,-2.38676 0,-1.53238 0.937066,-2.42535 0.942582,-0.89848 2.579692,-0.89848 1.51033,0 2.27101,0.76619 0.76068,0.76067 0.76068,2.19384 z m -1.97336,-1.16307 q -0.0165,-0.62287 -0.30868,-0.93706 -0.29214,-0.3142 -0.9095,-0.3142 -0.57327,0 -0.94258,0.29766 -0.36932,0.29766 -0.41341,0.9536 z" />
      <path
         id="path909"
         style="font-style:normal;font-variant:normal;font-weight:bold;font-stretch:normal;font-size:11.2889px;line-height:1.25;font-family:sans-serif;-inkscape-font-specification:'sans-serif Bold';fill:#ffffff;fill-opacity:1;stroke-width:0.264583"
         d="m 110.17673,266.24968 v -1.28984 q -0.40239,0.0331 -0.87092,0.0937 -0.46853,0.0551 -0.71107,0.13229 -0.29765,0.0937 -0.45751,0.27561 -0.15434,0.17638 -0.15434,0.46853 0,0.19292 0.0331,0.31419 0.0331,0.12127 0.16536,0.23151 0.12678,0.11025 0.30317,0.16537 0.17639,0.0496 0.55121,0.0496 0.29766,0 0.60083,-0.12127 0.30868,-0.12127 0.54019,-0.31971 z m 0,0.95912 q -0.15985,0.12127 -0.39687,0.29214 -0.23703,0.17088 -0.44649,0.2701 -0.29214,0.13229 -0.60634,0.19292 -0.31419,0.0661 -0.68902,0.0661 -0.88194,0 -1.47725,-0.5457 -0.59532,-0.54571 -0.59532,-1.39458 0,-0.67799 0.30317,-1.10794 0.30317,-0.42995 0.8599,-0.678 0.55121,-0.24805 1.36701,-0.35278 0.8158,-0.10473 1.69224,-0.15434 v -0.0331 q 0,-0.51263 -0.41893,-0.70556 -0.41892,-0.19843 -1.23472,-0.19843 -0.49058,0 -1.04731,0.17639 -0.55673,0.17087 -0.79926,0.26458 h -0.18191 v -1.4938 q 0.3142,-0.0827 1.01975,-0.19292 0.71107,-0.11576 1.42214,-0.11576 1.69223,0 2.44189,0.52366 0.75516,0.51814 0.75516,1.6316 v 4.21129 h -1.96784 z" />
      <path
         id="path911"
         style="font-style:normal;font-variant:normal;font-weight:bold;font-stretch:normal;font-size:11.2889px;line-height:1.25;font-family:sans-serif;-inkscape-font-specification:'sans-serif Bold';fill:#ffffff;fill-opacity:1;stroke-width:0.264583"
         d="m 118.45599,263.56526 h -0.17639 q -0.12677,-0.0441 -0.40789,-0.0661 -0.28112,-0.022 -0.46854,-0.022 -0.42443,0 -0.74965,0.0551 -0.32522,0.0551 -0.70005,0.18741 v 4.14515 h -1.98437 v -6.19016 h 1.98437 v 0.90951 q 0.65595,-0.56224 1.14102,-0.74414 0.48507,-0.18742 0.89297,-0.18742 0.10473,0 0.23702,0.006 0.1323,0.006 0.23151,0.0165 z" />
      <path
         id="path913"
         style="font-style:normal;font-variant:normal;font-weight:bold;font-stretch:normal;font-size:11.2889px;line-height:1.25;font-family:sans-serif;-inkscape-font-specification:'sans-serif Bold';fill:#ffffff;fill-opacity:1;stroke-width:0.264583"
         d="m 125.80921,267.86475 h -1.9954 v -3.07028 q 0,-0.37482 -0.0386,-0.74414 -0.0386,-0.37482 -0.1323,-0.55121 -0.11024,-0.20395 -0.32521,-0.29766 -0.20947,-0.0937 -0.5898,-0.0937 -0.2701,0 -0.55122,0.0882 -0.27561,0.0882 -0.60083,0.28112 v 4.38768 h -1.98437 v -6.19016 h 1.98437 v 0.68351 q 0.52917,-0.41341 1.01424,-0.6339 0.49058,-0.22048 1.0859,-0.22048 1.00321,0 1.56545,0.58428 0.56775,0.58429 0.56775,1.74736 z" />
      <path
         id="path915"
         style="font-style:normal;font-variant:normal;font-weight:bold;font-stretch:normal;font-size:11.2889px;line-height:1.25;font-family:sans-serif;-inkscape-font-specification:'sans-serif Bold';fill:#ffffff;fill-opacity:1;stroke-width:0.264583"
         d="m 140.21248,267.86475 h -2.10564 v -5.49563 l -1.52136,3.56637 h -1.46072 l -1.52136,-3.56637 v 5.49563 h -1.9954 v -8.20761 h 2.45842 l 1.84658,4.11758 1.84106,-4.11758 h 2.45842 z" />
      <path
         id="path917"
         style="font-style:normal;font-variant:normal;font-weight:bold;font-stretch:normal;font-size:11.2889px;line-height:1.25;font-family:sans-serif;-inkscape-font-specification:'sans-serif Bold';fill:#ffffff;fill-opacity:1;stroke-width:0.264583"
         d="m 148.5193,264.77243 q 0,1.52686 -0.89296,2.40881 -0.88746,0.87643 -2.49701,0.87643 -1.60955,0 -2.50252,-0.87643 -0.88746,-0.88195 -0.88746,-2.40881 0,-1.5379 0.89297,-2.41433 0.89848,-0.87643 2.49701,-0.87643 1.62057,0 2.50252,0.88194 0.88745,0.88195 0.88745,2.40882 z m -2.44188,1.50481 q 0.19292,-0.23702 0.28663,-0.56775 0.0992,-0.33624 0.0992,-0.92604 0,-0.5457 -0.0992,-0.91502 -0.0992,-0.36931 -0.27561,-0.5898 -0.17639,-0.226 -0.42443,-0.3197 -0.24805,-0.0937 -0.53468,-0.0937 -0.28663,0 -0.51263,0.0772 -0.22049,0.0772 -0.42444,0.30868 -0.1819,0.21497 -0.29214,0.5898 -0.10473,0.37483 -0.10473,0.94258 0,0.50712 0.0937,0.88194 0.0937,0.36932 0.27561,0.59532 0.17639,0.21497 0.41892,0.31419 0.24805,0.0992 0.56224,0.0992 0.2701,0 0.51263,-0.0882 0.24805,-0.0937 0.41893,-0.30869 z" />
      <path
         id="path919"
         style="font-style:normal;font-variant:normal;font-weight:bold;font-stretch:normal;font-size:11.2889px;line-height:1.25;font-family:sans-serif;-inkscape-font-specification:'sans-serif Bold';fill:#ffffff;fill-opacity:1;stroke-width:0.264583"
         d="m 154.43936,263.56526 h -0.17639 q -0.12677,-0.0441 -0.4079,-0.0661 -0.28112,-0.022 -0.46853,-0.022 -0.42443,0 -0.74965,0.0551 -0.32522,0.0551 -0.70005,0.18741 v 4.14515 h -1.98437 v -6.19016 h 1.98437 v 0.90951 q 0.65595,-0.56224 1.14102,-0.74414 0.48507,-0.18742 0.89297,-0.18742 0.10473,0 0.23702,0.006 0.13229,0.006 0.23151,0.0165 z" />
      <path
         id="path921"
         style="font-style:normal;font-variant:normal;font-weight:bold;font-stretch:normal;font-size:11.2889px;line-height:1.25;font-family:sans-serif;-inkscape-font-specification:'sans-serif Bold';fill:#ffffff;fill-opacity:1;stroke-width:0.264583"
         d="m 161.67132,265.13623 h -4.54202 q 0.0441,0.7276 0.55121,1.11345 0.51263,0.38585 1.50482,0.38585 0.62839,0 1.21819,-0.22599 0.5898,-0.226 0.93155,-0.48507 h 0.22049 v 1.59301 q -0.67248,0.2701 -1.2678,0.39136 -0.59531,0.12127 -1.3174,0.12127 -1.86311,0 -2.8553,-0.83785 -0.99219,-0.83785 -0.99219,-2.38676 0,-1.53238 0.93707,-2.42535 0.94258,-0.89848 2.57969,-0.89848 1.51033,0 2.27101,0.76619 0.76068,0.76067 0.76068,2.19384 z m -1.97336,-1.16307 q -0.0165,-0.62287 -0.30868,-0.93706 -0.29214,-0.3142 -0.9095,-0.3142 -0.57327,0 -0.94258,0.29766 -0.36932,0.29766 -0.41341,0.9536 z" />
    </g>
    <text
       xml:space="preserve"
       style="font-style:normal;font-weight:normal;font-size:10.5833px;line-height:1.25;font-family:sans-serif;letter-spacing:0px;word-spacing:0px;writing-mode:tb-rl;fill:#000000;fill-opacity:1;stroke:none;stroke-width:0.264583"
       x="93.122917"
       y="289.05667"
       id="text839"><tspan
         sodipodi:role="line"
         id="tspan837"
         x="262.59833"
         y="119.58125"
         style="stroke-width:0.264583" /></text>
    <g
       style="font-style:normal;font-weight:normal;font-size:8.46667px;line-height:1.25;font-family:sans-serif;letter-spacing:0px;word-spacing:0px;fill:#000000;fill-opacity:1;stroke:none;stroke-width:0.264583"
       id="text827-8"
       aria-label="Crash Course In Cryptography and X.509">
      <path
         id="path924"
         style="font-style:italic;font-variant:normal;font-weight:bold;font-stretch:normal;font-size:8.46667px;line-height:1.25;font-family:sans-serif;-inkscape-font-specification:'sans-serif Bold';fill:#ffffff;fill-opacity:1;stroke-width:0.264583"
         d="m 32.287921,280.46101 q -1.248503,0 -1.926498,-0.61184 -0.677995,-0.61599 -0.677995,-1.76114 0,-0.90537 0.297657,-1.64124 0.30179,-0.73587 0.826823,-1.27331 0.51263,-0.5209 1.227832,-0.81442 0.719336,-0.29352 1.508953,-0.29352 0.636654,0 1.182357,0.13229 0.545703,0.12816 0.98392,0.38034 l -0.363803,1.49241 h -0.181901 q -0.392741,-0.42168 -0.781348,-0.62011 -0.388607,-0.19844 -0.913639,-0.19844 -0.921908,0 -1.521355,0.74001 -0.595313,0.74 -0.595313,1.88515 0,0.73587 0.330729,1.0666 0.33073,0.33073 0.967384,0.33073 0.570508,0 1.070736,-0.22737 0.500228,-0.23151 0.946712,-0.58705 h 0.165365 l -0.359668,1.47175 q -0.186035,0.0744 -0.434082,0.1819 -0.248047,0.10335 -0.475424,0.1695 -0.297656,0.0868 -0.558105,0.13229 -0.256316,0.0455 -0.719337,0.0455 z" />
      <path
         id="path926"
         style="font-style:italic;font-variant:normal;font-weight:bold;font-stretch:normal;font-size:8.46667px;line-height:1.25;font-family:sans-serif;-inkscape-font-specification:'sans-serif Bold';fill:#ffffff;fill-opacity:1;stroke-width:0.264583"
         d="m 39.613575,277.11651 h -0.132292 q -0.09922,-0.0331 -0.281119,-0.0496 -0.181902,-0.0165 -0.359669,-0.0165 -0.293522,0 -0.566373,0.0455 -0.272852,0.0413 -0.56224,0.13643 l -0.719336,3.10886 h -1.496551 l 1.074871,-4.64262 h 1.49655 l -0.157097,0.68213 q 0.42168,-0.31006 0.839226,-0.50436 0.42168,-0.1943 0.847494,-0.1943 0.07855,0 0.173633,0.004 0.09922,0.004 0.173632,0.0124 z" />
      <path
         id="path928"
         style="font-style:italic;font-variant:normal;font-weight:bold;font-stretch:normal;font-size:8.46667px;line-height:1.25;font-family:sans-serif;-inkscape-font-specification:'sans-serif Bold';fill:#ffffff;fill-opacity:1;stroke-width:0.264583"
         d="m 43.03249,278.15004 q -0.396875,0.0331 -0.744141,0.0786 -0.347266,0.0455 -0.591179,0.13229 -0.252181,0.0909 -0.384472,0.25632 -0.132292,0.16536 -0.132292,0.43822 0,0.23977 0.173633,0.33899 0.177767,0.0951 0.51263,0.0951 0.219108,0 0.467155,-0.0992 0.252181,-0.10335 0.47129,-0.26045 z m -0.392741,1.69913 q -0.14056,0.0909 -0.338998,0.2191 -0.198437,0.12816 -0.367936,0.20258 -0.23151,0.0951 -0.434082,0.14469 -0.202572,0.0496 -0.56224,0.0496 -0.578776,0 -0.946713,-0.32246 -0.363802,-0.3266 -0.363802,-0.8475 0,-0.54983 0.26045,-0.93017 0.260449,-0.38447 0.773079,-0.61185 0.479558,-0.21498 1.141016,-0.31006 0.665593,-0.0951 1.438673,-0.14056 0.0041,-0.0248 0.01654,-0.0786 0.0124,-0.0579 0.0124,-0.12816 0,-0.29352 -0.272852,-0.40927 -0.272852,-0.11989 -0.814421,-0.11989 -0.367936,0 -0.814421,0.12402 -0.44235,0.12402 -0.665593,0.20671 h -0.136425 l 0.219108,-1.09968 q 0.260449,-0.0661 0.806152,-0.14883 0.545704,-0.0827 1.087273,-0.0827 1.091407,0 1.599903,0.28526 0.51263,0.28525 0.51263,0.8847 0,0.0827 -0.01654,0.21497 -0.0124,0.13229 -0.03721,0.23151 l -0.727605,3.15847 h -1.480013 z" />
      <path
         id="path930"
         style="font-style:italic;font-variant:normal;font-weight:bold;font-stretch:normal;font-size:8.46667px;line-height:1.25;font-family:sans-serif;-inkscape-font-specification:'sans-serif Bold';fill:#ffffff;fill-opacity:1;stroke-width:0.264583"
         d="m 47.158337,280.46928 q -0.595313,0 -1.153419,-0.11162 -0.558105,-0.11162 -0.855762,-0.26045 l 0.285254,-1.2237 h 0.136426 q 0.09095,0.0786 0.227377,0.17364 0.14056,0.0951 0.396875,0.19843 0.219108,0.0951 0.508496,0.16537 0.289388,0.0661 0.624252,0.0661 0.500228,0 0.748275,-0.11576 0.252181,-0.11576 0.252181,-0.33073 0,-0.16536 -0.177767,-0.25218 -0.177767,-0.0868 -0.735873,-0.21497 -0.946713,-0.21911 -1.298112,-0.52917 -0.347266,-0.31006 -0.347266,-0.77308 0,-0.78548 0.7028,-1.2361 0.702799,-0.45475 1.901693,-0.45475 0.520899,0 1.041797,0.10748 0.520899,0.10336 0.764812,0.22324 l -0.272852,1.17409 h -0.128157 q -0.293523,-0.22737 -0.711068,-0.36793 -0.413412,-0.1447 -0.851628,-0.1447 -0.475424,0 -0.731739,0.11576 -0.252181,0.11162 -0.252181,0.34726 0,0.18191 0.219108,0.28112 0.219108,0.0951 0.690398,0.19844 0.876432,0.19017 1.260905,0.47956 0.388607,0.28939 0.388607,0.81029 0,0.77721 -0.711068,1.22783 -0.711068,0.44648 -1.922364,0.44648 z" />
      <path
         id="path932"
         style="font-style:italic;font-variant:normal;font-weight:bold;font-stretch:normal;font-size:8.46667px;line-height:1.25;font-family:sans-serif;-inkscape-font-specification:'sans-serif Bold';fill:#ffffff;fill-opacity:1;stroke-width:0.264583"
         d="m 55.835848,276.74858 q 0,0.0992 -0.01654,0.25631 -0.01654,0.1571 -0.05374,0.3142 l -0.698666,3.02204 h -1.504818 l 0.533301,-2.30271 q 0.05788,-0.26458 0.09095,-0.44648 0.03307,-0.1819 0.03307,-0.3266 0,-0.27698 -0.14056,-0.39687 -0.136425,-0.12403 -0.500228,-0.12403 -0.177767,0 -0.409277,0.0786 -0.231511,0.0744 -0.516765,0.22738 l -0.760677,3.29076 h -1.49655 l 1.484148,-6.43269 h 1.49655 l -0.529167,2.3027 q 0.454753,-0.30179 0.835091,-0.47129 0.380339,-0.16949 0.835092,-0.16949 0.63252,0 0.975651,0.31005 0.343132,0.30593 0.343132,0.86817 z" />
      <path
         id="path934"
         style="font-style:italic;font-variant:normal;font-weight:bold;font-stretch:normal;font-size:8.46667px;line-height:1.25;font-family:sans-serif;-inkscape-font-specification:'sans-serif Bold';fill:#ffffff;fill-opacity:1;stroke-width:0.264583"
         d="m 62.251995,280.46101 q -1.248504,0 -1.926499,-0.61184 -0.677995,-0.61599 -0.677995,-1.76114 0,-0.90537 0.297657,-1.64124 0.30179,-0.73587 0.826823,-1.27331 0.51263,-0.5209 1.227832,-0.81442 0.719337,-0.29352 1.508953,-0.29352 0.636654,0 1.182357,0.13229 0.545703,0.12816 0.98392,0.38034 l -0.363802,1.49241 h -0.181902 q -0.392741,-0.42168 -0.781348,-0.62011 -0.388606,-0.19844 -0.913639,-0.19844 -0.921908,0 -1.521355,0.74001 -0.595313,0.74 -0.595313,1.88515 0,0.73587 0.33073,1.0666 0.330729,0.33073 0.967383,0.33073 0.570508,0 1.070736,-0.22737 0.500228,-0.23151 0.946712,-0.58705 h 0.165365 l -0.359668,1.47175 q -0.186035,0.0744 -0.434082,0.1819 -0.248047,0.10335 -0.475424,0.1695 -0.297656,0.0868 -0.558105,0.13229 -0.256315,0.0455 -0.719336,0.0455 z" />
      <path
         id="path936"
         style="font-style:italic;font-variant:normal;font-weight:bold;font-stretch:normal;font-size:8.46667px;line-height:1.25;font-family:sans-serif;-inkscape-font-specification:'sans-serif Bold';fill:#ffffff;fill-opacity:1;stroke-width:0.264583"
         d="m 70.81375,277.39763 q 0,0.6532 -0.219109,1.2237 -0.219108,0.57051 -0.615983,0.97979 -0.413411,0.42581 -0.959115,0.65732 -0.545703,0.22738 -1.273308,0.22738 -1.037663,0 -1.591634,-0.49609 -0.553972,-0.4961 -0.553972,-1.37253 0,-0.62012 0.206706,-1.17822 0.206706,-0.55811 0.611849,-0.98392 0.392741,-0.41755 0.963249,-0.65733 0.574642,-0.24391 1.28571,-0.24391 1.041798,0 1.591635,0.49196 0.553972,0.48782 0.553972,1.35185 z m -1.934767,1.52136 q 0.19017,-0.28939 0.285254,-0.63252 0.09922,-0.34313 0.09922,-0.83509 0,-0.42582 -0.186035,-0.65319 -0.186035,-0.23151 -0.591179,-0.23151 -0.314193,0 -0.553971,0.15296 -0.235645,0.15296 -0.417546,0.43408 -0.169499,0.26045 -0.268718,0.64492 -0.09508,0.38448 -0.09508,0.78962 0,0.47542 0.21084,0.68213 0.210839,0.20257 0.578776,0.20257 0.268717,0 0.516764,-0.14469 0.248047,-0.14883 0.42168,-0.40928 z" />
      <path
         id="path938"
         style="font-style:italic;font-variant:normal;font-weight:bold;font-stretch:normal;font-size:8.46667px;line-height:1.25;font-family:sans-serif;-inkscape-font-specification:'sans-serif Bold';fill:#ffffff;fill-opacity:1;stroke-width:0.264583"
         d="m 76.969448,275.69851 -1.07487,4.64262 h -1.49655 l 0.119889,-0.51263 q -0.223242,0.14469 -0.438216,0.27285 -0.21084,0.12402 -0.40101,0.19843 -0.239778,0.0992 -0.438216,0.1323 -0.198438,0.0372 -0.392741,0.0372 -0.611849,0 -0.967383,-0.29352 -0.3514,-0.29352 -0.3514,-0.86816 0,-0.1571 0.01654,-0.28939 0.01654,-0.13643 0.05374,-0.29766 l 0.698666,-3.02204 h 1.504818 l -0.533301,2.30271 q -0.06201,0.26458 -0.09508,0.45475 -0.02894,0.19017 -0.02894,0.32246 0,0.27285 0.132292,0.39687 0.132292,0.11989 0.500228,0.11989 0.181901,0 0.417546,-0.0785 0.239779,-0.0786 0.516764,-0.22738 l 0.760678,-3.29076 z" />
      <path
         id="path940"
         style="font-style:italic;font-variant:normal;font-weight:bold;font-stretch:normal;font-size:8.46667px;line-height:1.25;font-family:sans-serif;-inkscape-font-specification:'sans-serif Bold';fill:#ffffff;fill-opacity:1;stroke-width:0.264583"
         d="m 81.41776,277.11651 h -0.132292 q -0.09922,-0.0331 -0.28112,-0.0496 -0.181901,-0.0165 -0.359668,-0.0165 -0.293522,0 -0.566374,0.0455 -0.272852,0.0413 -0.56224,0.13643 l -0.719336,3.10886 h -1.49655 l 1.07487,-4.64262 h 1.49655 l -0.157096,0.68213 q 0.42168,-0.31006 0.839225,-0.50436 0.42168,-0.1943 0.847494,-0.1943 0.07855,0 0.173633,0.004 0.09922,0.004 0.173633,0.0124 z" />
      <path
         id="path942"
         style="font-style:italic;font-variant:normal;font-weight:bold;font-stretch:normal;font-size:8.46667px;line-height:1.25;font-family:sans-serif;-inkscape-font-specification:'sans-serif Bold';fill:#ffffff;fill-opacity:1;stroke-width:0.264583"
         d="m 83.307049,280.46928 q -0.595313,0 -1.153418,-0.11162 -0.558106,-0.11162 -0.855762,-0.26045 l 0.285254,-1.2237 h 0.136425 q 0.09095,0.0786 0.227377,0.17364 0.14056,0.0951 0.396875,0.19843 0.219108,0.0951 0.508496,0.16537 0.289388,0.0661 0.624252,0.0661 0.500228,0 0.748275,-0.11576 0.252181,-0.11576 0.252181,-0.33073 0,-0.16536 -0.177767,-0.25218 -0.177767,-0.0868 -0.735873,-0.21497 -0.946712,-0.21911 -1.298112,-0.52917 -0.347266,-0.31006 -0.347266,-0.77308 0,-0.78548 0.7028,-1.2361 0.7028,-0.45475 1.901693,-0.45475 0.520899,0 1.041798,0.10748 0.520898,0.10336 0.764811,0.22324 l -0.272852,1.17409 h -0.128157 q -0.293522,-0.22737 -0.711068,-0.36793 -0.413412,-0.1447 -0.851628,-0.1447 -0.475424,0 -0.731739,0.11576 -0.252181,0.11162 -0.252181,0.34726 0,0.18191 0.219108,0.28112 0.219108,0.0951 0.690398,0.19844 0.876432,0.19017 1.260905,0.47956 0.388607,0.28939 0.388607,0.81029 0,0.77721 -0.711068,1.22783 -0.711068,0.44648 -1.922364,0.44648 z" />
      <path
         id="path944"
         style="font-style:italic;font-variant:normal;font-weight:bold;font-stretch:normal;font-size:8.46667px;line-height:1.25;font-family:sans-serif;-inkscape-font-specification:'sans-serif Bold';fill:#ffffff;fill-opacity:1;stroke-width:0.264583"
         d="m 90.301973,277.42244 q 0.0124,-0.0744 0.01654,-0.13643 0.0083,-0.062 0.0083,-0.12815 0,-0.3266 -0.202571,-0.50023 -0.202572,-0.17363 -0.582911,-0.17363 -0.458887,0 -0.773079,0.24804 -0.310059,0.24805 -0.47129,0.6904 z m -1.136882,3.04271 q -1.186492,0 -1.831414,-0.52503 -0.644922,-0.52504 -0.644922,-1.45108 0,-0.63252 0.21084,-1.16169 0.21084,-0.52916 0.607715,-0.93017 0.380339,-0.38861 0.950847,-0.61598 0.570508,-0.22738 1.252637,-0.22738 1.037663,0 1.562696,0.42168 0.529167,0.41754 0.529167,1.2361 0,0.28112 -0.05788,0.54984 -0.05374,0.26871 -0.144694,0.5333 h -3.447853 q 0,0.0248 0,0.0496 0,0.0207 0,0.0455 0,0.48369 0.338998,0.75655 0.338997,0.27285 1.037663,0.27285 0.487826,0 0.921908,-0.16537 0.438216,-0.16536 0.760677,-0.36793 h 0.165365 l -0.276986,1.19476 q -0.434082,0.19017 -0.91364,0.28525 -0.479557,0.0992 -1.021126,0.0992 z" />
      <path
         id="path946"
         style="font-style:italic;font-variant:normal;font-weight:bold;font-stretch:normal;font-size:8.46667px;line-height:1.25;font-family:sans-serif;-inkscape-font-specification:'sans-serif Bold';fill:#ffffff;fill-opacity:1;stroke-width:0.264583"
         d="m 98.470984,280.34113 h -3.604949 l 0.252181,-1.09141 h 1.00459 l 0.917774,-3.97289 h -1.00459 l 0.252181,-1.0914 h 3.604949 l -0.252181,1.0914 h -1.00459 l -0.917774,3.97289 h 1.00459 z" />
      <path
         id="path948"
         style="font-style:italic;font-variant:normal;font-weight:bold;font-stretch:normal;font-size:8.46667px;line-height:1.25;font-family:sans-serif;-inkscape-font-specification:'sans-serif Bold';fill:#ffffff;fill-opacity:1;stroke-width:0.264583"
         d="m 105.12691,276.74858 q 0,0.12402 -0.0165,0.26872 -0.0165,0.14469 -0.0538,0.30179 l -0.69453,3.02204 h -1.50482 l 0.52917,-2.30271 q 0.0579,-0.25631 0.091,-0.43821 0.0331,-0.1819 0.0331,-0.339 0,-0.26872 -0.13642,-0.39274 -0.13643,-0.12403 -0.50023,-0.12403 -0.17777,0 -0.40928,0.0786 -0.23151,0.0744 -0.5209,0.22738 l -0.75654,3.29076 h -1.496551 l 1.070741,-4.64262 h 1.49655 l -0.11989,0.51263 q 0.45888,-0.30179 0.83509,-0.47129 0.38034,-0.16949 0.83509,-0.16949 0.62425,0 0.97152,0.30179 0.34726,0.30179 0.34726,0.87643 z" />
      <path
         id="path950"
         style="font-style:italic;font-variant:normal;font-weight:bold;font-stretch:normal;font-size:8.46667px;line-height:1.25;font-family:sans-serif;-inkscape-font-specification:'sans-serif Bold';fill:#ffffff;fill-opacity:1;stroke-width:0.264583"
         d="m 111.5472,280.46101 q -1.2485,0 -1.9265,-0.61184 -0.67799,-0.61599 -0.67799,-1.76114 0,-0.90537 0.29765,-1.64124 0.30179,-0.73587 0.82683,-1.27331 0.51263,-0.5209 1.22783,-0.81442 0.71933,-0.29352 1.50895,-0.29352 0.63665,0 1.18236,0.13229 0.5457,0.12816 0.98392,0.38034 l -0.36381,1.49241 h -0.1819 q -0.39274,-0.42168 -0.78134,-0.62011 -0.38861,-0.19844 -0.91364,-0.19844 -0.92191,0 -1.52136,0.74001 -0.59531,0.74 -0.59531,1.88515 0,0.73587 0.33073,1.0666 0.33073,0.33073 0.96738,0.33073 0.57051,0 1.07074,-0.22737 0.50023,-0.23151 0.94671,-0.58705 h 0.16536 l -0.35966,1.47175 q -0.18604,0.0744 -0.43409,0.1819 -0.24804,0.10335 -0.47542,0.1695 -0.29766,0.0868 -0.55811,0.13229 -0.25631,0.0455 -0.71933,0.0455 z" />
      <path
         id="path952"
         style="font-style:italic;font-variant:normal;font-weight:bold;font-stretch:normal;font-size:8.46667px;line-height:1.25;font-family:sans-serif;-inkscape-font-specification:'sans-serif Bold';fill:#ffffff;fill-opacity:1;stroke-width:0.264583"
         d="m 118.87285,277.11651 h -0.13229 q -0.0992,-0.0331 -0.28112,-0.0496 -0.1819,-0.0165 -0.35967,-0.0165 -0.29352,0 -0.56637,0.0455 -0.27286,0.0413 -0.56224,0.13643 l -0.71934,3.10886 h -1.49655 l 1.07487,-4.64262 h 1.49655 l -0.1571,0.68213 q 0.42168,-0.31006 0.83923,-0.50436 0.42168,-0.1943 0.84749,-0.1943 0.0786,0 0.17364,0.004 0.0992,0.004 0.17363,0.0124 z" />
      <path
         id="path954"
         style="font-style:italic;font-variant:normal;font-weight:bold;font-stretch:normal;font-size:8.46667px;line-height:1.25;font-family:sans-serif;-inkscape-font-specification:'sans-serif Bold';fill:#ffffff;fill-opacity:1;stroke-width:0.264583"
         d="m 120.68359,282.04438 h -1.63298 l 1.18236,-1.79421 -0.76481,-4.55166 h 1.52136 l 0.401,3.04271 1.76941,-3.04271 h 1.57096 z" />
      <path
         id="path956"
         style="font-style:italic;font-variant:normal;font-weight:bold;font-stretch:normal;font-size:8.46667px;line-height:1.25;font-family:sans-serif;-inkscape-font-specification:'sans-serif Bold';fill:#ffffff;fill-opacity:1;stroke-width:0.264583"
         d="m 129.96055,277.18266 q 0,0.64079 -0.21084,1.24437 -0.20671,0.59945 -0.56637,1.03353 -0.37621,0.45889 -0.85163,0.7152 -0.47129,0.25632 -1.05834,0.25632 -0.37207,0 -0.68626,-0.0868 -0.31006,-0.0827 -0.56224,-0.23565 l -0.44648,1.93477 h -1.49655 l 1.46761,-6.34587 h 1.49655 l -0.11162,0.48369 q 0.42168,-0.28938 0.77721,-0.45061 0.35967,-0.16123 0.79375,-0.16123 0.7028,0 1.07901,0.42994 0.3762,0.42582 0.3762,1.18236 z m -1.9389,1.62884 q 0.17777,-0.26045 0.27285,-0.60771 0.0951,-0.3514 0.0951,-0.76068 0,-0.3762 -0.16537,-0.57464 -0.16536,-0.20257 -0.59118,-0.20257 -0.21911,0 -0.42995,0.0785 -0.21084,0.0744 -0.44648,0.19844 l -0.53744,2.33578 q 0.1323,0.0579 0.30593,0.091 0.17777,0.0289 0.3638,0.0289 0.37621,0 0.66559,-0.16123 0.28939,-0.16123 0.46716,-0.42582 z" />
      <path
         id="path958"
         style="font-style:italic;font-variant:normal;font-weight:bold;font-stretch:normal;font-size:8.46667px;line-height:1.25;font-family:sans-serif;-inkscape-font-specification:'sans-serif Bold';fill:#ffffff;fill-opacity:1;stroke-width:0.264583"
         d="m 132.18057,280.43208 q -0.77307,0 -1.1038,-0.25219 -0.33073,-0.25631 -0.33073,-0.75654 0,-0.13229 0.0207,-0.25631 0.0207,-0.12403 0.0537,-0.28939 l 0.50436,-2.19935 h -0.61185 l 0.22738,-0.97979 h 0.61185 l 0.30592,-1.32705 h 1.49242 l -0.30592,1.32705 h 1.39733 l -0.22738,0.97979 h -1.39733 l -0.38447,1.67432 q -0.0413,0.17363 -0.0786,0.3514 -0.0372,0.17363 -0.0372,0.29765 0,0.24805 0.13643,0.34727 0.14056,0.0951 0.42994,0.0951 0.11576,0 0.3018,-0.0413 0.19016,-0.0455 0.30179,-0.0992 h 0.12402 l -0.23151,0.99632 q -0.25218,0.062 -0.5333,0.0951 -0.27699,0.0372 -0.6656,0.0372 z" />
      <path
         id="path960"
         style="font-style:italic;font-variant:normal;font-weight:bold;font-stretch:normal;font-size:8.46667px;line-height:1.25;font-family:sans-serif;-inkscape-font-specification:'sans-serif Bold';fill:#ffffff;fill-opacity:1;stroke-width:0.264583"
         d="m 139.60544,277.39763 q 0,0.6532 -0.21911,1.2237 -0.21911,0.57051 -0.61598,0.97979 -0.41341,0.42581 -0.95912,0.65732 -0.5457,0.22738 -1.2733,0.22738 -1.03767,0 -1.59164,-0.49609 -0.55397,-0.4961 -0.55397,-1.37253 0,-0.62012 0.20671,-1.17822 0.2067,-0.55811 0.61184,-0.98392 0.39275,-0.41755 0.96325,-0.65733 0.57465,-0.24391 1.28571,-0.24391 1.0418,0 1.59164,0.49196 0.55397,0.48782 0.55397,1.35185 z m -1.93477,1.52136 q 0.19017,-0.28939 0.28526,-0.63252 0.0992,-0.34313 0.0992,-0.83509 0,-0.42582 -0.18604,-0.65319 -0.18603,-0.23151 -0.59118,-0.23151 -0.31419,0 -0.55397,0.15296 -0.23564,0.15296 -0.41754,0.43408 -0.1695,0.26045 -0.26872,0.64492 -0.0951,0.38448 -0.0951,0.78962 0,0.47542 0.21084,0.68213 0.21084,0.20257 0.57878,0.20257 0.26872,0 0.51676,-0.14469 0.24805,-0.14883 0.42168,-0.40928 z" />
      <path
         id="path962"
         style="font-style:italic;font-variant:normal;font-weight:bold;font-stretch:normal;font-size:8.46667px;line-height:1.25;font-family:sans-serif;-inkscape-font-specification:'sans-serif Bold';fill:#ffffff;fill-opacity:1;stroke-width:0.264583"
         d="m 145.64953,275.69851 -0.93432,4.10931 q -0.15296,0.66146 -0.43408,1.09968 -0.28112,0.43822 -0.68213,0.69867 -0.41341,0.26871 -0.8971,0.3762 -0.48369,0.10749 -1.08727,0.10749 -0.50023,0 -0.95912,-0.062 -0.45888,-0.0579 -0.77308,-0.13642 l 0.22738,-1.14102 h 0.1819 q 0.34313,0.13229 0.69453,0.21084 0.3514,0.0786 0.62425,0.0786 0.39274,0 0.68213,-0.0744 0.28939,-0.0703 0.45476,-0.20671 0.17776,-0.14469 0.28112,-0.35553 0.10748,-0.21084 0.17363,-0.51677 l 0.0207,-0.0868 q -0.32246,0.2191 -0.64079,0.34726 -0.31833,0.12816 -0.71934,0.12816 -0.78134,0 -1.22369,-0.39274 -0.43822,-0.39274 -0.43822,-1.18649 0,-1.3684 0.77308,-2.24483 0.77308,-0.88056 1.87689,-0.88056 0.39687,0 0.71933,0.0951 0.3266,0.0951 0.52504,0.23978 l 0.10335,-0.20671 z m -1.7446,1.07487 q -0.11989,-0.0537 -0.31833,-0.0992 -0.1943,-0.0496 -0.34313,-0.0496 -0.66559,0 -1.07074,0.50023 -0.40514,0.50023 -0.40514,1.28571 0,0.35554 0.17363,0.55397 0.17364,0.19844 0.62425,0.19844 0.21911,0 0.44235,-0.0827 0.22738,-0.0868 0.42582,-0.20257 z" />
      <path
         id="path964"
         style="font-style:italic;font-variant:normal;font-weight:bold;font-stretch:normal;font-size:8.46667px;line-height:1.25;font-family:sans-serif;-inkscape-font-specification:'sans-serif Bold';fill:#ffffff;fill-opacity:1;stroke-width:0.264583"
         d="m 150.0937,277.11651 h -0.13229 q -0.0992,-0.0331 -0.28112,-0.0496 -0.18191,-0.0165 -0.35967,-0.0165 -0.29352,0 -0.56638,0.0455 -0.27285,0.0413 -0.56224,0.13643 l -0.71933,3.10886 h -1.49655 l 1.07487,-4.64262 h 1.49655 l -0.1571,0.68213 q 0.42168,-0.31006 0.83923,-0.50436 0.42168,-0.1943 0.84749,-0.1943 0.0786,0 0.17363,0.004 0.0992,0.004 0.17364,0.0124 z" />
      <path
         id="path966"
         style="font-style:italic;font-variant:normal;font-weight:bold;font-stretch:normal;font-size:8.46667px;line-height:1.25;font-family:sans-serif;-inkscape-font-specification:'sans-serif Bold';fill:#ffffff;fill-opacity:1;stroke-width:0.264583"
         d="m 153.51261,278.15004 q -0.39688,0.0331 -0.74414,0.0786 -0.34727,0.0455 -0.59118,0.13229 -0.25218,0.0909 -0.38447,0.25632 -0.13229,0.16536 -0.13229,0.43822 0,0.23977 0.17363,0.33899 0.17777,0.0951 0.51263,0.0951 0.21911,0 0.46715,-0.0992 0.25219,-0.10335 0.47129,-0.26045 z m -0.39274,1.69913 q -0.14056,0.0909 -0.339,0.2191 -0.19844,0.12816 -0.36794,0.20258 -0.23151,0.0951 -0.43408,0.14469 -0.20257,0.0496 -0.56224,0.0496 -0.57877,0 -0.94671,-0.32246 -0.3638,-0.3266 -0.3638,-0.8475 0,-0.54983 0.26045,-0.93017 0.26045,-0.38447 0.77308,-0.61185 0.47955,-0.21498 1.14101,-0.31006 0.6656,-0.0951 1.43868,-0.14056 0.004,-0.0248 0.0165,-0.0786 0.0124,-0.0579 0.0124,-0.12816 0,-0.29352 -0.27285,-0.40927 -0.27285,-0.11989 -0.81442,-0.11989 -0.36793,0 -0.81442,0.12402 -0.44235,0.12402 -0.66559,0.20671 h -0.13643 l 0.21911,-1.09968 q 0.26045,-0.0661 0.80615,-0.14883 0.54571,-0.0827 1.08728,-0.0827 1.0914,0 1.5999,0.28526 0.51263,0.28525 0.51263,0.8847 0,0.0827 -0.0165,0.21497 -0.0124,0.13229 -0.0372,0.23151 l -0.72761,3.15847 h -1.48001 z" />
      <path
         id="path968"
         style="font-style:italic;font-variant:normal;font-weight:bold;font-stretch:normal;font-size:8.46667px;line-height:1.25;font-family:sans-serif;-inkscape-font-specification:'sans-serif Bold';fill:#ffffff;fill-opacity:1;stroke-width:0.264583"
         d="m 161.33022,277.18266 q 0,0.64079 -0.21084,1.24437 -0.2067,0.59945 -0.56637,1.03353 -0.3762,0.45889 -0.85163,0.7152 -0.47129,0.25632 -1.05833,0.25632 -0.37207,0 -0.68626,-0.0868 -0.31006,-0.0827 -0.56224,-0.23565 l -0.44649,1.93477 h -1.49655 l 1.46761,-6.34587 h 1.49655 l -0.11162,0.48369 q 0.42168,-0.28938 0.77722,-0.45061 0.35966,-0.16123 0.79375,-0.16123 0.7028,0 1.079,0.42994 0.3762,0.42582 0.3762,1.18236 z m -1.9389,1.62884 q 0.17777,-0.26045 0.27286,-0.60771 0.0951,-0.3514 0.0951,-0.76068 0,-0.3762 -0.16536,-0.57464 -0.16537,-0.20257 -0.59118,-0.20257 -0.21911,0 -0.42995,0.0785 -0.21084,0.0744 -0.44649,0.19844 l -0.53743,2.33578 q 0.13229,0.0579 0.30592,0.091 0.17777,0.0289 0.36381,0.0289 0.3762,0 0.66559,-0.16123 0.28939,-0.16123 0.46715,-0.42582 z" />
      <path
         id="path970"
         style="font-style:italic;font-variant:normal;font-weight:bold;font-stretch:normal;font-size:8.46667px;line-height:1.25;font-family:sans-serif;-inkscape-font-specification:'sans-serif Bold';fill:#ffffff;fill-opacity:1;stroke-width:0.264583"
         d="m 167.20893,276.74858 q 0,0.0992 -0.0165,0.25631 -0.0165,0.1571 -0.0537,0.3142 l -0.69866,3.02204 h -1.50482 l 0.5333,-2.30271 q 0.0579,-0.26458 0.0909,-0.44648 0.0331,-0.1819 0.0331,-0.3266 0,-0.27698 -0.14056,-0.39687 -0.13643,-0.12403 -0.50023,-0.12403 -0.17777,0 -0.40928,0.0786 -0.23151,0.0744 -0.51676,0.22738 l -0.76068,3.29076 h -1.49655 l 1.48415,-6.43269 h 1.49655 l -0.52917,2.3027 q 0.45475,-0.30179 0.83509,-0.47129 0.38034,-0.16949 0.83509,-0.16949 0.63252,0 0.97565,0.31005 0.34313,0.30593 0.34313,0.86817 z" />
      <path
         id="path972"
         style="font-style:italic;font-variant:normal;font-weight:bold;font-stretch:normal;font-size:8.46667px;line-height:1.25;font-family:sans-serif;-inkscape-font-specification:'sans-serif Bold';fill:#ffffff;fill-opacity:1;stroke-width:0.264583"
         d="m 169.51577,282.04438 h -1.63297 l 1.18236,-1.79421 -0.76482,-4.55166 h 1.52136 l 0.40101,3.04271 1.7694,-3.04271 h 1.57096 z" />
      <path
         id="path974"
         style="font-style:italic;font-variant:normal;font-weight:bold;font-stretch:normal;font-size:8.46667px;line-height:1.25;font-family:sans-serif;-inkscape-font-specification:'sans-serif Bold';fill:#ffffff;fill-opacity:1;stroke-width:0.264583"
         d="m 179.52447,278.15004 q -0.39687,0.0331 -0.74414,0.0786 -0.34726,0.0455 -0.59118,0.13229 -0.25218,0.0909 -0.38447,0.25632 -0.13229,0.16536 -0.13229,0.43822 0,0.23977 0.17363,0.33899 0.17777,0.0951 0.51263,0.0951 0.21911,0 0.46716,-0.0992 0.25218,-0.10335 0.47129,-0.26045 z m -0.39274,1.69913 q -0.14056,0.0909 -0.339,0.2191 -0.19843,0.12816 -0.36793,0.20258 -0.23151,0.0951 -0.43408,0.14469 -0.20258,0.0496 -0.56224,0.0496 -0.57878,0 -0.94672,-0.32246 -0.3638,-0.3266 -0.3638,-0.8475 0,-0.54983 0.26045,-0.93017 0.26045,-0.38447 0.77308,-0.61185 0.47956,-0.21498 1.14102,-0.31006 0.66559,-0.0951 1.43867,-0.14056 0.004,-0.0248 0.0165,-0.0786 0.0124,-0.0579 0.0124,-0.12816 0,-0.29352 -0.27285,-0.40927 -0.27286,-0.11989 -0.81442,-0.11989 -0.36794,0 -0.81443,0.12402 -0.44235,0.12402 -0.66559,0.20671 h -0.13642 l 0.2191,-1.09968 q 0.26045,-0.0661 0.80616,-0.14883 0.5457,-0.0827 1.08727,-0.0827 1.09141,0 1.5999,0.28526 0.51263,0.28525 0.51263,0.8847 0,0.0827 -0.0165,0.21497 -0.0124,0.13229 -0.0372,0.23151 l -0.72761,3.15847 h -1.48001 z" />
      <path
         id="path976"
         style="font-style:italic;font-variant:normal;font-weight:bold;font-stretch:normal;font-size:8.46667px;line-height:1.25;font-family:sans-serif;-inkscape-font-specification:'sans-serif Bold';fill:#ffffff;fill-opacity:1;stroke-width:0.264583"
         d="m 187.29661,276.74858 q 0,0.12402 -0.0165,0.26872 -0.0165,0.14469 -0.0538,0.30179 l -0.69453,3.02204 h -1.50482 l 0.52917,-2.30271 q 0.0579,-0.25631 0.0909,-0.43821 0.0331,-0.1819 0.0331,-0.339 0,-0.26872 -0.13642,-0.39274 -0.13643,-0.12403 -0.50023,-0.12403 -0.17777,0 -0.40928,0.0786 -0.23151,0.0744 -0.5209,0.22738 l -0.75654,3.29076 h -1.49655 l 1.07074,-4.64262 h 1.49655 l -0.11989,0.51263 q 0.45888,-0.30179 0.83509,-0.47129 0.38034,-0.16949 0.83509,-0.16949 0.62425,0 0.97152,0.30179 0.34726,0.30179 0.34726,0.87643 z" />
      <path
         id="path978"
         style="font-style:italic;font-variant:normal;font-weight:bold;font-stretch:normal;font-size:8.46667px;line-height:1.25;font-family:sans-serif;-inkscape-font-specification:'sans-serif Bold';fill:#ffffff;fill-opacity:1;stroke-width:0.264583"
         d="m 193.90707,273.90844 -1.48828,6.43269 h -1.49655 l 0.11162,-0.4837 q -0.21498,0.13643 -0.38034,0.24805 -0.16123,0.10749 -0.35967,0.19844 -0.18604,0.0827 -0.36794,0.12402 -0.17776,0.0413 -0.42994,0.0413 -0.67387,0 -1.07901,-0.43821 -0.40101,-0.43822 -0.40101,-1.24437 0,-0.66146 0.21084,-1.24024 0.21498,-0.58291 0.58705,-1.02939 0.3638,-0.43408 0.85989,-0.6904 0.4961,-0.25631 1.03767,-0.25631 0.38033,0 0.66145,0.0785 0.28112,0.0744 0.57878,0.23565 l 0.45889,-1.97611 z m -2.16215,2.87321 q -0.11988,-0.0579 -0.31419,-0.10335 -0.1943,-0.0496 -0.34313,-0.0496 -0.35553,0 -0.64079,0.1571 -0.28525,0.15709 -0.48369,0.42994 -0.17777,0.24392 -0.28112,0.62426 -0.10335,0.3762 -0.10335,0.7276 0,0.41755 0.1943,0.60771 0.1943,0.19017 0.59118,0.19017 0.20257,0 0.42581,-0.091 0.22738,-0.091 0.42995,-0.21497 z" />
      <path
         id="path980"
         style="font-style:italic;font-variant:normal;font-weight:bold;font-stretch:normal;font-size:8.46667px;line-height:1.25;font-family:sans-serif;-inkscape-font-specification:'sans-serif Bold';fill:#ffffff;fill-opacity:1;stroke-width:0.264583"
         d="m 199.06644,277.16612 -1.49241,-2.98069 h 1.72806 l 0.90537,1.9389 1.79834,-1.9389 h 1.757 l -2.89802,3.06751 1.50896,3.08819 h -1.7322 l -0.92191,-2.04639 -1.86035,2.04639 h -1.75286 z" />
      <path
         id="path982"
         style="font-style:italic;font-variant:normal;font-weight:bold;font-stretch:normal;font-size:8.46667px;line-height:1.25;font-family:sans-serif;-inkscape-font-specification:'sans-serif Bold';fill:#ffffff;fill-opacity:1;stroke-width:0.264583"
         d="m 204.78393,280.34113 h -1.55443 l 0.37207,-1.62471 h 1.55443 z" />
      <path
         id="path984"
         style="font-style:italic;font-variant:normal;font-weight:bold;font-stretch:normal;font-size:8.46667px;line-height:1.25;font-family:sans-serif;-inkscape-font-specification:'sans-serif Bold';fill:#ffffff;fill-opacity:1;stroke-width:0.264583"
         d="m 210.62129,279.8781 q -0.41755,0.29353 -0.97979,0.44235 -0.5581,0.14883 -1.19062,0.14883 -0.76895,0 -1.31465,-0.11162 -0.54157,-0.10749 -0.86817,-0.26045 l 0.3142,-1.36012 h 0.17363 q 0.40101,0.26045 0.79788,0.39274 0.39688,0.12816 0.84336,0.12816 0.66973,0 1.07487,-0.24805 0.40928,-0.24805 0.40928,-0.76481 0,-0.39274 -0.339,-0.58705 -0.33486,-0.19843 -1.02939,-0.19843 -0.30593,0 -0.64906,0.0579 -0.34313,0.0579 -0.62012,0.14056 h -0.1819 l 0.80202,-3.47265 h 4.37803 l -0.27285,1.17822 h -2.88561 l -0.23151,1.00459 q 0.0579,-0.004 0.14882,-0.004 0.0909,0 0.21911,0 0.47129,0 0.8847,0.0868 0.41341,0.0868 0.73588,0.28112 0.32246,0.19431 0.51263,0.5085 0.19017,0.31006 0.19017,0.77308 0,0.63252 -0.25219,1.09967 -0.24804,0.46716 -0.66972,0.76481 z" />
      <path
         id="path986"
         style="font-style:italic;font-variant:normal;font-weight:bold;font-stretch:normal;font-size:8.46667px;line-height:1.25;font-family:sans-serif;-inkscape-font-specification:'sans-serif Bold';fill:#ffffff;fill-opacity:1;stroke-width:0.264583"
         d="m 217.9304,276.07885 q 0,0.85163 -0.19843,1.66605 -0.19844,0.81029 -0.58291,1.40147 -0.43822,0.66145 -1.02526,0.99218 -0.58292,0.33073 -1.33119,0.33073 -1.079,0 -1.65365,-0.48782 -0.57464,-0.49196 -0.57464,-1.52963 0,-0.8847 0.1943,-1.66604 0.19431,-0.78549 0.58705,-1.40147 0.39274,-0.61185 0.99219,-0.96738 0.60358,-0.35554 1.37666,-0.35554 1.10381,0 1.65778,0.5085 0.5581,0.50436 0.5581,1.50895 z m -1.59576,0.062 q 0,-0.48369 -0.17777,-0.7152 -0.17363,-0.23151 -0.5209,-0.23151 -0.3266,0 -0.61598,0.29352 -0.28526,0.29353 -0.49196,0.83923 -0.1819,0.47542 -0.27699,1.0418 -0.0909,0.56224 -0.0909,1.02112 0,0.48783 0.17363,0.71934 0.17364,0.22738 0.54571,0.22738 0.35553,0 0.62838,-0.31833 0.27285,-0.32246 0.45889,-0.81442 0.17363,-0.45889 0.26872,-1.01286 0.0992,-0.55397 0.0992,-1.05007 z" />
      <path
         id="path988"
         style="font-style:italic;font-variant:normal;font-weight:bold;font-stretch:normal;font-size:8.46667px;line-height:1.25;font-family:sans-serif;-inkscape-font-specification:'sans-serif Bold';fill:#ffffff;fill-opacity:1;stroke-width:0.264583"
         d="m 223.84219,276.21528 q 0,0.90537 -0.27285,1.69912 -0.27285,0.79375 -0.77308,1.34772 -0.51263,0.57051 -1.21957,0.8847 -0.70693,0.31419 -1.6247,0.31419 -0.35554,0 -0.76068,-0.0579 -0.40515,-0.0537 -0.54571,-0.091 l 0.21084,-1.20303 0.1571,0.008 q 0.0992,0.0537 0.36794,0.14056 0.26871,0.0827 0.66559,0.0827 0.7276,0 1.2237,-0.36794 0.49609,-0.36793 0.74001,-1.0666 -0.37621,0.1819 -0.68213,0.28112 -0.30179,0.0951 -0.76068,0.0951 -0.83509,0 -1.30638,-0.43409 -0.46716,-0.43408 -0.46716,-1.19062 0,-1.14102 0.80616,-1.86862 0.81028,-0.73174 1.95957,-0.73174 0.50022,0 0.91777,0.11989 0.42168,0.11575 0.73174,0.38034 0.31006,0.26871 0.47129,0.68213 0.16123,0.41341 0.16123,0.97565 z m -1.56683,0.0207 q 0,-0.57878 -0.19017,-0.85576 -0.19017,-0.27699 -0.64079,-0.27699 -0.41754,0 -0.71933,0.37207 -0.29766,0.36794 -0.29766,0.94258 0,0.42995 0.25631,0.62838 0.25632,0.19431 0.74001,0.19431 0.18604,0 0.38447,-0.0372 0.19844,-0.0372 0.3514,-0.0868 0.0496,-0.20257 0.0827,-0.41754 0.0331,-0.21911 0.0331,-0.46302 z" />
    </g>
  </g>
</svg>
