<svg width="525" height="407" xmlns="http://www.w3.org/2000/svg" xmlns:xlink="http://www.w3.org/1999/xlink" overflow="hidden"><defs><clipPath id="clip0"><path d="M308 140 833 140 833 547 308 547Z" fill-rule="evenodd" clip-rule="evenodd"/></clipPath><clipPath id="clip1"><path d="M744 406 793 406 793 455 744 455Z" fill-rule="evenodd" clip-rule="evenodd"/></clipPath><clipPath id="clip2"><path d="M744 406 793 406 793 455 744 455Z" fill-rule="evenodd" clip-rule="evenodd"/></clipPath><clipPath id="clip3"><path d="M744 406 793 406 793 455 744 455Z" fill-rule="evenodd" clip-rule="evenodd"/></clipPath><clipPath id="clip4"><path d="M549 140 599 140 599 190 549 190Z" fill-rule="evenodd" clip-rule="evenodd"/></clipPath><clipPath id="clip5"><path d="M549 140 599 140 599 190 549 190Z" fill-rule="evenodd" clip-rule="evenodd"/></clipPath><clipPath id="clip6"><path d="M549 140 599 140 599 190 549 190Z" fill-rule="evenodd" clip-rule="evenodd"/></clipPath><clipPath id="clip7"><path d="M742 229 791 229 791 279 742 279Z" fill-rule="evenodd" clip-rule="evenodd"/></clipPath><clipPath id="clip8"><path d="M742 229 791 229 791 279 742 279Z" fill-rule="evenodd" clip-rule="evenodd"/></clipPath><clipPath id="clip9"><path d="M742 229 791 229 791 279 742 279Z" fill-rule="evenodd" clip-rule="evenodd"/></clipPath><clipPath id="clip10"><path d="M549 293 598 293 598 342 549 342Z" fill-rule="evenodd" clip-rule="evenodd"/></clipPath><clipPath id="clip11"><path d="M549 293 598 293 598 342 549 342Z" fill-rule="evenodd" clip-rule="evenodd"/></clipPath><clipPath id="clip12"><path d="M549 293 598 293 598 342 549 342Z" fill-rule="evenodd" clip-rule="evenodd"/></clipPath><clipPath id="clip13"><path d="M403 405 464 405 464 466 403 466Z" fill-rule="evenodd" clip-rule="evenodd"/></clipPath><clipPath id="clip14"><path d="M403 405 464 405 464 466 403 466Z" fill-rule="evenodd" clip-rule="evenodd"/></clipPath><clipPath id="clip15"><path d="M403 405 464 405 464 466 403 466Z" fill-rule="evenodd" clip-rule="evenodd"/></clipPath><clipPath id="clip16"><path d="M570 411 620 411 620 461 570 461Z" fill-rule="evenodd" clip-rule="evenodd"/></clipPath><clipPath id="clip17"><path d="M570 411 620 411 620 461 570 461Z" fill-rule="evenodd" clip-rule="evenodd"/></clipPath><clipPath id="clip18"><path d="M570 411 620 411 620 461 570 461Z" fill-rule="evenodd" clip-rule="evenodd"/></clipPath><clipPath id="clip19"><path d="M346 224 428 224 428 306 346 306Z" fill-rule="evenodd" clip-rule="evenodd"/></clipPath><clipPath id="clip20"><path d="M346 224 428 224 428 306 346 306Z" fill-rule="evenodd" clip-rule="evenodd"/></clipPath><clipPath id="clip21"><path d="M346 224 428 224 428 306 346 306Z" fill-rule="evenodd" clip-rule="evenodd"/></clipPath></defs><g clip-path="url(#clip0)" transform="translate(-308 -140)"><g clip-path="url(#clip1)"><g clip-path="url(#clip2)"><g clip-path="url(#clip3)"><path d="M768.5 453.501C755.781 453.517 745.457 443.219 745.441 430.5 745.424 417.781 755.722 407.457 768.441 407.441 781.16 407.424 791.484 417.722 791.501 430.441 791.501 430.461 791.501 430.48 791.501 430.5 791.474 443.192 781.192 453.474 768.5 453.501ZM768.5 409.401C756.863 409.384 747.417 418.805 747.401 430.441 747.384 442.078 756.805 451.524 768.441 451.541 780.078 451.557 789.524 442.137 789.541 430.5 789.546 418.868 780.132 409.428 768.5 409.401Z" fill="#3F8624"/><path d="M763.669 445.837 762.238 444.504 775.36 430.5 762.238 416.437 763.669 415.104 777.457 429.804C777.806 430.18 777.806 430.761 777.457 431.137Z" fill="#3F8624"/><path d="M997.82 1215.97 804.672 1215.97 802.31 1289.47 638.65 1284.57 631.3-285.88 997.82-285.88 997.82 1215.97Z" stroke="#6CAE3E" stroke-width="2.94" stroke-miterlimit="10" fill="none"/></g></g></g><text fill="#0A0B0F" font-family="Calibri,Calibri_MSFontService,sans-serif" font-weight="400" font-size="16" transform="translate(736.547 474)">IoT<tspan x="24" y="0">action</tspan><tspan font-weight="700" x="-19.5267" y="19">Forward</tspan><tspan font-weight="700" x="39.5067" y="19">to</tspan><tspan font-weight="700" x="57.1866" y="19">JIT</tspan><tspan font-weight="700" x="74.8533" y="19">R</tspan></text><g clip-path="url(#clip4)"><g clip-path="url(#clip5)"><g clip-path="url(#clip6)"><path d="M568.41 167.84C564.235 167.84 560.85 164.455 560.85 160.28 560.85 156.105 564.235 152.72 568.41 152.72 571.486 152.695 574.263 154.556 575.41 157.41L576.3 157.41 577.71 155.89C578.087 155.487 578.72 155.466 579.123 155.843 579.139 155.858 579.155 155.874 579.17 155.89L580.59 157.41 580.86 157.41 582.28 155.89C582.657 155.487 583.29 155.466 583.693 155.843 583.709 155.858 583.725 155.874 583.74 155.89L585.15 157.41 586.43 157.41C586.662 157.411 586.887 157.488 587.07 157.63L589.35 159.51C589.774 159.864 589.83 160.495 589.476 160.919 589.452 160.947 589.427 160.974 589.4 161L587.69 162.87C587.501 163.079 587.232 163.199 586.95 163.2L575.36 163.2C574.204 166.017 571.455 167.852 568.41 167.84ZM568.41 154.72C565.339 154.699 562.833 157.171 562.812 160.242 562.792 163.313 565.264 165.819 568.334 165.84 570.807 165.857 572.993 164.239 573.7 161.87 573.832 161.433 574.244 161.141 574.7 161.16L586.51 161.16 587.21 160.38 586.02 159.38 584.67 159.38C584.393 159.379 584.128 159.263 583.94 159.06L583 158 582 159.05C581.812 159.253 581.547 159.369 581.27 159.37L580.1 159.37C579.823 159.369 579.558 159.253 579.37 159.05L578.37 158 577.37 159.05C577.182 159.253 576.917 159.369 576.64 159.37L574.64 159.37C574.184 159.39 573.772 159.097 573.64 158.66 572.945 156.345 570.827 154.749 568.41 154.72ZM566.41 163.28C564.753 163.28 563.41 161.937 563.41 160.28 563.41 158.623 564.753 157.28 566.41 157.28 568.067 157.28 569.41 158.623 569.41 160.28 569.41 161.937 568.067 163.28 566.41 163.28ZM566.41 159.28C565.858 159.28 565.41 159.728 565.41 160.28 565.41 160.832 565.858 161.28 566.41 161.28 566.962 161.28 567.41 160.832 567.41 160.28 567.41 159.728 566.962 159.28 566.41 159.28Z" fill="#3F8624"/><path d="M575 178.16C564.866 178.182 556.632 169.984 556.61 159.85 556.588 149.716 564.786 141.482 574.92 141.46 585.054 141.438 593.288 149.636 593.31 159.77 593.31 159.783 593.31 159.797 593.31 159.81 593.299 169.924 585.114 178.127 575 178.16ZM575 143.47C565.97 143.448 558.632 150.75 558.61 159.78 558.588 168.81 565.89 176.148 574.92 176.17 583.95 176.192 591.288 168.89 591.31 159.86 591.31 159.843 591.31 159.827 591.31 159.81 591.294 150.804 584.006 143.503 575 143.47Z" fill="#3F8624"/><path d="M582.47 188.94C582.266 188.94 582.067 188.877 581.9 188.76L575 184 568 188.76C567.701 188.958 567.32 188.98 567 188.82 566.675 188.647 566.471 188.309 566.47 187.94L566.47 177.16 568.47 177.16 568.47 186 574.4 182C574.743 181.762 575.197 181.762 575.54 182L581.47 186 581.47 177.16 583.47 177.16 583.47 187.94C583.467 188.311 583.259 188.649 582.93 188.82 582.79 188.899 582.631 188.941 582.47 188.94Z" fill="#3F8624"/><path d="M668 826.5 470.91 826.5 468.5 901.5 301.5 896.5 294-706 668-706 668 826.5Z" stroke="#6CAE3E" stroke-width="3" stroke-miterlimit="10" fill="none"/></g></g></g><text fill="#0A0B0F" font-family="Calibri,Calibri_MSFontService,sans-serif" font-weight="700" font-size="16" transform="translate(554.491 214)">Device <tspan x="-11.9933" y="19">Certificate</tspan></text><g clip-path="url(#clip7)"><g clip-path="url(#clip8)"><g clip-path="url(#clip9)"><path d="M38.2788 38.3376 30.8406 38.3376C30.4601 38.3403 30.1124 38.1225 29.9488 37.779L19.5216 15.3762 15.3076 15.3762C15.0491 15.3725 14.8025 15.2668 14.6216 15.0822 14.437 14.9013 14.3313 14.6547 14.3276 14.3962L14.3276 7.9576C14.3276 7.41636 14.7664 6.9776 15.3076 6.9776L24.6078 6.9776C24.9928 6.9784 25.3417 7.20461 25.4996 7.5558L35.8876 29.9488 38.2788 29.9488C38.82 29.9488 39.2588 30.3876 39.2588 30.9288L39.2588 37.3576C39.2588 37.8988 38.82 38.3376 38.2788 38.3376ZM31.4188 36.3776 37.2988 36.3776 37.2988 31.9088 35.28 31.9088C34.8972 31.9097 34.549 31.6878 34.3882 31.3404L23.9904 8.9376 16.2974 8.9376 16.2974 13.4162 20.1488 13.4162C20.5316 13.4153 20.8798 13.6372 21.0406 13.9846Z" fill="#3F8624" transform="matrix(1 0 -0 1.02041 742 229)"/><path d="M18.0614 38.3376 10.1038 38.3376C9.56256 38.3361 9.12504 37.8961 9.12657 37.3548 9.12698 37.21 9.15951 37.067 9.2218 36.9362L17.542 19.5118C17.7041 19.1715 18.047 18.9543 18.424 18.9532L18.424 18.9532C18.7987 18.9525 19.1411 19.1655 19.306 19.502L23.2946 27.734C23.4216 28.0006 23.4216 28.3102 23.2946 28.5768L18.9434 37.779C18.7813 38.1193 18.4384 38.3365 18.0614 38.3376ZM11.662 36.3776 17.4342 36.3776 21.3542 28.1652 18.4142 22.197Z" fill="#3F8624" transform="matrix(1 0 -0 1.02041 742 229)"/><path d="M24.5 47.53C11.7809 47.53 1.47 37.2191 1.47 24.5 1.47 11.7809 11.7809 1.47 24.5 1.47 37.2191 1.47 47.53 11.7809 47.53 24.5 47.5192 37.2146 37.2146 47.5192 24.5 47.53ZM24.5 3.43C12.8634 3.43 3.43 12.8634 3.43 24.5 3.43 36.1366 12.8634 45.57 24.5 45.57 36.1366 45.57 45.57 36.1366 45.57 24.5 45.5592 12.8678 36.1322 3.44081 24.5 3.43Z" fill="#3F8624" transform="matrix(1 0 -0 1.02041 742 229)"/><path d="M116.62 398.37-76.5282 398.37-78.89 471.87-242.55 466.97-249.9-1103.48 116.62-1103.48 116.62 398.37Z" stroke="#6CAE3E" stroke-width="2.94" stroke-miterlimit="10" fill="none" transform="matrix(1 0 -0 1.02041 742 229)"/></g></g></g><text fill="#0A0B0F" font-family="Calibri,Calibri_MSFontService,sans-serif" font-weight="400" font-size="16" transform="translate(712.785 297)">Lambda <tspan x="55.1667" y="0">function</tspan><tspan font-weight="700" x="41.3333" y="19">JITR</tspan></text><g clip-path="url(#clip10)"><g clip-path="url(#clip11)"><g clip-path="url(#clip12)"><path d="M572.334 332.71 552.665 332.71C551.458 332.715 550.475 331.741 550.47 330.534 550.47 330.531 550.47 330.527 550.47 330.524L550.47 299.86C550.475 298.651 551.457 297.675 552.665 297.675L575.048 297.675C576.253 297.68 577.228 298.655 577.234 299.86L577.234 314.286 575.274 314.286 575.274 299.86C575.279 299.736 575.183 299.63 575.058 299.625 575.055 299.625 575.052 299.625 575.048 299.625L552.665 299.625C552.535 299.625 552.43 299.73 552.43 299.86L552.43 330.524C552.43 330.649 552.531 330.75 552.655 330.75 552.659 330.75 552.662 330.75 552.665 330.75L572.334 330.75Z" fill="#3F8624"/><path d="M555.354 303.026 556.74 301.64 563.17 308.071 561.784 309.457Z" fill="#3F8624"/><path d="M555.354 308.071 561.784 301.64 563.17 303.026 556.74 309.457Z" fill="#3F8624"/><path d="M555.354 313.13 556.74 311.744 563.171 318.175 561.785 319.561Z" fill="#3F8624"/><path d="M555.354 318.175 561.785 311.744 563.171 313.13 556.74 319.561Z" fill="#3F8624"/><path d="M558.192 329.956C557.922 329.957 557.663 329.848 557.477 329.652L554.419 326.438 555.86 325.085 558.222 327.555 563.631 321.871 565.052 323.223 558.898 329.652C558.714 329.845 558.459 329.955 558.192 329.956Z" fill="#3F8624"/><path d="M584.525 337.325C577.895 337.325 572.52 331.951 572.52 325.32 572.52 318.69 577.895 313.315 584.525 313.315 591.155 313.315 596.53 318.69 596.53 325.32 596.53 325.327 596.53 325.333 596.53 325.34 596.508 331.958 591.143 337.315 584.525 337.325ZM584.525 315.275C578.977 315.275 574.48 319.773 574.48 325.32 574.48 330.868 578.977 335.365 584.525 335.365 590.065 335.365 594.559 330.88 594.57 325.34 594.575 319.787 590.078 315.281 584.525 315.275Z" fill="#3F8624"/><path d="M580.527 330.877C577.701 330.877 575.411 328.587 575.411 325.761 575.411 322.936 577.701 320.646 580.527 320.646 582.484 320.628 584.297 321.675 585.26 323.38L585.574 323.38 586.416 322.665C586.783 322.351 587.324 322.351 587.69 322.665L588.553 323.38 589.386 322.665C589.754 322.345 590.301 322.345 590.67 322.665L591.503 323.38 592.257 323.38C592.505 323.381 592.743 323.475 592.924 323.645L594.374 325.046C594.751 325.396 594.794 325.978 594.472 326.379L593.365 327.761C593.178 327.991 592.897 328.124 592.6 328.123L585.26 328.123C584.302 329.836 582.488 330.891 580.527 330.877ZM580.527 322.606C578.784 322.606 577.371 324.019 577.371 325.761 577.371 327.504 578.784 328.917 580.527 328.917 581.911 328.937 583.163 328.098 583.672 326.81 583.813 326.422 584.181 326.163 584.594 326.163L592.12 326.163 592.365 325.859 591.846 325.34 591.14 325.34C590.906 325.34 590.681 325.257 590.503 325.105L590.023 324.703 589.552 325.105C589.375 325.257 589.149 325.34 588.915 325.34L588.171 325.34C587.937 325.34 587.711 325.257 587.534 325.105L587.053 324.703 586.583 325.105C586.405 325.257 586.18 325.34 585.946 325.34L584.594 325.34C584.181 325.34 583.813 325.081 583.672 324.693 583.157 323.413 581.906 322.583 580.527 322.606Z" fill="#3F8624"/><path d="M580.85 325.761C580.85 326.47 580.275 327.045 579.566 327.045 578.857 327.045 578.282 326.47 578.282 325.761 578.282 325.052 578.857 324.478 579.566 324.478 580.275 324.478 580.85 325.052 580.85 325.761Z" fill="#3F8624"/><path d="M665.62 622.77 472.472 622.77 470.11 696.27 306.45 691.37 299.1-879.08 665.62-879.08 665.62 622.77Z" stroke="#6CAE3E" stroke-width="2.94" stroke-miterlimit="10" fill="none"/></g></g></g><text fill="#0A0B0F" font-family="Calibri,Calibri_MSFontService,sans-serif" font-weight="400" font-size="16" transform="translate(542.465 366)">IoT<tspan x="24" y="0">policy</tspan><tspan font-weight="700" x="-11.7333" y="19">Allow</tspan><tspan font-weight="700" x="30.2333" y="19">Acces</tspan><tspan font-weight="700" x="67.5667" y="19">s</tspan></text><g clip-path="url(#clip13)"><g clip-path="url(#clip14)"><g clip-path="url(#clip15)"><path d="M460.95 450.445 406.05 450.445C405.376 450.445 404.83 449.899 404.83 449.225L404.83 421.775C404.83 421.101 405.376 420.555 406.05 420.555L460.95 420.555C461.624 420.555 462.17 421.101 462.17 421.775L462.17 449.225C462.17 449.899 461.624 450.445 460.95 450.445ZM407.27 448.005 459.73 448.005 459.73 422.995 407.27 422.995Z" fill="#3F8624"/><path d="M438.612 417.847C437.85 415.023 434.943 413.353 432.12 414.115 430.301 414.606 428.879 416.027 428.388 417.847L426.034 417.2C427.123 413.076 431.349 410.617 435.473 411.706 438.159 412.416 440.257 414.514 440.966 417.2Z" fill="#3F8624"/><path d="M442.674 415.346C440.491 410.292 434.625 407.965 429.571 410.149 427.24 411.156 425.381 413.015 424.374 415.346L422.13 414.382C424.809 408.075 432.095 405.135 438.401 407.815 441.358 409.071 443.712 411.425 444.968 414.382Z" fill="#3F8624"/><path d="M433.5 459.51C430.003 459.523 426.937 457.178 426.034 453.8L428.388 453.178C429.15 456.001 432.057 457.672 434.88 456.91 436.699 456.418 438.121 454.997 438.612 453.178L440.966 453.8C440.063 457.178 436.997 459.523 433.5 459.51Z" fill="#3F8624"/><path d="M433.5 464.17C428.523 464.174 424.026 461.2 422.081 456.618L424.326 455.654C426.509 460.708 432.375 463.035 437.429 460.851 439.76 459.844 441.619 457.985 442.626 455.654L444.87 456.618C442.932 461.184 438.46 464.154 433.5 464.17Z" fill="#3F8624"/><path d="M415.773 439.502C415.773 441.078 414.495 442.356 412.919 442.356 411.342 442.356 410.064 441.078 410.064 439.502 410.064 437.925 411.342 436.647 412.919 436.647 414.495 436.647 415.773 437.925 415.773 439.502Z" fill="#3F8624"/><path d="M411.699 441.222 414.139 441.222 414.139 449.225 411.699 449.225Z" fill="#3F8624"/><path d="M417.506 429.241C417.506 430.818 416.228 432.096 414.651 432.096 413.074 432.096 411.796 430.818 411.796 429.241 411.796 427.665 413.074 426.387 414.651 426.387 416.228 426.387 417.506 427.665 417.506 429.241Z" fill="#3F8624"/><path d="M423.289 449.225 420.849 449.225 420.849 437.147 414.334 430.644 416.066 428.924 423.289 436.134 423.289 449.225Z" fill="#3F8624"/><path d="M457.595 436.72 448.286 436.72 448.286 427.424 457.595 427.424ZM450.726 434.28 455.155 434.28 455.155 429.864 450.726 429.864Z" fill="#3F8624"/><path d="M443.785 432.072C443.785 433.648 442.506 434.927 440.93 434.927 439.353 434.927 438.075 433.648 438.075 432.072 438.075 430.495 439.353 429.217 440.93 429.217 442.506 429.217 443.785 430.495 443.785 432.072Z" fill="#3F8624"/><path d="M441.503 430.852 449.506 430.852 449.506 433.292 441.503 433.292Z" fill="#3F8624"/><path d="M439.783 442.369C439.783 443.945 438.505 445.223 436.928 445.223 435.352 445.223 434.073 443.945 434.073 442.369 434.073 440.792 435.352 439.514 436.928 439.514 438.505 439.514 439.783 440.792 439.783 442.369Z" fill="#3F8624"/><path d="M439.222 441.149 460.95 441.149 460.95 443.589 439.222 443.589Z" fill="#3F8624"/><path d="M433.5 434.927C433.5 436.503 432.222 437.781 430.645 437.781 429.069 437.781 427.79 436.503 427.79 434.927 427.79 433.35 429.069 432.072 430.645 432.072 432.222 432.072 433.5 433.35 433.5 434.927Z" fill="#3F8624"/><path d="M429.23 435.244 422.02 428.034 421.983 421.787 424.423 421.763 424.448 427.021 430.962 433.524 429.23 435.244Z" fill="#3F8624"/><path d="M718.98 986.33 478.53 986.33 475.59 1077.83 271.85 1071.73 262.7-883.32 718.98-883.32 718.98 986.33Z" stroke="#6CAE3E" stroke-width="3.66" stroke-miterlimit="10" fill="none"/></g></g></g><text fill="#0A0B0F" font-family="Calibri,Calibri_MSFontService,sans-serif" font-weight="400" font-size="16" transform="translate(373.529 491)">PIC &amp; AVR IoT Board</text><g clip-path="url(#clip16)"><g clip-path="url(#clip17)"><g clip-path="url(#clip18)"><path d="M604.44 423.76 602.44 423.76 602.44 414.54 587.56 414.54 587.56 423.76 585.56 423.76 585.56 413.54C585.56 412.988 586.008 412.54 586.56 412.54L603.44 412.54C603.992 412.54 604.44 412.988 604.44 413.54Z" fill="#3F8624"/><path d="M593.85 426.08 596.16 426.08 596.16 428.08 593.85 428.08Z" fill="#3F8624"/><path d="M595 422.44C594.747 422.439 594.504 422.343 594.32 422.17L585.88 414.27 587.25 412.81 595 420.07 602.75 412.81 604.12 414.27 595.68 422.17C595.496 422.343 595.253 422.439 595 422.44Z" fill="#3F8624"/><path d="M595 459.46C587.24 459.46 579 457.24 579 453.14L579 422.69C579 422.454 579.03 422.218 579.09 421.99 579.44 420.52 580.88 419.26 583.38 418.25L584.12 420.1C582.34 420.82 581.22 421.68 581.03 422.47 581.02 422.543 581.02 422.617 581.03 422.69L581.03 453.14C581.03 454.94 586.36 457.46 595.03 457.46 603.7 457.46 609.03 454.94 609.03 453.14L609.03 422.69C609.04 422.617 609.04 422.543 609.03 422.47 608.84 421.68 607.72 420.82 605.94 420.1L606.68 418.25C609.18 419.25 610.62 420.52 610.98 422 611.032 422.226 611.059 422.458 611.06 422.69L611.06 453.14C611 457.24 602.76 459.46 595 459.46Z" fill="#3F8624"/><path d="M595 428.1C587.05 428.1 579 426 579 422L581 422C581 423.68 586.45 426.12 595 426.12 603.55 426.12 609 423.66 609 422L611 422C611 426 603 428.1 595 428.1Z" fill="#3F8624"/><path d="M829 467.5 631.91 467.5 629.5 542.5 462.5 537.5 455-1065 829-1065 829 467.5Z" stroke="#6CAE3E" stroke-width="3" stroke-miterlimit="10" fill="none"/></g></g></g><text fill="#0A0B0F" font-family="Calibri,Calibri_MSFontService,sans-serif" font-weight="400" font-size="16" transform="translate(566.127 476)">IoT<tspan x="24" y="0">Topic</tspan><tspan font-weight="700" x="1.54004" y="19">Connect</tspan></text><path d="M481.5 436.833 545.073 436.833 545.073 438.167 481.5 438.167ZM540.179 432.332 546.085 437.5 540.179 442.669C539.902 442.911 539.48 442.883 539.238 442.606 538.995 442.329 539.024 441.908 539.301 441.665L544.634 436.998 544.634 438.002 539.301 433.335C539.024 433.093 538.995 432.672 539.238 432.394 539.48 432.117 539.902 432.089 540.179 432.332Z" fill="#545B64"/><g clip-path="url(#clip19)"><g clip-path="url(#clip20)"><g clip-path="url(#clip21)"><path d="M346 224 428 224 428 306 346 306Z" fill="#3F8624"/><path d="M371.147 274.61 370.994 274.61C364.738 274.581 359.691 269.486 359.72 263.23 359.742 258.649 362.521 254.531 366.762 252.798 367.13 244.728 373.971 238.483 382.042 238.851 387.388 239.095 392.175 242.238 394.522 247.047 397.98 244.924 402.504 246.006 404.628 249.464 405.247 250.473 405.614 251.617 405.696 252.798 410.716 253.733 414.351 258.122 414.333 263.229 414.353 266.068 413.16 268.781 411.053 270.685L409.555 269.089C411.209 267.608 412.152 265.492 412.147 263.273 412.176 258.898 408.85 255.23 404.493 254.832 403.907 254.78 403.467 254.272 403.498 253.684L403.498 253.52C403.504 253.447 403.504 253.374 403.498 253.301 403.504 250.437 401.191 248.109 398.327 248.097 396.996 248.096 395.718 248.614 394.763 249.54 394.497 249.8 394.119 249.907 393.757 249.825 393.414 249.733 393.136 249.48 393.013 249.147 390.623 242.698 383.458 239.407 377.009 241.798 372.109 243.613 368.864 248.295 368.883 253.52 368.885 253.99 368.585 254.408 368.14 254.559 363.346 256.138 360.739 261.306 362.319 266.1 363.548 269.83 367.023 272.358 370.95 272.38L371.147 272.38Z" fill="#FFFFFF"/><path d="M403.826 268.892C402.531 265.097 399.589 262.091 395.823 260.714 395.608 258.157 393.36 256.259 390.803 256.474 388.545 256.664 386.753 258.456 386.563 260.714 382.801 262.098 379.862 265.101 378.559 268.892 376.005 269.064 374.073 271.274 374.245 273.828 374.406 276.235 376.387 278.116 378.8 278.153 380.111 281.462 382.677 284.119 385.939 285.544L385.939 291.163 388.126 291.163 388.126 286.32C388.843 286.499 389.575 286.613 390.313 286.659L390.313 291.218 392.499 291.218 392.499 286.582C393.239 286.51 393.971 286.371 394.686 286.167L394.686 291.163 396.873 291.163 396.873 285.38C399.977 283.928 402.407 281.342 403.662 278.153 406.222 278.095 408.25 275.974 408.193 273.414 408.139 271.011 406.258 269.048 403.859 268.892ZM378.953 275.977C377.594 275.977 376.493 274.876 376.493 273.517 376.493 272.158 377.594 271.057 378.953 271.057 380.312 271.057 381.413 272.158 381.413 273.517 381.413 274.876 380.312 275.977 378.953 275.977ZM385.907 283.117C383.719 281.904 381.991 280.006 380.987 277.715 382.216 277.141 383.129 276.053 383.479 274.742L385.907 274.742ZM390.28 284.418C389.54 284.355 388.807 284.219 388.093 284.013L388.093 273.659C388.093 273.055 387.604 272.566 387 272.566L383.501 272.566C383.177 271.09 382.153 269.865 380.757 269.286 381.854 266.416 384.09 264.128 386.934 262.966 387.538 264.362 388.789 265.371 390.28 265.667ZM391.198 263.535C389.84 263.535 388.738 262.434 388.738 261.075 388.738 259.716 389.84 258.615 391.198 258.615 392.557 258.615 393.658 259.716 393.658 261.075 393.658 262.434 392.557 263.535 391.198 263.535ZM395.779 272.577C395.176 272.577 394.686 273.066 394.686 273.67L394.686 283.904C393.974 284.134 393.242 284.295 392.499 284.385L392.499 265.547C393.839 265.172 394.936 264.212 395.484 262.934 398.332 264.09 400.571 266.379 401.662 269.253 400.268 269.835 399.245 271.059 398.917 272.533ZM396.873 282.92 396.873 274.763 398.994 274.763C399.357 276.066 400.272 277.145 401.498 277.715 400.526 279.894 398.898 281.714 396.84 282.92ZM403.433 275.977C402.074 275.977 400.973 274.876 400.973 273.517 400.973 272.158 402.074 271.057 403.433 271.057 404.791 271.057 405.893 272.158 405.893 273.517 405.887 274.869 404.796 275.965 403.444 275.977Z" fill="#FFFFFF"/></g></g></g><path d="M629.5 436.833 731.875 436.833 731.875 438.167 629.5 438.167ZM726.98 432.332 732.887 437.5 726.98 442.669C726.703 442.911 726.282 442.883 726.039 442.606 725.797 442.329 725.825 441.908 726.102 441.665L731.435 436.998 731.435 438.002 726.102 433.335C725.825 433.093 725.797 432.672 726.039 432.395 726.282 432.117 726.703 432.089 726.98 432.332Z" fill="#545B64"/><text fill="#0A0B0F" font-family="Calibri,Calibri_MSFontService,sans-serif" font-style="italic" font-weight="400" font-size="16" transform="translate(623.235 405)">Certificate<tspan x="70.2266" y="0">Signed</tspan><tspan x="12.82" y="19">But Unknown</tspan></text><path d="M0.5-9.05919e-07 0.500104 57.185-0.499896 57.185-0.5 9.05919e-07ZM5.04305 52.1809 0.000105083 57.9443-5.04286 52.1809C-5.2247 51.9731-5.20364 51.6572-4.99583 51.4754-4.78801 51.2935-4.47213 51.3146-4.29029 51.5224L0.376391 56.8557-0.376185 56.8557 4.29047 51.5224C4.47231 51.3146 4.78819 51.2935 4.99601 51.4754 5.20383 51.6572 5.22489 51.9731 5.04305 52.1809Z" fill="#545B64" transform="matrix(1 0 0 -1 769.5 394.445)"/><path d="M0.759488-0.5 61-0.5C61.2761-0.5 61.5-0.276142 61.5 0L61.5 157C61.5 157.276 61.2761 157.5 61 157.5L47.3061 157.5 0.759947 157.5 0.759947 156.5 47.3061 156.5 61 156.5 60.5 157 60.5 0 61 0.5 0.759488 0.5ZM5.76408 5.04295 0.000703894 0 5.76408-5.04295C5.9719-5.2248 6.28778-5.20374 6.46962-4.99592 6.65146-4.7881 6.6304-4.47222 6.42259-4.29038L1.08925 0.376288 1.08925-0.376288 6.42259 4.29038C6.6304 4.47222 6.65146 4.7881 6.46962 4.99592 6.28778 5.20374 5.9719 5.2248 5.76408 5.04295ZM5.76408 162.043 0.00070374 157 5.76408 151.957C5.9719 151.775 6.28778 151.796 6.46962 152.004 6.65146 152.212 6.6304 152.528 6.42259 152.71L1.08925 157.376 1.08925 156.624 6.42259 161.29C6.6304 161.472 6.65146 161.788 6.46962 161.996 6.28778 162.204 5.9719 162.225 5.76408 162.043Z" fill="#545B64" transform="matrix(1 -0 -0 -1 611.5 344.5)"/><path d="M0 0 38.2682 0.000104987" stroke="#545B64" stroke-linejoin="round" stroke-miterlimit="10" fill="none" fill-rule="evenodd" transform="matrix(-1 -8.74228e-08 -8.74228e-08 1 710.768 255.5)"/><path d="M0 0 55 0 55 157 42.6531 157 0 157" stroke="#545B64" stroke-width="1.33333" stroke-linejoin="round" stroke-miterlimit="10" fill="none" fill-rule="evenodd" transform="matrix(-1 -8.74228e-08 -8.74228e-08 1 531.5 187.5)"/><path d="M2.02869e-06-0.666667 33.4875-0.666565 33.4875 0.666769-2.02869e-06 0.666667ZM28.5931-5.1683 34.4998 0.00010487 28.5931 5.16847C28.316 5.41092 27.8948 5.38285 27.6524 5.10575 27.4099 4.82866 27.438 4.40749 27.7151 4.16503L33.0485-0.501617 33.0484 0.501818 27.7151-4.16486C27.438-4.40732 27.41-4.82849 27.6524-5.10559 27.8949-5.38268 28.316-5.41075 28.5931-5.1683Z" fill="#545B64" transform="matrix(-1 -8.74228e-08 -8.74228e-08 1 477.001 265.5)"/><text fill="#0A0B0F" font-family="Calibri,Calibri_MSFontService,sans-serif" font-style="italic" font-weight="400" font-size="16" transform="translate(486.398 273)">Register<tspan font-style="normal" x="-145.857" y="55">AWS IoT Core</tspan></text></g></svg>