<?xml version="1.0" encoding="UTF-8" standalone="no"?>
<svg
   xmlns:dc="http://purl.org/dc/elements/1.1/"
   xmlns:cc="http://creativecommons.org/ns#"
   xmlns:rdf="http://www.w3.org/1999/02/22-rdf-syntax-ns#"
   xmlns:svg="http://www.w3.org/2000/svg"
   xmlns="http://www.w3.org/2000/svg"
   xmlns:sodipodi="http://sodipodi.sourceforge.net/DTD/sodipodi-0.dtd"
   xmlns:inkscape="http://www.inkscape.org/namespaces/inkscape"
   width="1300"
   height="139.9561"
   viewBox="0 0 343.95833 37.030054"
   version="1.1"
   id="svg8"
   inkscape:version="1.0 (4035a4fb49, 2020-05-01)"
   sodipodi:docname="next_primary.svg">
  <defs
     id="defs2" />
  <sodipodi:namedview
     id="base"
     pagecolor="#ffffff"
     bordercolor="#666666"
     borderopacity="1.0"
     inkscape:pageopacity="0.0"
     inkscape:pageshadow="2"
     inkscape:zoom="0.7"
     inkscape:cx="647.99268"
     inkscape:cy="196.77654"
     inkscape:document-units="mm"
     inkscape:current-layer="layer1"
     showgrid="false"
     units="px"
     inkscape:snap-global="true"
     inkscape:snap-page="true"
     inkscape:window-width="1920"
     inkscape:window-height="1137"
     inkscape:window-x="-8"
     inkscape:window-y="-8"
     inkscape:window-maximized="1"
     fit-margin-top="0"
     fit-margin-left="0"
     fit-margin-right="0"
     fit-margin-bottom="0"
     inkscape:document-rotation="0" />
  <metadata
     id="metadata5">
    <rdf:RDF>
      <cc:Work
         rdf:about="">
        <dc:format>image/svg+xml</dc:format>
        <dc:type
           rdf:resource="http://purl.org/dc/dcmitype/StillImage" />
        <dc:title />
      </cc:Work>
    </rdf:RDF>
  </metadata>
  <g
     inkscape:label="Layer 1"
     inkscape:groupmode="layer"
     id="layer1"
     transform="translate(18.758024,-252.02661)">
    <rect
       style="opacity:0.97;fill:#ee2a24;fill-opacity:1;stroke:#ee2a24;stroke-width:1;stroke-linecap:butt;stroke-linejoin:round;stroke-miterlimit:4;stroke-dasharray:none;stroke-dashoffset:0;stroke-opacity:1;paint-order:normal"
       id="rect817"
       width="278.34521"
       height="36.030052"
       x="14.048535"
       y="252.57567"
       ry="1.4827397"
       rx="1.7103499" />
    <g
       style="font-style:normal;font-weight:normal;font-size:9.87778px;line-height:1.25;font-family:sans-serif;letter-spacing:0px;word-spacing:0px;fill:#000000;fill-opacity:1;stroke:none;stroke-width:0.264583"
       id="text827"
       aria-label="Return to Main Path"
       transform="translate(-6.5568777)">
      <path
         id="path837"
         style="font-style:normal;font-variant:normal;font-weight:bold;font-stretch:normal;font-size:11.2889px;line-height:1.25;font-family:sans-serif;-inkscape-font-specification:'sans-serif Bold';fill:#ffffff;fill-opacity:1;stroke-width:0.264583"
         d="m 95.393088,262.17069 q 0,-0.30868 -0.126779,-0.52917 -0.12678,-0.22049 -0.435461,-0.34727 -0.214974,-0.0882 -0.501606,-0.10473 -0.286633,-0.0221 -0.666971,-0.0221 h -0.76619 v 2.21038 h 0.650434 q 0.507119,0 0.848873,-0.0496 0.341753,-0.0496 0.573264,-0.226 0.220486,-0.17088 0.319705,-0.37483 0.104731,-0.20946 0.104731,-0.55672 z m 3.301783,5.69406 h -2.585202 l -2.237936,-3.00964 h -0.975652 v 3.00964 h -2.105645 v -8.20761 h 3.54983 q 0.727605,0 1.25126,0.0827 0.523655,0.0827 0.981164,0.35829 0.463021,0.27561 0.733117,0.71659 0.275608,0.43546 0.275608,1.09692 0,0.9095 -0.424436,1.48277 -0.418924,0.57326 -1.201651,0.9536 z" />
      <path
         id="path839"
         style="font-style:normal;font-variant:normal;font-weight:bold;font-stretch:normal;font-size:11.2889px;line-height:1.25;font-family:sans-serif;-inkscape-font-specification:'sans-serif Bold';fill:#ffffff;fill-opacity:1;stroke-width:0.264583"
         d="m 105.61814,265.13623 h -4.54202 q 0.0441,0.7276 0.55122,1.11345 0.51263,0.38585 1.50482,0.38585 0.62838,0 1.21819,-0.22599 0.5898,-0.226 0.93155,-0.48507 h 0.22049 v 1.59301 q -0.67249,0.2701 -1.2678,0.39136 -0.59531,0.12127 -1.31741,0.12127 -1.8631,0 -2.85529,-0.83785 -0.992192,-0.83785 -0.992192,-2.38676 0,-1.53238 0.937062,-2.42535 0.94258,-0.89848 2.5797,-0.89848 1.51033,0 2.271,0.76619 0.76068,0.76067 0.76068,2.19384 z m -1.97335,-1.16307 q -0.0165,-0.62287 -0.30868,-0.93706 -0.29215,-0.3142 -0.90951,-0.3142 -0.57326,0 -0.94258,0.29766 -0.36931,0.29766 -0.41341,0.9536 z" />
      <path
         id="path841"
         style="font-style:normal;font-variant:normal;font-weight:bold;font-stretch:normal;font-size:11.2889px;line-height:1.25;font-family:sans-serif;-inkscape-font-specification:'sans-serif Bold';fill:#ffffff;fill-opacity:1;stroke-width:0.264583"
         d="m 110.97596,267.80962 q -0.31971,0.0827 -0.678,0.12678 -0.35829,0.0496 -0.87643,0.0496 -1.15755,0 -1.7253,-0.46853 -0.56224,-0.46853 -0.56224,-1.60404 v -2.89388 h -0.8158 v -1.34497 h 0.8158 v -1.7694 h 1.98437 v 1.7694 h 1.8576 v 1.34497 h -1.8576 v 2.19384 q 0,0.32522 0.006,0.56775 0.006,0.24254 0.0882,0.43546 0.0772,0.19293 0.2701,0.30868 0.19843,0.11024 0.57326,0.11024 0.15434,0 0.40239,-0.0661 0.25356,-0.0661 0.35278,-0.12127 h 0.16536 z" />
      <path
         id="path843"
         style="font-style:normal;font-variant:normal;font-weight:bold;font-stretch:normal;font-size:11.2889px;line-height:1.25;font-family:sans-serif;-inkscape-font-specification:'sans-serif Bold';fill:#ffffff;fill-opacity:1;stroke-width:0.264583"
         d="m 118.32367,267.86475 h -1.98438 v -0.68351 q -0.55122,0.41892 -1.00873,0.63941 -0.4575,0.21497 -1.0914,0.21497 -1.02526,0 -1.58199,-0.5898 -0.55122,-0.5898 -0.55122,-1.74184 v -4.02939 h 1.9954 v 3.07027 q 0,0.46854 0.0276,0.78273 0.0331,0.30868 0.14332,0.51263 0.10473,0.20395 0.31419,0.29766 0.21498,0.0937 0.59532,0.0937 0.25356,0 0.56224,-0.0937 0.30868,-0.0937 0.59531,-0.27561 v -4.38768 h 1.98438 z" />
      <path
         id="path845"
         style="font-style:normal;font-variant:normal;font-weight:bold;font-stretch:normal;font-size:11.2889px;line-height:1.25;font-family:sans-serif;-inkscape-font-specification:'sans-serif Bold';fill:#ffffff;fill-opacity:1;stroke-width:0.264583"
         d="m 124.69021,263.56526 h -0.17639 q -0.12678,-0.0441 -0.4079,-0.0661 -0.28112,-0.022 -0.46853,-0.022 -0.42444,0 -0.74966,0.0551 -0.32521,0.0551 -0.70004,0.18741 v 4.14515 h -1.98438 v -6.19016 h 1.98438 v 0.90951 q 0.65595,-0.56224 1.14102,-0.74414 0.48507,-0.18742 0.89297,-0.18742 0.10473,0 0.23702,0.006 0.13229,0.006 0.23151,0.0165 z" />
      <path
         id="path847"
         style="font-style:normal;font-variant:normal;font-weight:bold;font-stretch:normal;font-size:11.2889px;line-height:1.25;font-family:sans-serif;-inkscape-font-specification:'sans-serif Bold';fill:#ffffff;fill-opacity:1;stroke-width:0.264583"
         d="m 132.04343,267.86475 h -1.9954 v -3.07028 q 0,-0.37482 -0.0386,-0.74414 -0.0386,-0.37482 -0.13229,-0.55121 -0.11024,-0.20395 -0.32522,-0.29766 -0.20946,-0.0937 -0.5898,-0.0937 -0.27009,0 -0.55121,0.0882 -0.27561,0.0882 -0.60083,0.28112 v 4.38768 h -1.98437 v -6.19016 h 1.98437 v 0.68351 q 0.52917,-0.41341 1.01424,-0.6339 0.49058,-0.22048 1.0859,-0.22048 1.00321,0 1.56545,0.58428 0.56775,0.58429 0.56775,1.74736 z" />
      <path
         id="path849"
         style="font-style:normal;font-variant:normal;font-weight:bold;font-stretch:normal;font-size:11.2889px;line-height:1.25;font-family:sans-serif;-inkscape-font-specification:'sans-serif Bold';fill:#ffffff;fill-opacity:1;stroke-width:0.264583"
         d="m 141.68971,267.80962 q -0.31971,0.0827 -0.678,0.12678 -0.35829,0.0496 -0.87643,0.0496 -1.15755,0 -1.72531,-0.46853 -0.56224,-0.46853 -0.56224,-1.60404 v -2.89388 h -0.8158 v -1.34497 h 0.8158 v -1.7694 h 1.98438 v 1.7694 h 1.8576 v 1.34497 h -1.8576 v 2.19384 q 0,0.32522 0.006,0.56775 0.006,0.24254 0.0882,0.43546 0.0772,0.19293 0.27009,0.30868 0.19844,0.11024 0.57327,0.11024 0.15434,0 0.40238,-0.0661 0.25356,-0.0661 0.35278,-0.12127 h 0.16537 z" />
      <path
         id="path851"
         style="font-style:normal;font-variant:normal;font-weight:bold;font-stretch:normal;font-size:11.2889px;line-height:1.25;font-family:sans-serif;-inkscape-font-specification:'sans-serif Bold';fill:#ffffff;fill-opacity:1;stroke-width:0.264583"
         d="m 149.19727,264.77243 q 0,1.52686 -0.89297,2.40881 -0.88746,0.87643 -2.49701,0.87643 -1.60955,0 -2.50252,-0.87643 -0.88746,-0.88195 -0.88746,-2.40881 0,-1.5379 0.89297,-2.41433 0.89848,-0.87643 2.49701,-0.87643 1.62058,0 2.50252,0.88194 0.88746,0.88195 0.88746,2.40882 z m -2.44189,1.50481 q 0.19293,-0.23702 0.28663,-0.56775 0.0992,-0.33624 0.0992,-0.92604 0,-0.5457 -0.0992,-0.91502 -0.0992,-0.36931 -0.2756,-0.5898 -0.17639,-0.226 -0.42444,-0.3197 -0.24805,-0.0937 -0.53468,-0.0937 -0.28663,0 -0.51263,0.0772 -0.22049,0.0772 -0.42444,0.30868 -0.1819,0.21497 -0.29214,0.5898 -0.10473,0.37483 -0.10473,0.94258 0,0.50712 0.0937,0.88194 0.0937,0.36932 0.2756,0.59532 0.17639,0.21497 0.41893,0.31419 0.24804,0.0992 0.56224,0.0992 0.27009,0 0.51263,-0.0882 0.24805,-0.0937 0.41892,-0.30869 z" />
      <path
         id="path853"
         style="font-style:normal;font-variant:normal;font-weight:bold;font-stretch:normal;font-size:11.2889px;line-height:1.25;font-family:sans-serif;-inkscape-font-specification:'sans-serif Bold';fill:#ffffff;fill-opacity:1;stroke-width:0.264583"
         d="m 163.20366,267.86475 h -2.10564 v -5.49563 l -1.52136,3.56637 h -1.46072 l -1.52136,-3.56637 v 5.49563 h -1.9954 v -8.20761 h 2.45842 l 1.84658,4.11758 1.84106,-4.11758 h 2.45842 z" />
      <path
         id="path855"
         style="font-style:normal;font-variant:normal;font-weight:bold;font-stretch:normal;font-size:11.2889px;line-height:1.25;font-family:sans-serif;-inkscape-font-specification:'sans-serif Bold';fill:#ffffff;fill-opacity:1;stroke-width:0.264583"
         d="m 168.9308,266.24968 v -1.28984 q -0.40239,0.0331 -0.87093,0.0937 -0.46853,0.0551 -0.71106,0.13229 -0.29766,0.0937 -0.45751,0.27561 -0.15434,0.17638 -0.15434,0.46853 0,0.19292 0.0331,0.31419 0.0331,0.12127 0.16536,0.23151 0.12678,0.11025 0.30317,0.16537 0.17639,0.0496 0.55122,0.0496 0.29765,0 0.60082,-0.12127 0.30868,-0.12127 0.5402,-0.31971 z m 0,0.95912 q -0.15986,0.12127 -0.39688,0.29214 -0.23702,0.17088 -0.44649,0.2701 -0.29214,0.13229 -0.60633,0.19292 -0.3142,0.0661 -0.68902,0.0661 -0.88195,0 -1.47726,-0.5457 -0.59531,-0.54571 -0.59531,-1.39458 0,-0.67799 0.30316,-1.10794 0.30317,-0.42995 0.8599,-0.678 0.55122,-0.24805 1.36702,-0.35278 0.8158,-0.10473 1.69223,-0.15434 v -0.0331 q 0,-0.51263 -0.41892,-0.70556 -0.41893,-0.19843 -1.23473,-0.19843 -0.49058,0 -1.04731,0.17639 -0.55673,0.17087 -0.79926,0.26458 h -0.1819 v -1.4938 q 0.31419,-0.0827 1.01975,-0.19292 0.71107,-0.11576 1.42213,-0.11576 1.69224,0 2.44189,0.52366 0.75517,0.51814 0.75517,1.6316 v 4.21129 h -1.96784 z" />
      <path
         id="path857"
         style="font-style:normal;font-variant:normal;font-weight:bold;font-stretch:normal;font-size:11.2889px;line-height:1.25;font-family:sans-serif;-inkscape-font-specification:'sans-serif Bold';fill:#ffffff;fill-opacity:1;stroke-width:0.264583"
         d="m 174.70754,267.86475 h -1.98438 v -6.19016 h 1.98438 z m 0.0551,-7.0721 h -2.09462 v -1.50482 h 2.09462 z" />
      <path
         id="path859"
         style="font-style:normal;font-variant:normal;font-weight:bold;font-stretch:normal;font-size:11.2889px;line-height:1.25;font-family:sans-serif;-inkscape-font-specification:'sans-serif Bold';fill:#ffffff;fill-opacity:1;stroke-width:0.264583"
         d="m 182.79938,267.86475 h -1.9954 v -3.07028 q 0,-0.37482 -0.0386,-0.74414 -0.0386,-0.37482 -0.1323,-0.55121 -0.11024,-0.20395 -0.32521,-0.29766 -0.20947,-0.0937 -0.58981,-0.0937 -0.27009,0 -0.55121,0.0882 -0.27561,0.0882 -0.60083,0.28112 v 4.38768 h -1.98437 v -6.19016 h 1.98437 v 0.68351 q 0.52917,-0.41341 1.01424,-0.6339 0.49058,-0.22048 1.0859,-0.22048 1.00321,0 1.56545,0.58428 0.56775,0.58429 0.56775,1.74736 z" />
      <path
         id="path861"
         style="font-style:normal;font-variant:normal;font-weight:bold;font-stretch:normal;font-size:11.2889px;line-height:1.25;font-family:sans-serif;-inkscape-font-specification:'sans-serif Bold';fill:#ffffff;fill-opacity:1;stroke-width:0.264583"
         d="m 195.37262,262.24786 q 0,0.55121 -0.19293,1.08038 -0.19292,0.52365 -0.55121,0.88195 -0.49059,0.48507 -1.09692,0.73311 -0.60083,0.24805 -1.49931,0.24805 h -1.31741 v 2.6734 h -2.11666 v -8.20761 h 3.48368 q 0.78273,0 1.31741,0.13781 0.54019,0.13229 0.9536,0.40238 0.49609,0.32522 0.75516,0.83234 0.26459,0.50712 0.26459,1.21819 z m -2.18833,0.0496 q 0,-0.34727 -0.18741,-0.59532 -0.18742,-0.25356 -0.43546,-0.35278 -0.33073,-0.13229 -0.64493,-0.14331 -0.31419,-0.0165 -0.83784,-0.0165 h -0.36381 v 2.45842 h 0.60634 q 0.54019,0 0.88746,-0.0661 0.35278,-0.0661 0.5898,-0.26458 0.20395,-0.17639 0.29214,-0.41893 0.0937,-0.24805 0.0937,-0.60082 z" />
      <path
         id="path863"
         style="font-style:normal;font-variant:normal;font-weight:bold;font-stretch:normal;font-size:11.2889px;line-height:1.25;font-family:sans-serif;-inkscape-font-specification:'sans-serif Bold';fill:#ffffff;fill-opacity:1;stroke-width:0.264583"
         d="m 200.50443,266.24968 v -1.28984 q -0.40238,0.0331 -0.87092,0.0937 -0.46853,0.0551 -0.71107,0.13229 -0.29765,0.0937 -0.4575,0.27561 -0.15434,0.17638 -0.15434,0.46853 0,0.19292 0.0331,0.31419 0.0331,0.12127 0.16536,0.23151 0.12678,0.11025 0.30317,0.16537 0.17639,0.0496 0.55122,0.0496 0.29765,0 0.60082,-0.12127 0.30868,-0.12127 0.54019,-0.31971 z m 0,0.95912 q -0.15985,0.12127 -0.39687,0.29214 -0.23702,0.17088 -0.44649,0.2701 -0.29214,0.13229 -0.60633,0.19292 -0.3142,0.0661 -0.68902,0.0661 -0.88195,0 -1.47726,-0.5457 -0.59531,-0.54571 -0.59531,-1.39458 0,-0.67799 0.30316,-1.10794 0.30317,-0.42995 0.8599,-0.678 0.55122,-0.24805 1.36702,-0.35278 0.8158,-0.10473 1.69223,-0.15434 v -0.0331 q 0,-0.51263 -0.41893,-0.70556 -0.41892,-0.19843 -1.23472,-0.19843 -0.49058,0 -1.04731,0.17639 -0.55673,0.17087 -0.79926,0.26458 h -0.1819 v -1.4938 q 0.31419,-0.0827 1.01975,-0.19292 0.71106,-0.11576 1.42213,-0.11576 1.69224,0 2.44189,0.52366 0.75516,0.51814 0.75516,1.6316 v 4.21129 h -1.96784 z" />
      <path
         id="path865"
         style="font-style:normal;font-variant:normal;font-weight:bold;font-stretch:normal;font-size:11.2889px;line-height:1.25;font-family:sans-serif;-inkscape-font-specification:'sans-serif Bold';fill:#ffffff;fill-opacity:1;stroke-width:0.264583"
         d="m 208.25453,267.80962 q -0.3197,0.0827 -0.678,0.12678 -0.35829,0.0496 -0.87643,0.0496 -1.15755,0 -1.7253,-0.46853 -0.56224,-0.46853 -0.56224,-1.60404 v -2.89388 h -0.8158 v -1.34497 h 0.8158 v -1.7694 h 1.98437 v 1.7694 h 1.8576 v 1.34497 h -1.8576 v 2.19384 q 0,0.32522 0.006,0.56775 0.006,0.24254 0.0882,0.43546 0.0772,0.19293 0.2701,0.30868 0.19843,0.11024 0.57326,0.11024 0.15434,0 0.40239,-0.0661 0.25356,-0.0661 0.35278,-0.12127 h 0.16536 z" />
      <path
         id="path867"
         style="font-style:normal;font-variant:normal;font-weight:bold;font-stretch:normal;font-size:11.2889px;line-height:1.25;font-family:sans-serif;-inkscape-font-specification:'sans-serif Bold';fill:#ffffff;fill-opacity:1;stroke-width:0.264583"
         d="m 215.65184,267.86475 h -1.9954 v -3.07028 q 0,-0.37482 -0.0386,-0.74414 -0.0386,-0.37482 -0.13229,-0.55121 -0.11025,-0.20395 -0.32522,-0.29766 -0.20946,-0.0937 -0.5898,-0.0937 -0.2701,0 -0.55122,0.0882 -0.27561,0.0882 -0.60082,0.28112 v 4.38768 h -1.98438 v -8.57692 h 1.98438 v 3.07027 q 0.52916,-0.41341 1.01423,-0.6339 0.49059,-0.22048 1.0859,-0.22048 1.00321,0 1.56545,0.58428 0.56775,0.58429 0.56775,1.74736 z" />
    </g>
    <text
       xml:space="preserve"
       style="font-style:normal;font-weight:normal;font-size:10.5833px;line-height:1.25;font-family:sans-serif;letter-spacing:0px;word-spacing:0px;writing-mode:tb-rl;fill:#000000;fill-opacity:1;stroke:none;stroke-width:0.264583"
       x="119.58125"
       y="289.05667"
       id="text839"><tspan
         sodipodi:role="line"
         id="tspan837"
         x="289.05667"
         y="119.58125"
         style="stroke-width:0.264583" /></text>
    <g
       style="font-style:normal;font-weight:normal;font-size:8.46667px;line-height:1.25;font-family:sans-serif;letter-spacing:0px;word-spacing:0px;fill:#000000;fill-opacity:1;stroke:none;stroke-width:0.264583"
       id="text827-8"
       aria-label="Your First Application - Sending and Receiving Data">
      <path
         id="path852"
         style="font-style:italic;font-variant:normal;font-weight:bold;font-stretch:normal;font-size:8.46667px;line-height:1.25;font-family:sans-serif;-inkscape-font-specification:'sans-serif Bold';fill:#ffffff;fill-opacity:1;stroke-width:0.264583"
         d="m 37.114492,277.61252 -3.137794,3.77445 -0.549838,2.38125 h -1.595768 l 0.533301,-2.30684 -1.413868,-3.84886 h 1.699122 l 0.789616,2.41019 1.839681,-2.41019 z" />
      <path
         id="path854"
         style="font-style:italic;font-variant:normal;font-weight:bold;font-stretch:normal;font-size:8.46667px;line-height:1.25;font-family:sans-serif;-inkscape-font-specification:'sans-serif Bold';fill:#ffffff;fill-opacity:1;stroke-width:0.264583"
         d="m 41.777775,280.82473 q 0,0.65319 -0.219108,1.2237 -0.219108,0.5705 -0.615983,0.97978 -0.413412,0.42582 -0.959115,0.65733 -0.545704,0.22737 -1.273308,0.22737 -1.037663,0 -1.591635,-0.49609 -0.553971,-0.49609 -0.553971,-1.37253 0,-0.62011 0.206705,-1.17822 0.206706,-0.55811 0.61185,-0.98392 0.392741,-0.41755 0.963249,-0.65732 0.574642,-0.24392 1.28571,-0.24392 1.041797,0 1.591635,0.49196 0.553971,0.48783 0.553971,1.35186 z m -1.934766,1.52135 q 0.190169,-0.28939 0.285254,-0.63252 0.09922,-0.34313 0.09922,-0.83509 0,-0.42581 -0.186036,-0.65319 -0.186035,-0.23151 -0.591178,-0.23151 -0.314193,0 -0.553972,0.15296 -0.235645,0.15297 -0.417546,0.43409 -0.169498,0.26044 -0.268717,0.64492 -0.09509,0.38447 -0.09509,0.78961 0,0.47543 0.21084,0.68213 0.21084,0.20257 0.578776,0.20257 0.268718,0 0.516765,-0.14469 0.248047,-0.14883 0.42168,-0.40928 z" />
      <path
         id="path856"
         style="font-style:italic;font-variant:normal;font-weight:bold;font-stretch:normal;font-size:8.46667px;line-height:1.25;font-family:sans-serif;-inkscape-font-specification:'sans-serif Bold';fill:#ffffff;fill-opacity:1;stroke-width:0.264583"
         d="m 47.933474,279.12561 -1.07487,4.64261 h -1.49655 l 0.119889,-0.51263 q -0.223242,0.14469 -0.438216,0.27285 -0.21084,0.12402 -0.401009,0.19844 -0.239779,0.0992 -0.438217,0.13229 -0.198437,0.0372 -0.392741,0.0372 -0.611849,0 -0.967383,-0.29353 -0.3514,-0.29352 -0.3514,-0.86816 0,-0.1571 0.01654,-0.28939 0.01654,-0.13642 0.05374,-0.29765 l 0.698666,-3.02204 h 1.504818 l -0.533301,2.3027 q -0.06201,0.26458 -0.09508,0.45475 -0.02894,0.19017 -0.02894,0.32246 0,0.27285 0.132292,0.39688 0.132291,0.11989 0.500228,0.11989 0.181901,0 0.417545,-0.0786 0.239779,-0.0786 0.516765,-0.22738 l 0.760677,-3.29075 z" />
      <path
         id="path858"
         style="font-style:italic;font-variant:normal;font-weight:bold;font-stretch:normal;font-size:8.46667px;line-height:1.25;font-family:sans-serif;-inkscape-font-specification:'sans-serif Bold';fill:#ffffff;fill-opacity:1;stroke-width:0.264583"
         d="m 52.381783,280.54361 h -0.132292 q -0.09922,-0.0331 -0.281119,-0.0496 -0.181902,-0.0165 -0.359669,-0.0165 -0.293522,0 -0.566373,0.0455 -0.272852,0.0413 -0.56224,0.13642 l -0.719336,3.10886 h -1.496551 l 1.074871,-4.64261 h 1.49655 l -0.157097,0.68213 q 0.42168,-0.31006 0.839226,-0.50437 0.42168,-0.1943 0.847494,-0.1943 0.07855,0 0.173633,0.004 0.09922,0.004 0.173633,0.0124 z" />
      <path
         id="path860"
         style="font-style:italic;font-variant:normal;font-weight:bold;font-stretch:normal;font-size:8.46667px;line-height:1.25;font-family:sans-serif;-inkscape-font-specification:'sans-serif Bold';fill:#ffffff;fill-opacity:1;stroke-width:0.264583"
         d="m 61.290803,277.61252 -0.276985,1.19063 h -2.827736 l -0.264583,1.14515 h 2.621029 l -0.272851,1.19062 h -2.62103 l -0.607715,2.6293 h -1.587501 l 1.422136,-6.1557 z" />
      <path
         id="path862"
         style="font-style:italic;font-variant:normal;font-weight:bold;font-stretch:normal;font-size:8.46667px;line-height:1.25;font-family:sans-serif;-inkscape-font-specification:'sans-serif Bold';fill:#ffffff;fill-opacity:1;stroke-width:0.264583"
         d="m 63.452947,279.12561 -1.074871,4.64261 h -1.49655 l 1.074871,-4.64261 z m 0.454752,-1.79008 -0.260449,1.12862 h -1.579232 l 0.260449,-1.12862 z" />
      <path
         id="path864"
         style="font-style:italic;font-variant:normal;font-weight:bold;font-stretch:normal;font-size:8.46667px;line-height:1.25;font-family:sans-serif;-inkscape-font-specification:'sans-serif Bold';fill:#ffffff;fill-opacity:1;stroke-width:0.264583"
         d="m 67.892987,280.54361 h -0.132292 q -0.09922,-0.0331 -0.28112,-0.0496 -0.181901,-0.0165 -0.359668,-0.0165 -0.293522,0 -0.566374,0.0455 -0.272851,0.0413 -0.562239,0.13642 l -0.719337,3.10886 h -1.49655 l 1.07487,-4.64261 h 1.496551 l -0.157097,0.68213 q 0.42168,-0.31006 0.839226,-0.50437 0.42168,-0.1943 0.847494,-0.1943 0.07855,0 0.173632,0.004 0.09922,0.004 0.173633,0.0124 z" />
      <path
         id="path866"
         style="font-style:italic;font-variant:normal;font-weight:bold;font-stretch:normal;font-size:8.46667px;line-height:1.25;font-family:sans-serif;-inkscape-font-specification:'sans-serif Bold';fill:#ffffff;fill-opacity:1;stroke-width:0.264583"
         d="m 69.78228,283.89638 q -0.595312,0 -1.153418,-0.11162 -0.558106,-0.11163 -0.855762,-0.26045 l 0.285254,-1.2237 h 0.136426 q 0.09095,0.0786 0.227376,0.17363 0.14056,0.0951 0.396875,0.19844 0.219108,0.0951 0.508496,0.16536 0.289389,0.0662 0.624252,0.0662 0.500228,0 0.748275,-0.11576 0.252181,-0.11575 0.252181,-0.33073 0,-0.16536 -0.177767,-0.25218 -0.177767,-0.0868 -0.735873,-0.21497 -0.946712,-0.21911 -1.298112,-0.52917 -0.347266,-0.31006 -0.347266,-0.77308 0,-0.78548 0.7028,-1.2361 0.7028,-0.45475 1.901693,-0.45475 0.520899,0 1.041798,0.10749 0.520898,0.10335 0.764811,0.22324 l -0.272851,1.17409 H 72.40331 q -0.293522,-0.22738 -0.711068,-0.36794 -0.413412,-0.14469 -0.851628,-0.14469 -0.475423,0 -0.731739,0.11575 -0.252181,0.11162 -0.252181,0.34727 0,0.1819 0.219108,0.28112 0.219109,0.0951 0.690398,0.19844 0.876433,0.19016 1.260905,0.47955 0.388607,0.28939 0.388607,0.81029 0,0.77721 -0.711068,1.22783 -0.711068,0.44649 -1.922364,0.44649 z" />
      <path
         id="path868"
         style="font-style:italic;font-variant:normal;font-weight:bold;font-stretch:normal;font-size:8.46667px;line-height:1.25;font-family:sans-serif;-inkscape-font-specification:'sans-serif Bold';fill:#ffffff;fill-opacity:1;stroke-width:0.264583"
         d="m 74.801096,283.85917 q -0.773079,0 -1.103809,-0.25218 -0.330729,-0.25632 -0.330729,-0.75654 0,-0.1323 0.02067,-0.25632 0.02067,-0.12402 0.05374,-0.28939 l 0.504362,-2.19935 h -0.611849 l 0.227376,-0.97978 h 0.61185 l 0.305924,-1.32705 h 1.492416 l -0.305924,1.32705 h 1.397331 l -0.227376,0.97978 H 75.43775 l -0.384473,1.67432 q -0.04134,0.17363 -0.07855,0.3514 -0.03721,0.17363 -0.03721,0.29766 0,0.24804 0.136426,0.34726 0.14056,0.0951 0.429948,0.0951 0.115755,0 0.301791,-0.0414 0.190169,-0.0455 0.30179,-0.0992 h 0.124024 l -0.231511,0.99632 q -0.252181,0.062 -0.533301,0.0951 -0.276986,0.0372 -0.665593,0.0372 z" />
      <path
         id="path870"
         style="font-style:italic;font-variant:normal;font-weight:bold;font-stretch:normal;font-size:8.46667px;line-height:1.25;font-family:sans-serif;-inkscape-font-specification:'sans-serif Bold';fill:#ffffff;fill-opacity:1;stroke-width:0.264583"
         d="m 85.599406,283.76822 h -1.599903 l -0.14056,-1.25677 h -2.265496 l -0.719336,1.25677 h -1.65778 l 3.691765,-6.1557 h 1.835548 z m -1.860352,-2.36058 -0.248047,-2.21175 -1.269174,2.21175 z" />
      <path
         id="path872"
         style="font-style:italic;font-variant:normal;font-weight:bold;font-stretch:normal;font-size:8.46667px;line-height:1.25;font-family:sans-serif;-inkscape-font-specification:'sans-serif Bold';fill:#ffffff;fill-opacity:1;stroke-width:0.264583"
         d="m 91.829522,280.60975 q 0,0.64079 -0.21084,1.24437 -0.206705,0.59945 -0.566373,1.03353 -0.376205,0.45889 -0.851628,0.7152 -0.47129,0.25632 -1.058334,0.25632 -0.372071,0 -0.686263,-0.0868 -0.310059,-0.0827 -0.56224,-0.23564 l -0.446485,1.93476 h -1.49655 l 1.467611,-6.34586 h 1.49655 l -0.111621,0.48369 q 0.42168,-0.28939 0.777214,-0.45062 0.359668,-0.16123 0.79375,-0.16123 0.7028,0 1.079005,0.42995 0.376204,0.42581 0.376204,1.18235 z m -1.9389,1.62885 q 0.177767,-0.26045 0.272852,-0.60772 0.09508,-0.3514 0.09508,-0.76068 0,-0.3762 -0.165364,-0.57464 -0.165365,-0.20257 -0.591179,-0.20257 -0.219108,0 -0.429948,0.0786 -0.21084,0.0744 -0.446485,0.19844 l -0.537435,2.33577 q 0.132292,0.0579 0.305925,0.0909 0.177767,0.0289 0.363802,0.0289 0.376205,0 0.665593,-0.16123 0.289388,-0.16123 0.467155,-0.42581 z" />
      <path
         id="path874"
         style="font-style:italic;font-variant:normal;font-weight:bold;font-stretch:normal;font-size:8.46667px;line-height:1.25;font-family:sans-serif;-inkscape-font-specification:'sans-serif Bold';fill:#ffffff;fill-opacity:1;stroke-width:0.264583"
         d="m 97.749574,280.60975 q 0,0.64079 -0.21084,1.24437 -0.206706,0.59945 -0.566374,1.03353 -0.376204,0.45889 -0.851628,0.7152 -0.471289,0.25632 -1.058334,0.25632 -0.37207,0 -0.686263,-0.0868 -0.310059,-0.0827 -0.56224,-0.23564 l -0.446484,1.93476 h -1.49655 l 1.467611,-6.34586 h 1.49655 l -0.111621,0.48369 q 0.42168,-0.28939 0.777214,-0.45062 0.359668,-0.16123 0.79375,-0.16123 0.7028,0 1.079004,0.42995 0.376205,0.42581 0.376205,1.18235 z m -1.938901,1.62885 q 0.177767,-0.26045 0.272852,-0.60772 0.09509,-0.3514 0.09509,-0.76068 0,-0.3762 -0.165365,-0.57464 -0.165364,-0.20257 -0.591178,-0.20257 -0.219109,0 -0.429949,0.0786 -0.210839,0.0744 -0.446484,0.19844 l -0.537435,2.33577 q 0.132292,0.0579 0.305924,0.0909 0.177767,0.0289 0.363803,0.0289 0.376204,0 0.665592,-0.16123 0.289388,-0.16123 0.467155,-0.42581 z" />
      <path
         id="path876"
         style="font-style:italic;font-variant:normal;font-weight:bold;font-stretch:normal;font-size:8.46667px;line-height:1.25;font-family:sans-serif;-inkscape-font-specification:'sans-serif Bold';fill:#ffffff;fill-opacity:1;stroke-width:0.264583"
         d="m 101.17262,277.33553 -1.488282,6.43269 h -1.496551 l 1.488282,-6.43269 z" />
      <path
         id="path878"
         style="font-style:italic;font-variant:normal;font-weight:bold;font-stretch:normal;font-size:8.46667px;line-height:1.25;font-family:sans-serif;-inkscape-font-specification:'sans-serif Bold';fill:#ffffff;fill-opacity:1;stroke-width:0.264583"
         d="m 103.65309,279.12561 -1.07487,4.64261 h -1.49655 l 1.07487,-4.64261 z m 0.45475,-1.79008 -0.26045,1.12862 h -1.57923 l 0.26045,-1.12862 z" />
      <path
         id="path880"
         style="font-style:italic;font-variant:normal;font-weight:bold;font-stretch:normal;font-size:8.46667px;line-height:1.25;font-family:sans-serif;-inkscape-font-specification:'sans-serif Bold';fill:#ffffff;fill-opacity:1;stroke-width:0.264583"
         d="m 106.37334,283.89224 q -0.47542,0 -0.89297,-0.11989 -0.41341,-0.11575 -0.72347,-0.3638 -0.30179,-0.24391 -0.47129,-0.61185 -0.1695,-0.36793 -0.1695,-0.85163 0,-0.62425 0.23565,-1.15755 0.23978,-0.53743 0.66972,-0.93844 0.42168,-0.39274 1.0294,-0.62012 0.60771,-0.23151 1.31465,-0.23151 0.42581,0 0.84336,0.0951 0.42168,0.0951 0.78135,0.27699 l -0.3142,1.26917 h -0.21084 q -0.24391,-0.29352 -0.55397,-0.43408 -0.30592,-0.14469 -0.6904,-0.14469 -0.7028,0 -1.12861,0.50022 -0.42581,0.4961 -0.42581,1.24024 0,0.51676 0.26045,0.77308 0.26458,0.25631 0.81855,0.25631 0.42995,0 0.78135,-0.17363 0.35553,-0.17777 0.60771,-0.39274 h 0.21084 l -0.31419,1.26917 q -0.44648,0.19431 -0.78548,0.27699 -0.33486,0.0827 -0.8723,0.0827 z" />
      <path
         id="path882"
         style="font-style:italic;font-variant:normal;font-weight:bold;font-stretch:normal;font-size:8.46667px;line-height:1.25;font-family:sans-serif;-inkscape-font-specification:'sans-serif Bold';fill:#ffffff;fill-opacity:1;stroke-width:0.264583"
         d="m 112.27273,281.57714 q -0.39688,0.0331 -0.74414,0.0786 -0.34727,0.0455 -0.59118,0.13229 -0.25218,0.091 -0.38448,0.25631 -0.13229,0.16537 -0.13229,0.43822 0,0.23978 0.17364,0.339 0.17776,0.0951 0.51263,0.0951 0.2191,0 0.46715,-0.0992 0.25218,-0.10335 0.47129,-0.26045 z m -0.39274,1.69912 q -0.14056,0.091 -0.339,0.21911 -0.19844,0.12815 -0.36794,0.20257 -0.23151,0.0951 -0.43408,0.14469 -0.20257,0.0496 -0.56224,0.0496 -0.57878,0 -0.94671,-0.32246 -0.36381,-0.32659 -0.36381,-0.84749 0,-0.54984 0.26045,-0.93018 0.26045,-0.38447 0.77308,-0.61185 0.47956,-0.21497 1.14102,-0.31006 0.66559,-0.0951 1.43867,-0.14056 0.004,-0.0248 0.0165,-0.0785 0.0124,-0.0579 0.0124,-0.12816 0,-0.29352 -0.27285,-0.40928 -0.27285,-0.11989 -0.81442,-0.11989 -0.36794,0 -0.81442,0.12402 -0.44235,0.12403 -0.6656,0.20671 h -0.13642 l 0.21911,-1.09967 q 0.26045,-0.0661 0.80615,-0.14883 0.5457,-0.0827 1.08727,-0.0827 1.09141,0 1.59991,0.28526 0.51263,0.28525 0.51263,0.8847 0,0.0827 -0.0165,0.21497 -0.0124,0.1323 -0.0372,0.23151 l -0.7276,3.15847 h -1.48002 z" />
      <path
         id="path884"
         style="font-style:italic;font-variant:normal;font-weight:bold;font-stretch:normal;font-size:8.46667px;line-height:1.25;font-family:sans-serif;-inkscape-font-specification:'sans-serif Bold';fill:#ffffff;fill-opacity:1;stroke-width:0.264583"
         d="m 116.39031,283.85917 q -0.77308,0 -1.10381,-0.25218 -0.33073,-0.25632 -0.33073,-0.75654 0,-0.1323 0.0207,-0.25632 0.0207,-0.12402 0.0537,-0.28939 l 0.50436,-2.19935 h -0.61184 l 0.22737,-0.97978 h 0.61185 l 0.30593,-1.32705 h 1.49241 l -0.30592,1.32705 h 1.39733 l -0.22738,0.97978 h -1.39733 l -0.38447,1.67432 q -0.0413,0.17363 -0.0785,0.3514 -0.0372,0.17363 -0.0372,0.29766 0,0.24804 0.13643,0.34726 0.14056,0.0951 0.42995,0.0951 0.11575,0 0.30179,-0.0414 0.19017,-0.0455 0.30179,-0.0992 h 0.12402 l -0.23151,0.99632 q -0.25218,0.062 -0.5333,0.0951 -0.27699,0.0372 -0.66559,0.0372 z" />
      <path
         id="path886"
         style="font-style:italic;font-variant:normal;font-weight:bold;font-stretch:normal;font-size:8.46667px;line-height:1.25;font-family:sans-serif;-inkscape-font-specification:'sans-serif Bold';fill:#ffffff;fill-opacity:1;stroke-width:0.264583"
         d="m 121.03292,279.12561 -1.07487,4.64261 h -1.49655 l 1.07487,-4.64261 z m 0.45475,-1.79008 -0.26045,1.12862 h -1.57923 l 0.26045,-1.12862 z" />
      <path
         id="path888"
         style="font-style:italic;font-variant:normal;font-weight:bold;font-stretch:normal;font-size:8.46667px;line-height:1.25;font-family:sans-serif;-inkscape-font-specification:'sans-serif Bold';fill:#ffffff;fill-opacity:1;stroke-width:0.264583"
         d="m 126.70906,280.82473 q 0,0.65319 -0.21911,1.2237 -0.21911,0.5705 -0.61599,0.97978 -0.41341,0.42582 -0.95911,0.65733 -0.5457,0.22737 -1.27331,0.22737 -1.03766,0 -1.59163,-0.49609 -0.55398,-0.49609 -0.55398,-1.37253 0,-0.62011 0.20671,-1.17822 0.20671,-0.55811 0.61185,-0.98392 0.39274,-0.41755 0.96325,-0.65732 0.57464,-0.24392 1.28571,-0.24392 1.0418,0 1.59163,0.49196 0.55398,0.48783 0.55398,1.35186 z m -1.93477,1.52135 q 0.19017,-0.28939 0.28525,-0.63252 0.0992,-0.34313 0.0992,-0.83509 0,-0.42581 -0.18603,-0.65319 -0.18604,-0.23151 -0.59118,-0.23151 -0.3142,0 -0.55397,0.15296 -0.23565,0.15297 -0.41755,0.43409 -0.1695,0.26044 -0.26872,0.64492 -0.0951,0.38447 -0.0951,0.78961 0,0.47543 0.21084,0.68213 0.21084,0.20257 0.57877,0.20257 0.26872,0 0.51677,-0.14469 0.24805,-0.14883 0.42168,-0.40928 z" />
      <path
         id="path890"
         style="font-style:italic;font-variant:normal;font-weight:bold;font-stretch:normal;font-size:8.46667px;line-height:1.25;font-family:sans-serif;-inkscape-font-specification:'sans-serif Bold';fill:#ffffff;fill-opacity:1;stroke-width:0.264583"
         d="m 132.59604,280.17567 q 0,0.12403 -0.0165,0.26872 -0.0165,0.14469 -0.0538,0.30179 l -0.69453,3.02204 h -1.50482 l 0.52917,-2.3027 q 0.0579,-0.25632 0.0909,-0.43822 0.0331,-0.1819 0.0331,-0.339 0,-0.26872 -0.13642,-0.39274 -0.13643,-0.12402 -0.50023,-0.12402 -0.17777,0 -0.40928,0.0786 -0.23151,0.0744 -0.5209,0.22737 l -0.75654,3.29076 h -1.49655 l 1.07074,-4.64261 h 1.49655 l -0.11989,0.51263 q 0.45888,-0.30179 0.83509,-0.47129 0.38034,-0.1695 0.83509,-0.1695 0.62425,0 0.97152,0.30179 0.34726,0.30179 0.34726,0.87643 z" />
      <path
         id="path892"
         style="font-style:italic;font-variant:normal;font-weight:bold;font-stretch:normal;font-size:8.46667px;line-height:1.25;font-family:sans-serif;-inkscape-font-specification:'sans-serif Bold';fill:#ffffff;fill-opacity:1;stroke-width:0.264583"
         d="m 139.49175,281.62675 h -3.15433 l 0.27285,-1.19063 h 3.15433 z" />
      <path
         id="path894"
         style="font-style:italic;font-variant:normal;font-weight:bold;font-stretch:normal;font-size:8.46667px;line-height:1.25;font-family:sans-serif;-inkscape-font-specification:'sans-serif Bold';fill:#ffffff;fill-opacity:1;stroke-width:0.264583"
         d="m 145.39113,283.87984 q -0.78962,0 -1.40973,-0.13643 -0.61599,-0.13642 -1.0666,-0.33899 l 0.31832,-1.47588 h 0.17364 q 0.42581,0.3886 1.00045,0.60358 0.57464,0.21084 1.2361,0.21084 0.678,0 0.99632,-0.1819 0.31833,-0.18604 0.31833,-0.52917 0,-0.12816 -0.0537,-0.21911 -0.0496,-0.0951 -0.19844,-0.18603 -0.14883,-0.091 -0.40928,-0.17777 -0.25631,-0.091 -0.66559,-0.20671 -0.45062,-0.12402 -0.81029,-0.26871 -0.35553,-0.1447 -0.60771,-0.34314 -0.25218,-0.20257 -0.38447,-0.46715 -0.12816,-0.26458 -0.12816,-0.63252 0,-0.92604 0.81442,-1.47588 0.81855,-0.55397 2.23656,-0.55397 0.68212,0 1.28571,0.11162 0.60771,0.11162 1.02939,0.30179 l -0.30179,1.418 h -0.1695 q -0.32246,-0.29765 -0.85163,-0.49609 -0.52503,-0.20257 -1.14928,-0.20257 -0.61185,0 -0.94671,0.17776 -0.33487,0.17777 -0.33487,0.49196 0,0.1447 0.0496,0.23978 0.0496,0.0951 0.20257,0.18604 0.1323,0.0827 0.41755,0.1819 0.28525,0.0951 0.66973,0.19844 1.03353,0.27698 1.47588,0.64905 0.44235,0.37207 0.44235,1.00873 0,0.5333 -0.23978,0.93844 -0.23978,0.40514 -0.66146,0.65733 -0.44235,0.26871 -1.00459,0.39274 -0.56224,0.12402 -1.27331,0.12402 z" />
      <path
         id="path896"
         style="font-style:italic;font-variant:normal;font-weight:bold;font-stretch:normal;font-size:8.46667px;line-height:1.25;font-family:sans-serif;-inkscape-font-specification:'sans-serif Bold';fill:#ffffff;fill-opacity:1;stroke-width:0.264583"
         d="m 152.8284,280.84953 q 0.0124,-0.0744 0.0165,-0.13642 0.008,-0.062 0.008,-0.12816 0,-0.3266 -0.20257,-0.50023 -0.20257,-0.17363 -0.58291,-0.17363 -0.45889,0 -0.77308,0.24805 -0.31006,0.24804 -0.47129,0.69039 z m -1.13688,3.04271 q -1.18649,0 -1.83141,-0.52503 -0.64492,-0.52503 -0.64492,-1.45108 0,-0.63251 0.21084,-1.16168 0.21084,-0.52917 0.60771,-0.93018 0.38034,-0.3886 0.95085,-0.61598 0.57051,-0.22738 1.25264,-0.22738 1.03766,0 1.56269,0.42168 0.52917,0.41755 0.52917,1.2361 0,0.28112 -0.0579,0.54984 -0.0537,0.26872 -0.14469,0.5333 h -3.44786 q 0,0.0248 0,0.0496 0,0.0207 0,0.0455 0,0.48369 0.339,0.75654 0.339,0.27285 1.03767,0.27285 0.48782,0 0.9219,-0.16536 0.43822,-0.16537 0.76068,-0.36794 h 0.16536 l -0.27698,1.19476 q -0.43408,0.19017 -0.91364,0.28525 -0.47956,0.0992 -1.02113,0.0992 z" />
      <path
         id="path898"
         style="font-style:italic;font-variant:normal;font-weight:bold;font-stretch:normal;font-size:8.46667px;line-height:1.25;font-family:sans-serif;-inkscape-font-specification:'sans-serif Bold';fill:#ffffff;fill-opacity:1;stroke-width:0.264583"
         d="m 160.12925,280.17567 q 0,0.12403 -0.0165,0.26872 -0.0165,0.14469 -0.0538,0.30179 l -0.69453,3.02204 h -1.50482 l 0.52917,-2.3027 q 0.0579,-0.25632 0.0909,-0.43822 0.0331,-0.1819 0.0331,-0.339 0,-0.26872 -0.13642,-0.39274 -0.13643,-0.12402 -0.50023,-0.12402 -0.17777,0 -0.40928,0.0786 -0.23151,0.0744 -0.5209,0.22737 l -0.75654,3.29076 h -1.49655 l 1.07074,-4.64261 h 1.49655 l -0.11989,0.51263 q 0.45889,-0.30179 0.83509,-0.47129 0.38034,-0.1695 0.83509,-0.1695 0.62425,0 0.97152,0.30179 0.34726,0.30179 0.34726,0.87643 z" />
      <path
         id="path900"
         style="font-style:italic;font-variant:normal;font-weight:bold;font-stretch:normal;font-size:8.46667px;line-height:1.25;font-family:sans-serif;-inkscape-font-specification:'sans-serif Bold';fill:#ffffff;fill-opacity:1;stroke-width:0.264583"
         d="m 166.7397,277.33553 -1.48828,6.43269 h -1.49655 l 0.11162,-0.48369 q -0.21497,0.13642 -0.38034,0.24804 -0.16123,0.10749 -0.35967,0.19844 -0.18603,0.0827 -0.36793,0.12403 -0.17777,0.0413 -0.42995,0.0413 -0.67386,0 -1.07901,-0.43822 -0.401,-0.43822 -0.401,-1.24437 0,-0.66146 0.21084,-1.24023 0.21497,-0.58291 0.58704,-1.0294 0.3638,-0.43408 0.8599,-0.6904 0.49609,-0.25631 1.03766,-0.25631 0.38034,0 0.66146,0.0786 0.28112,0.0744 0.57877,0.23564 l 0.45889,-1.97611 z m -2.16214,2.87321 q -0.11989,-0.0579 -0.31419,-0.10335 -0.19431,-0.0496 -0.34314,-0.0496 -0.35553,0 -0.64078,0.1571 -0.28526,0.1571 -0.4837,0.42995 -0.17776,0.24391 -0.28112,0.62425 -0.10335,0.3762 -0.10335,0.7276 0,0.41755 0.19431,0.60772 0.1943,0.19017 0.59117,0.19017 0.20258,0 0.42582,-0.091 0.22737,-0.0909 0.42995,-0.21498 z" />
      <path
         id="path902"
         style="font-style:italic;font-variant:normal;font-weight:bold;font-stretch:normal;font-size:8.46667px;line-height:1.25;font-family:sans-serif;-inkscape-font-specification:'sans-serif Bold';fill:#ffffff;fill-opacity:1;stroke-width:0.264583"
         d="m 169.22018,279.12561 -1.07487,4.64261 h -1.49655 l 1.07487,-4.64261 z m 0.45475,-1.79008 -0.26045,1.12862 h -1.57923 l 0.26045,-1.12862 z" />
      <path
         id="path904"
         style="font-style:italic;font-variant:normal;font-weight:bold;font-stretch:normal;font-size:8.46667px;line-height:1.25;font-family:sans-serif;-inkscape-font-specification:'sans-serif Bold';fill:#ffffff;fill-opacity:1;stroke-width:0.264583"
         d="m 174.97899,280.17567 q 0,0.12403 -0.0165,0.26872 -0.0165,0.14469 -0.0537,0.30179 l -0.69453,3.02204 h -1.50482 l 0.52917,-2.3027 q 0.0579,-0.25632 0.0909,-0.43822 0.0331,-0.1819 0.0331,-0.339 0,-0.26872 -0.13642,-0.39274 -0.13643,-0.12402 -0.50023,-0.12402 -0.17777,0 -0.40928,0.0786 -0.23151,0.0744 -0.5209,0.22737 l -0.75654,3.29076 h -1.49655 l 1.07074,-4.64261 h 1.49655 l -0.11989,0.51263 q 0.45888,-0.30179 0.83509,-0.47129 0.38034,-0.1695 0.83509,-0.1695 0.62425,0 0.97152,0.30179 0.34726,0.30179 0.34726,0.87643 z" />
      <path
         id="path906"
         style="font-style:italic;font-variant:normal;font-weight:bold;font-stretch:normal;font-size:8.46667px;line-height:1.25;font-family:sans-serif;-inkscape-font-specification:'sans-serif Bold';fill:#ffffff;fill-opacity:1;stroke-width:0.264583"
         d="m 181.1719,279.12561 -0.93431,4.10931 q -0.15296,0.66146 -0.43408,1.09967 -0.28112,0.43822 -0.68213,0.69867 -0.41341,0.26872 -0.8971,0.3762 -0.48369,0.10749 -1.08728,0.10749 -0.50022,0 -0.95911,-0.062 -0.45889,-0.0579 -0.77308,-0.13643 l 0.22738,-1.14101 h 0.1819 q 0.34313,0.13229 0.69453,0.21084 0.3514,0.0785 0.62425,0.0785 0.39274,0 0.68213,-0.0744 0.28939,-0.0703 0.45475,-0.20671 0.17777,-0.14469 0.28112,-0.35553 0.10749,-0.21084 0.17364,-0.51676 l 0.0207,-0.0868 q -0.32247,0.21911 -0.64079,0.34727 -0.31833,0.12815 -0.71934,0.12815 -0.78135,0 -1.2237,-0.39274 -0.43821,-0.39274 -0.43821,-1.18649 0,-1.36839 0.77308,-2.24482 0.77308,-0.88057 1.87689,-0.88057 0.39687,0 0.71933,0.0951 0.3266,0.0951 0.52503,0.23978 l 0.10336,-0.2067 z m -1.74459,1.07487 q -0.11989,-0.0538 -0.31833,-0.0992 -0.19431,-0.0496 -0.34313,-0.0496 -0.6656,0 -1.07074,0.50023 -0.40514,0.50022 -0.40514,1.28571 0,0.35553 0.17363,0.55397 0.17363,0.19844 0.62425,0.19844 0.21911,0 0.44235,-0.0827 0.22738,-0.0868 0.42582,-0.20257 z" />
      <path
         id="path908"
         style="font-style:italic;font-variant:normal;font-weight:bold;font-stretch:normal;font-size:8.46667px;line-height:1.25;font-family:sans-serif;-inkscape-font-specification:'sans-serif Bold';fill:#ffffff;fill-opacity:1;stroke-width:0.264583"
         d="m 187.71207,281.57714 q -0.39687,0.0331 -0.74414,0.0786 -0.34726,0.0455 -0.59118,0.13229 -0.25218,0.091 -0.38447,0.25631 -0.13229,0.16537 -0.13229,0.43822 0,0.23978 0.17363,0.339 0.17777,0.0951 0.51263,0.0951 0.21911,0 0.46716,-0.0992 0.25218,-0.10335 0.47129,-0.26045 z m -0.39274,1.69912 q -0.14056,0.091 -0.339,0.21911 -0.19843,0.12815 -0.36793,0.20257 -0.23151,0.0951 -0.43408,0.14469 -0.20258,0.0496 -0.56224,0.0496 -0.57878,0 -0.94672,-0.32246 -0.3638,-0.32659 -0.3638,-0.84749 0,-0.54984 0.26045,-0.93018 0.26045,-0.38447 0.77308,-0.61185 0.47956,-0.21497 1.14102,-0.31006 0.66559,-0.0951 1.43867,-0.14056 0.004,-0.0248 0.0165,-0.0785 0.0124,-0.0579 0.0124,-0.12816 0,-0.29352 -0.27285,-0.40928 -0.27286,-0.11989 -0.81443,-0.11989 -0.36793,0 -0.81442,0.12402 -0.44235,0.12403 -0.66559,0.20671 h -0.13642 l 0.2191,-1.09967 q 0.26045,-0.0661 0.80616,-0.14883 0.5457,-0.0827 1.08727,-0.0827 1.09141,0 1.5999,0.28526 0.51263,0.28525 0.51263,0.8847 0,0.0827 -0.0165,0.21497 -0.0124,0.1323 -0.0372,0.23151 l -0.72761,3.15847 h -1.48001 z" />
      <path
         id="path910"
         style="font-style:italic;font-variant:normal;font-weight:bold;font-stretch:normal;font-size:8.46667px;line-height:1.25;font-family:sans-serif;-inkscape-font-specification:'sans-serif Bold';fill:#ffffff;fill-opacity:1;stroke-width:0.264583"
         d="m 195.48421,280.17567 q 0,0.12403 -0.0165,0.26872 -0.0165,0.14469 -0.0538,0.30179 l -0.69453,3.02204 h -1.50482 l 0.52917,-2.3027 q 0.0579,-0.25632 0.0909,-0.43822 0.0331,-0.1819 0.0331,-0.339 0,-0.26872 -0.13642,-0.39274 -0.13643,-0.12402 -0.50023,-0.12402 -0.17777,0 -0.40928,0.0786 -0.23151,0.0744 -0.5209,0.22737 l -0.75654,3.29076 h -1.49655 l 1.07074,-4.64261 h 1.49655 l -0.11989,0.51263 q 0.45888,-0.30179 0.83509,-0.47129 0.38034,-0.1695 0.83509,-0.1695 0.62425,0 0.97152,0.30179 0.34726,0.30179 0.34726,0.87643 z" />
      <path
         id="path912"
         style="font-style:italic;font-variant:normal;font-weight:bold;font-stretch:normal;font-size:8.46667px;line-height:1.25;font-family:sans-serif;-inkscape-font-specification:'sans-serif Bold';fill:#ffffff;fill-opacity:1;stroke-width:0.264583"
         d="m 202.09467,277.33553 -1.48829,6.43269 h -1.49655 l 0.11163,-0.48369 q -0.21498,0.13642 -0.38034,0.24804 -0.16123,0.10749 -0.35967,0.19844 -0.18604,0.0827 -0.36794,0.12403 -0.17776,0.0413 -0.42995,0.0413 -0.67386,0 -1.079,-0.43822 -0.40101,-0.43822 -0.40101,-1.24437 0,-0.66146 0.21084,-1.24023 0.21497,-0.58291 0.58705,-1.0294 0.3638,-0.43408 0.85989,-0.6904 0.4961,-0.25631 1.03766,-0.25631 0.38034,0 0.66146,0.0786 0.28112,0.0744 0.57878,0.23564 l 0.45889,-1.97611 z m -2.16215,2.87321 q -0.11989,-0.0579 -0.31419,-0.10335 -0.1943,-0.0496 -0.34313,-0.0496 -0.35553,0 -0.64079,0.1571 -0.28525,0.1571 -0.48369,0.42995 -0.17777,0.24391 -0.28112,0.62425 -0.10335,0.3762 -0.10335,0.7276 0,0.41755 0.1943,0.60772 0.1943,0.19017 0.59118,0.19017 0.20257,0 0.42581,-0.091 0.22738,-0.0909 0.42995,-0.21498 z" />
      <path
         id="path914"
         style="font-style:italic;font-variant:normal;font-weight:bold;font-stretch:normal;font-size:8.46667px;line-height:1.25;font-family:sans-serif;-inkscape-font-specification:'sans-serif Bold';fill:#ffffff;fill-opacity:1;stroke-width:0.264583"
         d="m 211.16078,279.16281 q 0,0.74001 -0.45062,1.24437 -0.45062,0.50436 -1.2237,0.76068 l 1.42214,2.60036 h -1.77354 l -1.15755,-2.25723 h -0.89297 l -0.5209,2.25723 h -1.5875 l 1.42214,-6.1557 h 2.40192 q 1.12862,0 1.7446,0.38447 0.61598,0.38034 0.61598,1.16582 z m -1.71152,0.26459 q 0,-0.37207 -0.23978,-0.52504 -0.23565,-0.15709 -0.69867,-0.15709 h -0.78548 l -0.38447,1.65778 h 0.78135 q 0.63252,0 0.97978,-0.25632 0.34727,-0.26045 0.34727,-0.71933 z" />
      <path
         id="path916"
         style="font-style:italic;font-variant:normal;font-weight:bold;font-stretch:normal;font-size:8.46667px;line-height:1.25;font-family:sans-serif;-inkscape-font-specification:'sans-serif Bold';fill:#ffffff;fill-opacity:1;stroke-width:0.264583"
         d="m 215.28663,280.84953 q 0.0124,-0.0744 0.0165,-0.13642 0.008,-0.062 0.008,-0.12816 0,-0.3266 -0.20257,-0.50023 -0.20257,-0.17363 -0.58291,-0.17363 -0.45889,0 -0.77308,0.24805 -0.31006,0.24804 -0.47129,0.69039 z m -1.13689,3.04271 q -1.18649,0 -1.83141,-0.52503 -0.64492,-0.52503 -0.64492,-1.45108 0,-0.63251 0.21084,-1.16168 0.21084,-0.52917 0.60771,-0.93018 0.38034,-0.3886 0.95085,-0.61598 0.57051,-0.22738 1.25264,-0.22738 1.03766,0 1.56269,0.42168 0.52917,0.41755 0.52917,1.2361 0,0.28112 -0.0579,0.54984 -0.0537,0.26872 -0.14469,0.5333 h -3.44785 q 0,0.0248 0,0.0496 0,0.0207 0,0.0455 0,0.48369 0.33899,0.75654 0.339,0.27285 1.03767,0.27285 0.48782,0 0.9219,-0.16536 0.43822,-0.16537 0.76068,-0.36794 h 0.16537 l -0.27699,1.19476 q -0.43408,0.19017 -0.91364,0.28525 -0.47956,0.0992 -1.02113,0.0992 z" />
      <path
         id="path918"
         style="font-style:italic;font-variant:normal;font-weight:bold;font-stretch:normal;font-size:8.46667px;line-height:1.25;font-family:sans-serif;-inkscape-font-specification:'sans-serif Bold';fill:#ffffff;fill-opacity:1;stroke-width:0.264583"
         d="m 219.54891,283.89224 q -0.47543,0 -0.89297,-0.11989 -0.41341,-0.11575 -0.72347,-0.3638 -0.30179,-0.24391 -0.47129,-0.61185 -0.1695,-0.36793 -0.1695,-0.85163 0,-0.62425 0.23565,-1.15755 0.23977,-0.53743 0.66972,-0.93844 0.42168,-0.39274 1.0294,-0.62012 0.60771,-0.23151 1.31465,-0.23151 0.42581,0 0.84336,0.0951 0.42168,0.0951 0.78134,0.27699 l -0.31419,1.26917 h -0.21084 q -0.24391,-0.29352 -0.55397,-0.43408 -0.30593,-0.14469 -0.6904,-0.14469 -0.7028,0 -1.12861,0.50022 -0.42582,0.4961 -0.42582,1.24024 0,0.51676 0.26045,0.77308 0.26459,0.25631 0.81856,0.25631 0.42995,0 0.78135,-0.17363 0.35553,-0.17777 0.60771,-0.39274 h 0.21084 l -0.31419,1.26917 q -0.44649,0.19431 -0.78548,0.27699 -0.33487,0.0827 -0.8723,0.0827 z" />
      <path
         id="path920"
         style="font-style:italic;font-variant:normal;font-weight:bold;font-stretch:normal;font-size:8.46667px;line-height:1.25;font-family:sans-serif;-inkscape-font-specification:'sans-serif Bold';fill:#ffffff;fill-opacity:1;stroke-width:0.264583"
         d="m 225.88651,280.84953 q 0.0124,-0.0744 0.0165,-0.13642 0.008,-0.062 0.008,-0.12816 0,-0.3266 -0.20257,-0.50023 -0.20257,-0.17363 -0.58291,-0.17363 -0.45888,0 -0.77308,0.24805 -0.31006,0.24804 -0.47129,0.69039 z m -1.13688,3.04271 q -1.18649,0 -1.83142,-0.52503 -0.64492,-0.52503 -0.64492,-1.45108 0,-0.63251 0.21084,-1.16168 0.21084,-0.52917 0.60772,-0.93018 0.38034,-0.3886 0.95084,-0.61598 0.57051,-0.22738 1.25264,-0.22738 1.03766,0 1.5627,0.42168 0.52916,0.41755 0.52916,1.2361 0,0.28112 -0.0579,0.54984 -0.0538,0.26872 -0.1447,0.5333 h -3.44785 q 0,0.0248 0,0.0496 0,0.0207 0,0.0455 0,0.48369 0.339,0.75654 0.33899,0.27285 1.03766,0.27285 0.48783,0 0.92191,-0.16536 0.43821,-0.16537 0.76068,-0.36794 h 0.16536 l -0.27699,1.19476 q -0.43408,0.19017 -0.91364,0.28525 -0.47955,0.0992 -1.02112,0.0992 z" />
      <path
         id="path922"
         style="font-style:italic;font-variant:normal;font-weight:bold;font-stretch:normal;font-size:8.46667px;line-height:1.25;font-family:sans-serif;-inkscape-font-specification:'sans-serif Bold';fill:#ffffff;fill-opacity:1;stroke-width:0.264583"
         d="m 230.32241,279.12561 -1.07487,4.64261 h -1.49655 l 1.07487,-4.64261 z m 0.45475,-1.79008 -0.26045,1.12862 h -1.57923 l 0.26045,-1.12862 z" />
      <path
         id="path924"
         style="font-style:italic;font-variant:normal;font-weight:bold;font-stretch:normal;font-size:8.46667px;line-height:1.25;font-family:sans-serif;-inkscape-font-specification:'sans-serif Bold';fill:#ffffff;fill-opacity:1;stroke-width:0.264583"
         d="m 236.34583,279.12561 -2.86495,4.64261 h -1.69498 l -0.7028,-4.64261 h 1.53375 l 0.339,3.19567 1.79007,-3.19567 z" />
      <path
         id="path926"
         style="font-style:italic;font-variant:normal;font-weight:bold;font-stretch:normal;font-size:8.46667px;line-height:1.25;font-family:sans-serif;-inkscape-font-specification:'sans-serif Bold';fill:#ffffff;fill-opacity:1;stroke-width:0.264583"
         d="m 238.7064,279.12561 -1.07487,4.64261 h -1.49655 l 1.07487,-4.64261 z m 0.45475,-1.79008 -0.26045,1.12862 h -1.57923 l 0.26045,-1.12862 z" />
      <path
         id="path928"
         style="font-style:italic;font-variant:normal;font-weight:bold;font-stretch:normal;font-size:8.46667px;line-height:1.25;font-family:sans-serif;-inkscape-font-specification:'sans-serif Bold';fill:#ffffff;fill-opacity:1;stroke-width:0.264583"
         d="m 244.46523,280.17567 q 0,0.12403 -0.0165,0.26872 -0.0165,0.14469 -0.0537,0.30179 l -0.69453,3.02204 h -1.50482 l 0.52917,-2.3027 q 0.0579,-0.25632 0.0909,-0.43822 0.0331,-0.1819 0.0331,-0.339 0,-0.26872 -0.13643,-0.39274 -0.13642,-0.12402 -0.50022,-0.12402 -0.17777,0 -0.40928,0.0786 -0.23151,0.0744 -0.5209,0.22737 l -0.75654,3.29076 h -1.49655 l 1.07073,-4.64261 h 1.49655 l -0.11989,0.51263 q 0.45889,-0.30179 0.8351,-0.47129 0.38033,-0.1695 0.83509,-0.1695 0.62425,0 0.97151,0.30179 0.34727,0.30179 0.34727,0.87643 z" />
      <path
         id="path930"
         style="font-style:italic;font-variant:normal;font-weight:bold;font-stretch:normal;font-size:8.46667px;line-height:1.25;font-family:sans-serif;-inkscape-font-specification:'sans-serif Bold';fill:#ffffff;fill-opacity:1;stroke-width:0.264583"
         d="m 250.65812,279.12561 -0.93431,4.10931 q -0.15296,0.66146 -0.43408,1.09967 -0.28112,0.43822 -0.68213,0.69867 -0.41341,0.26872 -0.8971,0.3762 -0.48369,0.10749 -1.08727,0.10749 -0.50023,0 -0.95912,-0.062 -0.45889,-0.0579 -0.77308,-0.13643 l 0.22738,-1.14101 h 0.1819 q 0.34313,0.13229 0.69453,0.21084 0.3514,0.0785 0.62425,0.0785 0.39274,0 0.68213,-0.0744 0.28939,-0.0703 0.45475,-0.20671 0.17777,-0.14469 0.28112,-0.35553 0.10749,-0.21084 0.17364,-0.51676 l 0.0207,-0.0868 q -0.32246,0.21911 -0.64079,0.34727 -0.31833,0.12815 -0.71934,0.12815 -0.78134,0 -1.2237,-0.39274 -0.43821,-0.39274 -0.43821,-1.18649 0,-1.36839 0.77308,-2.24482 0.77308,-0.88057 1.87689,-0.88057 0.39687,0 0.71933,0.0951 0.3266,0.0951 0.52504,0.23978 l 0.10335,-0.2067 z m -1.74459,1.07487 q -0.11989,-0.0538 -0.31833,-0.0992 -0.1943,-0.0496 -0.34313,-0.0496 -0.66559,0 -1.07074,0.50023 -0.40514,0.50022 -0.40514,1.28571 0,0.35553 0.17363,0.55397 0.17363,0.19844 0.62425,0.19844 0.21911,0 0.44235,-0.0827 0.22738,-0.0868 0.42582,-0.20257 z" />
      <path
         id="path932"
         style="font-style:italic;font-variant:normal;font-weight:bold;font-stretch:normal;font-size:8.46667px;line-height:1.25;font-family:sans-serif;-inkscape-font-specification:'sans-serif Bold';fill:#ffffff;fill-opacity:1;stroke-width:0.264583"
         d="m 260.58828,280.01444 q 0,1.04593 -0.54983,1.93063 -0.54984,0.8847 -1.40974,1.35599 -0.5209,0.28112 -1.08727,0.37621 -0.56637,0.0909 -1.35599,0.0909 h -2.22829 l 1.42214,-6.1557 h 1.99264 q 0.88057,0 1.418,0.13643 0.53744,0.13642 0.86817,0.36793 0.45475,0.31419 0.6904,0.78548 0.23977,0.46716 0.23977,1.11208 z m -1.66191,0.1447 q 0,-0.42168 -0.1571,-0.72347 -0.15709,-0.30593 -0.47955,-0.49196 -0.14883,-0.0827 -0.30593,-0.12403 -0.15296,-0.0455 -0.3514,-0.0661 -0.19017,-0.0165 -0.43408,-0.0165 -0.24391,0 -0.42581,0 h -0.0537 l -0.9095,3.90261 h 0.14469 q 0.23978,0 0.51263,0 0.27285,0 0.44235,-0.0207 0.21911,-0.0207 0.39274,-0.0661 0.17777,-0.0455 0.38861,-0.15296 0.59531,-0.30593 0.91364,-0.91364 0.32246,-0.60772 0.32246,-1.32705 z" />
      <path
         id="path934"
         style="font-style:italic;font-variant:normal;font-weight:bold;font-stretch:normal;font-size:8.46667px;line-height:1.25;font-family:sans-serif;-inkscape-font-specification:'sans-serif Bold';fill:#ffffff;fill-opacity:1;stroke-width:0.264583"
         d="m 264.22629,281.57714 q -0.39687,0.0331 -0.74414,0.0786 -0.34726,0.0455 -0.59118,0.13229 -0.25218,0.091 -0.38447,0.25631 -0.13229,0.16537 -0.13229,0.43822 0,0.23978 0.17363,0.339 0.17777,0.0951 0.51263,0.0951 0.21911,0 0.46716,-0.0992 0.25218,-0.10335 0.47129,-0.26045 z m -0.39274,1.69912 q -0.14056,0.091 -0.33899,0.21911 -0.19844,0.12815 -0.36794,0.20257 -0.23151,0.0951 -0.43408,0.14469 -0.20258,0.0496 -0.56224,0.0496 -0.57878,0 -0.94672,-0.32246 -0.3638,-0.32659 -0.3638,-0.84749 0,-0.54984 0.26045,-0.93018 0.26045,-0.38447 0.77308,-0.61185 0.47956,-0.21497 1.14102,-0.31006 0.66559,-0.0951 1.43867,-0.14056 0.004,-0.0248 0.0165,-0.0785 0.0124,-0.0579 0.0124,-0.12816 0,-0.29352 -0.27285,-0.40928 -0.27285,-0.11989 -0.81442,-0.11989 -0.36794,0 -0.81443,0.12402 -0.44235,0.12403 -0.66559,0.20671 h -0.13642 l 0.2191,-1.09967 q 0.26045,-0.0661 0.80616,-0.14883 0.5457,-0.0827 1.08727,-0.0827 1.09141,0 1.5999,0.28526 0.51263,0.28525 0.51263,0.8847 0,0.0827 -0.0165,0.21497 -0.0124,0.1323 -0.0372,0.23151 l -0.7276,3.15847 h -1.48002 z" />
      <path
         id="path936"
         style="font-style:italic;font-variant:normal;font-weight:bold;font-stretch:normal;font-size:8.46667px;line-height:1.25;font-family:sans-serif;-inkscape-font-specification:'sans-serif Bold';fill:#ffffff;fill-opacity:1;stroke-width:0.264583"
         d="m 268.34387,283.85917 q -0.77308,0 -1.1038,-0.25218 -0.33073,-0.25632 -0.33073,-0.75654 0,-0.1323 0.0207,-0.25632 0.0207,-0.12402 0.0537,-0.28939 l 0.50436,-2.19935 h -0.61185 l 0.22738,-0.97978 h 0.61185 l 0.30592,-1.32705 h 1.49242 l -0.30593,1.32705 h 1.39734 l -0.22738,0.97978 h -1.39733 l -0.38447,1.67432 q -0.0414,0.17363 -0.0786,0.3514 -0.0372,0.17363 -0.0372,0.29766 0,0.24804 0.13643,0.34726 0.14056,0.0951 0.42994,0.0951 0.11576,0 0.30179,-0.0414 0.19017,-0.0455 0.3018,-0.0992 h 0.12402 l -0.23151,0.99632 q -0.25218,0.062 -0.5333,0.0951 -0.27699,0.0372 -0.6656,0.0372 z" />
      <path
         id="path938"
         style="font-style:italic;font-variant:normal;font-weight:bold;font-stretch:normal;font-size:8.46667px;line-height:1.25;font-family:sans-serif;-inkscape-font-specification:'sans-serif Bold';fill:#ffffff;fill-opacity:1;stroke-width:0.264583"
         d="m 273.73476,281.57714 q -0.39687,0.0331 -0.74414,0.0786 -0.34726,0.0455 -0.59118,0.13229 -0.25218,0.091 -0.38447,0.25631 -0.13229,0.16537 -0.13229,0.43822 0,0.23978 0.17363,0.339 0.17777,0.0951 0.51263,0.0951 0.21911,0 0.46716,-0.0992 0.25218,-0.10335 0.47129,-0.26045 z m -0.39274,1.69912 q -0.14056,0.091 -0.339,0.21911 -0.19843,0.12815 -0.36793,0.20257 -0.23151,0.0951 -0.43408,0.14469 -0.20258,0.0496 -0.56224,0.0496 -0.57878,0 -0.94672,-0.32246 -0.3638,-0.32659 -0.3638,-0.84749 0,-0.54984 0.26045,-0.93018 0.26045,-0.38447 0.77308,-0.61185 0.47956,-0.21497 1.14102,-0.31006 0.66559,-0.0951 1.43867,-0.14056 0.004,-0.0248 0.0165,-0.0785 0.0124,-0.0579 0.0124,-0.12816 0,-0.29352 -0.27285,-0.40928 -0.27286,-0.11989 -0.81443,-0.11989 -0.36793,0 -0.81442,0.12402 -0.44235,0.12403 -0.66559,0.20671 h -0.13642 l 0.2191,-1.09967 q 0.26045,-0.0661 0.80616,-0.14883 0.5457,-0.0827 1.08727,-0.0827 1.09141,0 1.5999,0.28526 0.51263,0.28525 0.51263,0.8847 0,0.0827 -0.0165,0.21497 -0.0124,0.1323 -0.0372,0.23151 l -0.72761,3.15847 h -1.48001 z" />
    </g>
  </g>
</svg>
