<?xml version="1.0" encoding="UTF-8" standalone="no"?>
<svg
   xmlns:dc="http://purl.org/dc/elements/1.1/"
   xmlns:cc="http://creativecommons.org/ns#"
   xmlns:rdf="http://www.w3.org/1999/02/22-rdf-syntax-ns#"
   xmlns:svg="http://www.w3.org/2000/svg"
   xmlns="http://www.w3.org/2000/svg"
   xmlns:sodipodi="http://sodipodi.sourceforge.net/DTD/sodipodi-0.dtd"
   xmlns:inkscape="http://www.inkscape.org/namespaces/inkscape"
   sodipodi:docname="next_primary.svg"
   inkscape:version="1.0 (4035a4fb49, 2020-05-01)"
   id="svg8"
   version="1.1"
   viewBox="0 0 291.04166 37.030054"
   height="139.9561"
   width="1100">
  <defs
     id="defs2" />
  <sodipodi:namedview
     inkscape:document-rotation="0"
     fit-margin-bottom="0"
     fit-margin-right="0"
     fit-margin-left="0"
     fit-margin-top="0"
     inkscape:window-maximized="1"
     inkscape:window-y="-8"
     inkscape:window-x="-8"
     inkscape:window-height="1137"
     inkscape:window-width="1920"
     inkscape:snap-page="true"
     inkscape:snap-global="true"
     units="px"
     showgrid="false"
     inkscape:current-layer="text827-8"
     inkscape:document-units="mm"
     inkscape:cy="265.1417"
     inkscape:cx="473.34984"
     inkscape:zoom="0.7"
     inkscape:pageshadow="2"
     inkscape:pageopacity="0.0"
     borderopacity="1.0"
     bordercolor="#666666"
     pagecolor="#ffffff"
     id="base" />
  <metadata
     id="metadata5">
    <rdf:RDF>
      <cc:Work
         rdf:about="">
        <dc:format>image/svg+xml</dc:format>
        <dc:type
           rdf:resource="http://purl.org/dc/dcmitype/StillImage" />
        <dc:title></dc:title>
      </cc:Work>
    </rdf:RDF>
  </metadata>
  <g
     transform="translate(18.758024,-252.02661)"
     id="layer1"
     inkscape:groupmode="layer"
     inkscape:label="Layer 1">
    <text
       id="text839"
       y="289.05667"
       x="119.58125"
       style="font-style:normal;font-weight:normal;font-size:10.5833px;line-height:1.25;font-family:sans-serif;letter-spacing:0px;word-spacing:0px;writing-mode:tb-rl;fill:#000000;fill-opacity:1;stroke:none;stroke-width:0.264583"
       xml:space="preserve"><tspan
         style="stroke-width:0.264583"
         y="119.58125"
         x="289.05667"
         id="tspan837"
         sodipodi:role="line" /></text>
    <g
       aria-label="An Introduction to Device Shadows and AWS Lambda"
       id="text827-8"
       style="font-style:normal;font-weight:normal;font-size:8.46667px;line-height:1.25;font-family:sans-serif;letter-spacing:0px;word-spacing:0px;fill:#000000;fill-opacity:1;stroke:none;stroke-width:0.264583">
      <g
         transform="translate(-26.458333)"
         id="g2566">
        <rect
           style="opacity:0.97;fill:#ee2a24;fill-opacity:1;stroke:#ee2a24;stroke-width:1;stroke-linecap:butt;stroke-linejoin:round;stroke-miterlimit:4;stroke-dasharray:none;stroke-dashoffset:0;stroke-opacity:1;paint-order:normal"
           id="rect817"
           width="278.34521"
           height="36.030052"
           x="14.048535"
           y="252.57567"
           ry="1.4827397"
           rx="1.7103499" />
        <text
           xml:space="preserve"
           style="font-style:normal;font-weight:normal;font-size:9.87778px;line-height:1.25;font-family:sans-serif;letter-spacing:0px;word-spacing:0px;fill:#000000;fill-opacity:1;stroke:none;stroke-width:0.264583"
           x="111.59332"
           y="267.86475"
           id="text827"><tspan
             sodipodi:role="line"
             x="111.59332"
             y="267.86475"
             style="font-style:normal;font-variant:normal;font-weight:bold;font-stretch:normal;font-size:11.2889px;line-height:1.25;font-family:sans-serif;-inkscape-font-specification:'sans-serif Bold';fill:#ffffff;fill-opacity:1;stroke-width:0.264583"
             id="tspan833">Next Tutorial</tspan></text>
        <path
           id="path955"
           style="font-style:italic;font-variant:normal;font-weight:bold;font-stretch:normal;font-size:8.46667px;line-height:1.25;font-family:sans-serif;-inkscape-font-specification:'sans-serif Bold';fill:#ffffff;fill-opacity:1;stroke-width:0.264583"
           d="m 32.486348,280.34113 h -1.599903 l -0.14056,-1.25678 h -2.265496 l -0.719336,1.25678 h -1.657781 l 3.691766,-6.1557 h 1.835548 z m -1.860352,-2.36058 -0.248047,-2.21176 -1.269174,2.21176 z" />
        <path
           id="path957"
           style="font-style:italic;font-variant:normal;font-weight:bold;font-stretch:normal;font-size:8.46667px;line-height:1.25;font-family:sans-serif;-inkscape-font-specification:'sans-serif Bold';fill:#ffffff;fill-opacity:1;stroke-width:0.264583"
           d="m 38.670986,276.74858 q 0,0.12402 -0.01654,0.26872 -0.01654,0.14469 -0.05374,0.30179 l -0.694532,3.02204 h -1.504818 l 0.529167,-2.30271 q 0.05788,-0.25631 0.09095,-0.43821 0.03307,-0.1819 0.03307,-0.339 0,-0.26872 -0.136426,-0.39274 -0.136425,-0.12403 -0.500228,-0.12403 -0.177767,0 -0.409277,0.0786 -0.231511,0.0744 -0.520899,0.22738 l -0.756543,3.29076 h -1.49655 l 1.070736,-4.64262 h 1.49655 l -0.119889,0.51263 q 0.458887,-0.30179 0.835091,-0.47129 0.380339,-0.16949 0.835092,-0.16949 0.624251,0 0.971517,0.30179 0.347266,0.30179 0.347266,0.87643 z" />
        <path
           id="path959"
           style="font-style:italic;font-variant:normal;font-weight:bold;font-stretch:normal;font-size:8.46667px;line-height:1.25;font-family:sans-serif;-inkscape-font-specification:'sans-serif Bold';fill:#ffffff;fill-opacity:1;stroke-width:0.264583"
           d="m 45.57496,280.34113 h -3.60495 l 0.252181,-1.09141 h 1.004591 l 0.917773,-3.97289 h -1.00459 l 0.252181,-1.0914 h 3.60495 l -0.252182,1.0914 h -1.00459 l -0.917774,3.97289 h 1.004591 z" />
        <path
           id="path961"
           style="font-style:italic;font-variant:normal;font-weight:bold;font-stretch:normal;font-size:8.46667px;line-height:1.25;font-family:sans-serif;-inkscape-font-specification:'sans-serif Bold';fill:#ffffff;fill-opacity:1;stroke-width:0.264583"
           d="m 52.230887,276.74858 q 0,0.12402 -0.01654,0.26872 -0.01654,0.14469 -0.05374,0.30179 l -0.694531,3.02204 h -1.504818 l 0.529166,-2.30271 q 0.05788,-0.25631 0.09095,-0.43821 0.03307,-0.1819 0.03307,-0.339 0,-0.26872 -0.136426,-0.39274 -0.136426,-0.12403 -0.500228,-0.12403 -0.177767,0 -0.409277,0.0786 -0.231511,0.0744 -0.520899,0.22738 l -0.756543,3.29076 h -1.49655 l 1.070736,-4.64262 h 1.49655 l -0.11989,0.51263 q 0.458887,-0.30179 0.835092,-0.47129 0.380339,-0.16949 0.835091,-0.16949 0.624252,0 0.971518,0.30179 0.347265,0.30179 0.347265,0.87643 z" />
        <path
           id="path963"
           style="font-style:italic;font-variant:normal;font-weight:bold;font-stretch:normal;font-size:8.46667px;line-height:1.25;font-family:sans-serif;-inkscape-font-specification:'sans-serif Bold';fill:#ffffff;fill-opacity:1;stroke-width:0.264583"
           d="m 54.612137,280.43208 q -0.77308,0 -1.103809,-0.25219 -0.330729,-0.25631 -0.330729,-0.75654 0,-0.13229 0.02067,-0.25631 0.02067,-0.12403 0.05374,-0.28939 l 0.504362,-2.19935 h -0.611849 l 0.227376,-0.97979 h 0.61185 l 0.305924,-1.32705 h 1.492416 l -0.305924,1.32705 h 1.397331 l -0.227377,0.97979 h -1.397331 l -0.384473,1.67432 q -0.04134,0.17363 -0.07855,0.3514 -0.03721,0.17363 -0.03721,0.29765 0,0.24805 0.136426,0.34727 0.14056,0.0951 0.429948,0.0951 0.115755,0 0.30179,-0.0413 0.19017,-0.0455 0.301791,-0.0992 h 0.124023 l -0.23151,0.99632 q -0.252181,0.062 -0.533301,0.0951 -0.276986,0.0372 -0.665593,0.0372 z" />
        <path
           id="path965"
           style="font-style:italic;font-variant:normal;font-weight:bold;font-stretch:normal;font-size:8.46667px;line-height:1.25;font-family:sans-serif;-inkscape-font-specification:'sans-serif Bold';fill:#ffffff;fill-opacity:1;stroke-width:0.264583"
           d="m 60.80091,277.11651 h -0.132292 q -0.09922,-0.0331 -0.28112,-0.0496 -0.181901,-0.0165 -0.359668,-0.0165 -0.293522,0 -0.566374,0.0455 -0.272852,0.0413 -0.56224,0.13643 l -0.719336,3.10886 h -1.49655 l 1.07487,-4.64262 h 1.49655 l -0.157096,0.68213 q 0.42168,-0.31006 0.839225,-0.50436 0.42168,-0.1943 0.847494,-0.1943 0.07855,0 0.173633,0.004 0.09922,0.004 0.173633,0.0124 z" />
        <path
           id="path967"
           style="font-style:italic;font-variant:normal;font-weight:bold;font-stretch:normal;font-size:8.46667px;line-height:1.25;font-family:sans-serif;-inkscape-font-specification:'sans-serif Bold';fill:#ffffff;fill-opacity:1;stroke-width:0.264583"
           d="m 66.253807,277.39763 q 0,0.6532 -0.219108,1.2237 -0.219108,0.57051 -0.615983,0.97979 -0.413412,0.42581 -0.959115,0.65732 -0.545703,0.22738 -1.273308,0.22738 -1.037663,0 -1.591635,-0.49609 -0.553971,-0.4961 -0.553971,-1.37253 0,-0.62012 0.206706,-1.17822 0.206705,-0.55811 0.611849,-0.98392 0.392741,-0.41755 0.963249,-0.65733 0.574642,-0.24391 1.28571,-0.24391 1.041797,0 1.591635,0.49196 0.553971,0.48782 0.553971,1.35185 z m -1.934766,1.52136 q 0.190169,-0.28939 0.285254,-0.63252 0.09922,-0.34313 0.09922,-0.83509 0,-0.42582 -0.186035,-0.65319 -0.186036,-0.23151 -0.591179,-0.23151 -0.314193,0 -0.553972,0.15296 -0.235644,0.15296 -0.417545,0.43408 -0.169499,0.26045 -0.268718,0.64492 -0.09508,0.38448 -0.09508,0.78962 0,0.47542 0.21084,0.68213 0.21084,0.20257 0.578777,0.20257 0.268717,0 0.516764,-0.14469 0.248047,-0.14883 0.42168,-0.40928 z" />
        <path
           id="path969"
           style="font-style:italic;font-variant:normal;font-weight:bold;font-stretch:normal;font-size:8.46667px;line-height:1.25;font-family:sans-serif;-inkscape-font-specification:'sans-serif Bold';fill:#ffffff;fill-opacity:1;stroke-width:0.264583"
           d="m 72.715434,273.90844 -1.488282,6.43269 h -1.49655 l 0.111621,-0.4837 q -0.214974,0.13643 -0.380338,0.24805 -0.161231,0.10749 -0.359669,0.19844 -0.186035,0.0827 -0.367936,0.12402 -0.177767,0.0413 -0.429948,0.0413 -0.673861,0 -1.079004,-0.43821 -0.40101,-0.43822 -0.40101,-1.24437 0,-0.66146 0.21084,-1.24024 0.214974,-0.58291 0.587045,-1.02939 0.363802,-0.43408 0.859896,-0.6904 0.496094,-0.25631 1.037663,-0.25631 0.380339,0 0.661459,0.0785 0.28112,0.0744 0.578776,0.23565 l 0.458887,-1.97611 z m -2.162143,2.87321 q -0.119889,-0.0579 -0.314193,-0.10335 -0.194303,-0.0496 -0.343131,-0.0496 -0.355534,0 -0.640788,0.1571 -0.285254,0.15709 -0.483692,0.42994 -0.177767,0.24392 -0.28112,0.62426 -0.103353,0.3762 -0.103353,0.7276 0,0.41755 0.194304,0.60771 0.194303,0.19017 0.591178,0.19017 0.202572,0 0.425814,-0.091 0.227377,-0.091 0.429949,-0.21497 z" />
        <path
           id="path971"
           style="font-style:italic;font-variant:normal;font-weight:bold;font-stretch:normal;font-size:8.46667px;line-height:1.25;font-family:sans-serif;-inkscape-font-specification:'sans-serif Bold';fill:#ffffff;fill-opacity:1;stroke-width:0.264583"
           d="m 78.329565,275.69851 -1.07487,4.64262 h -1.49655 l 0.119889,-0.51263 q -0.223242,0.14469 -0.438216,0.27285 -0.21084,0.12402 -0.40101,0.19843 -0.239778,0.0992 -0.438216,0.1323 -0.198438,0.0372 -0.392741,0.0372 -0.611849,0 -0.967383,-0.29352 -0.3514,-0.29352 -0.3514,-0.86816 0,-0.1571 0.01654,-0.28939 0.01654,-0.13643 0.05374,-0.29766 l 0.698666,-3.02204 h 1.504818 l -0.533301,2.30271 q -0.06201,0.26458 -0.09508,0.45475 -0.02894,0.19017 -0.02894,0.32246 0,0.27285 0.132292,0.39687 0.132292,0.11989 0.500228,0.11989 0.181901,0 0.417546,-0.0785 0.239779,-0.0786 0.516764,-0.22738 l 0.760678,-3.29076 z" />
        <path
           id="path973"
           style="font-style:italic;font-variant:normal;font-weight:bold;font-stretch:normal;font-size:8.46667px;line-height:1.25;font-family:sans-serif;-inkscape-font-specification:'sans-serif Bold';fill:#ffffff;fill-opacity:1;stroke-width:0.264583"
           d="m 81.05808,280.46515 q -0.475423,0 -0.892969,-0.11989 -0.413411,-0.11576 -0.72347,-0.3638 -0.301791,-0.24392 -0.471289,-0.61185 -0.169499,-0.36794 -0.169499,-0.85163 0,-0.62425 0.235645,-1.15755 0.239778,-0.53744 0.669726,-0.93845 0.42168,-0.39274 1.029395,-0.62011 0.607715,-0.23151 1.314649,-0.23151 0.425814,0 0.84336,0.0951 0.42168,0.0951 0.781348,0.27699 l -0.314193,1.26917 h -0.21084 q -0.243913,-0.29352 -0.553971,-0.43408 -0.305925,-0.1447 -0.690398,-0.1447 -0.7028,0 -1.128613,0.50023 -0.425814,0.4961 -0.425814,1.24024 0,0.51676 0.260449,0.77308 0.264583,0.25631 0.818555,0.25631 0.429948,0 0.781348,-0.17363 0.355534,-0.17777 0.607715,-0.39274 h 0.21084 l -0.314193,1.26917 q -0.446485,0.1943 -0.785482,0.27699 -0.334863,0.0827 -0.872299,0.0827 z" />
        <path
           id="path975"
           style="font-style:italic;font-variant:normal;font-weight:bold;font-stretch:normal;font-size:8.46667px;line-height:1.25;font-family:sans-serif;-inkscape-font-specification:'sans-serif Bold';fill:#ffffff;fill-opacity:1;stroke-width:0.264583"
           d="m 85.419571,280.43208 q -0.773079,0 -1.103809,-0.25219 -0.330729,-0.25631 -0.330729,-0.75654 0,-0.13229 0.02067,-0.25631 0.02067,-0.12403 0.05374,-0.28939 l 0.504362,-2.19935 H 83.95196 l 0.227376,-0.97979 h 0.61185 l 0.305924,-1.32705 h 1.492416 l -0.305924,1.32705 h 1.397331 l -0.227376,0.97979 h -1.397332 l -0.384473,1.67432 q -0.04134,0.17363 -0.07855,0.3514 -0.03721,0.17363 -0.03721,0.29765 0,0.24805 0.136426,0.34727 0.14056,0.0951 0.429948,0.0951 0.115755,0 0.301791,-0.0413 0.190169,-0.0455 0.30179,-0.0992 h 0.124024 l -0.231511,0.99632 q -0.252181,0.062 -0.533301,0.0951 -0.276986,0.0372 -0.665593,0.0372 z" />
        <path
           id="path977"
           style="font-style:italic;font-variant:normal;font-weight:bold;font-stretch:normal;font-size:8.46667px;line-height:1.25;font-family:sans-serif;-inkscape-font-specification:'sans-serif Bold';fill:#ffffff;fill-opacity:1;stroke-width:0.264583"
           d="m 90.062184,275.69851 -1.07487,4.64262 h -1.49655 l 1.07487,-4.64262 z m 0.454753,-1.79007 -0.260449,1.12861 h -1.579233 l 0.26045,-1.12861 z" />
        <path
           id="path979"
           style="font-style:italic;font-variant:normal;font-weight:bold;font-stretch:normal;font-size:8.46667px;line-height:1.25;font-family:sans-serif;-inkscape-font-specification:'sans-serif Bold';fill:#ffffff;fill-opacity:1;stroke-width:0.264583"
           d="m 95.738327,277.39763 q 0,0.6532 -0.219108,1.2237 -0.219108,0.57051 -0.615983,0.97979 -0.413412,0.42581 -0.959115,0.65732 -0.545703,0.22738 -1.273308,0.22738 -1.037663,0 -1.591635,-0.49609 -0.553971,-0.4961 -0.553971,-1.37253 0,-0.62012 0.206706,-1.17822 0.206705,-0.55811 0.611849,-0.98392 0.392741,-0.41755 0.963249,-0.65733 0.574642,-0.24391 1.28571,-0.24391 1.041797,0 1.591635,0.49196 0.553971,0.48782 0.553971,1.35185 z m -1.934766,1.52136 q 0.190169,-0.28939 0.285254,-0.63252 0.09922,-0.34313 0.09922,-0.83509 0,-0.42582 -0.186036,-0.65319 -0.186035,-0.23151 -0.591178,-0.23151 -0.314193,0 -0.553972,0.15296 -0.235644,0.15296 -0.417545,0.43408 -0.169499,0.26045 -0.268718,0.64492 -0.09508,0.38448 -0.09508,0.78962 0,0.47542 0.21084,0.68213 0.21084,0.20257 0.578777,0.20257 0.268717,0 0.516764,-0.14469 0.248047,-0.14883 0.42168,-0.40928 z" />
        <path
           id="path981"
           style="font-style:italic;font-variant:normal;font-weight:bold;font-stretch:normal;font-size:8.46667px;line-height:1.25;font-family:sans-serif;-inkscape-font-specification:'sans-serif Bold';fill:#ffffff;fill-opacity:1;stroke-width:0.264583"
           d="m 101.62531,276.74858 q 0,0.12402 -0.0165,0.26872 -0.0165,0.14469 -0.0537,0.30179 l -0.69453,3.02204 h -1.504822 l 0.529167,-2.30271 q 0.05788,-0.25631 0.09095,-0.43821 0.03306,-0.1819 0.03306,-0.339 0,-0.26872 -0.136432,-0.39274 -0.136426,-0.12403 -0.500228,-0.12403 -0.177767,0 -0.409278,0.0786 -0.23151,0.0744 -0.520898,0.22738 l -0.756544,3.29076 h -1.49655 l 1.070736,-4.64262 h 1.49655 l -0.119889,0.51263 q 0.458887,-0.30179 0.835091,-0.47129 0.380339,-0.16949 0.835072,-0.16949 0.62427,0 0.97152,0.30179 0.34727,0.30179 0.34727,0.87643 z" />
        <path
           id="path983"
           style="font-style:italic;font-variant:normal;font-weight:bold;font-stretch:normal;font-size:8.46667px;line-height:1.25;font-family:sans-serif;-inkscape-font-specification:'sans-serif Bold';fill:#ffffff;fill-opacity:1;stroke-width:0.264583"
           d="m 106.90044,280.43208 q -0.77308,0 -1.10381,-0.25219 -0.33073,-0.25631 -0.33073,-0.75654 0,-0.13229 0.0207,-0.25631 0.0207,-0.12403 0.0537,-0.28939 l 0.50436,-2.19935 h -0.61184 l 0.22737,-0.97979 h 0.61185 l 0.30593,-1.32705 h 1.49241 l -0.30592,1.32705 h 1.39733 l -0.22738,0.97979 h -1.39733 l -0.38447,1.67432 q -0.0413,0.17363 -0.0785,0.3514 -0.0372,0.17363 -0.0372,0.29765 0,0.24805 0.13643,0.34727 0.14056,0.0951 0.42995,0.0951 0.11575,0 0.30179,-0.0413 0.19017,-0.0455 0.30179,-0.0992 h 0.12402 l -0.23151,0.99632 q -0.25218,0.062 -0.5333,0.0951 -0.27699,0.0372 -0.66559,0.0372 z" />
        <path
           id="path985"
           style="font-style:italic;font-variant:normal;font-weight:bold;font-stretch:normal;font-size:8.46667px;line-height:1.25;font-family:sans-serif;-inkscape-font-specification:'sans-serif Bold';fill:#ffffff;fill-opacity:1;stroke-width:0.264583"
           d="m 114.32531,277.39763 q 0,0.6532 -0.21911,1.2237 -0.21911,0.57051 -0.61598,0.97979 -0.41341,0.42581 -0.95912,0.65732 -0.5457,0.22738 -1.2733,0.22738 -1.03767,0 -1.59164,-0.49609 -0.55397,-0.4961 -0.55397,-1.37253 0,-0.62012 0.20671,-1.17822 0.2067,-0.55811 0.61184,-0.98392 0.39275,-0.41755 0.96325,-0.65733 0.57465,-0.24391 1.28571,-0.24391 1.0418,0 1.59164,0.49196 0.55397,0.48782 0.55397,1.35185 z m -1.93477,1.52136 q 0.19017,-0.28939 0.28526,-0.63252 0.0992,-0.34313 0.0992,-0.83509 0,-0.42582 -0.18604,-0.65319 -0.18603,-0.23151 -0.59118,-0.23151 -0.31419,0 -0.55397,0.15296 -0.23564,0.15296 -0.41754,0.43408 -0.1695,0.26045 -0.26872,0.64492 -0.0951,0.38448 -0.0951,0.78962 0,0.47542 0.21084,0.68213 0.21084,0.20257 0.57878,0.20257 0.26872,0 0.51676,-0.14469 0.24805,-0.14883 0.42168,-0.40928 z" />
        <path
           id="path987"
           style="font-style:italic;font-variant:normal;font-weight:bold;font-stretch:normal;font-size:8.46667px;line-height:1.25;font-family:sans-serif;-inkscape-font-specification:'sans-serif Bold';fill:#ffffff;fill-opacity:1;stroke-width:0.264583"
           d="m 124.37948,276.58735 q 0,1.04593 -0.54984,1.93063 -0.54983,0.8847 -1.40973,1.35599 -0.5209,0.28112 -1.08727,0.3762 -0.56638,0.091 -1.35599,0.091 h -2.22829 l 1.42213,-6.1557 h 1.99265 q 0.88057,0 1.418,0.13642 0.53744,0.13643 0.86817,0.36794 0.45475,0.31419 0.69039,0.78548 0.23978,0.46716 0.23978,1.11208 z m -1.66191,0.14469 q 0,-0.42168 -0.1571,-0.72347 -0.1571,-0.30592 -0.47956,-0.49196 -0.14883,-0.0827 -0.30592,-0.12402 -0.15296,-0.0455 -0.3514,-0.0661 -0.19017,-0.0165 -0.43408,-0.0165 -0.24392,0 -0.42582,0 h -0.0537 l -0.90951,3.9026 h 0.1447 q 0.23978,0 0.51263,0 0.27285,0 0.44235,-0.0207 0.21911,-0.0207 0.39274,-0.0661 0.17777,-0.0455 0.38861,-0.15297 0.59531,-0.30592 0.91364,-0.91364 0.32246,-0.60771 0.32246,-1.32705 z" />
        <path
           id="path989"
           style="font-style:italic;font-variant:normal;font-weight:bold;font-stretch:normal;font-size:8.46667px;line-height:1.25;font-family:sans-serif;-inkscape-font-specification:'sans-serif Bold';fill:#ffffff;fill-opacity:1;stroke-width:0.264583"
           d="m 128.45572,277.42244 q 0.0124,-0.0744 0.0165,-0.13643 0.008,-0.062 0.008,-0.12815 0,-0.3266 -0.20257,-0.50023 -0.20258,-0.17363 -0.58292,-0.17363 -0.45888,0 -0.77307,0.24804 -0.31006,0.24805 -0.47129,0.6904 z m -1.13688,3.04271 q -1.18649,0 -1.83141,-0.52503 -0.64493,-0.52504 -0.64493,-1.45108 0,-0.63252 0.21084,-1.16169 0.21084,-0.52916 0.60772,-0.93017 0.38034,-0.38861 0.95085,-0.61598 0.5705,-0.22738 1.25263,-0.22738 1.03767,0 1.5627,0.42168 0.52917,0.41754 0.52917,1.2361 0,0.28112 -0.0579,0.54984 -0.0537,0.26871 -0.1447,0.5333 h -3.44785 q 0,0.0248 0,0.0496 0,0.0207 0,0.0455 0,0.48369 0.339,0.75655 0.339,0.27285 1.03766,0.27285 0.48783,0 0.92191,-0.16537 0.43822,-0.16536 0.76068,-0.36793 h 0.16536 l -0.27698,1.19476 q -0.43409,0.19017 -0.91364,0.28525 -0.47956,0.0992 -1.02113,0.0992 z" />
        <path
           id="path991"
           style="font-style:italic;font-variant:normal;font-weight:bold;font-stretch:normal;font-size:8.46667px;line-height:1.25;font-family:sans-serif;-inkscape-font-specification:'sans-serif Bold';fill:#ffffff;fill-opacity:1;stroke-width:0.264583"
           d="m 136.02116,275.69851 -2.86495,4.64262 h -1.69498 l -0.7028,-4.64262 h 1.53375 l 0.339,3.19567 1.79007,-3.19567 z" />
        <path
           id="path993"
           style="font-style:italic;font-variant:normal;font-weight:bold;font-stretch:normal;font-size:8.46667px;line-height:1.25;font-family:sans-serif;-inkscape-font-specification:'sans-serif Bold';fill:#ffffff;fill-opacity:1;stroke-width:0.264583"
           d="m 138.38173,275.69851 -1.07487,4.64262 h -1.49655 l 1.07487,-4.64262 z m 0.45476,-1.79007 -0.26045,1.12861 h -1.57924 l 0.26045,-1.12861 z" />
        <path
           id="path995"
           style="font-style:italic;font-variant:normal;font-weight:bold;font-stretch:normal;font-size:8.46667px;line-height:1.25;font-family:sans-serif;-inkscape-font-specification:'sans-serif Bold';fill:#ffffff;fill-opacity:1;stroke-width:0.264583"
           d="m 141.10198,280.46515 q -0.47542,0 -0.89297,-0.11989 -0.41341,-0.11576 -0.72347,-0.3638 -0.30179,-0.24392 -0.47128,-0.61185 -0.1695,-0.36794 -0.1695,-0.85163 0,-0.62425 0.23564,-1.15755 0.23978,-0.53744 0.66973,-0.93845 0.42168,-0.39274 1.02939,-0.62011 0.60772,-0.23151 1.31465,-0.23151 0.42582,0 0.84336,0.0951 0.42168,0.0951 0.78135,0.27699 l -0.31419,1.26917 h -0.21084 q -0.24392,-0.29352 -0.55397,-0.43408 -0.30593,-0.1447 -0.6904,-0.1447 -0.7028,0 -1.12862,0.50023 -0.42581,0.4961 -0.42581,1.24024 0,0.51676 0.26045,0.77308 0.26458,0.25631 0.81855,0.25631 0.42995,0 0.78135,-0.17363 0.35554,-0.17777 0.60772,-0.39274 h 0.21084 l -0.3142,1.26917 q -0.44648,0.1943 -0.78548,0.27699 -0.33486,0.0827 -0.8723,0.0827 z" />
        <path
           id="path997"
           style="font-style:italic;font-variant:normal;font-weight:bold;font-stretch:normal;font-size:8.46667px;line-height:1.25;font-family:sans-serif;-inkscape-font-specification:'sans-serif Bold';fill:#ffffff;fill-opacity:1;stroke-width:0.264583"
           d="m 147.43959,277.42244 q 0.0124,-0.0744 0.0165,-0.13643 0.008,-0.062 0.008,-0.12815 0,-0.3266 -0.20257,-0.50023 -0.20257,-0.17363 -0.58291,-0.17363 -0.45889,0 -0.77308,0.24804 -0.31006,0.24805 -0.47129,0.6904 z m -1.13689,3.04271 q -1.18649,0 -1.83141,-0.52503 -0.64492,-0.52504 -0.64492,-1.45108 0,-0.63252 0.21084,-1.16169 0.21084,-0.52916 0.60771,-0.93017 0.38034,-0.38861 0.95085,-0.61598 0.57051,-0.22738 1.25264,-0.22738 1.03766,0 1.56269,0.42168 0.52917,0.41754 0.52917,1.2361 0,0.28112 -0.0579,0.54984 -0.0537,0.26871 -0.14469,0.5333 h -3.44785 q 0,0.0248 0,0.0496 0,0.0207 0,0.0455 0,0.48369 0.33899,0.75655 0.339,0.27285 1.03767,0.27285 0.48782,0 0.9219,-0.16537 0.43822,-0.16536 0.76068,-0.36793 h 0.16537 l -0.27699,1.19476 q -0.43408,0.19017 -0.91364,0.28525 -0.47956,0.0992 -1.02113,0.0992 z" />
        <path
           id="path999"
           style="font-style:italic;font-variant:normal;font-weight:bold;font-stretch:normal;font-size:8.46667px;line-height:1.25;font-family:sans-serif;-inkscape-font-specification:'sans-serif Bold';fill:#ffffff;fill-opacity:1;stroke-width:0.264583"
           d="m 154.53787,280.45275 q -0.78962,0 -1.40974,-0.13643 -0.61598,-0.13643 -1.0666,-0.339 l 0.31833,-1.47588 h 0.17363 q 0.42581,0.38861 1.00046,0.60358 0.57464,0.21084 1.2361,0.21084 0.67799,0 0.99632,-0.1819 0.31833,-0.18603 0.31833,-0.52916 0,-0.12816 -0.0538,-0.21911 -0.0496,-0.0951 -0.19844,-0.18604 -0.14882,-0.091 -0.40927,-0.17776 -0.25632,-0.0909 -0.6656,-0.20671 -0.45061,-0.12402 -0.81028,-0.26872 -0.35554,-0.14469 -0.60772,-0.34313 -0.25218,-0.20257 -0.38447,-0.46715 -0.12816,-0.26459 -0.12816,-0.63252 0,-0.92605 0.81442,-1.47588 0.81856,-0.55397 2.23656,-0.55397 0.68213,0 1.28571,0.11162 0.60771,0.11162 1.02939,0.30179 l -0.30179,1.418 h -0.16949 q -0.32247,-0.29766 -0.85163,-0.4961 -0.52504,-0.20257 -1.14929,-0.20257 -0.61185,0 -0.94671,0.17777 -0.33486,0.17777 -0.33486,0.49196 0,0.14469 0.0496,0.23978 0.0496,0.0951 0.20257,0.18603 0.13229,0.0827 0.41754,0.18191 0.28526,0.0951 0.66973,0.19843 1.03353,0.27699 1.47588,0.64906 0.44235,0.37207 0.44235,1.00872 0,0.5333 -0.23978,0.93845 -0.23978,0.40514 -0.66146,0.65732 -0.44235,0.26872 -1.00459,0.39274 -0.56224,0.12403 -1.2733,0.12403 z" />
        <path
           id="path1001"
           style="font-style:italic;font-variant:normal;font-weight:bold;font-stretch:normal;font-size:8.46667px;line-height:1.25;font-family:sans-serif;-inkscape-font-specification:'sans-serif Bold';fill:#ffffff;fill-opacity:1;stroke-width:0.264583"
           d="m 163.65772,276.74858 q 0,0.0992 -0.0165,0.25631 -0.0165,0.1571 -0.0538,0.3142 l -0.69866,3.02204 h -1.50482 l 0.5333,-2.30271 q 0.0579,-0.26458 0.0909,-0.44648 0.0331,-0.1819 0.0331,-0.3266 0,-0.27698 -0.14056,-0.39687 -0.13642,-0.12403 -0.50022,-0.12403 -0.17777,0 -0.40928,0.0786 -0.23151,0.0744 -0.51677,0.22738 l -0.76067,3.29076 h -1.49655 l 1.48415,-6.43269 h 1.49655 l -0.52917,2.3027 q 0.45475,-0.30179 0.83509,-0.47129 0.38034,-0.16949 0.83509,-0.16949 0.63252,0 0.97565,0.31005 0.34313,0.30593 0.34313,0.86817 z" />
        <path
           id="path1003"
           style="font-style:italic;font-variant:normal;font-weight:bold;font-stretch:normal;font-size:8.46667px;line-height:1.25;font-family:sans-serif;-inkscape-font-specification:'sans-serif Bold';fill:#ffffff;fill-opacity:1;stroke-width:0.264583"
           d="m 167.57274,278.15004 q -0.39688,0.0331 -0.74415,0.0786 -0.34726,0.0455 -0.59117,0.13229 -0.25219,0.0909 -0.38448,0.25632 -0.13229,0.16536 -0.13229,0.43822 0,0.23977 0.17363,0.33899 0.17777,0.0951 0.51263,0.0951 0.21911,0 0.46716,-0.0992 0.25218,-0.10335 0.47129,-0.26045 z m -0.39275,1.69913 q -0.14056,0.0909 -0.33899,0.2191 -0.19844,0.12816 -0.36794,0.20258 -0.23151,0.0951 -0.43408,0.14469 -0.20257,0.0496 -0.56224,0.0496 -0.57878,0 -0.94671,-0.32246 -0.36381,-0.3266 -0.36381,-0.8475 0,-0.54983 0.26045,-0.93017 0.26045,-0.38447 0.77308,-0.61185 0.47956,-0.21498 1.14102,-0.31006 0.66559,-0.0951 1.43867,-0.14056 0.004,-0.0248 0.0165,-0.0786 0.0124,-0.0579 0.0124,-0.12816 0,-0.29352 -0.27285,-0.40927 -0.27285,-0.11989 -0.81442,-0.11989 -0.36794,0 -0.81442,0.12402 -0.44235,0.12402 -0.6656,0.20671 h -0.13642 l 0.21911,-1.09968 q 0.26045,-0.0661 0.80615,-0.14883 0.5457,-0.0827 1.08727,-0.0827 1.09141,0 1.5999,0.28526 0.51263,0.28525 0.51263,0.8847 0,0.0827 -0.0165,0.21497 -0.0124,0.13229 -0.0372,0.23151 l -0.7276,3.15847 h -1.48002 z" />
        <path
           id="path1005"
           style="font-style:italic;font-variant:normal;font-weight:bold;font-stretch:normal;font-size:8.46667px;line-height:1.25;font-family:sans-serif;-inkscape-font-specification:'sans-serif Bold';fill:#ffffff;fill-opacity:1;stroke-width:0.264583"
           d="m 175.91952,273.90844 -1.48829,6.43269 h -1.49655 l 0.11163,-0.4837 q -0.21498,0.13643 -0.38034,0.24805 -0.16123,0.10749 -0.35967,0.19844 -0.18604,0.0827 -0.36794,0.12402 -0.17776,0.0413 -0.42995,0.0413 -0.67386,0 -1.079,-0.43821 -0.40101,-0.43822 -0.40101,-1.24437 0,-0.66146 0.21084,-1.24024 0.21497,-0.58291 0.58705,-1.02939 0.3638,-0.43408 0.85989,-0.6904 0.4961,-0.25631 1.03766,-0.25631 0.38034,0 0.66146,0.0785 0.28112,0.0744 0.57878,0.23565 l 0.45889,-1.97611 z m -2.16215,2.87321 q -0.11989,-0.0579 -0.31419,-0.10335 -0.1943,-0.0496 -0.34313,-0.0496 -0.35553,0 -0.64079,0.1571 -0.28525,0.15709 -0.48369,0.42994 -0.17777,0.24392 -0.28112,0.62426 -0.10335,0.3762 -0.10335,0.7276 0,0.41755 0.1943,0.60771 0.1943,0.19017 0.59118,0.19017 0.20257,0 0.42581,-0.091 0.22738,-0.091 0.42995,-0.21497 z" />
        <path
           id="path1007"
           style="font-style:italic;font-variant:normal;font-weight:bold;font-stretch:normal;font-size:8.46667px;line-height:1.25;font-family:sans-serif;-inkscape-font-specification:'sans-serif Bold';fill:#ffffff;fill-opacity:1;stroke-width:0.264583"
           d="m 181.18224,277.39763 q 0,0.6532 -0.21911,1.2237 -0.21911,0.57051 -0.61599,0.97979 -0.41341,0.42581 -0.95911,0.65732 -0.5457,0.22738 -1.27331,0.22738 -1.03766,0 -1.59163,-0.49609 -0.55397,-0.4961 -0.55397,-1.37253 0,-0.62012 0.2067,-1.17822 0.20671,-0.55811 0.61185,-0.98392 0.39274,-0.41755 0.96325,-0.65733 0.57464,-0.24391 1.28571,-0.24391 1.0418,0 1.59163,0.49196 0.55398,0.48782 0.55398,1.35185 z m -1.93477,1.52136 q 0.19017,-0.28939 0.28525,-0.63252 0.0992,-0.34313 0.0992,-0.83509 0,-0.42582 -0.18603,-0.65319 -0.18604,-0.23151 -0.59118,-0.23151 -0.31419,0 -0.55397,0.15296 -0.23565,0.15296 -0.41755,0.43408 -0.1695,0.26045 -0.26872,0.64492 -0.0951,0.38448 -0.0951,0.78962 0,0.47542 0.21084,0.68213 0.21084,0.20257 0.57878,0.20257 0.26871,0 0.51676,-0.14469 0.24805,-0.14883 0.42168,-0.40928 z" />
        <path
           id="path1009"
           style="font-style:italic;font-variant:normal;font-weight:bold;font-stretch:normal;font-size:8.46667px;line-height:1.25;font-family:sans-serif;-inkscape-font-specification:'sans-serif Bold';fill:#ffffff;fill-opacity:1;stroke-width:0.264583"
           d="m 190.11193,275.69851 -2.42672,4.64262 h -1.57923 l -0.31006,-3.12953 -1.56683,3.12953 h -1.59991 l -0.43821,-4.64262 h 1.52135 l 0.13643,3.19981 1.64951,-3.19981 h 1.31878 l 0.28526,3.19981 1.43867,-3.19981 z" />
        <path
           id="path1011"
           style="font-style:italic;font-variant:normal;font-weight:bold;font-stretch:normal;font-size:8.46667px;line-height:1.25;font-family:sans-serif;-inkscape-font-specification:'sans-serif Bold';fill:#ffffff;fill-opacity:1;stroke-width:0.264583"
           d="m 191.72423,280.46928 q -0.59531,0 -1.15341,-0.11162 -0.55811,-0.11162 -0.85577,-0.26045 l 0.28526,-1.2237 h 0.13642 q 0.0909,0.0786 0.22738,0.17364 0.14056,0.0951 0.39687,0.19843 0.21911,0.0951 0.5085,0.16537 0.28939,0.0661 0.62425,0.0661 0.50023,0 0.74828,-0.11576 0.25218,-0.11576 0.25218,-0.33073 0,-0.16536 -0.17777,-0.25218 -0.17777,-0.0868 -0.73587,-0.21497 -0.94671,-0.21911 -1.29811,-0.52917 -0.34727,-0.31006 -0.34727,-0.77308 0,-0.78548 0.7028,-1.2361 0.7028,-0.45475 1.90169,-0.45475 0.5209,0 1.0418,0.10748 0.5209,0.10336 0.76481,0.22324 l -0.27285,1.17409 h -0.12816 q -0.29352,-0.22737 -0.71106,-0.36793 -0.41342,-0.1447 -0.85163,-0.1447 -0.47543,0 -0.73174,0.11576 -0.25218,0.11162 -0.25218,0.34726 0,0.18191 0.21911,0.28112 0.2191,0.0951 0.69039,0.19844 0.87644,0.19017 1.26091,0.47956 0.38861,0.28939 0.38861,0.81029 0,0.77721 -0.71107,1.22783 -0.71107,0.44648 -1.92237,0.44648 z" />
        <path
           id="path1013"
           style="font-style:italic;font-variant:normal;font-weight:bold;font-stretch:normal;font-size:8.46667px;line-height:1.25;font-family:sans-serif;-inkscape-font-specification:'sans-serif Bold';fill:#ffffff;fill-opacity:1;stroke-width:0.264583"
           d="m 201.17483,278.15004 q -0.39687,0.0331 -0.74414,0.0786 -0.34727,0.0455 -0.59118,0.13229 -0.25218,0.0909 -0.38447,0.25632 -0.13229,0.16536 -0.13229,0.43822 0,0.23977 0.17363,0.33899 0.17777,0.0951 0.51263,0.0951 0.21911,0 0.46716,-0.0992 0.25218,-0.10335 0.47129,-0.26045 z m -0.39274,1.69913 q -0.14056,0.0909 -0.339,0.2191 -0.19843,0.12816 -0.36793,0.20258 -0.23151,0.0951 -0.43409,0.14469 -0.20257,0.0496 -0.56224,0.0496 -0.57877,0 -0.94671,-0.32246 -0.3638,-0.3266 -0.3638,-0.8475 0,-0.54983 0.26045,-0.93017 0.26045,-0.38447 0.77308,-0.61185 0.47956,-0.21498 1.14101,-0.31006 0.6656,-0.0951 1.43868,-0.14056 0.004,-0.0248 0.0165,-0.0786 0.0124,-0.0579 0.0124,-0.12816 0,-0.29352 -0.27286,-0.40927 -0.27285,-0.11989 -0.81442,-0.11989 -0.36793,0 -0.81442,0.12402 -0.44235,0.12402 -0.66559,0.20671 h -0.13643 l 0.21911,-1.09968 q 0.26045,-0.0661 0.80616,-0.14883 0.5457,-0.0827 1.08727,-0.0827 1.0914,0 1.5999,0.28526 0.51263,0.28525 0.51263,0.8847 0,0.0827 -0.0165,0.21497 -0.0124,0.13229 -0.0372,0.23151 l -0.72761,3.15847 h -1.48001 z" />
        <path
           id="path1015"
           style="font-style:italic;font-variant:normal;font-weight:bold;font-stretch:normal;font-size:8.46667px;line-height:1.25;font-family:sans-serif;-inkscape-font-specification:'sans-serif Bold';fill:#ffffff;fill-opacity:1;stroke-width:0.264583"
           d="m 208.94697,276.74858 q 0,0.12402 -0.0165,0.26872 -0.0165,0.14469 -0.0537,0.30179 l -0.69453,3.02204 h -1.50482 l 0.52917,-2.30271 q 0.0579,-0.25631 0.0909,-0.43821 0.0331,-0.1819 0.0331,-0.339 0,-0.26872 -0.13642,-0.39274 -0.13643,-0.12403 -0.50023,-0.12403 -0.17777,0 -0.40928,0.0786 -0.23151,0.0744 -0.5209,0.22738 l -0.75654,3.29076 h -1.49655 l 1.07073,-4.64262 h 1.49655 l -0.11989,0.51263 q 0.45889,-0.30179 0.8351,-0.47129 0.38034,-0.16949 0.83509,-0.16949 0.62425,0 0.97152,0.30179 0.34726,0.30179 0.34726,0.87643 z" />
        <path
           id="path1017"
           style="font-style:italic;font-variant:normal;font-weight:bold;font-stretch:normal;font-size:8.46667px;line-height:1.25;font-family:sans-serif;-inkscape-font-specification:'sans-serif Bold';fill:#ffffff;fill-opacity:1;stroke-width:0.264583"
           d="m 215.55741,273.90844 -1.48828,6.43269 h -1.49655 l 0.11162,-0.4837 q -0.21497,0.13643 -0.38034,0.24805 -0.16123,0.10749 -0.35967,0.19844 -0.18603,0.0827 -0.36793,0.12402 -0.17777,0.0413 -0.42995,0.0413 -0.67386,0 -1.07901,-0.43821 -0.40101,-0.43822 -0.40101,-1.24437 0,-0.66146 0.21084,-1.24024 0.21498,-0.58291 0.58705,-1.02939 0.3638,-0.43408 0.8599,-0.6904 0.49609,-0.25631 1.03766,-0.25631 0.38034,0 0.66146,0.0785 0.28112,0.0744 0.57877,0.23565 l 0.45889,-1.97611 z m -2.16214,2.87321 q -0.11989,-0.0579 -0.3142,-0.10335 -0.1943,-0.0496 -0.34313,-0.0496 -0.35553,0 -0.64079,0.1571 -0.28525,0.15709 -0.48369,0.42994 -0.17776,0.24392 -0.28112,0.62426 -0.10335,0.3762 -0.10335,0.7276 0,0.41755 0.1943,0.60771 0.19431,0.19017 0.59118,0.19017 0.20257,0 0.42582,-0.091 0.22737,-0.091 0.42994,-0.21497 z" />
        <path
           id="path1019"
           style="font-style:italic;font-variant:normal;font-weight:bold;font-stretch:normal;font-size:8.46667px;line-height:1.25;font-family:sans-serif;-inkscape-font-specification:'sans-serif Bold';fill:#ffffff;fill-opacity:1;stroke-width:0.264583"
           d="m 224.19359,280.34113 h -1.5999 l -0.14056,-1.25678 h -2.2655 l -0.71933,1.25678 h -1.65778 l 3.69176,-6.1557 h 1.83555 z m -1.86035,-2.36058 -0.24805,-2.21176 -1.26917,2.21176 z" />
        <path
           id="path1021"
           style="font-style:italic;font-variant:normal;font-weight:bold;font-stretch:normal;font-size:8.46667px;line-height:1.25;font-family:sans-serif;-inkscape-font-specification:'sans-serif Bold';fill:#ffffff;fill-opacity:1;stroke-width:0.264583"
           d="m 234.94229,274.18543 -2.9931,6.1557 h -1.70325 l -0.26459,-4.08038 -1.99677,4.08038 h -1.7694 l -0.28112,-6.1557 h 1.65778 l 0.0124,4.23747 2.06706,-4.23747 h 1.58336 l 0.18604,4.23747 1.88515,-4.23747 z" />
        <path
           id="path1023"
           style="font-style:italic;font-variant:normal;font-weight:bold;font-stretch:normal;font-size:8.46667px;line-height:1.25;font-family:sans-serif;-inkscape-font-specification:'sans-serif Bold';fill:#ffffff;fill-opacity:1;stroke-width:0.264583"
           d="m 236.83985,280.45275 q -0.78961,0 -1.40973,-0.13643 -0.61598,-0.13643 -1.0666,-0.339 l 0.31832,-1.47588 h 0.17364 q 0.42581,0.38861 1.00045,0.60358 0.57464,0.21084 1.2361,0.21084 0.678,0 0.99633,-0.1819 0.31832,-0.18603 0.31832,-0.52916 0,-0.12816 -0.0537,-0.21911 -0.0496,-0.0951 -0.19844,-0.18604 -0.14883,-0.091 -0.40928,-0.17776 -0.25631,-0.0909 -0.66559,-0.20671 -0.45062,-0.12402 -0.81029,-0.26872 -0.35553,-0.14469 -0.60771,-0.34313 -0.25218,-0.20257 -0.38447,-0.46715 -0.12816,-0.26459 -0.12816,-0.63252 0,-0.92605 0.81442,-1.47588 0.81855,-0.55397 2.23656,-0.55397 0.68213,0 1.28571,0.11162 0.60771,0.11162 1.02939,0.30179 l -0.30179,1.418 h -0.1695 q -0.32246,-0.29766 -0.85163,-0.4961 -0.52503,-0.20257 -1.14928,-0.20257 -0.61185,0 -0.94671,0.17777 -0.33487,0.17777 -0.33487,0.49196 0,0.14469 0.0496,0.23978 0.0496,0.0951 0.20257,0.18603 0.1323,0.0827 0.41755,0.18191 0.28525,0.0951 0.66973,0.19843 1.03353,0.27699 1.47588,0.64906 0.44235,0.37207 0.44235,1.00872 0,0.5333 -0.23978,0.93845 -0.23978,0.40514 -0.66146,0.65732 -0.44235,0.26872 -1.00459,0.39274 -0.56224,0.12403 -1.27331,0.12403 z" />
        <path
           id="path1025"
           style="font-style:italic;font-variant:normal;font-weight:bold;font-stretch:normal;font-size:8.46667px;line-height:1.25;font-family:sans-serif;-inkscape-font-specification:'sans-serif Bold';fill:#ffffff;fill-opacity:1;stroke-width:0.264583"
           d="m 247.93581,280.34113 h -4.44417 l 1.42213,-6.1557 h 1.59577 l -1.14515,4.96507 h 2.84841 z" />
        <path
           id="path1027"
           style="font-style:italic;font-variant:normal;font-weight:bold;font-stretch:normal;font-size:8.46667px;line-height:1.25;font-family:sans-serif;-inkscape-font-specification:'sans-serif Bold';fill:#ffffff;fill-opacity:1;stroke-width:0.264583"
           d="m 252.12367,278.15004 q -0.39688,0.0331 -0.74414,0.0786 -0.34727,0.0455 -0.59118,0.13229 -0.25218,0.0909 -0.38447,0.25632 -0.1323,0.16536 -0.1323,0.43822 0,0.23977 0.17364,0.33899 0.17776,0.0951 0.51263,0.0951 0.21911,0 0.46715,-0.0992 0.25218,-0.10335 0.47129,-0.26045 z m -0.39274,1.69913 q -0.14056,0.0909 -0.339,0.2191 -0.19844,0.12816 -0.36794,0.20258 -0.23151,0.0951 -0.43408,0.14469 -0.20257,0.0496 -0.56224,0.0496 -0.57877,0 -0.94671,-0.32246 -0.3638,-0.3266 -0.3638,-0.8475 0,-0.54983 0.26045,-0.93017 0.26045,-0.38447 0.77308,-0.61185 0.47955,-0.21498 1.14101,-0.31006 0.66559,-0.0951 1.43867,-0.14056 0.004,-0.0248 0.0165,-0.0786 0.0124,-0.0579 0.0124,-0.12816 0,-0.29352 -0.27285,-0.40927 -0.27285,-0.11989 -0.81442,-0.11989 -0.36794,0 -0.81442,0.12402 -0.44235,0.12402 -0.66559,0.20671 h -0.13643 l 0.21911,-1.09968 q 0.26045,-0.0661 0.80615,-0.14883 0.54571,-0.0827 1.08727,-0.0827 1.09141,0 1.59991,0.28526 0.51263,0.28525 0.51263,0.8847 0,0.0827 -0.0165,0.21497 -0.0124,0.13229 -0.0372,0.23151 l -0.7276,3.15847 h -1.48001 z" />
        <path
           id="path1029"
           style="font-style:italic;font-variant:normal;font-weight:bold;font-stretch:normal;font-size:8.46667px;line-height:1.25;font-family:sans-serif;-inkscape-font-specification:'sans-serif Bold';fill:#ffffff;fill-opacity:1;stroke-width:0.264583"
           d="m 262.83103,276.73204 q 0,0.12816 -0.0207,0.27699 -0.0165,0.14883 -0.0537,0.31006 l -0.69867,3.02204 h -1.50482 l 0.53744,-2.31924 q 0.0537,-0.23978 0.0951,-0.45889 0.0455,-0.21911 0.0455,-0.35553 0,-0.23978 -0.13229,-0.3514 -0.1323,-0.11163 -0.47129,-0.11163 -0.16123,0 -0.36794,0.0786 -0.20257,0.0744 -0.49196,0.22738 l -0.76068,3.29076 h -1.50482 l 0.53744,-2.31924 q 0.0455,-0.20258 0.091,-0.43822 0.0455,-0.23564 0.0455,-0.35967 0,-0.25218 -0.12816,-0.3638 -0.12403,-0.11576 -0.46716,-0.11576 -0.17776,0 -0.3886,0.0827 -0.21084,0.0827 -0.47543,0.22324 l -0.76067,3.29076 h -1.49655 l 1.07487,-4.64262 h 1.49655 l -0.11989,0.51263 q 0.45475,-0.30179 0.81855,-0.47129 0.36794,-0.16949 0.79375,-0.16949 0.45889,0 0.77308,0.2067 0.31419,0.20257 0.43822,0.59945 0.55397,-0.40101 0.99219,-0.60358 0.43821,-0.20257 0.84749,-0.20257 0.61185,0 0.93431,0.30179 0.32246,0.30179 0.32246,0.85989 z" />
        <path
           id="path1031"
           style="font-style:italic;font-variant:normal;font-weight:bold;font-stretch:normal;font-size:8.46667px;line-height:1.25;font-family:sans-serif;-inkscape-font-specification:'sans-serif Bold';fill:#ffffff;fill-opacity:1;stroke-width:0.264583"
           d="m 268.90819,277.18266 q 0,0.63252 -0.20671,1.22783 -0.20257,0.59532 -0.55811,1.03767 -0.3638,0.45062 -0.85162,0.71933 -0.48783,0.26459 -1.07901,0.26459 -0.3886,0 -0.69866,-0.0786 -0.30593,-0.0785 -0.54571,-0.24392 l -0.11162,0.23152 h -1.43454 l 1.48415,-6.43269 h 1.49655 l -0.52503,2.27376 q 0.40101,-0.27698 0.76068,-0.44235 0.3638,-0.16949 0.81028,-0.16949 0.71934,0 1.08728,0.42994 0.37207,0.42582 0.37207,1.18236 z m -1.5751,0.27699 q 0,-0.38861 -0.1695,-0.59118 -0.1695,-0.20257 -0.58705,-0.20257 -0.2191,0 -0.42994,0.0785 -0.21084,0.0744 -0.44649,0.19844 l -0.53743,2.33164 q 0.14469,0.0579 0.30592,0.0951 0.16123,0.0331 0.3638,0.0331 0.6904,0 1.09554,-0.54157 0.40515,-0.5457 0.40515,-1.40146 z" />
        <path
           id="path1033"
           style="font-style:italic;font-variant:normal;font-weight:bold;font-stretch:normal;font-size:8.46667px;line-height:1.25;font-family:sans-serif;-inkscape-font-specification:'sans-serif Bold';fill:#ffffff;fill-opacity:1;stroke-width:0.264583"
           d="m 275.35328,273.90844 -1.48828,6.43269 h -1.49655 l 0.11162,-0.4837 q -0.21498,0.13643 -0.38034,0.24805 -0.16123,0.10749 -0.35967,0.19844 -0.18603,0.0827 -0.36794,0.12402 -0.17776,0.0413 -0.42994,0.0413 -0.67386,0 -1.07901,-0.43821 -0.40101,-0.43822 -0.40101,-1.24437 0,-0.66146 0.21084,-1.24024 0.21498,-0.58291 0.58705,-1.02939 0.3638,-0.43408 0.85989,-0.6904 0.4961,-0.25631 1.03767,-0.25631 0.38033,0 0.66145,0.0785 0.28112,0.0744 0.57878,0.23565 l 0.45889,-1.97611 z m -2.16214,2.87321 q -0.11989,-0.0579 -0.3142,-0.10335 -0.1943,-0.0496 -0.34313,-0.0496 -0.35553,0 -0.64079,0.1571 -0.28525,0.15709 -0.48369,0.42994 -0.17777,0.24392 -0.28112,0.62426 -0.10335,0.3762 -0.10335,0.7276 0,0.41755 0.1943,0.60771 0.19431,0.19017 0.59118,0.19017 0.20257,0 0.42581,-0.091 0.22738,-0.091 0.42995,-0.21497 z" />
        <path
           id="path1035"
           style="font-style:italic;font-variant:normal;font-weight:bold;font-stretch:normal;font-size:8.46667px;line-height:1.25;font-family:sans-serif;-inkscape-font-specification:'sans-serif Bold';fill:#ffffff;fill-opacity:1;stroke-width:0.264583"
           d="m 278.58201,278.15004 q -0.39687,0.0331 -0.74414,0.0786 -0.34726,0.0455 -0.59118,0.13229 -0.25218,0.0909 -0.38447,0.25632 -0.13229,0.16536 -0.13229,0.43822 0,0.23977 0.17363,0.33899 0.17777,0.0951 0.51263,0.0951 0.21911,0 0.46716,-0.0992 0.25218,-0.10335 0.47129,-0.26045 z m -0.39274,1.69913 q -0.14056,0.0909 -0.339,0.2191 -0.19843,0.12816 -0.36793,0.20258 -0.23151,0.0951 -0.43408,0.14469 -0.20258,0.0496 -0.56224,0.0496 -0.57878,0 -0.94672,-0.32246 -0.3638,-0.3266 -0.3638,-0.8475 0,-0.54983 0.26045,-0.93017 0.26045,-0.38447 0.77308,-0.61185 0.47956,-0.21498 1.14102,-0.31006 0.66559,-0.0951 1.43867,-0.14056 0.004,-0.0248 0.0165,-0.0786 0.0124,-0.0579 0.0124,-0.12816 0,-0.29352 -0.27285,-0.40927 -0.27286,-0.11989 -0.81443,-0.11989 -0.36793,0 -0.81442,0.12402 -0.44235,0.12402 -0.66559,0.20671 h -0.13642 l 0.2191,-1.09968 q 0.26045,-0.0661 0.80616,-0.14883 0.5457,-0.0827 1.08727,-0.0827 1.09141,0 1.5999,0.28526 0.51263,0.28525 0.51263,0.8847 0,0.0827 -0.0165,0.21497 -0.0124,0.13229 -0.0372,0.23151 l -0.72761,3.15847 h -1.48001 z" />
      </g>
    </g>
  </g>
</svg>
