<?xml version="1.0" encoding="UTF-8" standalone="no"?>
<svg
   xmlns:dc="http://purl.org/dc/elements/1.1/"
   xmlns:cc="http://creativecommons.org/ns#"
   xmlns:rdf="http://www.w3.org/1999/02/22-rdf-syntax-ns#"
   xmlns:svg="http://www.w3.org/2000/svg"
   xmlns="http://www.w3.org/2000/svg"
   xmlns:sodipodi="http://sodipodi.sourceforge.net/DTD/sodipodi-0.dtd"
   xmlns:inkscape="http://www.inkscape.org/namespaces/inkscape"
   sodipodi:docname="next_secondary.svg"
   inkscape:version="1.0 (4035a4fb49, 2020-05-01)"
   id="svg8"
   version="1.1"
   viewBox="0 0 291.04166 37.030054"
   height="139.9561"
   width="1100">
  <defs
     id="defs2" />
  <sodipodi:namedview
     inkscape:document-rotation="0"
     fit-margin-bottom="0"
     fit-margin-right="0"
     fit-margin-left="0"
     fit-margin-top="0"
     inkscape:window-maximized="1"
     inkscape:window-y="-8"
     inkscape:window-x="-8"
     inkscape:window-height="1137"
     inkscape:window-width="1920"
     inkscape:snap-page="true"
     inkscape:snap-global="true"
     units="px"
     showgrid="false"
     inkscape:current-layer="layer1"
     inkscape:document-units="mm"
     inkscape:cy="190.25881"
     inkscape:cx="572.17975"
     inkscape:zoom="0.7"
     inkscape:pageshadow="2"
     inkscape:pageopacity="0.0"
     borderopacity="1.0"
     bordercolor="#666666"
     pagecolor="#ffffff"
     id="base" />
  <metadata
     id="metadata5">
    <rdf:RDF>
      <cc:Work
         rdf:about="">
        <dc:format>image/svg+xml</dc:format>
        <dc:type
           rdf:resource="http://purl.org/dc/dcmitype/StillImage" />
        <dc:title></dc:title>
      </cc:Work>
    </rdf:RDF>
  </metadata>
  <g
     transform="translate(18.758024,-252.02661)"
     id="layer1"
     inkscape:groupmode="layer"
     inkscape:label="Layer 1">
    <text
       id="text839"
       y="289.05667"
       x="119.58125"
       style="font-style:normal;font-weight:normal;font-size:10.5833px;line-height:1.25;font-family:sans-serif;letter-spacing:0px;word-spacing:0px;writing-mode:tb-rl;fill:#000000;fill-opacity:1;stroke:none;stroke-width:0.264583"
       xml:space="preserve"><tspan
         style="stroke-width:0.264583"
         y="119.58125"
         x="289.05667"
         id="tspan837"
         sodipodi:role="line" /></text>
    <g
       transform="translate(-26.458333)"
       id="g3272">
      <rect
         style="opacity:0.97;fill:#ee2a24;fill-opacity:1;stroke:#ee2a24;stroke-width:1;stroke-linecap:butt;stroke-linejoin:round;stroke-miterlimit:4;stroke-dasharray:none;stroke-dashoffset:0;stroke-opacity:1;paint-order:normal"
         id="rect817"
         width="278.34521"
         height="36.030052"
         x="14.048535"
         y="252.57567"
         ry="1.4827397"
         rx="1.7103499" />
      <text
         xml:space="preserve"
         style="font-style:normal;font-weight:normal;font-size:9.87778px;line-height:1.25;font-family:sans-serif;letter-spacing:0px;word-spacing:0px;fill:#000000;fill-opacity:1;stroke:none;stroke-width:0.264583"
         x="111.59332"
         y="267.86475"
         id="text827"><tspan
           sodipodi:role="line"
           x="111.59332"
           y="267.86475"
           style="font-style:normal;font-variant:normal;font-weight:bold;font-stretch:normal;font-size:11.2889px;line-height:1.25;font-family:sans-serif;-inkscape-font-specification:'sans-serif Bold';fill:#ffffff;fill-opacity:1;stroke-width:0.264583"
           id="tspan833">Next Tutorial</tspan></text>
      <g
         style="font-style:normal;font-weight:normal;font-size:8.46667px;line-height:1.25;font-family:sans-serif;letter-spacing:0px;word-spacing:0px;fill:#000000;fill-opacity:1;stroke:none;stroke-width:0.264583"
         id="text827-8"
         aria-label="Visualizing Sensor Data in Jupyter Notebooks">
        <path
           id="path837"
           style="font-style:italic;font-variant:normal;font-weight:bold;font-stretch:normal;font-size:8.46667px;line-height:1.25;font-family:sans-serif;-inkscape-font-specification:'sans-serif Bold';fill:#ffffff;fill-opacity:1;stroke-width:0.264583"
           d="m 51.683113,274.18543 -3.666961,6.1557 h -1.77767 l -0.822689,-6.1557 h 1.624708 l 0.491959,4.39456 2.451531,-4.39456 z" />
        <path
           id="path839"
           style="font-style:italic;font-variant:normal;font-weight:bold;font-stretch:normal;font-size:8.46667px;line-height:1.25;font-family:sans-serif;-inkscape-font-specification:'sans-serif Bold';fill:#ffffff;fill-opacity:1;stroke-width:0.264583"
           d="m 53.634416,275.69851 -1.07487,4.64262 h -1.49655 l 1.07487,-4.64262 z m 0.454753,-1.79007 -0.260449,1.12861 h -1.579233 l 0.260449,-1.12861 z" />
        <path
           id="path841"
           style="font-style:italic;font-variant:normal;font-weight:bold;font-stretch:normal;font-size:8.46667px;line-height:1.25;font-family:sans-serif;-inkscape-font-specification:'sans-serif Bold';fill:#ffffff;fill-opacity:1;stroke-width:0.264583"
           d="m 55.746949,280.46928 q -0.595312,0 -1.153418,-0.11162 -0.558106,-0.11162 -0.855762,-0.26045 l 0.285254,-1.2237 h 0.136426 q 0.09095,0.0786 0.227376,0.17364 0.14056,0.0951 0.396875,0.19843 0.219109,0.0951 0.508497,0.16537 0.289388,0.0661 0.624251,0.0661 0.500228,0 0.748275,-0.11576 0.252181,-0.11576 0.252181,-0.33073 0,-0.16536 -0.177767,-0.25218 -0.177767,-0.0868 -0.735872,-0.21497 -0.946713,-0.21911 -1.298113,-0.52917 -0.347266,-0.31006 -0.347266,-0.77308 0,-0.78548 0.7028,-1.2361 0.7028,-0.45475 1.901694,-0.45475 0.520898,0 1.041797,0.10748 0.520899,0.10336 0.764811,0.22324 l -0.272851,1.17409 h -0.128158 q -0.293522,-0.22737 -0.711068,-0.36793 -0.413411,-0.1447 -0.851628,-0.1447 -0.475423,0 -0.731738,0.11576 -0.252181,0.11162 -0.252181,0.34726 0,0.18191 0.219108,0.28112 0.219108,0.0951 0.690397,0.19844 0.876433,0.19017 1.260906,0.47956 0.388607,0.28939 0.388607,0.81029 0,0.77721 -0.711068,1.22783 -0.711068,0.44648 -1.922365,0.44648 z" />
        <path
           id="path843"
           style="font-style:italic;font-variant:normal;font-weight:bold;font-stretch:normal;font-size:8.46667px;line-height:1.25;font-family:sans-serif;-inkscape-font-specification:'sans-serif Bold';fill:#ffffff;fill-opacity:1;stroke-width:0.264583"
           d="m 64.689043,275.69851 -1.07487,4.64262 h -1.49655 l 0.119889,-0.51263 q -0.223242,0.14469 -0.438216,0.27285 -0.21084,0.12402 -0.40101,0.19843 -0.239778,0.0992 -0.438216,0.1323 -0.198438,0.0372 -0.392741,0.0372 -0.611849,0 -0.967383,-0.29352 -0.3514,-0.29352 -0.3514,-0.86816 0,-0.1571 0.01654,-0.28939 0.01654,-0.13643 0.05374,-0.29766 l 0.698665,-3.02204 h 1.504819 l -0.533301,2.30271 q -0.06201,0.26458 -0.09509,0.45475 -0.02894,0.19017 -0.02894,0.32246 0,0.27285 0.132292,0.39687 0.132292,0.11989 0.500228,0.11989 0.181901,0 0.417546,-0.0785 0.239779,-0.0786 0.516764,-0.22738 l 0.760678,-3.29076 z" />
        <path
           id="path845"
           style="font-style:italic;font-variant:normal;font-weight:bold;font-stretch:normal;font-size:8.46667px;line-height:1.25;font-family:sans-serif;-inkscape-font-specification:'sans-serif Bold';fill:#ffffff;fill-opacity:1;stroke-width:0.264583"
           d="m 68.339468,278.15004 q -0.396875,0.0331 -0.744141,0.0786 -0.347265,0.0455 -0.591178,0.13229 -0.252181,0.0909 -0.384473,0.25632 -0.132292,0.16536 -0.132292,0.43822 0,0.23977 0.173633,0.33899 0.177767,0.0951 0.51263,0.0951 0.219109,0 0.467156,-0.0992 0.252181,-0.10335 0.471289,-0.26045 z m -0.392741,1.69913 q -0.14056,0.0909 -0.338997,0.2191 -0.198438,0.12816 -0.367937,0.20258 -0.23151,0.0951 -0.434082,0.14469 -0.202572,0.0496 -0.56224,0.0496 -0.578776,0 -0.946712,-0.32246 -0.363803,-0.3266 -0.363803,-0.8475 0,-0.54983 0.26045,-0.93017 0.260449,-0.38447 0.77308,-0.61185 0.479557,-0.21498 1.141016,-0.31006 0.665592,-0.0951 1.438672,-0.14056 0.0041,-0.0248 0.01654,-0.0786 0.0124,-0.0579 0.0124,-0.12816 0,-0.29352 -0.272852,-0.40927 -0.272851,-0.11989 -0.814421,-0.11989 -0.367936,0 -0.814421,0.12402 -0.44235,0.12402 -0.665592,0.20671 h -0.136426 l 0.219108,-1.09968 q 0.260449,-0.0661 0.806153,-0.14883 0.545703,-0.0827 1.087272,-0.0827 1.091407,0 1.599903,0.28526 0.512631,0.28525 0.512631,0.8847 0,0.0827 -0.01654,0.21497 -0.0124,0.13229 -0.03721,0.23151 l -0.727604,3.15847 h -1.480014 z" />
        <path
           id="path847"
           style="font-style:italic;font-variant:normal;font-weight:bold;font-stretch:normal;font-size:8.46667px;line-height:1.25;font-family:sans-serif;-inkscape-font-specification:'sans-serif Bold';fill:#ffffff;fill-opacity:1;stroke-width:0.264583"
           d="m 73.660075,273.90844 -1.488282,6.43269 h -1.49655 l 1.488282,-6.43269 z" />
        <path
           id="path849"
           style="font-style:italic;font-variant:normal;font-weight:bold;font-stretch:normal;font-size:8.46667px;line-height:1.25;font-family:sans-serif;-inkscape-font-specification:'sans-serif Bold';fill:#ffffff;fill-opacity:1;stroke-width:0.264583"
           d="m 76.140544,275.69851 -1.07487,4.64262 h -1.49655 l 1.07487,-4.64262 z m 0.454753,-1.79007 -0.26045,1.12861 h -1.579232 l 0.260449,-1.12861 z" />
        <path
           id="path851"
           style="font-style:italic;font-variant:normal;font-weight:bold;font-stretch:normal;font-size:8.46667px;line-height:1.25;font-family:sans-serif;-inkscape-font-specification:'sans-serif Bold';fill:#ffffff;fill-opacity:1;stroke-width:0.264583"
           d="m 80.452429,280.34113 h -4.361493 l 0.214974,-0.91364 3.050978,-2.68305 h -2.335776 l 0.243913,-1.04593 h 4.216799 l -0.21084,0.89711 -3.013771,2.6789 h 2.443263 z" />
        <path
           id="path853"
           style="font-style:italic;font-variant:normal;font-weight:bold;font-stretch:normal;font-size:8.46667px;line-height:1.25;font-family:sans-serif;-inkscape-font-specification:'sans-serif Bold';fill:#ffffff;fill-opacity:1;stroke-width:0.264583"
           d="m 84.094584,275.69851 -1.07487,4.64262 h -1.49655 l 1.07487,-4.64262 z m 0.454753,-1.79007 -0.260449,1.12861 h -1.579232 l 0.260449,-1.12861 z" />
        <path
           id="path855"
           style="font-style:italic;font-variant:normal;font-weight:bold;font-stretch:normal;font-size:8.46667px;line-height:1.25;font-family:sans-serif;-inkscape-font-specification:'sans-serif Bold';fill:#ffffff;fill-opacity:1;stroke-width:0.264583"
           d="m 89.85341,276.74858 q 0,0.12402 -0.01654,0.26872 -0.01654,0.14469 -0.05374,0.30179 l -0.694532,3.02204 H 87.58378 l 0.529167,-2.30271 q 0.05788,-0.25631 0.09095,-0.43821 0.03307,-0.1819 0.03307,-0.339 0,-0.26872 -0.136426,-0.39274 -0.136425,-0.12403 -0.500228,-0.12403 -0.177767,0 -0.409277,0.0786 -0.231511,0.0744 -0.520899,0.22738 l -0.756543,3.29076 h -1.49655 l 1.070736,-4.64262 h 1.49655 l -0.119889,0.51263 q 0.458887,-0.30179 0.835091,-0.47129 0.380339,-0.16949 0.835092,-0.16949 0.624251,0 0.971517,0.30179 0.347266,0.30179 0.347266,0.87643 z" />
        <path
           id="path857"
           style="font-style:italic;font-variant:normal;font-weight:bold;font-stretch:normal;font-size:8.46667px;line-height:1.25;font-family:sans-serif;-inkscape-font-specification:'sans-serif Bold';fill:#ffffff;fill-opacity:1;stroke-width:0.264583"
           d="m 96.046315,275.69851 -0.934311,4.10931 q -0.152962,0.66146 -0.434082,1.09968 -0.28112,0.43822 -0.682129,0.69867 -0.413412,0.26871 -0.897103,0.3762 -0.483692,0.10749 -1.087273,0.10749 -0.500228,0 -0.959115,-0.062 -0.458887,-0.0579 -0.773079,-0.13642 l 0.227376,-1.14102 H 90.6885 q 0.343132,0.13229 0.694532,0.21084 0.3514,0.0786 0.624251,0.0786 0.392741,0 0.682129,-0.0744 0.289389,-0.0703 0.454753,-0.20671 0.177767,-0.14469 0.28112,-0.35553 0.107487,-0.21084 0.173633,-0.51677 l 0.02067,-0.0868 q -0.322462,0.2191 -0.640788,0.34726 -0.318327,0.12816 -0.719337,0.12816 -0.781348,0 -1.223698,-0.39274 -0.438216,-0.39274 -0.438216,-1.18649 0,-1.3684 0.773079,-2.24483 0.77308,-0.88056 1.876889,-0.88056 0.396875,0 0.719336,0.0951 0.326595,0.0951 0.525033,0.23978 l 0.103353,-0.20671 z m -1.744597,1.07487 q -0.11989,-0.0537 -0.318327,-0.0992 -0.194304,-0.0496 -0.343132,-0.0496 -0.665593,0 -1.070736,0.50023 -0.405143,0.50023 -0.405143,1.28571 0,0.35554 0.173632,0.55397 0.173633,0.19844 0.624252,0.19844 0.219108,0 0.44235,-0.0827 0.227377,-0.0868 0.425814,-0.20257 z" />
        <path
           id="path859"
           style="font-style:italic;font-variant:normal;font-weight:bold;font-stretch:normal;font-size:8.46667px;line-height:1.25;font-family:sans-serif;-inkscape-font-specification:'sans-serif Bold';fill:#ffffff;fill-opacity:1;stroke-width:0.264583"
           d="m 101.6067,280.45275 q -0.78962,0 -1.40973,-0.13643 -0.615987,-0.13643 -1.066606,-0.339 l 0.318327,-1.47588 h 0.173633 q 0.425816,0.38861 1.000456,0.60358 0.57464,0.21084 1.2361,0.21084 0.678,0 0.99632,-0.1819 0.31833,-0.18603 0.31833,-0.52916 0,-0.12816 -0.0537,-0.21911 -0.0496,-0.0951 -0.19844,-0.18604 -0.14883,-0.091 -0.40928,-0.17776 -0.25631,-0.0909 -0.66559,-0.20671 -0.45062,-0.12402 -0.81029,-0.26872 -0.35553,-0.14469 -0.60771,-0.34313 -0.25218,-0.20257 -0.38448,-0.46715 -0.128154,-0.26459 -0.128154,-0.63252 0,-0.92605 0.814424,-1.47588 0.81855,-0.55397 2.23655,-0.55397 0.68213,0 1.28571,0.11162 0.60772,0.11162 1.0294,0.30179 l -0.30179,1.418 h -0.1695 q -0.32246,-0.29766 -0.85163,-0.4961 -0.52503,-0.20257 -1.14928,-0.20257 -0.61185,0 -0.94672,0.17777 -0.33486,0.17777 -0.33486,0.49196 0,0.14469 0.0496,0.23978 0.0496,0.0951 0.20257,0.18603 0.13229,0.0827 0.41755,0.18191 0.28525,0.0951 0.66973,0.19843 1.03352,0.27699 1.47587,0.64906 0.44235,0.37207 0.44235,1.00872 0,0.5333 -0.23977,0.93845 -0.23978,0.40514 -0.66146,0.65732 -0.44235,0.26872 -1.00459,0.39274 -0.56224,0.12403 -1.27331,0.12403 z" />
        <path
           id="path861"
           style="font-style:italic;font-variant:normal;font-weight:bold;font-stretch:normal;font-size:8.46667px;line-height:1.25;font-family:sans-serif;-inkscape-font-specification:'sans-serif Bold';fill:#ffffff;fill-opacity:1;stroke-width:0.264583"
           d="m 109.04398,277.42244 q 0.0124,-0.0744 0.0165,-0.13643 0.008,-0.062 0.008,-0.12815 0,-0.3266 -0.20257,-0.50023 -0.20257,-0.17363 -0.58291,-0.17363 -0.45889,0 -0.77308,0.24804 -0.31006,0.24805 -0.47129,0.6904 z m -1.13688,3.04271 q -1.1865,0 -1.83142,-0.52503 -0.64492,-0.52504 -0.64492,-1.45108 0,-0.63252 0.21084,-1.16169 0.21084,-0.52916 0.60771,-0.93017 0.38034,-0.38861 0.95085,-0.61598 0.57051,-0.22738 1.25264,-0.22738 1.03766,0 1.56269,0.42168 0.52917,0.41754 0.52917,1.2361 0,0.28112 -0.0579,0.54984 -0.0537,0.26871 -0.14469,0.5333 h -3.44785 q 0,0.0248 0,0.0496 0,0.0207 0,0.0455 0,0.48369 0.33899,0.75655 0.339,0.27285 1.03767,0.27285 0.48782,0 0.92191,-0.16537 0.43821,-0.16536 0.76067,-0.36793 h 0.16537 l -0.27699,1.19476 q -0.43408,0.19017 -0.91364,0.28525 -0.47956,0.0992 -1.02112,0.0992 z" />
        <path
           id="path863"
           style="font-style:italic;font-variant:normal;font-weight:bold;font-stretch:normal;font-size:8.46667px;line-height:1.25;font-family:sans-serif;-inkscape-font-specification:'sans-serif Bold';fill:#ffffff;fill-opacity:1;stroke-width:0.264583"
           d="m 116.34483,276.74858 q 0,0.12402 -0.0165,0.26872 -0.0165,0.14469 -0.0537,0.30179 l -0.69453,3.02204 h -1.50482 l 0.52916,-2.30271 q 0.0579,-0.25631 0.091,-0.43821 0.0331,-0.1819 0.0331,-0.339 0,-0.26872 -0.13643,-0.39274 -0.13642,-0.12403 -0.50023,-0.12403 -0.17776,0 -0.40927,0.0786 -0.23151,0.0744 -0.5209,0.22738 l -0.75655,3.29076 h -1.49655 l 1.07074,-4.64262 h 1.49655 l -0.11989,0.51263 q 0.45889,-0.30179 0.83509,-0.47129 0.38034,-0.16949 0.83509,-0.16949 0.62426,0 0.97152,0.30179 0.34727,0.30179 0.34727,0.87643 z" />
        <path
           id="path865"
           style="font-style:italic;font-variant:normal;font-weight:bold;font-stretch:normal;font-size:8.46667px;line-height:1.25;font-family:sans-serif;-inkscape-font-specification:'sans-serif Bold';fill:#ffffff;fill-opacity:1;stroke-width:0.264583"
           d="m 118.73434,280.46928 q -0.59531,0 -1.15342,-0.11162 -0.5581,-0.11162 -0.85576,-0.26045 l 0.28525,-1.2237 h 0.13643 q 0.091,0.0786 0.22738,0.17364 0.14056,0.0951 0.39687,0.19843 0.21911,0.0951 0.5085,0.16537 0.28939,0.0661 0.62425,0.0661 0.50023,0 0.74827,-0.11576 0.25219,-0.11576 0.25219,-0.33073 0,-0.16536 -0.17777,-0.25218 -0.17777,-0.0868 -0.73587,-0.21497 -0.94672,-0.21911 -1.29812,-0.52917 -0.34726,-0.31006 -0.34726,-0.77308 0,-0.78548 0.7028,-1.2361 0.7028,-0.45475 1.90169,-0.45475 0.5209,0 1.0418,0.10748 0.5209,0.10336 0.76481,0.22324 l -0.27285,1.17409 h -0.12816 q -0.29352,-0.22737 -0.71107,-0.36793 -0.41341,-0.1447 -0.85163,-0.1447 -0.47542,0 -0.73173,0.11576 -0.25218,0.11162 -0.25218,0.34726 0,0.18191 0.2191,0.28112 0.21911,0.0951 0.6904,0.19844 0.87643,0.19017 1.26091,0.47956 0.3886,0.28939 0.3886,0.81029 0,0.77721 -0.71107,1.22783 -0.71106,0.44648 -1.92236,0.44648 z" />
        <path
           id="path867"
           style="font-style:italic;font-variant:normal;font-weight:bold;font-stretch:normal;font-size:8.46667px;line-height:1.25;font-family:sans-serif;-inkscape-font-specification:'sans-serif Bold';fill:#ffffff;fill-opacity:1;stroke-width:0.264583"
           d="m 127.32503,277.39763 q 0,0.6532 -0.2191,1.2237 -0.21911,0.57051 -0.61599,0.97979 -0.41341,0.42581 -0.95911,0.65732 -0.54571,0.22738 -1.27331,0.22738 -1.03766,0 -1.59164,-0.49609 -0.55397,-0.4961 -0.55397,-1.37253 0,-0.62012 0.20671,-1.17822 0.2067,-0.55811 0.61185,-0.98392 0.39274,-0.41755 0.96325,-0.65733 0.57464,-0.24391 1.28571,-0.24391 1.04179,0 1.59163,0.49196 0.55397,0.48782 0.55397,1.35185 z m -1.93476,1.52136 q 0.19017,-0.28939 0.28525,-0.63252 0.0992,-0.34313 0.0992,-0.83509 0,-0.42582 -0.18604,-0.65319 -0.18603,-0.23151 -0.59117,-0.23151 -0.3142,0 -0.55398,0.15296 -0.23564,0.15296 -0.41754,0.43408 -0.1695,0.26045 -0.26872,0.64492 -0.0951,0.38448 -0.0951,0.78962 0,0.47542 0.21084,0.68213 0.21084,0.20257 0.57877,0.20257 0.26872,0 0.51677,-0.14469 0.24804,-0.14883 0.42168,-0.40928 z" />
        <path
           id="path869"
           style="font-style:italic;font-variant:normal;font-weight:bold;font-stretch:normal;font-size:8.46667px;line-height:1.25;font-family:sans-serif;-inkscape-font-specification:'sans-serif Bold';fill:#ffffff;fill-opacity:1;stroke-width:0.264583"
           d="m 131.89324,277.11651 h -0.13229 q -0.0992,-0.0331 -0.28112,-0.0496 -0.1819,-0.0165 -0.35967,-0.0165 -0.29352,0 -0.56637,0.0455 -0.27286,0.0413 -0.56224,0.13643 l -0.71934,3.10886 h -1.49655 l 1.07487,-4.64262 h 1.49655 l -0.1571,0.68213 q 0.42168,-0.31006 0.83923,-0.50436 0.42168,-0.1943 0.84749,-0.1943 0.0786,0 0.17364,0.004 0.0992,0.004 0.17363,0.0124 z" />
        <path
           id="path871"
           style="font-style:italic;font-variant:normal;font-weight:bold;font-stretch:normal;font-size:8.46667px;line-height:1.25;font-family:sans-serif;-inkscape-font-specification:'sans-serif Bold';fill:#ffffff;fill-opacity:1;stroke-width:0.264583"
           d="m 141.59601,276.58735 q 0,1.04593 -0.54984,1.93063 -0.54984,0.8847 -1.40973,1.35599 -0.5209,0.28112 -1.08727,0.3762 -0.56638,0.091 -1.35599,0.091 h -2.22829 l 1.42213,-6.1557 h 1.99265 q 0.88056,0 1.418,0.13642 0.53743,0.13643 0.86816,0.36794 0.45476,0.31419 0.6904,0.78548 0.23978,0.46716 0.23978,1.11208 z m -1.66192,0.14469 q 0,-0.42168 -0.15709,-0.72347 -0.1571,-0.30592 -0.47956,-0.49196 -0.14883,-0.0827 -0.30592,-0.12402 -0.15297,-0.0455 -0.3514,-0.0661 -0.19017,-0.0165 -0.43409,-0.0165 -0.24391,0 -0.42581,0 h -0.0537 l -0.90951,3.9026 h 0.14469 q 0.23978,0 0.51264,0 0.27285,0 0.44235,-0.0207 0.2191,-0.0207 0.39274,-0.0661 0.17776,-0.0455 0.3886,-0.15297 0.59532,-0.30592 0.91364,-0.91364 0.32246,-0.60771 0.32246,-1.32705 z" />
        <path
           id="path873"
           style="font-style:italic;font-variant:normal;font-weight:bold;font-stretch:normal;font-size:8.46667px;line-height:1.25;font-family:sans-serif;-inkscape-font-specification:'sans-serif Bold';fill:#ffffff;fill-opacity:1;stroke-width:0.264583"
           d="m 145.23403,278.15004 q -0.39688,0.0331 -0.74414,0.0786 -0.34727,0.0455 -0.59118,0.13229 -0.25218,0.0909 -0.38448,0.25632 -0.13229,0.16536 -0.13229,0.43822 0,0.23977 0.17364,0.33899 0.17776,0.0951 0.51263,0.0951 0.2191,0 0.46715,-0.0992 0.25218,-0.10335 0.47129,-0.26045 z m -0.39274,1.69913 q -0.14056,0.0909 -0.339,0.2191 -0.19844,0.12816 -0.36794,0.20258 -0.23151,0.0951 -0.43408,0.14469 -0.20257,0.0496 -0.56224,0.0496 -0.57878,0 -0.94671,-0.32246 -0.36381,-0.3266 -0.36381,-0.8475 0,-0.54983 0.26045,-0.93017 0.26045,-0.38447 0.77308,-0.61185 0.47956,-0.21498 1.14102,-0.31006 0.66559,-0.0951 1.43867,-0.14056 0.004,-0.0248 0.0165,-0.0786 0.0124,-0.0579 0.0124,-0.12816 0,-0.29352 -0.27285,-0.40927 -0.27285,-0.11989 -0.81442,-0.11989 -0.36794,0 -0.81442,0.12402 -0.44235,0.12402 -0.6656,0.20671 h -0.13642 l 0.21911,-1.09968 q 0.26045,-0.0661 0.80615,-0.14883 0.5457,-0.0827 1.08727,-0.0827 1.09141,0 1.59991,0.28526 0.51263,0.28525 0.51263,0.8847 0,0.0827 -0.0165,0.21497 -0.0124,0.13229 -0.0372,0.23151 l -0.7276,3.15847 h -1.48002 z" />
        <path
           id="path875"
           style="font-style:italic;font-variant:normal;font-weight:bold;font-stretch:normal;font-size:8.46667px;line-height:1.25;font-family:sans-serif;-inkscape-font-specification:'sans-serif Bold';fill:#ffffff;fill-opacity:1;stroke-width:0.264583"
           d="m 149.35161,280.43208 q -0.77308,0 -1.10381,-0.25219 -0.33073,-0.25631 -0.33073,-0.75654 0,-0.13229 0.0207,-0.25631 0.0207,-0.12403 0.0537,-0.28939 l 0.50436,-2.19935 H 147.884 l 0.22737,-0.97979 h 0.61185 l 0.30593,-1.32705 h 1.49241 l -0.30592,1.32705 h 1.39733 l -0.22738,0.97979 h -1.39733 l -0.38447,1.67432 q -0.0413,0.17363 -0.0786,0.3514 -0.0372,0.17363 -0.0372,0.29765 0,0.24805 0.13643,0.34727 0.14056,0.0951 0.42995,0.0951 0.11575,0 0.30179,-0.0413 0.19017,-0.0455 0.30179,-0.0992 h 0.12402 l -0.23151,0.99632 q -0.25218,0.062 -0.5333,0.0951 -0.27699,0.0372 -0.66559,0.0372 z" />
        <path
           id="path877"
           style="font-style:italic;font-variant:normal;font-weight:bold;font-stretch:normal;font-size:8.46667px;line-height:1.25;font-family:sans-serif;-inkscape-font-specification:'sans-serif Bold';fill:#ffffff;fill-opacity:1;stroke-width:0.264583"
           d="m 154.74249,278.15004 q -0.39687,0.0331 -0.74414,0.0786 -0.34726,0.0455 -0.59117,0.13229 -0.25219,0.0909 -0.38448,0.25632 -0.13229,0.16536 -0.13229,0.43822 0,0.23977 0.17363,0.33899 0.17777,0.0951 0.51263,0.0951 0.21911,0 0.46716,-0.0992 0.25218,-0.10335 0.47129,-0.26045 z m -0.39274,1.69913 q -0.14056,0.0909 -0.33899,0.2191 -0.19844,0.12816 -0.36794,0.20258 -0.23151,0.0951 -0.43408,0.14469 -0.20257,0.0496 -0.56224,0.0496 -0.57878,0 -0.94671,-0.32246 -0.36381,-0.3266 -0.36381,-0.8475 0,-0.54983 0.26045,-0.93017 0.26045,-0.38447 0.77308,-0.61185 0.47956,-0.21498 1.14102,-0.31006 0.66559,-0.0951 1.43867,-0.14056 0.004,-0.0248 0.0165,-0.0786 0.0124,-0.0579 0.0124,-0.12816 0,-0.29352 -0.27285,-0.40927 -0.27285,-0.11989 -0.81442,-0.11989 -0.36794,0 -0.81442,0.12402 -0.44235,0.12402 -0.6656,0.20671 h -0.13642 l 0.21911,-1.09968 q 0.26044,-0.0661 0.80615,-0.14883 0.5457,-0.0827 1.08727,-0.0827 1.09141,0 1.5999,0.28526 0.51263,0.28525 0.51263,0.8847 0,0.0827 -0.0165,0.21497 -0.0124,0.13229 -0.0372,0.23151 l -0.7276,3.15847 h -1.48002 z" />
        <path
           id="path879"
           style="font-style:italic;font-variant:normal;font-weight:bold;font-stretch:normal;font-size:8.46667px;line-height:1.25;font-family:sans-serif;-inkscape-font-specification:'sans-serif Bold';fill:#ffffff;fill-opacity:1;stroke-width:0.264583"
           d="m 162.54357,275.69851 -1.07487,4.64262 h -1.49655 l 1.07487,-4.64262 z m 0.45476,-1.79007 -0.26045,1.12861 h -1.57923 l 0.26044,-1.12861 z" />
        <path
           id="path881"
           style="font-style:italic;font-variant:normal;font-weight:bold;font-stretch:normal;font-size:8.46667px;line-height:1.25;font-family:sans-serif;-inkscape-font-specification:'sans-serif Bold';fill:#ffffff;fill-opacity:1;stroke-width:0.264583"
           d="m 168.3024,276.74858 q 0,0.12402 -0.0165,0.26872 -0.0165,0.14469 -0.0537,0.30179 l -0.69453,3.02204 h -1.50482 l 0.52917,-2.30271 q 0.0579,-0.25631 0.091,-0.43821 0.0331,-0.1819 0.0331,-0.339 0,-0.26872 -0.13643,-0.39274 -0.13642,-0.12403 -0.50022,-0.12403 -0.17777,0 -0.40928,0.0786 -0.23151,0.0744 -0.5209,0.22738 l -0.75654,3.29076 h -1.49655 l 1.07073,-4.64262 h 1.49655 l -0.11989,0.51263 q 0.45889,-0.30179 0.8351,-0.47129 0.38033,-0.16949 0.83509,-0.16949 0.62425,0 0.97151,0.30179 0.34727,0.30179 0.34727,0.87643 z" />
        <path
           id="path883"
           style="font-style:italic;font-variant:normal;font-weight:bold;font-stretch:normal;font-size:8.46667px;line-height:1.25;font-family:sans-serif;-inkscape-font-specification:'sans-serif Bold';fill:#ffffff;fill-opacity:1;stroke-width:0.264583"
           d="m 175.55777,278.31127 q -0.25218,1.08314 -0.94671,1.60404 -0.69453,0.5209 -1.9017,0.5209 -0.44235,0 -0.79788,-0.0331 -0.35553,-0.0289 -0.63665,-0.0868 l 0.29352,-1.27331 h 0.14883 q 0.17776,0.0703 0.3762,0.13643 0.20257,0.0661 0.53744,0.0661 0.63252,0 0.94671,-0.30179 0.31419,-0.30179 0.51263,-1.17408 l 0.56637,-2.45154 h -1.4056 l 0.26045,-1.13274 h 3.00137 z" />
        <path
           id="path885"
           style="font-style:italic;font-variant:normal;font-weight:bold;font-stretch:normal;font-size:8.46667px;line-height:1.25;font-family:sans-serif;-inkscape-font-specification:'sans-serif Bold';fill:#ffffff;fill-opacity:1;stroke-width:0.264583"
           d="m 182.19715,275.69851 -1.07487,4.64262 h -1.49655 l 0.11989,-0.51263 q -0.22324,0.14469 -0.43821,0.27285 -0.21084,0.12402 -0.40101,0.19843 -0.23978,0.0992 -0.43822,0.1323 -0.19844,0.0372 -0.39274,0.0372 -0.61185,0 -0.96738,-0.29352 -0.3514,-0.29352 -0.3514,-0.86816 0,-0.1571 0.0165,-0.28939 0.0165,-0.13643 0.0538,-0.29766 l 0.69866,-3.02204 h 1.50482 l -0.5333,2.30271 q -0.062,0.26458 -0.0951,0.45475 -0.0289,0.19017 -0.0289,0.32246 0,0.27285 0.13229,0.39687 0.13229,0.11989 0.50023,0.11989 0.1819,0 0.41754,-0.0785 0.23978,-0.0786 0.51677,-0.22738 l 0.76067,-3.29076 z" />
        <path
           id="path887"
           style="font-style:italic;font-variant:normal;font-weight:bold;font-stretch:normal;font-size:8.46667px;line-height:1.25;font-family:sans-serif;-inkscape-font-specification:'sans-serif Bold';fill:#ffffff;fill-opacity:1;stroke-width:0.264583"
           d="m 188.00972,277.18266 q 0,0.64079 -0.21084,1.24437 -0.2067,0.59945 -0.56637,1.03353 -0.3762,0.45889 -0.85163,0.7152 -0.47129,0.25632 -1.05833,0.25632 -0.37207,0 -0.68626,-0.0868 -0.31006,-0.0827 -0.56224,-0.23565 l -0.44649,1.93477 h -1.49655 l 1.46761,-6.34587 h 1.49655 l -0.11162,0.48369 q 0.42168,-0.28938 0.77722,-0.45061 0.35966,-0.16123 0.79375,-0.16123 0.7028,0 1.079,0.42994 0.3762,0.42582 0.3762,1.18236 z m -1.9389,1.62884 q 0.17777,-0.26045 0.27286,-0.60771 0.0951,-0.3514 0.0951,-0.76068 0,-0.3762 -0.16536,-0.57464 -0.16537,-0.20257 -0.59118,-0.20257 -0.21911,0 -0.42995,0.0785 -0.21084,0.0744 -0.44649,0.19844 l -0.53743,2.33578 q 0.13229,0.0579 0.30592,0.091 0.17777,0.0289 0.36381,0.0289 0.3762,0 0.66559,-0.16123 0.28939,-0.16123 0.46715,-0.42582 z" />
        <path
           id="path889"
           style="font-style:italic;font-variant:normal;font-weight:bold;font-stretch:normal;font-size:8.46667px;line-height:1.25;font-family:sans-serif;-inkscape-font-specification:'sans-serif Bold';fill:#ffffff;fill-opacity:1;stroke-width:0.264583"
           d="m 190.15947,282.04438 h -1.63298 l 1.18236,-1.79421 -0.76481,-4.55166 h 1.52135 l 0.40101,3.04271 1.76941,-3.04271 h 1.57096 z" />
        <path
           id="path891"
           style="font-style:italic;font-variant:normal;font-weight:bold;font-stretch:normal;font-size:8.46667px;line-height:1.25;font-family:sans-serif;-inkscape-font-specification:'sans-serif Bold';fill:#ffffff;fill-opacity:1;stroke-width:0.264583"
           d="m 195.73639,280.43208 q -0.77308,0 -1.10381,-0.25219 -0.33073,-0.25631 -0.33073,-0.75654 0,-0.13229 0.0207,-0.25631 0.0207,-0.12403 0.0537,-0.28939 l 0.50437,-2.19935 h -0.61185 l 0.22737,-0.97979 h 0.61185 l 0.30593,-1.32705 h 1.49241 l -0.30592,1.32705 h 1.39733 l -0.22738,0.97979 h -1.39733 l -0.38447,1.67432 q -0.0413,0.17363 -0.0786,0.3514 -0.0372,0.17363 -0.0372,0.29765 0,0.24805 0.13643,0.34727 0.14056,0.0951 0.42995,0.0951 0.11575,0 0.30179,-0.0413 0.19017,-0.0455 0.30179,-0.0992 h 0.12402 l -0.23151,0.99632 q -0.25218,0.062 -0.5333,0.0951 -0.27699,0.0372 -0.66559,0.0372 z" />
        <path
           id="path893"
           style="font-style:italic;font-variant:normal;font-weight:bold;font-stretch:normal;font-size:8.46667px;line-height:1.25;font-family:sans-serif;-inkscape-font-specification:'sans-serif Bold';fill:#ffffff;fill-opacity:1;stroke-width:0.264583"
           d="m 201.56549,277.42244 q 0.0124,-0.0744 0.0165,-0.13643 0.008,-0.062 0.008,-0.12815 0,-0.3266 -0.20257,-0.50023 -0.20258,-0.17363 -0.58292,-0.17363 -0.45888,0 -0.77308,0.24804 -0.31005,0.24805 -0.47128,0.6904 z m -1.13688,3.04271 q -1.18649,0 -1.83141,-0.52503 -0.64493,-0.52504 -0.64493,-1.45108 0,-0.63252 0.21084,-1.16169 0.21084,-0.52916 0.60772,-0.93017 0.38034,-0.38861 0.95085,-0.61598 0.5705,-0.22738 1.25263,-0.22738 1.03767,0 1.5627,0.42168 0.52917,0.41754 0.52917,1.2361 0,0.28112 -0.0579,0.54984 -0.0537,0.26871 -0.1447,0.5333 h -3.44785 q 0,0.0248 0,0.0496 0,0.0207 0,0.0455 0,0.48369 0.339,0.75655 0.339,0.27285 1.03766,0.27285 0.48783,0 0.92191,-0.16537 0.43822,-0.16536 0.76068,-0.36793 h 0.16536 l -0.27698,1.19476 q -0.43409,0.19017 -0.91364,0.28525 -0.47956,0.0992 -1.02113,0.0992 z" />
        <path
           id="path895"
           style="font-style:italic;font-variant:normal;font-weight:bold;font-stretch:normal;font-size:8.46667px;line-height:1.25;font-family:sans-serif;-inkscape-font-specification:'sans-serif Bold';fill:#ffffff;fill-opacity:1;stroke-width:0.264583"
           d="m 207.54757,277.11651 h -0.1323 q -0.0992,-0.0331 -0.28112,-0.0496 -0.1819,-0.0165 -0.35966,-0.0165 -0.29353,0 -0.56638,0.0455 -0.27285,0.0413 -0.56224,0.13643 l -0.71933,3.10886 h -1.49655 l 1.07487,-4.64262 h 1.49655 l -0.1571,0.68213 q 0.42168,-0.31006 0.83923,-0.50436 0.42168,-0.1943 0.84749,-0.1943 0.0786,0 0.17363,0.004 0.0992,0.004 0.17364,0.0124 z" />
        <path
           id="path897"
           style="font-style:italic;font-variant:normal;font-weight:bold;font-stretch:normal;font-size:8.46667px;line-height:1.25;font-family:sans-serif;-inkscape-font-specification:'sans-serif Bold';fill:#ffffff;fill-opacity:1;stroke-width:0.264583"
           d="m 216.22507,280.34113 h -1.35186 l -1.80661,-4.26228 -0.98392,4.26228 h -1.46347 l 1.42213,-6.1557 h 1.77767 l 1.54616,3.5636 0.81856,-3.5636 h 1.46347 z" />
        <path
           id="path899"
           style="font-style:italic;font-variant:normal;font-weight:bold;font-stretch:normal;font-size:8.46667px;line-height:1.25;font-family:sans-serif;-inkscape-font-specification:'sans-serif Bold';fill:#ffffff;fill-opacity:1;stroke-width:0.264583"
           d="m 223.07117,277.39763 q 0,0.6532 -0.21911,1.2237 -0.2191,0.57051 -0.61598,0.97979 -0.41341,0.42581 -0.95911,0.65732 -0.54571,0.22738 -1.27331,0.22738 -1.03766,0 -1.59164,-0.49609 -0.55397,-0.4961 -0.55397,-1.37253 0,-0.62012 0.20671,-1.17822 0.2067,-0.55811 0.61185,-0.98392 0.39274,-0.41755 0.96325,-0.65733 0.57464,-0.24391 1.28571,-0.24391 1.04179,0 1.59163,0.49196 0.55397,0.48782 0.55397,1.35185 z m -1.93476,1.52136 q 0.19017,-0.28939 0.28525,-0.63252 0.0992,-0.34313 0.0992,-0.83509 0,-0.42582 -0.18604,-0.65319 -0.18603,-0.23151 -0.59117,-0.23151 -0.3142,0 -0.55398,0.15296 -0.23564,0.15296 -0.41754,0.43408 -0.1695,0.26045 -0.26872,0.64492 -0.0951,0.38448 -0.0951,0.78962 0,0.47542 0.21084,0.68213 0.21084,0.20257 0.57877,0.20257 0.26872,0 0.51677,-0.14469 0.24804,-0.14883 0.42168,-0.40928 z" />
        <path
           id="path901"
           style="font-style:italic;font-variant:normal;font-weight:bold;font-stretch:normal;font-size:8.46667px;line-height:1.25;font-family:sans-serif;-inkscape-font-specification:'sans-serif Bold';fill:#ffffff;fill-opacity:1;stroke-width:0.264583"
           d="m 225.30359,280.43208 q -0.77308,0 -1.10381,-0.25219 -0.33073,-0.25631 -0.33073,-0.75654 0,-0.13229 0.0207,-0.25631 0.0207,-0.12403 0.0537,-0.28939 l 0.50437,-2.19935 h -0.61185 l 0.22737,-0.97979 h 0.61185 l 0.30593,-1.32705 h 1.49241 l -0.30592,1.32705 h 1.39733 l -0.22738,0.97979 h -1.39733 l -0.38447,1.67432 q -0.0413,0.17363 -0.0786,0.3514 -0.0372,0.17363 -0.0372,0.29765 0,0.24805 0.13643,0.34727 0.14056,0.0951 0.42995,0.0951 0.11575,0 0.30179,-0.0413 0.19017,-0.0455 0.30179,-0.0992 h 0.12402 l -0.23151,0.99632 q -0.25218,0.062 -0.5333,0.0951 -0.27699,0.0372 -0.66559,0.0372 z" />
        <path
           id="path903"
           style="font-style:italic;font-variant:normal;font-weight:bold;font-stretch:normal;font-size:8.46667px;line-height:1.25;font-family:sans-serif;-inkscape-font-specification:'sans-serif Bold';fill:#ffffff;fill-opacity:1;stroke-width:0.264583"
           d="m 231.13269,277.42244 q 0.0124,-0.0744 0.0165,-0.13643 0.008,-0.062 0.008,-0.12815 0,-0.3266 -0.20258,-0.50023 -0.20257,-0.17363 -0.58291,-0.17363 -0.45888,0 -0.77308,0.24804 -0.31005,0.24805 -0.47128,0.6904 z m -1.13688,3.04271 q -1.18649,0 -1.83141,-0.52503 -0.64493,-0.52504 -0.64493,-1.45108 0,-0.63252 0.21084,-1.16169 0.21084,-0.52916 0.60772,-0.93017 0.38034,-0.38861 0.95085,-0.61598 0.5705,-0.22738 1.25263,-0.22738 1.03767,0 1.5627,0.42168 0.52917,0.41754 0.52917,1.2361 0,0.28112 -0.0579,0.54984 -0.0538,0.26871 -0.1447,0.5333 h -3.44785 q 0,0.0248 0,0.0496 0,0.0207 0,0.0455 0,0.48369 0.339,0.75655 0.339,0.27285 1.03766,0.27285 0.48783,0 0.92191,-0.16537 0.43822,-0.16536 0.76068,-0.36793 h 0.16536 l -0.27698,1.19476 q -0.43409,0.19017 -0.91364,0.28525 -0.47956,0.0992 -1.02113,0.0992 z" />
        <path
           id="path905"
           style="font-style:italic;font-variant:normal;font-weight:bold;font-stretch:normal;font-size:8.46667px;line-height:1.25;font-family:sans-serif;-inkscape-font-specification:'sans-serif Bold';fill:#ffffff;fill-opacity:1;stroke-width:0.264583"
           d="m 238.48316,277.18266 q 0,0.63252 -0.20671,1.22783 -0.20257,0.59532 -0.5581,1.03767 -0.36381,0.45062 -0.85163,0.71933 -0.48783,0.26459 -1.07901,0.26459 -0.3886,0 -0.69866,-0.0786 -0.30593,-0.0785 -0.5457,-0.24392 l -0.11163,0.23152 h -1.43453 l 1.48414,-6.43269 h 1.49655 l -0.52503,2.27376 q 0.40101,-0.27698 0.76068,-0.44235 0.3638,-0.16949 0.81029,-0.16949 0.71933,0 1.08727,0.42994 0.37207,0.42582 0.37207,1.18236 z m -1.5751,0.27699 q 0,-0.38861 -0.1695,-0.59118 -0.1695,-0.20257 -0.58704,-0.20257 -0.21911,0 -0.42995,0.0785 -0.21084,0.0744 -0.44649,0.19844 l -0.53743,2.33164 q 0.14469,0.0579 0.30592,0.0951 0.16123,0.0331 0.36381,0.0331 0.69039,0 1.09554,-0.54157 0.40514,-0.5457 0.40514,-1.40146 z" />
        <path
           id="path907"
           style="font-style:italic;font-variant:normal;font-weight:bold;font-stretch:normal;font-size:8.46667px;line-height:1.25;font-family:sans-serif;-inkscape-font-specification:'sans-serif Bold';fill:#ffffff;fill-opacity:1;stroke-width:0.264583"
           d="m 244.27091,277.39763 q 0,0.6532 -0.21911,1.2237 -0.21911,0.57051 -0.61598,0.97979 -0.41341,0.42581 -0.95912,0.65732 -0.5457,0.22738 -1.2733,0.22738 -1.03767,0 -1.59164,-0.49609 -0.55397,-0.4961 -0.55397,-1.37253 0,-0.62012 0.20671,-1.17822 0.2067,-0.55811 0.61185,-0.98392 0.39274,-0.41755 0.96324,-0.65733 0.57465,-0.24391 1.28571,-0.24391 1.0418,0 1.59164,0.49196 0.55397,0.48782 0.55397,1.35185 z m -1.93477,1.52136 q 0.19017,-0.28939 0.28526,-0.63252 0.0992,-0.34313 0.0992,-0.83509 0,-0.42582 -0.18604,-0.65319 -0.18603,-0.23151 -0.59118,-0.23151 -0.31419,0 -0.55397,0.15296 -0.23564,0.15296 -0.41754,0.43408 -0.1695,0.26045 -0.26872,0.64492 -0.0951,0.38448 -0.0951,0.78962 0,0.47542 0.21084,0.68213 0.21084,0.20257 0.57878,0.20257 0.26872,0 0.51676,-0.14469 0.24805,-0.14883 0.42168,-0.40928 z" />
        <path
           id="path909"
           style="font-style:italic;font-variant:normal;font-weight:bold;font-stretch:normal;font-size:8.46667px;line-height:1.25;font-family:sans-serif;-inkscape-font-specification:'sans-serif Bold';fill:#ffffff;fill-opacity:1;stroke-width:0.264583"
           d="m 250.07522,277.39763 q 0,0.6532 -0.21911,1.2237 -0.21911,0.57051 -0.61598,0.97979 -0.41342,0.42581 -0.95912,0.65732 -0.5457,0.22738 -1.27331,0.22738 -1.03766,0 -1.59163,-0.49609 -0.55397,-0.4961 -0.55397,-1.37253 0,-0.62012 0.2067,-1.17822 0.20671,-0.55811 0.61185,-0.98392 0.39274,-0.41755 0.96325,-0.65733 0.57464,-0.24391 1.28571,-0.24391 1.0418,0 1.59164,0.49196 0.55397,0.48782 0.55397,1.35185 z m -1.93477,1.52136 q 0.19017,-0.28939 0.28525,-0.63252 0.0992,-0.34313 0.0992,-0.83509 0,-0.42582 -0.18603,-0.65319 -0.18604,-0.23151 -0.59118,-0.23151 -0.31419,0 -0.55397,0.15296 -0.23565,0.15296 -0.41755,0.43408 -0.1695,0.26045 -0.26872,0.64492 -0.0951,0.38448 -0.0951,0.78962 0,0.47542 0.21084,0.68213 0.21084,0.20257 0.57878,0.20257 0.26871,0 0.51676,-0.14469 0.24805,-0.14883 0.42168,-0.40928 z" />
        <path
           id="path911"
           style="font-style:italic;font-variant:normal;font-weight:bold;font-stretch:normal;font-size:8.46667px;line-height:1.25;font-family:sans-serif;-inkscape-font-specification:'sans-serif Bold';fill:#ffffff;fill-opacity:1;stroke-width:0.264583"
           d="m 255.50744,280.34113 h -1.56683 l -0.91364,-2.05053 -0.65733,0.58705 -0.34313,1.46348 h -1.49655 l 1.48415,-6.43269 h 1.49655 l -0.8847,3.84059 2.07532,-2.05052 h 1.71566 l -2.14974,2.02159 z" />
        <path
           id="path913"
           style="font-style:italic;font-variant:normal;font-weight:bold;font-stretch:normal;font-size:8.46667px;line-height:1.25;font-family:sans-serif;-inkscape-font-specification:'sans-serif Bold';fill:#ffffff;fill-opacity:1;stroke-width:0.264583"
           d="m 258.00445,280.46928 q -0.59531,0 -1.15342,-0.11162 -0.5581,-0.11162 -0.85576,-0.26045 l 0.28526,-1.2237 h 0.13642 q 0.091,0.0786 0.22738,0.17364 0.14056,0.0951 0.39687,0.19843 0.21911,0.0951 0.5085,0.16537 0.28939,0.0661 0.62425,0.0661 0.50023,0 0.74828,-0.11576 0.25218,-0.11576 0.25218,-0.33073 0,-0.16536 -0.17777,-0.25218 -0.17777,-0.0868 -0.73587,-0.21497 -0.94672,-0.21911 -1.29812,-0.52917 -0.34726,-0.31006 -0.34726,-0.77308 0,-0.78548 0.7028,-1.2361 0.7028,-0.45475 1.90169,-0.45475 0.5209,0 1.0418,0.10748 0.5209,0.10336 0.76481,0.22324 l -0.27285,1.17409 h -0.12816 q -0.29352,-0.22737 -0.71107,-0.36793 -0.41341,-0.1447 -0.85162,-0.1447 -0.47543,0 -0.73174,0.11576 -0.25218,0.11162 -0.25218,0.34726 0,0.18191 0.2191,0.28112 0.21911,0.0951 0.6904,0.19844 0.87643,0.19017 1.26091,0.47956 0.3886,0.28939 0.3886,0.81029 0,0.77721 -0.71106,1.22783 -0.71107,0.44648 -1.92237,0.44648 z" />
      </g>
    </g>
  </g>
</svg>
