<?xml version="1.0" encoding="UTF-8" standalone="no"?>
<svg
   xmlns:dc="http://purl.org/dc/elements/1.1/"
   xmlns:cc="http://creativecommons.org/ns#"
   xmlns:rdf="http://www.w3.org/1999/02/22-rdf-syntax-ns#"
   xmlns:svg="http://www.w3.org/2000/svg"
   xmlns="http://www.w3.org/2000/svg"
   xmlns:sodipodi="http://sodipodi.sourceforge.net/DTD/sodipodi-0.dtd"
   xmlns:inkscape="http://www.inkscape.org/namespaces/inkscape"
   sodipodi:docname="next_primary.svg"
   inkscape:version="1.0 (4035a4fb49, 2020-05-01)"
   id="svg8"
   version="1.1"
   viewBox="0 0 343.95833 37.030054"
   height="139.9561"
   width="1300">
  <defs
     id="defs2" />
  <sodipodi:namedview
     inkscape:document-rotation="0"
     fit-margin-bottom="0"
     fit-margin-right="0"
     fit-margin-left="0"
     fit-margin-top="0"
     inkscape:window-maximized="1"
     inkscape:window-y="-8"
     inkscape:window-x="-8"
     inkscape:window-height="1137"
     inkscape:window-width="1920"
     inkscape:snap-page="true"
     inkscape:snap-global="true"
     units="px"
     showgrid="false"
     inkscape:current-layer="text827"
     inkscape:document-units="mm"
     inkscape:cy="-95.398159"
     inkscape:cx="571.94658"
     inkscape:zoom="0.98994949"
     inkscape:pageshadow="2"
     inkscape:pageopacity="0.0"
     borderopacity="1.0"
     bordercolor="#666666"
     pagecolor="#ffffff"
     id="base" />
  <metadata
     id="metadata5">
    <rdf:RDF>
      <cc:Work
         rdf:about="">
        <dc:format>image/svg+xml</dc:format>
        <dc:type
           rdf:resource="http://purl.org/dc/dcmitype/StillImage" />
        <dc:title />
      </cc:Work>
    </rdf:RDF>
  </metadata>
  <g
     transform="translate(18.758024,-252.02661)"
     id="layer1"
     inkscape:groupmode="layer"
     inkscape:label="Layer 1">
    <rect
       rx="1.7103499"
       ry="1.4827397"
       y="252.57567"
       x="14.048535"
       height="36.030052"
       width="278.34521"
       id="rect817"
       style="opacity:0.97;fill:#ee2a24;fill-opacity:1;stroke:#ee2a24;stroke-width:1;stroke-linecap:butt;stroke-linejoin:round;stroke-miterlimit:4;stroke-dasharray:none;stroke-dashoffset:0;stroke-opacity:1;paint-order:normal" />
    <g
       style="font-style:normal;font-weight:normal;font-size:9.87778px;line-height:1.25;font-family:sans-serif;letter-spacing:0px;word-spacing:0px;fill:#000000;fill-opacity:1;stroke:none;stroke-width:0.264583"
       id="text827"
       aria-label="Next Tutorial">
      <path
         id="path1480"
         style="font-style:normal;font-variant:normal;font-weight:bold;font-stretch:normal;font-size:11.2889px;line-height:1.25;font-family:sans-serif;-inkscape-font-specification:'sans-serif Bold';fill:#ffffff;fill-opacity:1;stroke-width:0.264583"
         d="m 120.1041,267.86475 h -2.0395 l -3.48369,-5.63343 v 5.63343 h -1.94028 v -8.20761 h 2.53008 l 2.99311,4.70187 v -4.70187 h 1.94028 z" />
      <path
         id="path1482"
         style="font-style:normal;font-variant:normal;font-weight:bold;font-stretch:normal;font-size:11.2889px;line-height:1.25;font-family:sans-serif;-inkscape-font-specification:'sans-serif Bold';fill:#ffffff;fill-opacity:1;stroke-width:0.264583"
         d="m 128.19594,265.13623 h -4.54201 q 0.0441,0.7276 0.55121,1.11345 0.51263,0.38585 1.50482,0.38585 0.62839,0 1.21819,-0.22599 0.5898,-0.226 0.93155,-0.48507 h 0.22049 v 1.59301 q -0.67248,0.2701 -1.2678,0.39136 -0.59531,0.12127 -1.3174,0.12127 -1.86311,0 -2.8553,-0.83785 -0.99219,-0.83785 -0.99219,-2.38676 0,-1.53238 0.93707,-2.42535 0.94258,-0.89848 2.57969,-0.89848 1.51033,0 2.27101,0.76619 0.76067,0.76067 0.76067,2.19384 z m -1.97335,-1.16307 q -0.0165,-0.62287 -0.30868,-0.93706 -0.29214,-0.3142 -0.90951,-0.3142 -0.57326,0 -0.94257,0.29766 -0.36932,0.29766 -0.41342,0.9536 z" />
      <path
         id="path1484"
         style="font-style:normal;font-variant:normal;font-weight:bold;font-stretch:normal;font-size:11.2889px;line-height:1.25;font-family:sans-serif;-inkscape-font-specification:'sans-serif Bold';fill:#ffffff;fill-opacity:1;stroke-width:0.264583"
         d="m 136.06731,267.86475 h -2.31511 l -1.32292,-1.85209 -1.35599,1.85209 h -2.27101 l 2.44189,-3.09232 -2.4033,-3.09784 h 2.3151 l 1.30087,1.81901 1.30638,-1.81901 h 2.27653 l -2.40882,3.04823 z" />
      <path
         id="path1486"
         style="font-style:normal;font-variant:normal;font-weight:bold;font-stretch:normal;font-size:11.2889px;line-height:1.25;font-family:sans-serif;-inkscape-font-specification:'sans-serif Bold';fill:#ffffff;fill-opacity:1;stroke-width:0.264583"
         d="m 141.11644,267.80962 q -0.3197,0.0827 -0.67799,0.12678 -0.35829,0.0496 -0.87644,0.0496 -1.15755,0 -1.7253,-0.46853 -0.56224,-0.46853 -0.56224,-1.60404 v -2.89388 h -0.8158 v -1.34497 h 0.8158 v -1.7694 h 1.98437 v 1.7694 h 1.8576 v 1.34497 h -1.8576 v 2.19384 q 0,0.32522 0.006,0.56775 0.006,0.24254 0.0882,0.43546 0.0772,0.19293 0.2701,0.30868 0.19843,0.11024 0.57326,0.11024 0.15434,0 0.40239,-0.0661 0.25356,-0.0661 0.35278,-0.12127 h 0.16536 z" />
      <path
         id="path1488"
         style="font-style:normal;font-variant:normal;font-weight:bold;font-stretch:normal;font-size:11.2889px;line-height:1.25;font-family:sans-serif;-inkscape-font-specification:'sans-serif Bold';fill:#ffffff;fill-opacity:1;stroke-width:0.264583"
         d="m 152.68646,261.24464 h -2.56315 v 6.62011 h -2.11667 v -6.62011 h -2.56315 v -1.5875 h 7.24297 z" />
      <path
         id="path1490"
         style="font-style:normal;font-variant:normal;font-weight:bold;font-stretch:normal;font-size:11.2889px;line-height:1.25;font-family:sans-serif;-inkscape-font-specification:'sans-serif Bold';fill:#ffffff;fill-opacity:1;stroke-width:0.264583"
         d="m 160.01763,267.86475 h -1.98437 v -0.68351 q -0.55122,0.41892 -1.00873,0.63941 -0.45751,0.21497 -1.09141,0.21497 -1.02526,0 -1.58199,-0.5898 -0.55121,-0.5898 -0.55121,-1.74184 v -4.02939 h 1.9954 v 3.07027 q 0,0.46854 0.0276,0.78273 0.0331,0.30868 0.14332,0.51263 0.10473,0.20395 0.31419,0.29766 0.21497,0.0937 0.59531,0.0937 0.25356,0 0.56224,-0.0937 0.30868,-0.0937 0.59532,-0.27561 v -4.38768 h 1.98437 z" />
      <path
         id="path1492"
         style="font-style:normal;font-variant:normal;font-weight:bold;font-stretch:normal;font-size:11.2889px;line-height:1.25;font-family:sans-serif;-inkscape-font-specification:'sans-serif Bold';fill:#ffffff;fill-opacity:1;stroke-width:0.264583"
         d="m 165.85501,267.80962 q -0.31971,0.0827 -0.678,0.12678 -0.35829,0.0496 -0.87643,0.0496 -1.15755,0 -1.7253,-0.46853 -0.56225,-0.46853 -0.56225,-1.60404 v -2.89388 h -0.81579 v -1.34497 h 0.81579 v -1.7694 h 1.98438 v 1.7694 h 1.8576 v 1.34497 h -1.8576 v 2.19384 q 0,0.32522 0.006,0.56775 0.006,0.24254 0.0882,0.43546 0.0772,0.19293 0.27009,0.30868 0.19844,0.11024 0.57327,0.11024 0.15434,0 0.40239,-0.0661 0.25356,-0.0661 0.35277,-0.12127 h 0.16537 z" />
      <path
         id="path1494"
         style="font-style:normal;font-variant:normal;font-weight:bold;font-stretch:normal;font-size:11.2889px;line-height:1.25;font-family:sans-serif;-inkscape-font-specification:'sans-serif Bold';fill:#ffffff;fill-opacity:1;stroke-width:0.264583"
         d="m 173.36257,264.77243 q 0,1.52686 -0.89297,2.40881 -0.88746,0.87643 -2.49701,0.87643 -1.60955,0 -2.50252,-0.87643 -0.88745,-0.88195 -0.88745,-2.40881 0,-1.5379 0.89297,-2.41433 0.89848,-0.87643 2.497,-0.87643 1.62058,0 2.50252,0.88194 0.88746,0.88195 0.88746,2.40882 z m -2.44189,1.50481 q 0.19293,-0.23702 0.28664,-0.56775 0.0992,-0.33624 0.0992,-0.92604 0,-0.5457 -0.0992,-0.91502 -0.0992,-0.36931 -0.27561,-0.5898 -0.17639,-0.226 -0.42444,-0.3197 -0.24804,-0.0937 -0.53468,-0.0937 -0.28663,0 -0.51263,0.0772 -0.22048,0.0772 -0.42443,0.30868 -0.18191,0.21497 -0.29215,0.5898 -0.10473,0.37483 -0.10473,0.94258 0,0.50712 0.0937,0.88194 0.0937,0.36932 0.27561,0.59532 0.17638,0.21497 0.41892,0.31419 0.24805,0.0992 0.56224,0.0992 0.2701,0 0.51263,-0.0882 0.24805,-0.0937 0.41892,-0.30869 z" />
      <path
         id="path1496"
         style="font-style:normal;font-variant:normal;font-weight:bold;font-stretch:normal;font-size:11.2889px;line-height:1.25;font-family:sans-serif;-inkscape-font-specification:'sans-serif Bold';fill:#ffffff;fill-opacity:1;stroke-width:0.264583"
         d="m 179.28263,263.56526 h -0.17639 q -0.12678,-0.0441 -0.4079,-0.0661 -0.28112,-0.022 -0.46853,-0.022 -0.42444,0 -0.74966,0.0551 -0.32521,0.0551 -0.70004,0.18741 v 4.14515 h -1.98438 v -6.19016 h 1.98438 v 0.90951 q 0.65595,-0.56224 1.14102,-0.74414 0.48507,-0.18742 0.89297,-0.18742 0.10473,0 0.23702,0.006 0.13229,0.006 0.23151,0.0165 z" />
      <path
         id="path1498"
         style="font-style:normal;font-variant:normal;font-weight:bold;font-stretch:normal;font-size:11.2889px;line-height:1.25;font-family:sans-serif;-inkscape-font-specification:'sans-serif Bold';fill:#ffffff;fill-opacity:1;stroke-width:0.264583"
         d="m 182.40251,267.86475 h -1.98438 v -6.19016 h 1.98438 z m 0.0551,-7.0721 h -2.09462 v -1.50482 h 2.09462 z" />
      <path
         id="path1500"
         style="font-style:normal;font-variant:normal;font-weight:bold;font-stretch:normal;font-size:11.2889px;line-height:1.25;font-family:sans-serif;-inkscape-font-specification:'sans-serif Bold';fill:#ffffff;fill-opacity:1;stroke-width:0.264583"
         d="m 188.02491,266.24968 v -1.28984 q -0.40239,0.0331 -0.87092,0.0937 -0.46853,0.0551 -0.71107,0.13229 -0.29765,0.0937 -0.45751,0.27561 -0.15434,0.17638 -0.15434,0.46853 0,0.19292 0.0331,0.31419 0.0331,0.12127 0.16536,0.23151 0.12678,0.11025 0.30317,0.16537 0.17639,0.0496 0.55121,0.0496 0.29766,0 0.60083,-0.12127 0.30868,-0.12127 0.54019,-0.31971 z m 0,0.95912 q -0.15985,0.12127 -0.39687,0.29214 -0.23703,0.17088 -0.44649,0.2701 -0.29214,0.13229 -0.60634,0.19292 -0.31419,0.0661 -0.68902,0.0661 -0.88194,0 -1.47725,-0.5457 -0.59532,-0.54571 -0.59532,-1.39458 0,-0.67799 0.30317,-1.10794 0.30317,-0.42995 0.8599,-0.678 0.55121,-0.24805 1.36701,-0.35278 0.8158,-0.10473 1.69224,-0.15434 v -0.0331 q 0,-0.51263 -0.41893,-0.70556 -0.41892,-0.19843 -1.23472,-0.19843 -0.49058,0 -1.04731,0.17639 -0.55673,0.17087 -0.79926,0.26458 h -0.18191 v -1.4938 q 0.3142,-0.0827 1.01975,-0.19292 0.71107,-0.11576 1.42214,-0.11576 1.69223,0 2.44189,0.52366 0.75516,0.51814 0.75516,1.6316 v 4.21129 h -1.96784 z" />
      <path
         id="path1502"
         style="font-style:normal;font-variant:normal;font-weight:bold;font-stretch:normal;font-size:11.2889px;line-height:1.25;font-family:sans-serif;-inkscape-font-specification:'sans-serif Bold';fill:#ffffff;fill-opacity:1;stroke-width:0.264583"
         d="m 193.80165,267.86475 h -1.98437 v -8.57692 h 1.98437 z" />
    </g>
    <text
       id="text839"
       y="289.05667"
       x="119.58125"
       style="font-style:normal;font-weight:normal;font-size:10.5833px;line-height:1.25;font-family:sans-serif;letter-spacing:0px;word-spacing:0px;writing-mode:tb-rl;fill:#000000;fill-opacity:1;stroke:none;stroke-width:0.264583"
       xml:space="preserve"><tspan
         style="stroke-width:0.264583"
         y="119.58125"
         x="289.05667"
         id="tspan837"
         sodipodi:role="line" /></text>
    <g
       style="font-style:normal;font-weight:normal;font-size:8.46667px;line-height:1.25;font-family:sans-serif;letter-spacing:0px;word-spacing:0px;fill:#000000;fill-opacity:1;stroke:none;stroke-width:0.264583"
       id="text827-8"
       aria-label="Connect the Board to your AWS Account">
      <path
         id="path837"
         style="font-style:italic;font-variant:normal;font-weight:bold;font-stretch:normal;font-size:8.46667px;line-height:1.25;font-family:sans-serif;-inkscape-font-specification:'sans-serif Bold';fill:#ffffff;fill-opacity:1;stroke-width:0.264583"
         d="m 60.377162,280.46101 q -1.248503,0 -1.926498,-0.61184 -0.677995,-0.61599 -0.677995,-1.76114 0,-0.90537 0.297657,-1.64124 0.30179,-0.73587 0.826823,-1.27331 0.51263,-0.5209 1.227832,-0.81442 0.719337,-0.29352 1.508953,-0.29352 0.636654,0 1.182357,0.13229 0.545703,0.12816 0.98392,0.38034 l -0.363803,1.49241 h -0.181901 q -0.392741,-0.42168 -0.781348,-0.62011 -0.388607,-0.19844 -0.913639,-0.19844 -0.921908,0 -1.521355,0.74001 -0.595313,0.74 -0.595313,1.88515 0,0.73587 0.330729,1.0666 0.33073,0.33073 0.967384,0.33073 0.570508,0 1.070736,-0.22737 0.500228,-0.23151 0.946712,-0.58705 h 0.165365 l -0.359668,1.47175 q -0.186035,0.0744 -0.434082,0.1819 -0.248047,0.10335 -0.475424,0.1695 -0.297656,0.0868 -0.558105,0.13229 -0.256316,0.0455 -0.719337,0.0455 z" />
      <path
         id="path839"
         style="font-style:italic;font-variant:normal;font-weight:bold;font-stretch:normal;font-size:8.46667px;line-height:1.25;font-family:sans-serif;-inkscape-font-specification:'sans-serif Bold';fill:#ffffff;fill-opacity:1;stroke-width:0.264583"
         d="m 68.938917,277.39763 q 0,0.6532 -0.219108,1.2237 -0.219108,0.57051 -0.615984,0.97979 -0.413411,0.42581 -0.959114,0.65732 -0.545704,0.22738 -1.273308,0.22738 -1.037663,0 -1.591635,-0.49609 -0.553972,-0.4961 -0.553972,-1.37253 0,-0.62012 0.206706,-1.17822 0.206706,-0.55811 0.611849,-0.98392 0.392741,-0.41755 0.96325,-0.65733 0.574642,-0.24391 1.28571,-0.24391 1.041797,0 1.591634,0.49196 0.553972,0.48782 0.553972,1.35185 z m -1.934766,1.52136 q 0.190169,-0.28939 0.285254,-0.63252 0.09922,-0.34313 0.09922,-0.83509 0,-0.42582 -0.186035,-0.65319 -0.186035,-0.23151 -0.591178,-0.23151 -0.314193,0 -0.553972,0.15296 -0.235645,0.15296 -0.417546,0.43408 -0.169499,0.26045 -0.268717,0.64492 -0.09508,0.38448 -0.09508,0.78962 0,0.47542 0.21084,0.68213 0.21084,0.20257 0.578776,0.20257 0.268718,0 0.516765,-0.14469 0.248047,-0.14883 0.42168,-0.40928 z" />
      <path
         id="path841"
         style="font-style:italic;font-variant:normal;font-weight:bold;font-stretch:normal;font-size:8.46667px;line-height:1.25;font-family:sans-serif;-inkscape-font-specification:'sans-serif Bold';fill:#ffffff;fill-opacity:1;stroke-width:0.264583"
         d="m 74.825898,276.74858 q 0,0.12402 -0.01654,0.26872 -0.01654,0.14469 -0.05374,0.30179 l -0.694531,3.02204 h -1.504819 l 0.529167,-2.30271 q 0.05788,-0.25631 0.09095,-0.43821 0.03307,-0.1819 0.03307,-0.339 0,-0.26872 -0.136426,-0.39274 -0.136426,-0.12403 -0.500228,-0.12403 -0.177767,0 -0.409278,0.0786 -0.23151,0.0744 -0.520898,0.22738 l -0.756544,3.29076 h -1.49655 l 1.070736,-4.64262 h 1.496551 l -0.11989,0.51263 q 0.458887,-0.30179 0.835092,-0.47129 0.380338,-0.16949 0.835091,-0.16949 0.624252,0 0.971517,0.30179 0.347266,0.30179 0.347266,0.87643 z" />
      <path
         id="path843"
         style="font-style:italic;font-variant:normal;font-weight:bold;font-stretch:normal;font-size:8.46667px;line-height:1.25;font-family:sans-serif;-inkscape-font-specification:'sans-serif Bold';fill:#ffffff;fill-opacity:1;stroke-width:0.264583"
         d="m 80.861709,276.74858 q 0,0.12402 -0.01654,0.26872 -0.01654,0.14469 -0.05374,0.30179 l -0.694532,3.02204 h -1.504818 l 0.529167,-2.30271 q 0.05788,-0.25631 0.09095,-0.43821 0.03307,-0.1819 0.03307,-0.339 0,-0.26872 -0.136426,-0.39274 -0.136425,-0.12403 -0.500228,-0.12403 -0.177767,0 -0.409277,0.0786 -0.231511,0.0744 -0.520899,0.22738 l -0.756543,3.29076 h -1.49655 l 1.070736,-4.64262 h 1.49655 l -0.119889,0.51263 q 0.458887,-0.30179 0.835091,-0.47129 0.380339,-0.16949 0.835092,-0.16949 0.624251,0 0.971517,0.30179 0.347266,0.30179 0.347266,0.87643 z" />
      <path
         id="path845"
         style="font-style:italic;font-variant:normal;font-weight:bold;font-stretch:normal;font-size:8.46667px;line-height:1.25;font-family:sans-serif;-inkscape-font-specification:'sans-serif Bold';fill:#ffffff;fill-opacity:1;stroke-width:0.264583"
         d="m 85.219066,277.42244 q 0.0124,-0.0744 0.01654,-0.13643 0.0083,-0.062 0.0083,-0.12815 0,-0.3266 -0.202572,-0.50023 -0.202572,-0.17363 -0.58291,-0.17363 -0.458887,0 -0.77308,0.24804 -0.310059,0.24805 -0.471289,0.6904 z m -1.136882,3.04271 q -1.186491,0 -1.831413,-0.52503 -0.644923,-0.52504 -0.644923,-1.45108 0,-0.63252 0.21084,-1.16169 0.21084,-0.52916 0.607715,-0.93017 0.380339,-0.38861 0.950847,-0.61598 0.570508,-0.22738 1.252637,-0.22738 1.037664,0 1.562696,0.42168 0.529167,0.41754 0.529167,1.2361 0,0.28112 -0.05788,0.54984 -0.05374,0.26871 -0.144694,0.5333 h -3.447853 q 0,0.0248 0,0.0496 0,0.0207 0,0.0455 0,0.48369 0.338997,0.75655 0.338998,0.27285 1.037663,0.27285 0.487826,0 0.921908,-0.16537 0.438217,-0.16536 0.760678,-0.36793 h 0.165364 l -0.276986,1.19476 q -0.434082,0.19017 -0.913639,0.28525 -0.479558,0.0992 -1.021127,0.0992 z" />
      <path
         id="path847"
         style="font-style:italic;font-variant:normal;font-weight:bold;font-stretch:normal;font-size:8.46667px;line-height:1.25;font-family:sans-serif;-inkscape-font-specification:'sans-serif Bold';fill:#ffffff;fill-opacity:1;stroke-width:0.264583"
         d="m 89.48134,280.46515 q -0.475423,0 -0.892969,-0.11989 -0.413412,-0.11576 -0.72347,-0.3638 -0.301791,-0.24392 -0.47129,-0.61185 -0.169498,-0.36794 -0.169498,-0.85163 0,-0.62425 0.235644,-1.15755 0.239779,-0.53744 0.669727,-0.93845 0.42168,-0.39274 1.029395,-0.62011 0.607715,-0.23151 1.314649,-0.23151 0.425814,0 0.84336,0.0951 0.42168,0.0951 0.781348,0.27699 l -0.314193,1.26917 h -0.21084 q -0.243913,-0.29352 -0.553972,-0.43408 -0.305924,-0.1447 -0.690397,-0.1447 -0.7028,0 -1.128614,0.50023 -0.425814,0.4961 -0.425814,1.24024 0,0.51676 0.26045,0.77308 0.264583,0.25631 0.818555,0.25631 0.429948,0 0.781348,-0.17363 0.355534,-0.17777 0.607715,-0.39274 h 0.21084 l -0.314193,1.26917 q -0.446485,0.1943 -0.785482,0.27699 -0.334864,0.0827 -0.872299,0.0827 z" />
      <path
         id="path849"
         style="font-style:italic;font-variant:normal;font-weight:bold;font-stretch:normal;font-size:8.46667px;line-height:1.25;font-family:sans-serif;-inkscape-font-specification:'sans-serif Bold';fill:#ffffff;fill-opacity:1;stroke-width:0.264583"
         d="m 93.842833,280.43208 q -0.77308,0 -1.103809,-0.25219 -0.330729,-0.25631 -0.330729,-0.75654 0,-0.13229 0.02067,-0.25631 0.02067,-0.12403 0.05374,-0.28939 l 0.504362,-2.19935 h -0.611849 l 0.227376,-0.97979 h 0.611849 l 0.305925,-1.32705 h 1.492416 l -0.305925,1.32705 h 1.397332 l -0.227377,0.97979 h -1.397331 l -0.384473,1.67432 q -0.04134,0.17363 -0.07855,0.3514 -0.03721,0.17363 -0.03721,0.29765 0,0.24805 0.136426,0.34727 0.14056,0.0951 0.429948,0.0951 0.115755,0 0.30179,-0.0413 0.19017,-0.0455 0.301791,-0.0992 h 0.124023 l -0.23151,0.99632 q -0.252181,0.062 -0.533301,0.0951 -0.276986,0.0372 -0.665593,0.0372 z" />
      <path
         id="path851"
         style="font-style:italic;font-variant:normal;font-weight:bold;font-stretch:normal;font-size:8.46667px;line-height:1.25;font-family:sans-serif;-inkscape-font-specification:'sans-serif Bold';fill:#ffffff;fill-opacity:1;stroke-width:0.264583"
         d="m 100.58971,280.43208 q -0.773081,0 -1.10381,-0.25219 -0.33073,-0.25631 -0.33073,-0.75654 0,-0.13229 0.02067,-0.25631 0.02067,-0.12403 0.05374,-0.28939 l 0.504363,-2.19935 h -0.61185 l 0.227377,-0.97979 h 0.611849 l 0.305927,-1.32705 h 1.49241 l -0.30592,1.32705 h 1.39733 l -0.22738,0.97979 h -1.39733 l -0.38447,1.67432 q -0.0413,0.17363 -0.0786,0.3514 -0.0372,0.17363 -0.0372,0.29765 0,0.24805 0.13643,0.34727 0.14056,0.0951 0.42995,0.0951 0.11575,0 0.30179,-0.0413 0.19017,-0.0455 0.30179,-0.0992 h 0.12402 l -0.23151,0.99632 q -0.25218,0.062 -0.5333,0.0951 -0.27698,0.0372 -0.66559,0.0372 z" />
      <path
         id="path853"
         style="font-style:italic;font-variant:normal;font-weight:bold;font-stretch:normal;font-size:8.46667px;line-height:1.25;font-family:sans-serif;-inkscape-font-specification:'sans-serif Bold';fill:#ffffff;fill-opacity:1;stroke-width:0.264583"
         d="m 108.1014,276.74858 q 0,0.0992 -0.0165,0.25631 -0.0165,0.1571 -0.0537,0.3142 l -0.69867,3.02204 h -1.50482 l 0.53331,-2.30271 q 0.0579,-0.26458 0.091,-0.44648 0.0331,-0.1819 0.0331,-0.3266 0,-0.27698 -0.14056,-0.39687 -0.13643,-0.12403 -0.50023,-0.12403 -0.17777,0 -0.40928,0.0786 -0.23151,0.0744 -0.51676,0.22738 l -0.76068,3.29076 h -1.49655 l 1.48415,-6.43269 h 1.49655 l -0.52917,2.3027 q 0.45476,-0.30179 0.83509,-0.47129 0.38034,-0.16949 0.8351,-0.16949 0.63252,0 0.97565,0.31005 0.34313,0.30593 0.34313,0.86817 z" />
      <path
         id="path855"
         style="font-style:italic;font-variant:normal;font-weight:bold;font-stretch:normal;font-size:8.46667px;line-height:1.25;font-family:sans-serif;-inkscape-font-specification:'sans-serif Bold';fill:#ffffff;fill-opacity:1;stroke-width:0.264583"
         d="m 112.45463,277.42244 q 0.0124,-0.0744 0.0165,-0.13643 0.008,-0.062 0.008,-0.12815 0,-0.3266 -0.20257,-0.50023 -0.20257,-0.17363 -0.58291,-0.17363 -0.45889,0 -0.77308,0.24804 -0.31006,0.24805 -0.47129,0.6904 z m -1.13689,3.04271 q -1.18649,0 -1.83141,-0.52503 -0.64492,-0.52504 -0.64492,-1.45108 0,-0.63252 0.21084,-1.16169 0.21084,-0.52916 0.60771,-0.93017 0.38034,-0.38861 0.95085,-0.61598 0.57051,-0.22738 1.25264,-0.22738 1.03766,0 1.56269,0.42168 0.52917,0.41754 0.52917,1.2361 0,0.28112 -0.0579,0.54984 -0.0537,0.26871 -0.14469,0.5333 h -3.44785 q 0,0.0248 0,0.0496 0,0.0207 0,0.0455 0,0.48369 0.33899,0.75655 0.339,0.27285 1.03767,0.27285 0.48782,0 0.9219,-0.16537 0.43822,-0.16536 0.76068,-0.36793 h 0.16537 l -0.27699,1.19476 q -0.43408,0.19017 -0.91364,0.28525 -0.47956,0.0992 -1.02113,0.0992 z" />
      <path
         id="path857"
         style="font-style:italic;font-variant:normal;font-weight:bold;font-stretch:normal;font-size:8.46667px;line-height:1.25;font-family:sans-serif;-inkscape-font-specification:'sans-serif Bold';fill:#ffffff;fill-opacity:1;stroke-width:0.264583"
         d="m 123.24467,275.57862 q 0,0.56224 -0.31006,0.93018 -0.30593,0.3638 -0.93845,0.54984 l -0.008,0.0331 q 0.50022,0.14469 0.75654,0.41755 0.26045,0.27285 0.26045,0.76894 0,0.97152 -0.79789,1.51722 -0.79375,0.54571 -2.24896,0.54571 h -2.6665 l 1.42214,-6.1557 h 2.24482 q 1.11208,0 1.69912,0.36793 0.58705,0.3638 0.58705,1.02526 z m -1.67845,0.25218 q 0,-0.27285 -0.21498,-0.39274 -0.21497,-0.12402 -0.59531,-0.12402 h -0.7152 l -0.30179,1.30225 h 0.72347 q 0.5209,0 0.81028,-0.19844 0.29353,-0.20257 0.29353,-0.58705 z m -0.17777,2.48874 q 0,-0.33899 -0.25632,-0.48782 -0.25631,-0.15297 -0.80615,-0.15297 h -0.83096 l -0.35553,1.53376 h 0.80202 q 0.69453,0 1.07073,-0.22737 0.37621,-0.22738 0.37621,-0.6656 z" />
      <path
         id="path859"
         style="font-style:italic;font-variant:normal;font-weight:bold;font-stretch:normal;font-size:8.46667px;line-height:1.25;font-family:sans-serif;-inkscape-font-specification:'sans-serif Bold';fill:#ffffff;fill-opacity:1;stroke-width:0.264583"
         d="m 129.01589,277.39763 q 0,0.6532 -0.2191,1.2237 -0.21911,0.57051 -0.61599,0.97979 -0.41341,0.42581 -0.95911,0.65732 -0.54571,0.22738 -1.27331,0.22738 -1.03766,0 -1.59163,-0.49609 -0.55398,-0.4961 -0.55398,-1.37253 0,-0.62012 0.20671,-1.17822 0.20671,-0.55811 0.61185,-0.98392 0.39274,-0.41755 0.96325,-0.65733 0.57464,-0.24391 1.28571,-0.24391 1.0418,0 1.59163,0.49196 0.55397,0.48782 0.55397,1.35185 z m -1.93476,1.52136 q 0.19017,-0.28939 0.28525,-0.63252 0.0992,-0.34313 0.0992,-0.83509 0,-0.42582 -0.18603,-0.65319 -0.18604,-0.23151 -0.59118,-0.23151 -0.3142,0 -0.55397,0.15296 -0.23565,0.15296 -0.41755,0.43408 -0.1695,0.26045 -0.26872,0.64492 -0.0951,0.38448 -0.0951,0.78962 0,0.47542 0.21084,0.68213 0.21084,0.20257 0.57877,0.20257 0.26872,0 0.51677,-0.14469 0.24804,-0.14883 0.42168,-0.40928 z" />
      <path
         id="path861"
         style="font-style:italic;font-variant:normal;font-weight:bold;font-stretch:normal;font-size:8.46667px;line-height:1.25;font-family:sans-serif;-inkscape-font-specification:'sans-serif Bold';fill:#ffffff;fill-opacity:1;stroke-width:0.264583"
         d="m 132.78621,278.15004 q -0.39688,0.0331 -0.74414,0.0786 -0.34727,0.0455 -0.59118,0.13229 -0.25218,0.0909 -0.38447,0.25632 -0.1323,0.16536 -0.1323,0.43822 0,0.23977 0.17364,0.33899 0.17776,0.0951 0.51263,0.0951 0.2191,0 0.46715,-0.0992 0.25218,-0.10335 0.47129,-0.26045 z m -0.39274,1.69913 q -0.14056,0.0909 -0.339,0.2191 -0.19844,0.12816 -0.36794,0.20258 -0.23151,0.0951 -0.43408,0.14469 -0.20257,0.0496 -0.56224,0.0496 -0.57878,0 -0.94671,-0.32246 -0.3638,-0.3266 -0.3638,-0.8475 0,-0.54983 0.26044,-0.93017 0.26045,-0.38447 0.77308,-0.61185 0.47956,-0.21498 1.14102,-0.31006 0.66559,-0.0951 1.43867,-0.14056 0.004,-0.0248 0.0165,-0.0786 0.0124,-0.0579 0.0124,-0.12816 0,-0.29352 -0.27285,-0.40927 -0.27285,-0.11989 -0.81442,-0.11989 -0.36794,0 -0.81442,0.12402 -0.44235,0.12402 -0.66559,0.20671 h -0.13643 l 0.21911,-1.09968 q 0.26045,-0.0661 0.80615,-0.14883 0.5457,-0.0827 1.08727,-0.0827 1.09141,0 1.59991,0.28526 0.51263,0.28525 0.51263,0.8847 0,0.0827 -0.0165,0.21497 -0.0124,0.13229 -0.0372,0.23151 l -0.7276,3.15847 h -1.48001 z" />
      <path
         id="path863"
         style="font-style:italic;font-variant:normal;font-weight:bold;font-stretch:normal;font-size:8.46667px;line-height:1.25;font-family:sans-serif;-inkscape-font-specification:'sans-serif Bold';fill:#ffffff;fill-opacity:1;stroke-width:0.264583"
         d="m 139.23956,277.11651 h -0.13229 q -0.0992,-0.0331 -0.28112,-0.0496 -0.1819,-0.0165 -0.35967,-0.0165 -0.29352,0 -0.56637,0.0455 -0.27285,0.0413 -0.56224,0.13643 l -0.71934,3.10886 h -1.49655 l 1.07487,-4.64262 h 1.49655 l -0.15709,0.68213 q 0.42168,-0.31006 0.83922,-0.50436 0.42168,-0.1943 0.8475,-0.1943 0.0786,0 0.17363,0.004 0.0992,0.004 0.17363,0.0124 z" />
      <path
         id="path865"
         style="font-style:italic;font-variant:normal;font-weight:bold;font-stretch:normal;font-size:8.46667px;line-height:1.25;font-family:sans-serif;-inkscape-font-specification:'sans-serif Bold';fill:#ffffff;fill-opacity:1;stroke-width:0.264583"
         d="m 145.34979,273.90844 -1.48829,6.43269 h -1.49655 l 0.11163,-0.4837 q -0.21498,0.13643 -0.38034,0.24805 -0.16123,0.10749 -0.35967,0.19844 -0.18604,0.0827 -0.36794,0.12402 -0.17777,0.0413 -0.42995,0.0413 -0.67386,0 -1.079,-0.43821 -0.40101,-0.43822 -0.40101,-1.24437 0,-0.66146 0.21084,-1.24024 0.21497,-0.58291 0.58704,-1.02939 0.36381,-0.43408 0.8599,-0.6904 0.49609,-0.25631 1.03766,-0.25631 0.38034,0 0.66146,0.0785 0.28112,0.0744 0.57878,0.23565 l 0.45889,-1.97611 z m -2.16215,2.87321 q -0.11989,-0.0579 -0.31419,-0.10335 -0.1943,-0.0496 -0.34313,-0.0496 -0.35554,0 -0.64079,0.1571 -0.28525,0.15709 -0.48369,0.42994 -0.17777,0.24392 -0.28112,0.62426 -0.10335,0.3762 -0.10335,0.7276 0,0.41755 0.1943,0.60771 0.1943,0.19017 0.59118,0.19017 0.20257,0 0.42581,-0.091 0.22738,-0.091 0.42995,-0.21497 z" />
      <path
         id="path867"
         style="font-style:italic;font-variant:normal;font-weight:bold;font-stretch:normal;font-size:8.46667px;line-height:1.25;font-family:sans-serif;-inkscape-font-specification:'sans-serif Bold';fill:#ffffff;fill-opacity:1;stroke-width:0.264583"
         d="m 149.93452,280.43208 q -0.77308,0 -1.10381,-0.25219 -0.33073,-0.25631 -0.33073,-0.75654 0,-0.13229 0.0207,-0.25631 0.0207,-0.12403 0.0537,-0.28939 l 0.50437,-2.19935 h -0.61185 l 0.22737,-0.97979 h 0.61185 l 0.30593,-1.32705 h 1.49241 l -0.30592,1.32705 h 1.39733 l -0.22738,0.97979 h -1.39733 l -0.38447,1.67432 q -0.0413,0.17363 -0.0786,0.3514 -0.0372,0.17363 -0.0372,0.29765 0,0.24805 0.13642,0.34727 0.14056,0.0951 0.42995,0.0951 0.11575,0 0.30179,-0.0413 0.19017,-0.0455 0.30179,-0.0992 h 0.12402 l -0.23151,0.99632 q -0.25218,0.062 -0.5333,0.0951 -0.27698,0.0372 -0.66559,0.0372 z" />
      <path
         id="path869"
         style="font-style:italic;font-variant:normal;font-weight:bold;font-stretch:normal;font-size:8.46667px;line-height:1.25;font-family:sans-serif;-inkscape-font-specification:'sans-serif Bold';fill:#ffffff;fill-opacity:1;stroke-width:0.264583"
         d="m 157.35939,277.39763 q 0,0.6532 -0.21911,1.2237 -0.2191,0.57051 -0.61598,0.97979 -0.41341,0.42581 -0.95911,0.65732 -0.54571,0.22738 -1.27331,0.22738 -1.03766,0 -1.59164,-0.49609 -0.55397,-0.4961 -0.55397,-1.37253 0,-0.62012 0.20671,-1.17822 0.2067,-0.55811 0.61185,-0.98392 0.39274,-0.41755 0.96325,-0.65733 0.57464,-0.24391 1.28571,-0.24391 1.04179,0 1.59163,0.49196 0.55397,0.48782 0.55397,1.35185 z m -1.93476,1.52136 q 0.19017,-0.28939 0.28525,-0.63252 0.0992,-0.34313 0.0992,-0.83509 0,-0.42582 -0.18604,-0.65319 -0.18603,-0.23151 -0.59117,-0.23151 -0.3142,0 -0.55398,0.15296 -0.23564,0.15296 -0.41754,0.43408 -0.1695,0.26045 -0.26872,0.64492 -0.0951,0.38448 -0.0951,0.78962 0,0.47542 0.21084,0.68213 0.21084,0.20257 0.57877,0.20257 0.26872,0 0.51677,-0.14469 0.24804,-0.14883 0.42168,-0.40928 z" />
      <path
         id="path871"
         style="font-style:italic;font-variant:normal;font-weight:bold;font-stretch:normal;font-size:8.46667px;line-height:1.25;font-family:sans-serif;-inkscape-font-specification:'sans-serif Bold';fill:#ffffff;fill-opacity:1;stroke-width:0.264583"
         d="m 162.41542,282.04438 h -1.63298 l 1.18236,-1.79421 -0.76481,-4.55166 h 1.52135 l 0.40101,3.04271 1.7694,-3.04271 h 1.57097 z" />
      <path
         id="path873"
         style="font-style:italic;font-variant:normal;font-weight:bold;font-stretch:normal;font-size:8.46667px;line-height:1.25;font-family:sans-serif;-inkscape-font-specification:'sans-serif Bold';fill:#ffffff;fill-opacity:1;stroke-width:0.264583"
         d="m 171.56422,277.39763 q 0,0.6532 -0.21911,1.2237 -0.21911,0.57051 -0.61598,0.97979 -0.41341,0.42581 -0.95912,0.65732 -0.5457,0.22738 -1.27331,0.22738 -1.03766,0 -1.59163,-0.49609 -0.55397,-0.4961 -0.55397,-1.37253 0,-0.62012 0.2067,-1.17822 0.20671,-0.55811 0.61185,-0.98392 0.39274,-0.41755 0.96325,-0.65733 0.57464,-0.24391 1.28571,-0.24391 1.0418,0 1.59164,0.49196 0.55397,0.48782 0.55397,1.35185 z m -1.93477,1.52136 q 0.19017,-0.28939 0.28526,-0.63252 0.0992,-0.34313 0.0992,-0.83509 0,-0.42582 -0.18604,-0.65319 -0.18604,-0.23151 -0.59118,-0.23151 -0.31419,0 -0.55397,0.15296 -0.23564,0.15296 -0.41755,0.43408 -0.16949,0.26045 -0.26871,0.64492 -0.0951,0.38448 -0.0951,0.78962 0,0.47542 0.21084,0.68213 0.21084,0.20257 0.57878,0.20257 0.26872,0 0.51676,-0.14469 0.24805,-0.14883 0.42168,-0.40928 z" />
      <path
         id="path875"
         style="font-style:italic;font-variant:normal;font-weight:bold;font-stretch:normal;font-size:8.46667px;line-height:1.25;font-family:sans-serif;-inkscape-font-specification:'sans-serif Bold';fill:#ffffff;fill-opacity:1;stroke-width:0.264583"
         d="m 177.71992,275.69851 -1.07487,4.64262 h -1.49655 l 0.11989,-0.51263 q -0.22325,0.14469 -0.43822,0.27285 -0.21084,0.12402 -0.40101,0.19843 -0.23978,0.0992 -0.43822,0.1323 -0.19843,0.0372 -0.39274,0.0372 -0.61185,0 -0.96738,-0.29352 -0.3514,-0.29352 -0.3514,-0.86816 0,-0.1571 0.0165,-0.28939 0.0165,-0.13643 0.0537,-0.29766 l 0.69867,-3.02204 h 1.50481 l -0.5333,2.30271 q -0.062,0.26458 -0.0951,0.45475 -0.0289,0.19017 -0.0289,0.32246 0,0.27285 0.13229,0.39687 0.13229,0.11989 0.50023,0.11989 0.1819,0 0.41755,-0.0785 0.23977,-0.0786 0.51676,-0.22738 l 0.76068,-3.29076 z" />
      <path
         id="path877"
         style="font-style:italic;font-variant:normal;font-weight:bold;font-stretch:normal;font-size:8.46667px;line-height:1.25;font-family:sans-serif;-inkscape-font-specification:'sans-serif Bold';fill:#ffffff;fill-opacity:1;stroke-width:0.264583"
         d="m 182.16823,277.11651 h -0.13229 q -0.0992,-0.0331 -0.28112,-0.0496 -0.1819,-0.0165 -0.35967,-0.0165 -0.29352,0 -0.56637,0.0455 -0.27286,0.0413 -0.56224,0.13643 l -0.71934,3.10886 h -1.49655 l 1.07487,-4.64262 h 1.49655 l -0.1571,0.68213 q 0.42168,-0.31006 0.83923,-0.50436 0.42168,-0.1943 0.84749,-0.1943 0.0786,0 0.17364,0.004 0.0992,0.004 0.17363,0.0124 z" />
      <path
         id="path879"
         style="font-style:italic;font-variant:normal;font-weight:bold;font-stretch:normal;font-size:8.46667px;line-height:1.25;font-family:sans-serif;-inkscape-font-specification:'sans-serif Bold';fill:#ffffff;fill-opacity:1;stroke-width:0.264583"
         d="m 190.99457,280.34113 h -1.59991 l -0.14056,-1.25678 h -2.26549 l -0.71934,1.25678 h -1.65778 l 3.69177,-6.1557 h 1.83554 z m -1.86036,-2.36058 -0.24804,-2.21176 -1.26918,2.21176 z" />
      <path
         id="path881"
         style="font-style:italic;font-variant:normal;font-weight:bold;font-stretch:normal;font-size:8.46667px;line-height:1.25;font-family:sans-serif;-inkscape-font-specification:'sans-serif Bold';fill:#ffffff;fill-opacity:1;stroke-width:0.264583"
         d="m 201.74327,274.18543 -2.9931,6.1557 h -1.70326 l -0.26458,-4.08038 -1.99678,4.08038 h -1.7694 l -0.28112,-6.1557 h 1.65778 l 0.0124,4.23747 2.06706,-4.23747 h 1.58337 l 0.18603,4.23747 1.88516,-4.23747 z" />
      <path
         id="path883"
         style="font-style:italic;font-variant:normal;font-weight:bold;font-stretch:normal;font-size:8.46667px;line-height:1.25;font-family:sans-serif;-inkscape-font-specification:'sans-serif Bold';fill:#ffffff;fill-opacity:1;stroke-width:0.264583"
         d="m 203.64083,280.45275 q -0.78962,0 -1.40974,-0.13643 -0.61598,-0.13643 -1.0666,-0.339 l 0.31833,-1.47588 h 0.17363 q 0.42581,0.38861 1.00046,0.60358 0.57464,0.21084 1.2361,0.21084 0.67799,0 0.99632,-0.1819 0.31833,-0.18603 0.31833,-0.52916 0,-0.12816 -0.0538,-0.21911 -0.0496,-0.0951 -0.19844,-0.18604 -0.14882,-0.091 -0.40927,-0.17776 -0.25632,-0.0909 -0.6656,-0.20671 -0.45061,-0.12402 -0.81028,-0.26872 -0.35554,-0.14469 -0.60772,-0.34313 -0.25218,-0.20257 -0.38447,-0.46715 -0.12816,-0.26459 -0.12816,-0.63252 0,-0.92605 0.81442,-1.47588 0.81856,-0.55397 2.23656,-0.55397 0.68213,0 1.28571,0.11162 0.60772,0.11162 1.0294,0.30179 l -0.3018,1.418 h -0.16949 q -0.32247,-0.29766 -0.85163,-0.4961 -0.52503,-0.20257 -1.14929,-0.20257 -0.61185,0 -0.94671,0.17777 -0.33486,0.17777 -0.33486,0.49196 0,0.14469 0.0496,0.23978 0.0496,0.0951 0.20257,0.18603 0.13229,0.0827 0.41754,0.18191 0.28526,0.0951 0.66973,0.19843 1.03353,0.27699 1.47588,0.64906 0.44235,0.37207 0.44235,1.00872 0,0.5333 -0.23978,0.93845 -0.23978,0.40514 -0.66146,0.65732 -0.44235,0.26872 -1.00459,0.39274 -0.56224,0.12403 -1.2733,0.12403 z" />
      <path
         id="path885"
         style="font-style:italic;font-variant:normal;font-weight:bold;font-stretch:normal;font-size:8.46667px;line-height:1.25;font-family:sans-serif;-inkscape-font-specification:'sans-serif Bold';fill:#ffffff;fill-opacity:1;stroke-width:0.264583"
         d="m 216.0473,280.34113 h -1.5999 l -0.14056,-1.25678 h -2.2655 l -0.71933,1.25678 h -1.65778 l 3.69176,-6.1557 h 1.83555 z m -1.86035,-2.36058 -0.24805,-2.21176 -1.26917,2.21176 z" />
      <path
         id="path887"
         style="font-style:italic;font-variant:normal;font-weight:bold;font-stretch:normal;font-size:8.46667px;line-height:1.25;font-family:sans-serif;-inkscape-font-specification:'sans-serif Bold';fill:#ffffff;fill-opacity:1;stroke-width:0.264583"
         d="m 219.19338,280.46515 q -0.47543,0 -0.89297,-0.11989 -0.41341,-0.11576 -0.72347,-0.3638 -0.30179,-0.24392 -0.47129,-0.61185 -0.1695,-0.36794 -0.1695,-0.85163 0,-0.62425 0.23565,-1.15755 0.23977,-0.53744 0.66972,-0.93845 0.42168,-0.39274 1.0294,-0.62011 0.60771,-0.23151 1.31465,-0.23151 0.42581,0 0.84336,0.0951 0.42168,0.0951 0.78134,0.27699 l -0.31419,1.26917 h -0.21084 q -0.24391,-0.29352 -0.55397,-0.43408 -0.30593,-0.1447 -0.6904,-0.1447 -0.7028,0 -1.12861,0.50023 -0.42582,0.4961 -0.42582,1.24024 0,0.51676 0.26045,0.77308 0.26459,0.25631 0.81856,0.25631 0.42995,0 0.78135,-0.17363 0.35553,-0.17777 0.60771,-0.39274 h 0.21084 l -0.31419,1.26917 q -0.44649,0.1943 -0.78548,0.27699 -0.33487,0.0827 -0.8723,0.0827 z" />
      <path
         id="path889"
         style="font-style:italic;font-variant:normal;font-weight:bold;font-stretch:normal;font-size:8.46667px;line-height:1.25;font-family:sans-serif;-inkscape-font-specification:'sans-serif Bold';fill:#ffffff;fill-opacity:1;stroke-width:0.264583"
         d="m 224.17084,280.46515 q -0.47542,0 -0.89297,-0.11989 -0.41341,-0.11576 -0.72347,-0.3638 -0.30179,-0.24392 -0.47129,-0.61185 -0.1695,-0.36794 -0.1695,-0.85163 0,-0.62425 0.23565,-1.15755 0.23978,-0.53744 0.66972,-0.93845 0.42168,-0.39274 1.0294,-0.62011 0.60771,-0.23151 1.31465,-0.23151 0.42581,0 0.84336,0.0951 0.42168,0.0951 0.78135,0.27699 l -0.3142,1.26917 h -0.21084 q -0.24391,-0.29352 -0.55397,-0.43408 -0.30592,-0.1447 -0.6904,-0.1447 -0.70279,0 -1.12861,0.50023 -0.42581,0.4961 -0.42581,1.24024 0,0.51676 0.26045,0.77308 0.26458,0.25631 0.81855,0.25631 0.42995,0 0.78135,-0.17363 0.35553,-0.17777 0.60771,-0.39274 h 0.21084 l -0.31419,1.26917 q -0.44648,0.1943 -0.78548,0.27699 -0.33486,0.0827 -0.8723,0.0827 z" />
      <path
         id="path891"
         style="font-style:italic;font-variant:normal;font-weight:bold;font-stretch:normal;font-size:8.46667px;line-height:1.25;font-family:sans-serif;-inkscape-font-specification:'sans-serif Bold';fill:#ffffff;fill-opacity:1;stroke-width:0.264583"
         d="m 232.10421,277.39763 q 0,0.6532 -0.21911,1.2237 -0.2191,0.57051 -0.61598,0.97979 -0.41341,0.42581 -0.95911,0.65732 -0.54571,0.22738 -1.27331,0.22738 -1.03767,0 -1.59164,-0.49609 -0.55397,-0.4961 -0.55397,-1.37253 0,-0.62012 0.20671,-1.17822 0.2067,-0.55811 0.61185,-0.98392 0.39274,-0.41755 0.96325,-0.65733 0.57464,-0.24391 1.28571,-0.24391 1.04179,0 1.59163,0.49196 0.55397,0.48782 0.55397,1.35185 z m -1.93476,1.52136 q 0.19017,-0.28939 0.28525,-0.63252 0.0992,-0.34313 0.0992,-0.83509 0,-0.42582 -0.18604,-0.65319 -0.18603,-0.23151 -0.59118,-0.23151 -0.31419,0 -0.55397,0.15296 -0.23564,0.15296 -0.41754,0.43408 -0.1695,0.26045 -0.26872,0.64492 -0.0951,0.38448 -0.0951,0.78962 0,0.47542 0.21084,0.68213 0.21083,0.20257 0.57877,0.20257 0.26872,0 0.51677,-0.14469 0.24804,-0.14883 0.42168,-0.40928 z" />
      <path
         id="path893"
         style="font-style:italic;font-variant:normal;font-weight:bold;font-stretch:normal;font-size:8.46667px;line-height:1.25;font-family:sans-serif;-inkscape-font-specification:'sans-serif Bold';fill:#ffffff;fill-opacity:1;stroke-width:0.264583"
         d="m 238.25992,275.69851 -1.07487,4.64262 h -1.49655 l 0.11989,-0.51263 q -0.22325,0.14469 -0.43822,0.27285 -0.21084,0.12402 -0.40101,0.19843 -0.23978,0.0992 -0.43821,0.1323 -0.19844,0.0372 -0.39275,0.0372 -0.61185,0 -0.96738,-0.29352 -0.3514,-0.29352 -0.3514,-0.86816 0,-0.1571 0.0165,-0.28939 0.0165,-0.13643 0.0537,-0.29766 l 0.69867,-3.02204 h 1.50481 l -0.5333,2.30271 q -0.062,0.26458 -0.0951,0.45475 -0.0289,0.19017 -0.0289,0.32246 0,0.27285 0.13229,0.39687 0.13229,0.11989 0.50023,0.11989 0.1819,0 0.41755,-0.0785 0.23977,-0.0786 0.51676,-0.22738 l 0.76068,-3.29076 z" />
      <path
         id="path895"
         style="font-style:italic;font-variant:normal;font-weight:bold;font-stretch:normal;font-size:8.46667px;line-height:1.25;font-family:sans-serif;-inkscape-font-specification:'sans-serif Bold';fill:#ffffff;fill-opacity:1;stroke-width:0.264583"
         d="m 244.02701,276.74858 q 0,0.12402 -0.0165,0.26872 -0.0165,0.14469 -0.0538,0.30179 l -0.69453,3.02204 h -1.50482 l 0.52917,-2.30271 q 0.0579,-0.25631 0.0909,-0.43821 0.0331,-0.1819 0.0331,-0.339 0,-0.26872 -0.13642,-0.39274 -0.13643,-0.12403 -0.50023,-0.12403 -0.17777,0 -0.40928,0.0786 -0.23151,0.0744 -0.5209,0.22738 l -0.75654,3.29076 h -1.49655 l 1.07074,-4.64262 h 1.49655 l -0.11989,0.51263 q 0.45888,-0.30179 0.83509,-0.47129 0.38034,-0.16949 0.83509,-0.16949 0.62425,0 0.97152,0.30179 0.34726,0.30179 0.34726,0.87643 z" />
      <path
         id="path897"
         style="font-style:italic;font-variant:normal;font-weight:bold;font-stretch:normal;font-size:8.46667px;line-height:1.25;font-family:sans-serif;-inkscape-font-specification:'sans-serif Bold';fill:#ffffff;fill-opacity:1;stroke-width:0.264583"
         d="m 246.40825,280.43208 q -0.77308,0 -1.10381,-0.25219 -0.33073,-0.25631 -0.33073,-0.75654 0,-0.13229 0.0207,-0.25631 0.0207,-0.12403 0.0537,-0.28939 l 0.50436,-2.19935 h -0.61185 l 0.22738,-0.97979 h 0.61185 l 0.30592,-1.32705 h 1.49242 l -0.30593,1.32705 h 1.39733 l -0.22737,0.97979 h -1.39733 l -0.38448,1.67432 q -0.0413,0.17363 -0.0785,0.3514 -0.0372,0.17363 -0.0372,0.29765 0,0.24805 0.13642,0.34727 0.14056,0.0951 0.42995,0.0951 0.11576,0 0.30179,-0.0413 0.19017,-0.0455 0.30179,-0.0992 h 0.12403 l -0.23152,0.99632 q -0.25218,0.062 -0.5333,0.0951 -0.27698,0.0372 -0.66559,0.0372 z" />
    </g>
  </g>
</svg>
