<?xml version="1.0" encoding="UTF-8" standalone="no"?>
<svg
   xmlns:dc="http://purl.org/dc/elements/1.1/"
   xmlns:cc="http://creativecommons.org/ns#"
   xmlns:rdf="http://www.w3.org/1999/02/22-rdf-syntax-ns#"
   xmlns:svg="http://www.w3.org/2000/svg"
   xmlns="http://www.w3.org/2000/svg"
   xmlns:sodipodi="http://sodipodi.sourceforge.net/DTD/sodipodi-0.dtd"
   xmlns:inkscape="http://www.inkscape.org/namespaces/inkscape"
   sodipodi:docname="next_primary.svg"
   inkscape:version="1.0 (4035a4fb49, 2020-05-01)"
   id="svg8"
   version="1.1"
   viewBox="0 0 343.95833 37.030054"
   height="139.9561"
   width="1300">
  <defs
     id="defs2" />
  <sodipodi:namedview
     inkscape:document-rotation="0"
     fit-margin-bottom="0"
     fit-margin-right="0"
     fit-margin-left="0"
     fit-margin-top="0"
     inkscape:window-maximized="1"
     inkscape:window-y="-8"
     inkscape:window-x="-8"
     inkscape:window-height="1137"
     inkscape:window-width="1920"
     inkscape:snap-page="true"
     inkscape:snap-global="true"
     units="px"
     showgrid="false"
     inkscape:current-layer="layer1"
     inkscape:document-units="mm"
     inkscape:cy="-230.83846"
     inkscape:cx="545.66213"
     inkscape:zoom="0.7"
     inkscape:pageshadow="2"
     inkscape:pageopacity="0.0"
     borderopacity="1.0"
     bordercolor="#666666"
     pagecolor="#ffffff"
     id="base" />
  <metadata
     id="metadata5">
    <rdf:RDF>
      <cc:Work
         rdf:about="">
        <dc:format>image/svg+xml</dc:format>
        <dc:type
           rdf:resource="http://purl.org/dc/dcmitype/StillImage" />
        <dc:title />
      </cc:Work>
    </rdf:RDF>
  </metadata>
  <g
     transform="translate(18.758024,-252.02661)"
     id="layer1"
     inkscape:groupmode="layer"
     inkscape:label="Layer 1">
    <rect
       rx="1.7103499"
       ry="1.4827397"
       y="252.57567"
       x="14.048535"
       height="36.030052"
       width="278.34521"
       id="rect817"
       style="opacity:0.97;fill:#ee2a24;fill-opacity:1;stroke:#ee2a24;stroke-width:1;stroke-linecap:butt;stroke-linejoin:round;stroke-miterlimit:4;stroke-dasharray:none;stroke-dashoffset:0;stroke-opacity:1;paint-order:normal" />
    <text
       id="text839"
       y="289.05667"
       x="119.58125"
       style="font-style:normal;font-weight:normal;font-size:10.5833px;line-height:1.25;font-family:sans-serif;letter-spacing:0px;word-spacing:0px;writing-mode:tb-rl;fill:#000000;fill-opacity:1;stroke:none;stroke-width:0.264583"
       xml:space="preserve"><tspan
         style="stroke-width:0.264583"
         y="119.58125"
         x="289.05667"
         id="tspan837"
         sodipodi:role="line" /></text>
    <text
       id="text894"
       y="262.98792"
       x="22.441383"
       style="font-style:normal;font-weight:normal;font-size:10.5833px;line-height:1.25;font-family:sans-serif;letter-spacing:0px;word-spacing:0px;writing-mode:tb-rl;fill:#000000;fill-opacity:1;stroke:none;stroke-width:0.264583"
       xml:space="preserve"><tspan
         style="stroke-width:0.264583"
         y="22.441383"
         x="262.98792"
         id="tspan892"
         sodipodi:role="line" /></text>
    <g
       transform="translate(-7.773114e-5)"
       style="font-style:normal;font-weight:normal;font-size:8.46667px;line-height:1.25;font-family:sans-serif;letter-spacing:0px;word-spacing:0px;fill:#000000;fill-opacity:1;stroke:none;stroke-width:0.264583"
       id="text827-8-0"
       aria-label="Device Monitoring in Amazon CloudWatch">
      <path
         id="path973"
         style="font-style:italic;font-variant:normal;font-weight:bold;font-stretch:normal;font-size:8.46667px;line-height:1.25;font-family:sans-serif;-inkscape-font-specification:'sans-serif Bold';fill:#ffffff;fill-opacity:1;stroke-width:0.264583"
         d="m 60.895993,277.07316 q 0,1.04593 -0.549837,1.93063 -0.549838,0.8847 -1.409734,1.35599 -0.520899,0.28112 -1.087272,0.3762 -0.566374,0.091 -1.355991,0.091 h -2.228288 l 1.422136,-6.15569 h 1.992644 q 0.880567,0 1.418002,0.13642 0.537435,0.13643 0.868164,0.36794 0.454753,0.31419 0.690397,0.78548 0.239779,0.46716 0.239779,1.11208 z m -1.661914,0.14469 q 0,-0.42168 -0.157097,-0.72347 -0.157096,-0.30592 -0.479557,-0.49196 -0.148829,-0.0827 -0.305925,-0.12402 -0.152962,-0.0455 -0.3514,-0.0661 -0.190169,-0.0165 -0.434082,-0.0165 -0.243913,0 -0.425814,0 h -0.05374 l -0.909505,3.9026 h 0.144694 q 0.239779,0 0.51263,0 0.272852,0 0.442351,-0.0207 0.219108,-0.0207 0.392741,-0.0662 0.177767,-0.0455 0.388607,-0.15296 0.595312,-0.30592 0.913639,-0.91364 0.322462,-0.60771 0.322462,-1.32705 z" />
      <path
         id="path975"
         style="font-style:italic;font-variant:normal;font-weight:bold;font-stretch:normal;font-size:8.46667px;line-height:1.25;font-family:sans-serif;-inkscape-font-specification:'sans-serif Bold';fill:#ffffff;fill-opacity:1;stroke-width:0.264583"
         d="m 64.972232,277.90825 q 0.0124,-0.0744 0.01654,-0.13643 0.0083,-0.062 0.0083,-0.12815 0,-0.3266 -0.202571,-0.50023 -0.202572,-0.17364 -0.582911,-0.17364 -0.458887,0 -0.773079,0.24805 -0.310059,0.24805 -0.47129,0.6904 z m -1.136882,3.04271 q -1.186492,0 -1.831414,-0.52503 -0.644922,-0.52504 -0.644922,-1.45108 0,-0.63252 0.21084,-1.16169 0.21084,-0.52916 0.607715,-0.93017 0.380339,-0.38861 0.950847,-0.61599 0.570508,-0.22737 1.252637,-0.22737 1.037663,0 1.562696,0.42168 0.529167,0.41754 0.529167,1.2361 0,0.28112 -0.05788,0.54984 -0.05374,0.26871 -0.144694,0.5333 h -3.447853 q 0,0.0248 0,0.0496 0,0.0207 0,0.0455 0,0.48369 0.338998,0.75655 0.338997,0.27285 1.037663,0.27285 0.487826,0 0.921908,-0.16537 0.438216,-0.16536 0.760677,-0.36793 H 66.0471 l -0.276986,1.19476 q -0.434082,0.19016 -0.91364,0.28525 -0.479557,0.0992 -1.021126,0.0992 z" />
      <path
         id="path977"
         style="font-style:italic;font-variant:normal;font-weight:bold;font-stretch:normal;font-size:8.46667px;line-height:1.25;font-family:sans-serif;-inkscape-font-specification:'sans-serif Bold';fill:#ffffff;fill-opacity:1;stroke-width:0.264583"
         d="m 72.537664,276.18432 -2.864942,4.64261 h -1.694988 l -0.7028,-4.64261 h 1.533757 l 0.338998,3.19567 1.790072,-3.19567 z" />
      <path
         id="path979"
         style="font-style:italic;font-variant:normal;font-weight:bold;font-stretch:normal;font-size:8.46667px;line-height:1.25;font-family:sans-serif;-inkscape-font-specification:'sans-serif Bold';fill:#ffffff;fill-opacity:1;stroke-width:0.264583"
         d="m 74.898246,276.18432 -1.07487,4.64261 h -1.49655 l 1.07487,-4.64261 z m 0.454753,-1.79007 -0.26045,1.12861 h -1.579232 l 0.260449,-1.12861 z" />
      <path
         id="path981"
         style="font-style:italic;font-variant:normal;font-weight:bold;font-stretch:normal;font-size:8.46667px;line-height:1.25;font-family:sans-serif;-inkscape-font-specification:'sans-serif Bold';fill:#ffffff;fill-opacity:1;stroke-width:0.264583"
         d="m 77.618494,280.95096 q -0.475424,0 -0.892969,-0.11989 -0.413412,-0.11576 -0.723471,-0.3638 -0.30179,-0.24392 -0.471289,-0.61185 -0.169499,-0.36794 -0.169499,-0.85163 0,-0.62425 0.235645,-1.15755 0.239779,-0.53744 0.669727,-0.93845 0.42168,-0.39274 1.029395,-0.62011 0.607715,-0.23152 1.314649,-0.23152 0.425814,0 0.843359,0.0951 0.42168,0.0951 0.781348,0.27699 l -0.314192,1.26917 h -0.21084 q -0.243913,-0.29352 -0.553972,-0.43408 -0.305925,-0.1447 -0.690397,-0.1447 -0.7028,0 -1.128614,0.50023 -0.425814,0.49609 -0.425814,1.24024 0,0.51676 0.260449,0.77308 0.264584,0.25631 0.818555,0.25631 0.429948,0 0.781348,-0.17363 0.355534,-0.17777 0.607715,-0.39274 h 0.21084 l -0.314193,1.26917 q -0.446484,0.1943 -0.785482,0.27699 -0.334863,0.0827 -0.872298,0.0827 z" />
      <path
         id="path983"
         style="font-style:italic;font-variant:normal;font-weight:bold;font-stretch:normal;font-size:8.46667px;line-height:1.25;font-family:sans-serif;-inkscape-font-specification:'sans-serif Bold';fill:#ffffff;fill-opacity:1;stroke-width:0.264583"
         d="m 83.956094,277.90825 q 0.0124,-0.0744 0.01654,-0.13643 0.0083,-0.062 0.0083,-0.12815 0,-0.3266 -0.202572,-0.50023 -0.202572,-0.17364 -0.58291,-0.17364 -0.458887,0 -0.77308,0.24805 -0.310059,0.24805 -0.471289,0.6904 z m -1.136882,3.04271 q -1.186491,0 -1.831413,-0.52503 -0.644922,-0.52504 -0.644922,-1.45108 0,-0.63252 0.210839,-1.16169 0.21084,-0.52916 0.607716,-0.93017 0.380338,-0.38861 0.950846,-0.61599 0.570508,-0.22737 1.252638,-0.22737 1.037663,0 1.562695,0.42168 0.529167,0.41754 0.529167,1.2361 0,0.28112 -0.05788,0.54984 -0.05374,0.26871 -0.144694,0.5333 h -3.447853 q 0,0.0248 0,0.0496 0,0.0207 0,0.0455 0,0.48369 0.338997,0.75655 0.338998,0.27285 1.037663,0.27285 0.487826,0 0.921908,-0.16537 0.438217,-0.16536 0.760678,-0.36793 h 0.165364 l -0.276985,1.19476 q -0.434083,0.19016 -0.91364,0.28525 -0.479558,0.0992 -1.021127,0.0992 z" />
      <path
         id="path985"
         style="font-style:italic;font-variant:normal;font-weight:bold;font-stretch:normal;font-size:8.46667px;line-height:1.25;font-family:sans-serif;-inkscape-font-specification:'sans-serif Bold';fill:#ffffff;fill-opacity:1;stroke-width:0.264583"
         d="m 95.254632,280.82693 h -1.587501 l 0.930176,-4.02662 -1.690853,2.57968 h -1.095541 l -0.545703,-2.74918 -0.967384,4.19612 h -1.504818 l 1.422136,-6.15569 h 1.823145 l 0.673861,3.08818 2.091863,-3.08818 h 1.872755 z" />
      <path
         id="path987"
         style="font-style:italic;font-variant:normal;font-weight:bold;font-stretch:normal;font-size:8.46667px;line-height:1.25;font-family:sans-serif;-inkscape-font-specification:'sans-serif Bold';fill:#ffffff;fill-opacity:1;stroke-width:0.264583"
         d="m 102.08833,277.88344 q 0,0.65319 -0.21911,1.2237 -0.21911,0.57051 -0.61598,0.97979 -0.41342,0.42581 -0.95912,0.65732 -0.545702,0.22738 -1.273307,0.22738 -1.037663,0 -1.591634,-0.4961 -0.553972,-0.49609 -0.553972,-1.37252 0,-0.62012 0.206706,-1.17822 0.206706,-0.55811 0.611849,-0.98392 0.392741,-0.41755 0.963249,-0.65733 0.574642,-0.24391 1.28571,-0.24391 1.041799,0 1.591639,0.49196 0.55397,0.48782 0.55397,1.35185 z m -1.93477,1.52136 q 0.19017,-0.28939 0.28526,-0.63252 0.0992,-0.34313 0.0992,-0.83509 0,-0.42582 -0.18603,-0.65319 -0.18604,-0.23151 -0.59118,-0.23151 -0.314193,0 -0.553971,0.15296 -0.235645,0.15296 -0.417546,0.43408 -0.169499,0.26045 -0.268718,0.64492 -0.09508,0.38448 -0.09508,0.78962 0,0.47542 0.21084,0.68213 0.21084,0.20257 0.578776,0.20257 0.268717,0 0.516764,-0.14469 0.248047,-0.14883 0.421675,-0.40928 z" />
      <path
         id="path989"
         style="font-style:italic;font-variant:normal;font-weight:bold;font-stretch:normal;font-size:8.46667px;line-height:1.25;font-family:sans-serif;-inkscape-font-specification:'sans-serif Bold';fill:#ffffff;fill-opacity:1;stroke-width:0.264583"
         d="m 107.97531,277.23439 q 0,0.12402 -0.0165,0.26872 -0.0165,0.14469 -0.0537,0.30179 l -0.69453,3.02203 h -1.50482 l 0.52917,-2.3027 q 0.0579,-0.25631 0.091,-0.43821 0.0331,-0.18191 0.0331,-0.339 0,-0.26872 -0.13643,-0.39274 -0.13642,-0.12403 -0.50022,-0.12403 -0.17777,0 -0.40928,0.0786 -0.23151,0.0744 -0.5209,0.22738 l -0.75654,3.29075 h -1.49655 l 1.07073,-4.64261 h 1.49655 l -0.11989,0.51263 q 0.45889,-0.30179 0.83509,-0.47129 0.38034,-0.1695 0.8351,-0.1695 0.62425,0 0.97151,0.3018 0.34727,0.30179 0.34727,0.87643 z" />
      <path
         id="path991"
         style="font-style:italic;font-variant:normal;font-weight:bold;font-stretch:normal;font-size:8.46667px;line-height:1.25;font-family:sans-serif;-inkscape-font-specification:'sans-serif Bold';fill:#ffffff;fill-opacity:1;stroke-width:0.264583"
         d="m 111.14617,276.18432 -1.07487,4.64261 h -1.49655 l 1.07487,-4.64261 z m 0.45476,-1.79007 -0.26045,1.12861 h -1.57923 l 0.26044,-1.12861 z" />
      <path
         id="path993"
         style="font-style:italic;font-variant:normal;font-weight:bold;font-stretch:normal;font-size:8.46667px;line-height:1.25;font-family:sans-serif;-inkscape-font-specification:'sans-serif Bold';fill:#ffffff;fill-opacity:1;stroke-width:0.264583"
         d="m 113.25044,280.91789 q -0.77308,0 -1.10381,-0.25219 -0.33073,-0.25631 -0.33073,-0.75654 0,-0.13229 0.0207,-0.25631 0.0207,-0.12403 0.0538,-0.28939 l 0.50436,-2.19935 h -0.61185 l 0.22738,-0.97979 h 0.61185 l 0.30592,-1.32705 h 1.49242 l -0.30593,1.32705 h 1.39733 l -0.22737,0.97979 h -1.39734 l -0.38447,1.67431 q -0.0413,0.17364 -0.0785,0.3514 -0.0372,0.17364 -0.0372,0.29766 0,0.24805 0.13642,0.34727 0.14056,0.0951 0.42995,0.0951 0.11576,0 0.30179,-0.0413 0.19017,-0.0455 0.30179,-0.0992 h 0.12403 l -0.23152,0.99632 q -0.25218,0.062 -0.5333,0.0951 -0.27698,0.0372 -0.66559,0.0372 z" />
      <path
         id="path995"
         style="font-style:italic;font-variant:normal;font-weight:bold;font-stretch:normal;font-size:8.46667px;line-height:1.25;font-family:sans-serif;-inkscape-font-specification:'sans-serif Bold';fill:#ffffff;fill-opacity:1;stroke-width:0.264583"
         d="m 120.67531,277.88344 q 0,0.65319 -0.2191,1.2237 -0.21911,0.57051 -0.61599,0.97979 -0.41341,0.42581 -0.95911,0.65732 -0.54571,0.22738 -1.27331,0.22738 -1.03766,0 -1.59163,-0.4961 -0.55398,-0.49609 -0.55398,-1.37252 0,-0.62012 0.20671,-1.17822 0.20671,-0.55811 0.61185,-0.98392 0.39274,-0.41755 0.96325,-0.65733 0.57464,-0.24391 1.28571,-0.24391 1.0418,0 1.59163,0.49196 0.55397,0.48782 0.55397,1.35185 z m -1.93476,1.52136 q 0.19017,-0.28939 0.28525,-0.63252 0.0992,-0.34313 0.0992,-0.83509 0,-0.42582 -0.18603,-0.65319 -0.18604,-0.23151 -0.59118,-0.23151 -0.3142,0 -0.55397,0.15296 -0.23565,0.15296 -0.41755,0.43408 -0.1695,0.26045 -0.26872,0.64492 -0.0951,0.38448 -0.0951,0.78962 0,0.47542 0.21084,0.68213 0.21084,0.20257 0.57877,0.20257 0.26872,0 0.51677,-0.14469 0.24804,-0.14883 0.42168,-0.40928 z" />
      <path
         id="path997"
         style="font-style:italic;font-variant:normal;font-weight:bold;font-stretch:normal;font-size:8.46667px;line-height:1.25;font-family:sans-serif;-inkscape-font-specification:'sans-serif Bold';fill:#ffffff;fill-opacity:1;stroke-width:0.264583"
         d="m 125.24352,277.60232 h -0.1323 q -0.0992,-0.0331 -0.28112,-0.0496 -0.1819,-0.0165 -0.35966,-0.0165 -0.29353,0 -0.56638,0.0455 -0.27285,0.0413 -0.56224,0.13643 l -0.71933,3.10885 h -1.49655 l 1.07487,-4.64261 h 1.49655 l -0.1571,0.68213 q 0.42168,-0.31006 0.83923,-0.50436 0.42168,-0.1943 0.84749,-0.1943 0.0786,0 0.17363,0.004 0.0992,0.004 0.17364,0.0124 z" />
      <path
         id="path999"
         style="font-style:italic;font-variant:normal;font-weight:bold;font-stretch:normal;font-size:8.46667px;line-height:1.25;font-family:sans-serif;-inkscape-font-specification:'sans-serif Bold';fill:#ffffff;fill-opacity:1;stroke-width:0.264583"
         d="m 127.91415,276.18432 -1.07487,4.64261 h -1.49655 l 1.07487,-4.64261 z m 0.45476,-1.79007 -0.26045,1.12861 h -1.57924 l 0.26045,-1.12861 z" />
      <path
         id="path1001"
         style="font-style:italic;font-variant:normal;font-weight:bold;font-stretch:normal;font-size:8.46667px;line-height:1.25;font-family:sans-serif;-inkscape-font-specification:'sans-serif Bold';fill:#ffffff;fill-opacity:1;stroke-width:0.264583"
         d="m 133.67298,277.23439 q 0,0.12402 -0.0165,0.26872 -0.0165,0.14469 -0.0537,0.30179 l -0.69453,3.02203 h -1.50482 l 0.52917,-2.3027 q 0.0579,-0.25631 0.0909,-0.43821 0.0331,-0.18191 0.0331,-0.339 0,-0.26872 -0.13643,-0.39274 -0.13642,-0.12403 -0.50022,-0.12403 -0.17777,0 -0.40928,0.0786 -0.23151,0.0744 -0.5209,0.22738 l -0.75654,3.29075 h -1.49655 l 1.07073,-4.64261 h 1.49655 l -0.11989,0.51263 q 0.45889,-0.30179 0.83509,-0.47129 0.38034,-0.1695 0.8351,-0.1695 0.62425,0 0.97151,0.3018 0.34727,0.30179 0.34727,0.87643 z" />
      <path
         id="path1003"
         style="font-style:italic;font-variant:normal;font-weight:bold;font-stretch:normal;font-size:8.46667px;line-height:1.25;font-family:sans-serif;-inkscape-font-specification:'sans-serif Bold';fill:#ffffff;fill-opacity:1;stroke-width:0.264583"
         d="m 139.86588,276.18432 -0.93431,4.10931 q -0.15296,0.66146 -0.43408,1.09968 -0.28112,0.43822 -0.68213,0.69866 -0.41341,0.26872 -0.89711,0.37621 -0.48369,0.10749 -1.08727,0.10749 -0.50023,0 -0.95911,-0.062 -0.45889,-0.0579 -0.77308,-0.13642 l 0.22737,-1.14102 h 0.1819 q 0.34314,0.13229 0.69454,0.21084 0.3514,0.0786 0.62425,0.0786 0.39274,0 0.68213,-0.0744 0.28939,-0.0703 0.45475,-0.20671 0.17777,-0.14469 0.28112,-0.35553 0.10749,-0.21084 0.17363,-0.51677 l 0.0207,-0.0868 q -0.32246,0.2191 -0.64078,0.34726 -0.31833,0.12816 -0.71934,0.12816 -0.78135,0 -1.2237,-0.39274 -0.43822,-0.39274 -0.43822,-1.18649 0,-1.3684 0.77308,-2.24483 0.77308,-0.88057 1.87689,-0.88057 0.39688,0 0.71934,0.0951 0.32659,0.0951 0.52503,0.23978 l 0.10335,-0.20671 z m -1.7446,1.07487 q -0.11989,-0.0537 -0.31832,-0.0992 -0.19431,-0.0496 -0.34314,-0.0496 -0.66559,0 -1.07073,0.50023 -0.40515,0.50023 -0.40515,1.28571 0,0.35554 0.17364,0.55397 0.17363,0.19844 0.62425,0.19844 0.21911,0 0.44235,-0.0827 0.22738,-0.0868 0.42581,-0.20257 z" />
      <path
         id="path1005"
         style="font-style:italic;font-variant:normal;font-weight:bold;font-stretch:normal;font-size:8.46667px;line-height:1.25;font-family:sans-serif;-inkscape-font-specification:'sans-serif Bold';fill:#ffffff;fill-opacity:1;stroke-width:0.264583"
         d="m 145.65777,276.18432 -1.07487,4.64261 h -1.49655 l 1.07487,-4.64261 z m 0.45476,-1.79007 -0.26045,1.12861 h -1.57923 l 0.26045,-1.12861 z" />
      <path
         id="path1007"
         style="font-style:italic;font-variant:normal;font-weight:bold;font-stretch:normal;font-size:8.46667px;line-height:1.25;font-family:sans-serif;-inkscape-font-specification:'sans-serif Bold';fill:#ffffff;fill-opacity:1;stroke-width:0.264583"
         d="m 151.4166,277.23439 q 0,0.12402 -0.0165,0.26872 -0.0165,0.14469 -0.0537,0.30179 l -0.69453,3.02203 h -1.50482 l 0.52917,-2.3027 q 0.0579,-0.25631 0.0909,-0.43821 0.0331,-0.18191 0.0331,-0.339 0,-0.26872 -0.13643,-0.39274 -0.13642,-0.12403 -0.50022,-0.12403 -0.17777,0 -0.40928,0.0786 -0.23151,0.0744 -0.5209,0.22738 l -0.75654,3.29075 h -1.49655 l 1.07073,-4.64261 h 1.49655 l -0.11989,0.51263 q 0.45889,-0.30179 0.8351,-0.47129 0.38033,-0.1695 0.83509,-0.1695 0.62425,0 0.97151,0.3018 0.34727,0.30179 0.34727,0.87643 z" />
      <path
         id="path1009"
         style="font-style:italic;font-variant:normal;font-weight:bold;font-stretch:normal;font-size:8.46667px;line-height:1.25;font-family:sans-serif;-inkscape-font-specification:'sans-serif Bold';fill:#ffffff;fill-opacity:1;stroke-width:0.264583"
         d="m 160.74317,280.82693 h -1.5999 l -0.14056,-1.25677 h -2.2655 l -0.71933,1.25677 h -1.65778 l 3.69176,-6.15569 h 1.83555 z m -1.86035,-2.36058 -0.24805,-2.21175 -1.26917,2.21175 z" />
      <path
         id="path1011"
         style="font-style:italic;font-variant:normal;font-weight:bold;font-stretch:normal;font-size:8.46667px;line-height:1.25;font-family:sans-serif;-inkscape-font-specification:'sans-serif Bold';fill:#ffffff;fill-opacity:1;stroke-width:0.264583"
         d="m 169.86303,277.21785 q 0,0.12816 -0.0207,0.27699 -0.0165,0.14883 -0.0537,0.31006 l -0.69867,3.02203 h -1.50482 l 0.53744,-2.31923 q 0.0537,-0.23978 0.0951,-0.45889 0.0455,-0.21911 0.0455,-0.35554 0,-0.23977 -0.13229,-0.3514 -0.1323,-0.11162 -0.47129,-0.11162 -0.16123,0 -0.36794,0.0786 -0.20257,0.0744 -0.49196,0.22738 l -0.76068,3.29075 h -1.50482 l 0.53744,-2.31923 q 0.0455,-0.20258 0.091,-0.43822 0.0455,-0.23565 0.0455,-0.35967 0,-0.25218 -0.12816,-0.3638 -0.12403,-0.11576 -0.46716,-0.11576 -0.17776,0 -0.3886,0.0827 -0.21084,0.0827 -0.47543,0.22324 l -0.76067,3.29075 h -1.49656 l 1.07488,-4.64261 h 1.49655 l -0.11989,0.51263 q 0.45475,-0.30179 0.81855,-0.47129 0.36794,-0.1695 0.79375,-0.1695 0.45889,0 0.77308,0.20671 0.31419,0.20257 0.43822,0.59945 0.55397,-0.40101 0.99219,-0.60358 0.43821,-0.20258 0.84749,-0.20258 0.61185,0 0.93431,0.3018 0.32246,0.30179 0.32246,0.85989 z" />
      <path
         id="path1013"
         style="font-style:italic;font-variant:normal;font-weight:bold;font-stretch:normal;font-size:8.46667px;line-height:1.25;font-family:sans-serif;-inkscape-font-specification:'sans-serif Bold';fill:#ffffff;fill-opacity:1;stroke-width:0.264583"
         d="m 173.7739,278.63585 q -0.39687,0.0331 -0.74414,0.0786 -0.34727,0.0455 -0.59118,0.13229 -0.25218,0.0909 -0.38447,0.25632 -0.13229,0.16536 -0.13229,0.43821 0,0.23978 0.17363,0.339 0.17777,0.0951 0.51263,0.0951 0.21911,0 0.46716,-0.0992 0.25218,-0.10335 0.47128,-0.26045 z m -0.39274,1.69912 q -0.14056,0.091 -0.339,0.21911 -0.19843,0.12816 -0.36793,0.20257 -0.23151,0.0951 -0.43409,0.1447 -0.20257,0.0496 -0.56224,0.0496 -0.57877,0 -0.94671,-0.32246 -0.3638,-0.3266 -0.3638,-0.8475 0,-0.54983 0.26045,-0.93017 0.26045,-0.38448 0.77308,-0.61185 0.47956,-0.21498 1.14101,-0.31006 0.6656,-0.0951 1.43868,-0.14056 0.004,-0.0248 0.0165,-0.0786 0.0124,-0.0579 0.0124,-0.12816 0,-0.29352 -0.27286,-0.40927 -0.27285,-0.11989 -0.81442,-0.11989 -0.36793,0 -0.81442,0.12402 -0.44235,0.12402 -0.66559,0.20671 h -0.13643 l 0.21911,-1.09968 q 0.26045,-0.0661 0.80615,-0.14883 0.54571,-0.0827 1.08728,-0.0827 1.0914,0 1.5999,0.28525 0.51263,0.28526 0.51263,0.88471 0,0.0827 -0.0165,0.21497 -0.0124,0.13229 -0.0372,0.23151 l -0.72761,3.15846 h -1.48001 z" />
      <path
         id="path1015"
         style="font-style:italic;font-variant:normal;font-weight:bold;font-stretch:normal;font-size:8.46667px;line-height:1.25;font-family:sans-serif;-inkscape-font-specification:'sans-serif Bold';fill:#ffffff;fill-opacity:1;stroke-width:0.264583"
         d="m 180.0991,280.82693 h -4.36149 l 0.21497,-0.91363 3.05098,-2.68305 h -2.33578 l 0.24392,-1.04593 h 4.21679 l -0.21084,0.89711 -3.01377,2.6789 h 2.44327 z" />
      <path
         id="path1017"
         style="font-style:italic;font-variant:normal;font-weight:bold;font-stretch:normal;font-size:8.46667px;line-height:1.25;font-family:sans-serif;-inkscape-font-specification:'sans-serif Bold';fill:#ffffff;fill-opacity:1;stroke-width:0.264583"
         d="m 186.52352,277.88344 q 0,0.65319 -0.21911,1.2237 -0.21911,0.57051 -0.61599,0.97979 -0.41341,0.42581 -0.95911,0.65732 -0.5457,0.22738 -1.27331,0.22738 -1.03766,0 -1.59163,-0.4961 -0.55397,-0.49609 -0.55397,-1.37252 0,-0.62012 0.2067,-1.17822 0.20671,-0.55811 0.61185,-0.98392 0.39274,-0.41755 0.96325,-0.65733 0.57464,-0.24391 1.28571,-0.24391 1.0418,0 1.59163,0.49196 0.55398,0.48782 0.55398,1.35185 z m -1.93477,1.52136 q 0.19017,-0.28939 0.28525,-0.63252 0.0992,-0.34313 0.0992,-0.83509 0,-0.42582 -0.18603,-0.65319 -0.18604,-0.23151 -0.59118,-0.23151 -0.31419,0 -0.55397,0.15296 -0.23565,0.15296 -0.41755,0.43408 -0.1695,0.26045 -0.26872,0.64492 -0.0951,0.38448 -0.0951,0.78962 0,0.47542 0.21084,0.68213 0.21084,0.20257 0.57878,0.20257 0.26871,0 0.51676,-0.14469 0.24805,-0.14883 0.42168,-0.40928 z" />
      <path
         id="path1019"
         style="font-style:italic;font-variant:normal;font-weight:bold;font-stretch:normal;font-size:8.46667px;line-height:1.25;font-family:sans-serif;-inkscape-font-specification:'sans-serif Bold';fill:#ffffff;fill-opacity:1;stroke-width:0.264583"
         d="m 192.4105,277.23439 q 0,0.12402 -0.0165,0.26872 -0.0165,0.14469 -0.0537,0.30179 l -0.69453,3.02203 h -1.50482 l 0.52916,-2.3027 q 0.0579,-0.25631 0.0909,-0.43821 0.0331,-0.18191 0.0331,-0.339 0,-0.26872 -0.13643,-0.39274 -0.13642,-0.12403 -0.50023,-0.12403 -0.17776,0 -0.40927,0.0786 -0.23151,0.0744 -0.5209,0.22738 l -0.75655,3.29075 h -1.49655 l 1.07074,-4.64261 h 1.49655 l -0.11989,0.51263 q 0.45889,-0.30179 0.83509,-0.47129 0.38034,-0.1695 0.83509,-0.1695 0.62426,0 0.97152,0.3018 0.34727,0.30179 0.34727,0.87643 z" />
      <path
         id="path1021"
         style="font-style:italic;font-variant:normal;font-weight:bold;font-stretch:normal;font-size:8.46667px;line-height:1.25;font-family:sans-serif;-inkscape-font-specification:'sans-serif Bold';fill:#ffffff;fill-opacity:1;stroke-width:0.264583"
         d="m 198.83078,280.94682 q -1.24851,0 -1.9265,-0.61185 -0.678,-0.61598 -0.678,-1.76113 0,-0.90537 0.29766,-1.64124 0.30179,-0.73588 0.82682,-1.27331 0.51263,-0.5209 1.22783,-0.81442 0.71934,-0.29352 1.50896,-0.29352 0.63665,0 1.18235,0.13229 0.54571,0.12816 0.98392,0.38034 l -0.3638,1.49241 h -0.1819 q -0.39274,-0.42168 -0.78135,-0.62011 -0.3886,-0.19844 -0.91364,-0.19844 -0.92191,0 -1.52135,0.74 -0.59531,0.74001 -0.59531,1.88516 0,0.73587 0.33072,1.0666 0.33073,0.33073 0.96739,0.33073 0.57051,0 1.07073,-0.22737 0.50023,-0.23151 0.94672,-0.58705 h 0.16536 l -0.35967,1.47175 q -0.18603,0.0744 -0.43408,0.1819 -0.24805,0.10335 -0.47542,0.1695 -0.29766,0.0868 -0.55811,0.13229 -0.25631,0.0455 -0.71933,0.0455 z" />
      <path
         id="path1023"
         style="font-style:italic;font-variant:normal;font-weight:bold;font-stretch:normal;font-size:8.46667px;line-height:1.25;font-family:sans-serif;-inkscape-font-specification:'sans-serif Bold';fill:#ffffff;fill-opacity:1;stroke-width:0.264583"
         d="m 205.02369,274.39425 -1.48828,6.43268 h -1.49655 l 1.48828,-6.43268 z" />
      <path
         id="path1025"
         style="font-style:italic;font-variant:normal;font-weight:bold;font-stretch:normal;font-size:8.46667px;line-height:1.25;font-family:sans-serif;-inkscape-font-specification:'sans-serif Bold';fill:#ffffff;fill-opacity:1;stroke-width:0.264583"
         d="m 210.28642,277.88344 q 0,0.65319 -0.21911,1.2237 -0.21911,0.57051 -0.61598,0.97979 -0.41342,0.42581 -0.95912,0.65732 -0.5457,0.22738 -1.27331,0.22738 -1.03766,0 -1.59163,-0.4961 -0.55397,-0.49609 -0.55397,-1.37252 0,-0.62012 0.2067,-1.17822 0.20671,-0.55811 0.61185,-0.98392 0.39274,-0.41755 0.96325,-0.65733 0.57464,-0.24391 1.28571,-0.24391 1.0418,0 1.59164,0.49196 0.55397,0.48782 0.55397,1.35185 z m -1.93477,1.52136 q 0.19017,-0.28939 0.28525,-0.63252 0.0992,-0.34313 0.0992,-0.83509 0,-0.42582 -0.18603,-0.65319 -0.18604,-0.23151 -0.59118,-0.23151 -0.31419,0 -0.55397,0.15296 -0.23565,0.15296 -0.41755,0.43408 -0.1695,0.26045 -0.26872,0.64492 -0.0951,0.38448 -0.0951,0.78962 0,0.47542 0.21084,0.68213 0.21084,0.20257 0.57878,0.20257 0.26871,0 0.51676,-0.14469 0.24805,-0.14883 0.42168,-0.40928 z" />
      <path
         id="path1027"
         style="font-style:italic;font-variant:normal;font-weight:bold;font-stretch:normal;font-size:8.46667px;line-height:1.25;font-family:sans-serif;-inkscape-font-specification:'sans-serif Bold';fill:#ffffff;fill-opacity:1;stroke-width:0.264583"
         d="m 216.44212,276.18432 -1.07487,4.64261 h -1.49655 l 0.11989,-0.51263 q -0.22324,0.1447 -0.43821,0.27286 -0.21084,0.12402 -0.40101,0.19843 -0.23978,0.0992 -0.43822,0.1323 -0.19844,0.0372 -0.39274,0.0372 -0.61185,0 -0.96738,-0.29352 -0.3514,-0.29352 -0.3514,-0.86816 0,-0.1571 0.0165,-0.28939 0.0165,-0.13643 0.0538,-0.29766 l 0.69866,-3.02204 h 1.50482 l -0.5333,2.30271 q -0.062,0.26458 -0.0951,0.45475 -0.0289,0.19017 -0.0289,0.32246 0,0.27285 0.13229,0.39687 0.13229,0.11989 0.50023,0.11989 0.1819,0 0.41754,-0.0785 0.23978,-0.0785 0.51677,-0.22738 l 0.76067,-3.29076 z" />
      <path
         id="path1029"
         style="font-style:italic;font-variant:normal;font-weight:bold;font-stretch:normal;font-size:8.46667px;line-height:1.25;font-family:sans-serif;-inkscape-font-specification:'sans-serif Bold';fill:#ffffff;fill-opacity:1;stroke-width:0.264583"
         d="m 222.78384,274.39425 -1.48828,6.43268 h -1.49655 l 0.11162,-0.48369 q -0.21497,0.13643 -0.38033,0.24805 -0.16124,0.10749 -0.35967,0.19844 -0.18604,0.0827 -0.36794,0.12402 -0.17777,0.0413 -0.42995,0.0413 -0.67386,0 -1.079,-0.43821 -0.40101,-0.43822 -0.40101,-1.24437 0,-0.66146 0.21084,-1.24024 0.21497,-0.58291 0.58704,-1.02939 0.36381,-0.43408 0.8599,-0.6904 0.49609,-0.25632 1.03766,-0.25632 0.38034,0 0.66146,0.0786 0.28112,0.0744 0.57878,0.23565 l 0.45888,-1.97611 z m -2.16214,2.87321 q -0.11989,-0.0579 -0.31419,-0.10335 -0.1943,-0.0496 -0.34313,-0.0496 -0.35554,0 -0.64079,0.15709 -0.28525,0.1571 -0.48369,0.42995 -0.17777,0.24392 -0.28112,0.62425 -0.10335,0.37621 -0.10335,0.72761 0,0.41754 0.1943,0.60771 0.1943,0.19017 0.59118,0.19017 0.20257,0 0.42581,-0.0909 0.22738,-0.091 0.42995,-0.21497 z" />
      <path
         id="path1031"
         style="font-style:italic;font-variant:normal;font-weight:bold;font-stretch:normal;font-size:8.46667px;line-height:1.25;font-family:sans-serif;-inkscape-font-specification:'sans-serif Bold';fill:#ffffff;fill-opacity:1;stroke-width:0.264583"
         d="m 232.69333,274.67124 -2.9931,6.15569 h -1.70326 l -0.26458,-4.08037 -1.99678,4.08037 h -1.7694 l -0.28112,-6.15569 h 1.65778 l 0.0124,4.23746 2.06706,-4.23746 h 1.58336 l 0.18604,4.23746 1.88516,-4.23746 z" />
      <path
         id="path1033"
         style="font-style:italic;font-variant:normal;font-weight:bold;font-stretch:normal;font-size:8.46667px;line-height:1.25;font-family:sans-serif;-inkscape-font-specification:'sans-serif Bold';fill:#ffffff;fill-opacity:1;stroke-width:0.264583"
         d="m 235.57067,278.63585 q -0.39688,0.0331 -0.74414,0.0786 -0.34727,0.0455 -0.59118,0.13229 -0.25218,0.0909 -0.38447,0.25632 -0.13229,0.16536 -0.13229,0.43821 0,0.23978 0.17363,0.339 0.17777,0.0951 0.51263,0.0951 0.21911,0 0.46715,-0.0992 0.25218,-0.10335 0.47129,-0.26045 z m -0.39274,1.69912 q -0.14056,0.091 -0.339,0.21911 -0.19844,0.12816 -0.36794,0.20257 -0.23151,0.0951 -0.43408,0.1447 -0.20257,0.0496 -0.56224,0.0496 -0.57877,0 -0.94671,-0.32246 -0.3638,-0.3266 -0.3638,-0.8475 0,-0.54983 0.26045,-0.93017 0.26045,-0.38448 0.77308,-0.61185 0.47955,-0.21498 1.14101,-0.31006 0.6656,-0.0951 1.43868,-0.14056 0.004,-0.0248 0.0165,-0.0786 0.0124,-0.0579 0.0124,-0.12816 0,-0.29352 -0.27285,-0.40927 -0.27285,-0.11989 -0.81442,-0.11989 -0.36793,0 -0.81442,0.12402 -0.44235,0.12402 -0.66559,0.20671 h -0.13643 l 0.21911,-1.09968 q 0.26045,-0.0661 0.80615,-0.14883 0.54571,-0.0827 1.08728,-0.0827 1.0914,0 1.5999,0.28525 0.51263,0.28526 0.51263,0.88471 0,0.0827 -0.0165,0.21497 -0.0124,0.13229 -0.0372,0.23151 l -0.72761,3.15846 h -1.48001 z" />
      <path
         id="path1035"
         style="font-style:italic;font-variant:normal;font-weight:bold;font-stretch:normal;font-size:8.46667px;line-height:1.25;font-family:sans-serif;-inkscape-font-specification:'sans-serif Bold';fill:#ffffff;fill-opacity:1;stroke-width:0.264583"
         d="m 239.68825,280.91789 q -0.77308,0 -1.10381,-0.25219 -0.33073,-0.25631 -0.33073,-0.75654 0,-0.13229 0.0207,-0.25631 0.0207,-0.12403 0.0537,-0.28939 l 0.50436,-2.19935 h -0.61185 l 0.22738,-0.97979 h 0.61184 l 0.30593,-1.32705 h 1.49241 l -0.30592,1.32705 h 1.39733 l -0.22737,0.97979 h -1.39734 l -0.38447,1.67431 q -0.0413,0.17364 -0.0785,0.3514 -0.0372,0.17364 -0.0372,0.29766 0,0.24805 0.13642,0.34727 0.14056,0.0951 0.42995,0.0951 0.11575,0 0.30179,-0.0413 0.19017,-0.0455 0.30179,-0.0992 h 0.12402 l -0.23151,0.99632 q -0.25218,0.062 -0.5333,0.0951 -0.27698,0.0372 -0.66559,0.0372 z" />
      <path
         id="path1037"
         style="font-style:italic;font-variant:normal;font-weight:bold;font-stretch:normal;font-size:8.46667px;line-height:1.25;font-family:sans-serif;-inkscape-font-specification:'sans-serif Bold';fill:#ffffff;fill-opacity:1;stroke-width:0.264583"
         d="m 244.15723,280.95096 q -0.47542,0 -0.89297,-0.11989 -0.41341,-0.11576 -0.72347,-0.3638 -0.30179,-0.24392 -0.47129,-0.61185 -0.1695,-0.36794 -0.1695,-0.85163 0,-0.62425 0.23565,-1.15755 0.23978,-0.53744 0.66972,-0.93845 0.42168,-0.39274 1.0294,-0.62011 0.60771,-0.23152 1.31465,-0.23152 0.42581,0 0.84336,0.0951 0.42168,0.0951 0.78135,0.27699 l -0.3142,1.26917 h -0.21084 q -0.24391,-0.29352 -0.55397,-0.43408 -0.30592,-0.1447 -0.6904,-0.1447 -0.7028,0 -1.12861,0.50023 -0.42581,0.49609 -0.42581,1.24024 0,0.51676 0.26045,0.77308 0.26458,0.25631 0.81855,0.25631 0.42995,0 0.78135,-0.17363 0.35553,-0.17777 0.60771,-0.39274 h 0.21084 l -0.31419,1.26917 q -0.44648,0.1943 -0.78548,0.27699 -0.33486,0.0827 -0.8723,0.0827 z" />
      <path
         id="path1039"
         style="font-style:italic;font-variant:normal;font-weight:bold;font-stretch:normal;font-size:8.46667px;line-height:1.25;font-family:sans-serif;-inkscape-font-specification:'sans-serif Bold';fill:#ffffff;fill-opacity:1;stroke-width:0.264583"
         d="m 252.17742,277.23439 q 0,0.0992 -0.0165,0.25631 -0.0165,0.1571 -0.0537,0.3142 l -0.69867,3.02203 h -1.50482 l 0.5333,-2.3027 q 0.0579,-0.26458 0.091,-0.44648 0.0331,-0.1819 0.0331,-0.3266 0,-0.27698 -0.14056,-0.39687 -0.13643,-0.12403 -0.50023,-0.12403 -0.17777,0 -0.40928,0.0786 -0.23151,0.0744 -0.51676,0.22738 l -0.76068,3.29075 h -1.49655 l 1.48415,-6.43268 h 1.49655 l -0.52917,2.3027 q 0.45475,-0.30179 0.83509,-0.47129 0.38034,-0.1695 0.83509,-0.1695 0.63252,0 0.97566,0.31006 0.34313,0.30593 0.34313,0.86817 z" />
    </g>
    <text
       id="text827-9"
       y="268.31384"
       x="111.59332"
       style="font-style:normal;font-weight:normal;font-size:9.87777px;line-height:1.25;font-family:sans-serif;letter-spacing:0px;word-spacing:0px;fill:#000000;fill-opacity:1;stroke:none;stroke-width:0.264583"
       xml:space="preserve"><tspan
         id="tspan833"
         style="font-style:normal;font-variant:normal;font-weight:bold;font-stretch:normal;font-size:11.2889px;line-height:1.25;font-family:sans-serif;-inkscape-font-specification:'sans-serif Bold';fill:#ffffff;fill-opacity:1;stroke-width:0.264583"
         y="268.31384"
         x="111.59332"
         sodipodi:role="line">Next Tutorial</tspan></text>
  </g>
</svg>
