<svg xmlns="http://www.w3.org/2000/svg" xmlns:xlink="http://www.w3.org/1999/xlink" xmlns:lucid="lucid" width="1090" height="481.6"><g transform="translate(-570 -240)" lucid:page-tab-id="0_0"><path d="M1156 260c24.3 0 44 17.9 44 40s-19.7 40-44 40h-132c-24.3 0-44-17.9-44-40s19.7-40 44-40z" stroke="#000" stroke-width="2" fill="#7ab648"/><use xlink:href="#a" transform="matrix(1,0,0,1,985,265) translate(38.20499999999999 27.525)"/><use xlink:href="#b" transform="matrix(1,0,0,1,985,265) translate(84.005 27.525)"/><use xlink:href="#c" transform="matrix(1,0,0,1,985,265) translate(65.155 49.125)"/><path d="M1090 342v43H850v25.5" stroke="#000" stroke-width="2" fill="none"/><path d="M1091 342.03h-2V341h2z"/><path d="M850 425.76l-4.64-14.26h9.28z" stroke="#000" stroke-width="2"/><use xlink:href="#d" transform="matrix(1,0,0,1,1045.037037037037,389) translate(0 21.333333333333336)"/><path d="M916 430c24.3 0 44 17.9 44 40s-19.7 40-44 40H784c-24.3 0-44-17.9-44-40s19.7-40 44-40z" stroke="#000" stroke-width="2" fill="#ef8d22"/><use xlink:href="#e" transform="matrix(1,0,0,1,745,435) translate(5.204999999999993 27.525)"/><use xlink:href="#b" transform="matrix(1,0,0,1,745,435) translate(117.00500000000001 27.525)"/><use xlink:href="#f" transform="matrix(1,0,0,1,745,435) translate(57.654999999999994 49.125)"/><use xlink:href="#g" transform="matrix(1,0,0,1,745,435) translate(142.35500000000002 49.125)"/><path d="M718 621.6c17.67 0 32 17.9 32 40s-14.33 40-32 40h-96c-17.67 0-32-17.9-32-40s14.33-40 32-40z" stroke="#000" stroke-width="2" fill="#ffc374"/><use xlink:href="#h" transform="matrix(1,0,0,1,595,626.5999999999999) translate(38.525 38.4625)"/><use xlink:href="#i" transform="matrix(1,0,0,1,595,626.5999999999999) translate(101.475 38.4625)"/><path d="M898 621.6c17.67 0 32 17.9 32 40s-14.33 40-32 40h-96c-17.67 0-32-17.9-32-40s14.33-40 32-40z" stroke="#000" stroke-width="2" fill="#ffc374"/><use xlink:href="#h" transform="matrix(1,0,0,1,775,626.5999999999999) translate(38.525 38.4625)"/><use xlink:href="#j" transform="matrix(1,0,0,1,775,626.5999999999999) translate(101.475 38.4625)"/><path d="M1078 621.6c17.67 0 32 17.9 32 40s-14.33 40-32 40h-96c-17.67 0-32-17.9-32-40s14.33-40 32-40z" stroke="#000" stroke-width="2" fill="#ffc374"/><use xlink:href="#h" transform="matrix(1,0,0,1,955,626.5999999999999) translate(38.525 38.4625)"/><use xlink:href="#k" transform="matrix(1,0,0,1,955,626.5999999999999) translate(101.475 38.4625)"/><path d="M850 512v53.8H670v36.3" stroke="#000" stroke-width="2" fill="none"/><path d="M851 512.03h-2V511h2z"/><path d="M670 617.36l-4.64-14.26h9.28z" stroke="#000" stroke-width="2"/><path d="M850 512v90.1" stroke="#000" stroke-width="2" fill="none"/><path d="M851 512.03h-2V511h2z"/><path d="M850 617.36l-4.64-14.26h9.28z" stroke="#000" stroke-width="2"/><path d="M850 512v53.8h180v36.3" stroke="#000" stroke-width="2" fill="none"/><path d="M851 512.03h-2V511h2z"/><path d="M1030 617.36l-4.64-14.26h9.28z" stroke="#000" stroke-width="2"/><path d="M1446 430c24.3 0 44 17.9 44 40s-19.7 40-44 40h-132c-24.3 0-44-17.9-44-40s19.7-40 44-40z" stroke="#000" stroke-width="2" fill="#0c7cba"/><use xlink:href="#e" transform="matrix(1,0,0,1,1275,435) translate(5.204999999999993 27.525)"/><use xlink:href="#b" transform="matrix(1,0,0,1,1275,435) translate(117.00500000000001 27.525)"/><use xlink:href="#f" transform="matrix(1,0,0,1,1275,435) translate(57.654999999999994 49.125)"/><use xlink:href="#l" transform="matrix(1,0,0,1,1275,435) translate(142.35500000000002 49.125)"/><path d="M1248 621.6c17.67 0 32 17.9 32 40s-14.33 40-32 40h-96c-17.67 0-32-17.9-32-40s14.33-40 32-40z" stroke="#000" stroke-width="2" fill="#83bbe5"/><use xlink:href="#h" transform="matrix(1,0,0,1,1125,626.5999999999999) translate(38.525 38.4625)"/><use xlink:href="#m" transform="matrix(1,0,0,1,1125,626.5999999999999) translate(101.475 38.4625)"/><path d="M1428 621.6c17.67 0 32 17.9 32 40s-14.33 40-32 40h-96c-17.67 0-32-17.9-32-40s14.33-40 32-40z" stroke="#000" stroke-width="2" fill="#83bbe5"/><use xlink:href="#h" transform="matrix(1,0,0,1,1305,626.5999999999999) translate(38.525 38.4625)"/><use xlink:href="#n" transform="matrix(1,0,0,1,1305,626.5999999999999) translate(101.475 38.4625)"/><path d="M1608 621.6c17.67 0 32 17.9 32 40s-14.33 40-32 40h-96c-17.67 0-32-17.9-32-40s14.33-40 32-40z" stroke="#000" stroke-width="2" fill="#83bbe5"/><use xlink:href="#h" transform="matrix(1,0,0,1,1485,626.5999999999999) translate(38.525 38.4625)"/><use xlink:href="#o" transform="matrix(1,0,0,1,1485,626.5999999999999) translate(101.475 38.4625)"/><path d="M1380 512v53.8h-180v36.3" stroke="#000" stroke-width="2" fill="none"/><path d="M1381 512.03h-2V511h2z"/><path d="M1200 617.36l-4.64-14.26h9.28z" stroke="#000" stroke-width="2"/><path d="M1380 512v90.1" stroke="#000" stroke-width="2" fill="none"/><path d="M1381 512.03h-2V511h2z"/><path d="M1380 617.36l-4.64-14.26h9.28z" stroke="#000" stroke-width="2"/><path d="M1380 512v53.8h180v36.3" stroke="#000" stroke-width="2" fill="none"/><path d="M1381 512.03h-2V511h2z"/><path d="M1560 617.36l-4.64-14.26h9.28z" stroke="#000" stroke-width="2"/><path d="M1090 342v43h290v25.5" stroke="#000" stroke-width="2" fill="none"/><path d="M1091 342.03h-2V341h2z"/><path d="M1380 425.76l-4.64-14.26h9.28z" stroke="#000" stroke-width="2"/><defs><path d="M240-174c0 40-23 61-54 70L253 0h-59l-57-94H76V0H24v-248c93 4 217-23 216 74zM76-134c48-2 112 12 112-38 0-48-66-32-112-35v73" id="p"/><path d="M110-194c64 0 96 36 96 99 0 64-35 99-97 99-61 0-95-36-95-99 0-62 34-99 96-99zm-1 164c35 0 45-28 45-65 0-40-10-65-43-65-34 0-45 26-45 65 0 36 10 65 43 65" id="q"/><path d="M115-3C79 11 28 4 28-45v-112H4v-33h27l15-45h31v45h36v33H77v99c-1 23 16 31 38 25v30" id="r"/><g id="a"><use transform="matrix(0.05,0,0,0.05,0,0)" xlink:href="#p"/><use transform="matrix(0.05,0,0,0.05,12.950000000000001,0)" xlink:href="#q"/><use transform="matrix(0.05,0,0,0.05,23.900000000000002,0)" xlink:href="#q"/><use transform="matrix(0.05,0,0,0.05,34.85,0)" xlink:href="#r"/></g><path d="M67-125c0 53 21 87 73 88 37 1 54-22 65-47l45 17C233-25 199 4 140 4 58 4 20-42 15-125 8-235 124-281 211-232c18 10 29 29 36 50l-46 12c-8-25-30-41-62-41-52 0-71 34-72 86" id="s"/><path d="M185-48c-13 30-37 53-82 52C43 2 14-33 14-96s30-98 90-98c62 0 83 45 84 108H66c0 31 8 55 39 56 18 0 30-7 34-22zm-45-69c5-46-57-63-70-21-2 6-4 13-4 21h74" id="t"/><path d="M135-150c-39-12-60 13-60 57V0H25l-1-190h47c2 13-1 29 3 40 6-28 27-53 61-41v41" id="u"/><path d="M25-224v-37h50v37H25zM25 0v-190h50V0H25" id="v"/><path d="M121-226c-27-7-43 5-38 36h38v33H83V0H34v-157H6v-33h28c-9-59 32-81 87-68v32" id="w"/><path d="M190-63c-7 42-38 67-86 67-59 0-84-38-90-98-12-110 154-137 174-36l-49 2c-2-19-15-32-35-32-30 0-35 28-38 64-6 74 65 87 74 30" id="x"/><path d="M133-34C117-15 103 5 69 4 32 3 11-16 11-54c-1-60 55-63 116-61 1-26-3-47-28-47-18 1-26 9-28 27l-52-2c7-38 36-58 82-57s74 22 75 68l1 82c-1 14 12 18 25 15v27c-30 8-71 5-69-32zm-48 3c29 0 43-24 42-57-32 0-66-3-65 30 0 17 8 27 23 27" id="y"/><g id="b"><use transform="matrix(0.05,0,0,0.05,0,0)" xlink:href="#s"/><use transform="matrix(0.05,0,0,0.05,12.950000000000001,0)" xlink:href="#t"/><use transform="matrix(0.05,0,0,0.05,22.950000000000003,0)" xlink:href="#u"/><use transform="matrix(0.05,0,0,0.05,29.950000000000003,0)" xlink:href="#r"/><use transform="matrix(0.05,0,0,0.05,35.900000000000006,0)" xlink:href="#v"/><use transform="matrix(0.05,0,0,0.05,40.900000000000006,0)" xlink:href="#w"/><use transform="matrix(0.05,0,0,0.05,46.85000000000001,0)" xlink:href="#v"/><use transform="matrix(0.05,0,0,0.05,51.85,0)" xlink:href="#x"/><use transform="matrix(0.05,0,0,0.05,61.85,0)" xlink:href="#y"/><use transform="matrix(0.05,0,0,0.05,71.85000000000001,0)" xlink:href="#r"/><use transform="matrix(0.05,0,0,0.05,77.80000000000001,0)" xlink:href="#t"/></g><path d="M199 0l-22-63H83L61 0H9l90-248h61L250 0h-51zm-33-102l-36-108c-10 38-24 72-36 108h72" id="z"/><path d="M85 4C-2 5 27-109 22-190h50c7 57-23 150 33 157 60-5 35-97 40-157h50l1 190h-47c-2-12 1-28-3-38-12 25-28 42-61 42" id="A"/><path d="M114-157C55-157 80-60 75 0H25v-261h50l-1 109c12-26 28-41 61-42 86-1 58 113 63 194h-50c-7-57 23-157-34-157" id="B"/><path d="M123 10C108 53 80 86 19 72V37c35 8 53-11 59-39L3-190h52l48 148c12-52 28-100 44-148h51" id="C"/><g id="c"><use transform="matrix(0.05,0,0,0.05,0,0)" xlink:href="#z"/><use transform="matrix(0.05,0,0,0.05,12.950000000000001,0)" xlink:href="#A"/><use transform="matrix(0.05,0,0,0.05,23.900000000000002,0)" xlink:href="#r"/><use transform="matrix(0.05,0,0,0.05,29.85,0)" xlink:href="#B"/><use transform="matrix(0.05,0,0,0.05,40.800000000000004,0)" xlink:href="#q"/><use transform="matrix(0.05,0,0,0.05,51.75,0)" xlink:href="#u"/><use transform="matrix(0.05,0,0,0.05,58.75,0)" xlink:href="#v"/><use transform="matrix(0.05,0,0,0.05,63.75,0)" xlink:href="#r"/><use transform="matrix(0.05,0,0,0.05,69.7,0)" xlink:href="#C"/></g><path d="M136-208V0H84v-208H4v-40h212v40h-80" id="D"/><path d="M238-95c0 69-44 99-111 99C63 4 22-25 22-93v-155h51v151c-1 38 19 59 55 60 90 1 49-130 58-211h52v153" id="E"/><path d="M169-182c-1-43-94-46-97-3 18 66 151 10 154 114 3 95-165 93-204 36-6-8-10-19-12-30l50-8c3 46 112 56 116 5-17-69-150-10-154-114-4-87 153-88 188-35 5 8 8 18 10 28" id="F"/><g id="d"><use transform="matrix(0.07407407407407408,0,0,0.07407407407407408,0,0)" xlink:href="#D"/><use transform="matrix(0.07407407407407408,0,0,0.07407407407407408,16.222222222222225,0)" xlink:href="#p"/><use transform="matrix(0.07407407407407408,0,0,0.07407407407407408,35.40740740740741,0)" xlink:href="#E"/><use transform="matrix(0.07407407407407408,0,0,0.07407407407407408,54.59259259259259,0)" xlink:href="#F"/><use transform="matrix(0.07407407407407408,0,0,0.07407407407407408,72.37037037037038,0)" xlink:href="#D"/></g><path d="M24 0v-248h52V0H24" id="G"/><path d="M135-194c87-1 58 113 63 194h-50c-7-57 23-157-34-157-59 0-34 97-39 157H25l-1-190h47c2 12-1 28 3 38 12-26 28-41 61-42" id="H"/><path d="M220-157c-53 9-28 100-34 157h-49v-107c1-27-5-49-29-50C55-147 81-57 75 0H25l-1-190h47c2 12-1 28 3 38 10-53 101-56 108 0 13-22 24-43 59-42 82 1 51 116 57 194h-49v-107c-1-25-5-48-29-50" id="I"/><path d="M88-194c31-1 46 15 58 34l-1-101h50l1 261h-48c-2-10 0-23-3-31C134-8 116 4 84 4 32 4 16-41 15-95c0-56 19-97 73-99zm17 164c33 0 40-30 41-66 1-37-9-64-41-64s-38 30-39 65c0 43 13 65 39 65" id="J"/><g id="e"><use transform="matrix(0.05,0,0,0.05,0,0)" xlink:href="#G"/><use transform="matrix(0.05,0,0,0.05,5,0)" xlink:href="#H"/><use transform="matrix(0.05,0,0,0.05,15.950000000000001,0)" xlink:href="#r"/><use transform="matrix(0.05,0,0,0.05,21.900000000000002,0)" xlink:href="#t"/><use transform="matrix(0.05,0,0,0.05,31.900000000000002,0)" xlink:href="#u"/><use transform="matrix(0.05,0,0,0.05,38.900000000000006,0)" xlink:href="#I"/><use transform="matrix(0.05,0,0,0.05,54.900000000000006,0)" xlink:href="#t"/><use transform="matrix(0.05,0,0,0.05,64.9,0)" xlink:href="#J"/><use transform="matrix(0.05,0,0,0.05,75.85000000000001,0)" xlink:href="#v"/><use transform="matrix(0.05,0,0,0.05,80.85000000000001,0)" xlink:href="#y"/><use transform="matrix(0.05,0,0,0.05,90.85000000000001,0)" xlink:href="#r"/><use transform="matrix(0.05,0,0,0.05,96.80000000000001,0)" xlink:href="#t"/></g><g id="f"><use transform="matrix(0.05,0,0,0.05,0,0)" xlink:href="#z"/><use transform="matrix(0.05,0,0,0.05,12.950000000000001,0)" xlink:href="#A"/><use transform="matrix(0.05,0,0,0.05,23.900000000000002,0)" xlink:href="#r"/><use transform="matrix(0.05,0,0,0.05,29.85,0)" xlink:href="#B"/><use transform="matrix(0.05,0,0,0.05,40.800000000000004,0)" xlink:href="#q"/><use transform="matrix(0.05,0,0,0.05,51.75,0)" xlink:href="#u"/><use transform="matrix(0.05,0,0,0.05,58.75,0)" xlink:href="#v"/><use transform="matrix(0.05,0,0,0.05,63.75,0)" xlink:href="#r"/><use transform="matrix(0.05,0,0,0.05,69.7,0)" xlink:href="#C"/></g><path d="M23 0v-37h61v-169l-59 37v-38l62-41h46v211h57V0H23" id="K"/><use transform="matrix(0.05,0,0,0.05,0,0)" xlink:href="#K" id="g"/><path d="M24-248c120-7 223 5 221 122C244-46 201 0 124 0H24v-248zM76-40c74 7 117-18 117-86 0-67-45-88-117-82v168" id="L"/><path d="M128 0H69L1-190h53L99-40l48-150h52" id="M"/><g id="h"><use transform="matrix(0.05,0,0,0.05,0,0)" xlink:href="#L"/><use transform="matrix(0.05,0,0,0.05,12.950000000000001,0)" xlink:href="#t"/><use transform="matrix(0.05,0,0,0.05,22.950000000000003,0)" xlink:href="#M"/><use transform="matrix(0.05,0,0,0.05,32.95,0)" xlink:href="#v"/><use transform="matrix(0.05,0,0,0.05,37.95,0)" xlink:href="#x"/><use transform="matrix(0.05,0,0,0.05,47.95,0)" xlink:href="#t"/></g><use transform="matrix(0.05,0,0,0.05,0,0)" xlink:href="#K" id="i"/><path d="M182-182c0 78-84 86-111 141h115V0H12c-6-101 99-100 120-180 1-22-12-31-33-32-23 0-32 14-35 34l-49-3c5-45 32-70 84-70 51 0 83 22 83 69" id="N"/><use transform="matrix(0.05,0,0,0.05,0,0)" xlink:href="#N" id="j"/><path d="M128-127c34 4 56 21 59 58 7 91-148 94-172 28-4-9-6-17-7-26l51-5c1 24 16 35 40 36 23 0 39-12 38-36-1-31-31-36-65-34v-40c32 2 59-3 59-33 0-20-13-33-34-33s-33 13-35 32l-50-3c6-44 37-68 86-68 50 0 83 20 83 66 0 35-22 52-53 58" id="O"/><use transform="matrix(0.05,0,0,0.05,0,0)" xlink:href="#O" id="k"/><use transform="matrix(0.05,0,0,0.05,0,0)" xlink:href="#N" id="l"/><path d="M165-50V0h-47v-50H5v-38l105-160h55v161h33v37h-33zm-47-37l2-116L46-87h72" id="P"/><use transform="matrix(0.05,0,0,0.05,0,0)" xlink:href="#P" id="m"/><path d="M139-81c0-46-55-55-73-27H18l9-140h149v37H72l-4 63c44-38 133-4 122 66C201 21 21 35 11-62l49-4c5 18 15 30 39 30 26 0 40-18 40-45" id="Q"/><use transform="matrix(0.05,0,0,0.05,0,0)" xlink:href="#Q" id="n"/><path d="M115-159c48 0 72 30 72 78 0 54-30 85-83 85-64 0-91-50-91-122 0-98 58-163 141-120 15 8 21 24 27 44l-47 6c-5-31-48-31-61-4-7 14-11 33-11 60 9-17 28-27 53-27zM102-35c24 0 36-20 36-45s-11-43-37-43c-23 0-36 14-36 38 0 27 11 50 37 50" id="R"/><use transform="matrix(0.05,0,0,0.05,0,0)" xlink:href="#R" id="o"/></defs></g></svg>