<?xml version="1.0" encoding="UTF-8" standalone="no"?>
<svg
   xmlns:dc="http://purl.org/dc/elements/1.1/"
   xmlns:cc="http://creativecommons.org/ns#"
   xmlns:rdf="http://www.w3.org/1999/02/22-rdf-syntax-ns#"
   xmlns:svg="http://www.w3.org/2000/svg"
   xmlns="http://www.w3.org/2000/svg"
   xmlns:sodipodi="http://sodipodi.sourceforge.net/DTD/sodipodi-0.dtd"
   xmlns:inkscape="http://www.inkscape.org/namespaces/inkscape"
   sodipodi:docname="application_example_aws_flowchart.svg"
   inkscape:version="1.0 (4035a4fb49, 2020-05-01)"
   id="svg8"
   version="1.1"
   viewBox="0 0 546.1813 193.14988"
   height="730.01526"
   width="2064.3074">
  <defs
     id="defs2">
    <marker
       inkscape:stockid="TriangleOutM"
       orient="auto"
       refY="0"
       refX="0"
       id="marker2833"
       style="overflow:visible"
       inkscape:isstock="true">
      <path
         id="path2831"
         d="M 5.77,0 -2.88,5 V -5 Z"
         style="fill:#545b64;fill-opacity:1;fill-rule:evenodd;stroke:#545b64;stroke-width:1pt;stroke-opacity:1"
         transform="scale(0.4)" />
    </marker>
    <marker
       inkscape:isstock="true"
       style="overflow:visible"
       id="marker2550"
       refX="0"
       refY="0"
       orient="auto"
       inkscape:stockid="TriangleOutM"
       inkscape:collect="always">
      <path
         transform="scale(0.4)"
         style="fill:#545b64;fill-opacity:1;fill-rule:evenodd;stroke:#545b64;stroke-width:1pt;stroke-opacity:1"
         d="M 5.77,0 -2.88,5 V -5 Z"
         id="path2548" />
    </marker>
    <marker
       inkscape:stockid="TriangleInM"
       orient="auto"
       refY="0"
       refX="0"
       id="marker2540"
       style="overflow:visible"
       inkscape:isstock="true">
      <path
         id="path2538"
         d="M 5.77,0 -2.88,5 V -5 Z"
         style="fill:#545b64;fill-opacity:1;fill-rule:evenodd;stroke:#545b64;stroke-width:1pt;stroke-opacity:1"
         transform="scale(-0.4)" />
    </marker>
    <marker
       inkscape:stockid="TriangleOutM"
       orient="auto"
       refY="0"
       refX="0"
       id="marker2362"
       style="overflow:visible"
       inkscape:isstock="true"
       inkscape:collect="always">
      <path
         id="path2360"
         d="M 5.77,0 -2.88,5 V -5 Z"
         style="fill:#545b64;fill-opacity:1;fill-rule:evenodd;stroke:#545b64;stroke-width:1pt;stroke-opacity:1"
         transform="scale(0.4)" />
    </marker>
    <marker
       inkscape:isstock="true"
       style="overflow:visible"
       id="marker2352"
       refX="0"
       refY="0"
       orient="auto"
       inkscape:stockid="TriangleInM"
       inkscape:collect="always">
      <path
         transform="scale(-0.4)"
         style="fill:#545b64;fill-opacity:1;fill-rule:evenodd;stroke:#545b64;stroke-width:1pt;stroke-opacity:1"
         d="M 5.77,0 -2.88,5 V -5 Z"
         id="path2350" />
    </marker>
    <marker
       inkscape:stockid="TriangleOutM"
       orient="auto"
       refY="0"
       refX="0"
       id="marker1956"
       style="overflow:visible"
       inkscape:isstock="true">
      <path
         id="path1954"
         d="M 5.77,0 -2.88,5 V -5 Z"
         style="fill:#545b64;fill-opacity:1;fill-rule:evenodd;stroke:#545b64;stroke-width:1pt;stroke-opacity:1"
         transform="scale(0.4)" />
    </marker>
    <marker
       inkscape:isstock="true"
       style="overflow:visible"
       id="marker1946"
       refX="0"
       refY="0"
       orient="auto"
       inkscape:stockid="TriangleInM">
      <path
         transform="scale(-0.4)"
         style="fill:#545b64;fill-opacity:1;fill-rule:evenodd;stroke:#545b64;stroke-width:1pt;stroke-opacity:1"
         d="M 5.77,0 -2.88,5 V -5 Z"
         id="path1944" />
    </marker>
    <marker
       inkscape:stockid="TriangleInM"
       orient="auto"
       refY="0"
       refX="0"
       id="TriangleInM"
       style="overflow:visible"
       inkscape:isstock="true"
       inkscape:collect="always">
      <path
         id="path1610"
         d="M 5.77,0 -2.88,5 V -5 Z"
         style="fill:#545b64;fill-opacity:1;fill-rule:evenodd;stroke:#545b64;stroke-width:1pt;stroke-opacity:1"
         transform="scale(-0.4)" />
    </marker>
    <marker
       inkscape:isstock="true"
       style="overflow:visible"
       id="marker1406"
       refX="0"
       refY="0"
       orient="auto"
       inkscape:stockid="TriangleOutM">
      <path
         transform="scale(0.4)"
         style="fill:#545b64;fill-opacity:1;fill-rule:evenodd;stroke:#545b64;stroke-width:1pt;stroke-opacity:1"
         d="M 5.77,0 -2.88,5 V -5 Z"
         id="path1404" />
    </marker>
    <marker
       inkscape:isstock="true"
       style="overflow:visible"
       id="marker1214"
       refX="0"
       refY="0"
       orient="auto"
       inkscape:stockid="TriangleOutM"
       inkscape:collect="always">
      <path
         transform="scale(0.4)"
         style="fill:#545b64;fill-opacity:1;fill-rule:evenodd;stroke:#545b64;stroke-width:1pt;stroke-opacity:1"
         d="M 5.77,0 -2.88,5 V -5 Z"
         id="path1212" />
    </marker>
    <marker
       inkscape:isstock="true"
       style="overflow:visible"
       id="marker1598"
       refX="0"
       refY="0"
       orient="auto"
       inkscape:stockid="TriangleOutM">
      <path
         transform="scale(0.4)"
         style="fill:#545b64;fill-opacity:1;fill-rule:evenodd;stroke:#545b64;stroke-width:1pt;stroke-opacity:1"
         d="M 5.77,0 -2.88,5 V -5 Z"
         id="path1596" />
    </marker>
    <marker
       inkscape:isstock="true"
       style="overflow:visible"
       id="marker1458"
       refX="0"
       refY="0"
       orient="auto"
       inkscape:stockid="TriangleOutM">
      <path
         transform="scale(0.4)"
         style="fill:#000000;fill-opacity:1;fill-rule:evenodd;stroke:#000000;stroke-width:1pt;stroke-opacity:1"
         d="M 5.77,0 -2.88,5 V -5 Z"
         id="path1456" />
    </marker>
    <marker
       inkscape:isstock="true"
       style="overflow:visible"
       id="marker1448"
       refX="0"
       refY="0"
       orient="auto"
       inkscape:stockid="TriangleOutM">
      <path
         transform="scale(0.4)"
         style="fill:#000000;fill-opacity:1;fill-rule:evenodd;stroke:#000000;stroke-width:1pt;stroke-opacity:1"
         d="M 5.77,0 -2.88,5 V -5 Z"
         id="path1446" />
    </marker>
    <style
       id="style833">.cls-1{fill:#232f3e;}.cls-2,.cls-3{fill:#fff;}.cls-3{fill-rule:evenodd;}</style>
    <style
       id="style870">.cls-1{fill:#3f8624;}.cls-2{fill:#fff;}</style>
    <style
       id="style895">.cls-1{fill:#3f8624;}</style>
    <style
       id="style958">.cls-1{fill:#3f8624;}</style>
    <clipPath
       clipPathUnits="userSpaceOnUse"
       id="clipEmfPath1">
      <path
         d="M 5.2768019,4.6371896 H 167.09873 V 40.615385 H 5.2768019 Z"
         id="path1734" />
    </clipPath>
    <pattern
       id="EMFhbasepattern"
       patternUnits="userSpaceOnUse"
       width="6"
       height="6"
       x="0"
       y="0" />
    <pattern
       id="EMFhbasepattern-9"
       patternUnits="userSpaceOnUse"
       width="6"
       height="6"
       x="0"
       y="0" />
    <pattern
       id="EMFhbasepattern-7"
       patternUnits="userSpaceOnUse"
       width="6"
       height="6"
       x="0"
       y="0" />
    <style
       id="style1810">.cls-1{fill:#3f8624;}</style>
    <style
       id="style2130">.cls-1{fill:#3f8624;}</style>
    <style
       id="style2764">.cls-1{fill:#cc2264;}.cls-2{fill:#fff;}</style>
    <style
       id="style2973">.cls-1{fill:#232f3e;}.cls-2,.cls-3{fill:#fff;}.cls-3{fill-rule:evenodd;}</style>
    <style
       id="style3116">.cls-1{fill:#cd2264;}.cls-2{fill:#fff;}</style>
    <style
       id="style1028">.cls-1{fill:#232f3e;}.cls-2,.cls-3{fill:#fff;}.cls-3{fill-rule:evenodd;}</style>
  </defs>
  <sodipodi:namedview
     fit-margin-bottom="60"
     fit-margin-right="100"
     fit-margin-left="100"
     fit-margin-top="60"
     inkscape:window-maximized="1"
     inkscape:window-y="139"
     inkscape:window-x="-8"
     inkscape:window-height="997"
     inkscape:window-width="1680"
     inkscape:snap-global="true"
     inkscape:snap-page="true"
     inkscape:snap-text-baseline="true"
     inkscape:snap-center="true"
     inkscape:snap-object-midpoints="true"
     inkscape:snap-midpoints="true"
     inkscape:snap-smooth-nodes="true"
     inkscape:snap-intersection-paths="true"
     inkscape:object-paths="true"
     inkscape:snap-bbox-midpoints="true"
     inkscape:snap-bbox-edge-midpoints="true"
     inkscape:bbox-nodes="true"
     inkscape:bbox-paths="true"
     inkscape:snap-bbox="true"
     units="px"
     showgrid="false"
     inkscape:document-rotation="0"
     inkscape:current-layer="layer1"
     inkscape:document-units="mm"
     inkscape:cy="484.84933"
     inkscape:cx="664.53183"
     inkscape:zoom="1.4142136"
     inkscape:pageshadow="2"
     inkscape:pageopacity="0.0"
     borderopacity="1.0"
     bordercolor="#666666"
     pagecolor="#ffffff"
     id="base"
     showguides="false" />
  <metadata
     id="metadata5">
    <rdf:RDF>
      <cc:Work
         rdf:about="">
        <dc:format>image/svg+xml</dc:format>
        <dc:type
           rdf:resource="http://purl.org/dc/dcmitype/StillImage" />
        <dc:title></dc:title>
      </cc:Work>
    </rdf:RDF>
  </metadata>
  <g
     transform="translate(161.3844,56.78773)"
     id="layer1"
     inkscape:groupmode="layer"
     inkscape:label="Layer 1">
    <path
       id="path868"
       d="m 43.680232,-13.553491 v 0.305908 133.205563 H 357.80942 V -40.383565 H 78.21341 70.36788"
       style="fill:none;stroke:#232f3e;stroke-width:1.05833;stroke-linecap:butt;stroke-linejoin:miter;stroke-miterlimit:4;stroke-dasharray:none;stroke-opacity:1"
       sodipodi:nodetypes="ccccccc" />
    <g
       style="fill:#3f8624;fill-opacity:1;stroke-width:0.46498"
       transform="matrix(0.56877954,0,0,0.56925885,-127.80118,37.860989)"
       id="Reference-4">
      <path
         style="fill:#3f8624;fill-opacity:1;stroke-width:0.46498"
         class="cls-1"
         d="m 47.5,37.25 h -45 a 1,1 0 0 1 -1,-1 v -22.5 a 1,1 0 0 1 1,-1 h 45 a 1,1 0 0 1 1,1 v 22.5 a 1,1 0 0 1 -1,1 z m -44,-2 h 43 v -20.5 h -43 z"
         id="path901" />
      <path
         style="fill:#3f8624;fill-opacity:1;stroke-width:0.46498"
         class="cls-1"
         d="m 29.19,10.53 a 4.34,4.34 0 0 0 -8.38,0 L 18.88,10 a 6.33,6.33 0 0 1 12.24,0 z"
         id="path903" />
      <path
         style="fill:#3f8624;fill-opacity:1;stroke-width:0.46498"
         class="cls-1"
         d="m 32.52,8.48 a 8.17,8.17 0 0 0 -15,0 L 15.68,7.69 a 10.17,10.17 0 0 1 18.72,0 z"
         id="path905" />
      <path
         style="fill:#3f8624;fill-opacity:1;stroke-width:0.46498"
         class="cls-1"
         d="M 25,44.68 A 6.31,6.31 0 0 1 18.88,40 l 1.93,-0.51 a 4.34,4.34 0 0 0 8.38,0 L 31.12,40 A 6.31,6.31 0 0 1 25,44.68 Z"
         id="path907" />
      <path
         style="fill:#3f8624;fill-opacity:1;stroke-width:0.46498"
         class="cls-1"
         d="m 25,48.5 a 10.16,10.16 0 0 1 -9.36,-6.19 l 1.84,-0.79 a 8.17,8.17 0 0 0 15,0 l 1.84,0.79 A 10.16,10.16 0 0 1 25,48.5 Z"
         id="path909" />
      <circle
         style="fill:#3f8624;fill-opacity:1;stroke-width:0.46498"
         class="cls-1"
         cx="8.1300001"
         cy="28.280001"
         r="2.3399999"
         id="circle911" />
      <rect
         style="fill:#3f8624;fill-opacity:1;stroke-width:0.46498"
         class="cls-1"
         x="7.1300001"
         y="29.690001"
         width="2"
         height="6.5599999"
         id="rect913" />
      <circle
         style="fill:#3f8624;fill-opacity:1;stroke-width:0.46498"
         class="cls-1"
         cx="9.5500002"
         cy="19.870001"
         r="2.3399999"
         id="circle915" />
      <polygon
         style="fill:#3f8624;fill-opacity:1;stroke-width:0.46498"
         class="cls-1"
         points="14.63,26.35 9.29,21.02 10.71,19.61 16.63,25.52 16.63,36.25 14.63,36.25 "
         id="polygon917" />
      <path
         style="fill:#3f8624;fill-opacity:1;stroke-width:0.46498"
         class="cls-1"
         d="m 44.75,26 h -7.63 v -7.62 h 7.63 z m -5.63,-2 h 3.63 v -3.62 h -3.63 z"
         id="path919" />
      <circle
         style="fill:#3f8624;fill-opacity:1;stroke-width:0.46498"
         class="cls-1"
         cx="31.09"
         cy="22.190001"
         r="2.3399999"
         id="circle921" />
      <rect
         style="fill:#3f8624;fill-opacity:1;stroke-width:0.46498"
         class="cls-1"
         x="31.559999"
         y="21.190001"
         width="6.5599999"
         height="2"
         id="rect923" />
      <circle
         style="fill:#3f8624;fill-opacity:1;stroke-width:0.46498"
         class="cls-1"
         cx="27.809999"
         cy="30.629999"
         r="2.3399999"
         id="circle925" />
      <rect
         style="fill:#3f8624;fill-opacity:1;stroke-width:0.46498"
         class="cls-1"
         x="29.690001"
         y="29.629999"
         width="17.809999"
         height="2"
         id="rect927" />
      <circle
         style="fill:#3f8624;fill-opacity:1;stroke-width:0.46498"
         class="cls-1"
         cx="22.66"
         cy="24.530001"
         r="2.3399999"
         id="circle929" />
      <polygon
         style="fill:#3f8624;fill-opacity:1;stroke-width:0.46498"
         class="cls-1"
         points="15.56,13.76 17.56,13.74 17.58,18.05 22.92,23.38 21.5,24.79 15.59,18.88 "
         id="polygon931" />
    </g>
    <g
       transform="matrix(2.9393646,0,0,2.9418416,-216.27689,-77.037124)"
       style="stroke-width:0.340066"
       id="g1034">
      <g
         id="Reference"
         transform="matrix(0.18520833,0,0,0.18520833,101.82737,36.902142)"
         style="stroke-width:0.485809">
        <rect
           height="75"
           width="75"
           class="cls-1"
           data-name="Green Light BG"
           id="Green_Light_BG"
           x="0"
           y="0"
           style="fill:#3f8624;fill-opacity:1;stroke-width:0.485809" />
        <g
           data-name="Product Icon"
           id="Product_Icon"
           style="stroke-width:0.485809">
          <path
             id="path877"
             d="m 23,46.29 h -0.14 a 10.36,10.36 0 0 1 -3.87,-19.95 13.38,13.38 0 0 1 25.39,-5.26 6.72,6.72 0 0 1 10.22,5.26 9.67,9.67 0 0 1 7.9,9.54 9.11,9.11 0 0 1 -3,6.82 l -1.37,-1.46 a 7.12,7.12 0 0 0 2.37,-5.32 7.7,7.7 0 0 0 -7,-7.72 1,1 0 0 1 -0.91,-1.05 V 27 a 1.27,1.27 0 0 0 0,-0.2 4.75,4.75 0 0 0 -4.73,-4.76 4.68,4.68 0 0 0 -3.26,1.32 1,1 0 0 1 -0.92,0.26 A 1,1 0 0 1 43,23 a 11.39,11.39 0 0 0 -22.07,4 1,1 0 0 1 -0.68,0.95 8.36,8.36 0 0 0 2.57,16.3 H 23 Z"
             class="cls-2"
             style="stroke-width:0.485809" />
          <path
             id="path879"
             d="m 52.89,41.06 a 12.14,12.14 0 0 0 -7.32,-7.48 4.25,4.25 0 0 0 -8.47,0 12.19,12.19 0 0 0 -7.32,7.48 4.24,4.24 0 0 0 0.22,8.47 12.33,12.33 0 0 0 6.53,6.76 v 5.14 h 2 V 57 a 11.11,11.11 0 0 0 2,0.31 v 4.17 h 2 v -4.24 a 11.26,11.26 0 0 0 2,-0.38 v 4.57 h 2 v -5.29 a 12.25,12.25 0 0 0 6.21,-6.61 4.24,4.24 0 0 0 0.18,-8.47 z m -22.75,6.48 a 2.25,2.25 0 1 1 2.25,-2.25 2.25,2.25 0 0 1 -2.25,2.25 z m 6.36,6.53 A 10.44,10.44 0 0 1 32,49.13 4.2,4.2 0 0 0 34.28,46.41 h 2.22 z m 4,1.19 a 10.37,10.37 0 0 1 -2,-0.37 v -9.47 a 1,1 0 0 0 -1,-1 h -3.2 a 4.23,4.23 0 0 0 -2.51,-3 10.16,10.16 0 0 1 5.65,-5.78 4.23,4.23 0 0 0 3.06,2.47 z m 0.84,-19.1 a 2.25,2.25 0 1 1 2.25,-2.25 2.25,2.25 0 0 1 -2.25,2.25 z m 4.19,8.27 a 1,1 0 0 0 -1,1 v 9.36 a 10.7,10.7 0 0 1 -2,0.44 V 38 a 4.2,4.2 0 0 0 2.73,-2.39 10.11,10.11 0 0 1 5.65,5.78 4.25,4.25 0 0 0 -2.51,3 z m 1,9.46 v -7.46 h 1.94 a 4.23,4.23 0 0 0 2.29,2.7 10.45,10.45 0 0 1 -4.26,4.76 z m 6,-6.35 a 2.25,2.25 0 1 1 2.25,-2.25 2.26,2.26 0 0 1 -2.24,2.25 z"
             class="cls-2"
             style="stroke-width:0.485809" />
        </g>
      </g>
      <text
         xml:space="preserve"
         style="font-style:normal;font-weight:normal;font-size:3.175px;line-height:1.25;font-family:sans-serif;text-align:center;letter-spacing:0px;word-spacing:0px;text-anchor:middle;fill:#000000;fill-opacity:1;stroke:none;stroke-width:0.0899758"
         x="108.84166"
         y="54.967186"
         id="text1010"><tspan
           sodipodi:role="line"
           id="tspan1008"
           x="108.84166"
           y="54.967186"
           style="font-style:normal;font-variant:normal;font-weight:normal;font-stretch:normal;font-size:3.175px;font-family:Arial;-inkscape-font-specification:Arial;text-align:center;text-anchor:middle;stroke-width:0.0899758">AWS IoT Core</tspan></text>
      <text
         id="text2794"
         y="54.967186"
         x="179.187"
         style="font-style:normal;font-weight:normal;font-size:3.175px;line-height:1.25;font-family:sans-serif;text-align:center;letter-spacing:0px;word-spacing:0px;text-anchor:middle;fill:#000000;fill-opacity:1;stroke:none;stroke-width:0.0899758"
         xml:space="preserve"><tspan
           style="font-style:normal;font-variant:normal;font-weight:normal;font-stretch:normal;font-size:3.175px;font-family:Arial;-inkscape-font-specification:Arial;text-align:center;text-anchor:middle;stroke-width:0.0899758"
           y="54.967186"
           x="179.187"
           id="tspan2792"
           sodipodi:role="line">AWS IoT Core</tspan></text>
    </g>
    <g
       style="fill:#3f8624;fill-opacity:1;stroke-width:0.450227"
       transform="matrix(0.58741691,0,0,0.58791192,221.36975,37.257344)"
       id="Reference-9">
      <path
         style="fill:#3f8624;fill-opacity:1;stroke-width:0.450227"
         class="cls-1"
         d="M 39.06,39.12 H 31.47 A 1,1 0 0 1 30.56,38.55 L 19.92,15.69 h -4.3 a 1,1 0 0 1 -0.7,-0.3 1,1 0 0 1 -0.3,-0.7 V 8.12 a 1,1 0 0 1 1,-1 h 9.49 a 1,1 0 0 1 0.91,0.59 l 10.6,22.85 h 2.44 a 1,1 0 0 1 1,1 v 6.56 a 1,1 0 0 1 -1,1 z m -7,-2 h 6 V 32.56 H 36 A 1,1 0 0 1 35.09,31.98 L 24.48,9.12 h -7.85 v 4.57 h 3.93 a 1,1 0 0 1 0.91,0.58 z"
         id="path964" />
      <path
         style="fill:#3f8624;fill-opacity:1;stroke-width:0.450227"
         class="cls-1"
         d="M 18.43,39.12 H 10.31 A 1,1 0 0 1 9.41,37.69 L 17.9,19.91 a 1,1 0 0 1 0.9,-0.57 v 0 a 1,1 0 0 1 0.9,0.56 l 4.07,8.4 a 1,1 0 0 1 0,0.86 l -4.44,9.39 a 1,1 0 0 1 -0.9,0.57 z m -6.53,-2 h 5.89 l 4,-8.38 -3,-6.09 z"
         id="path966" />
      <path
         style="fill:#3f8624;fill-opacity:1;stroke-width:0.450227"
         class="cls-1"
         d="M 25,48.5 A 23.5,23.5 0 1 1 48.5,25 23.52,23.52 0 0 1 25,48.5 Z m 0,-45 A 21.5,21.5 0 1 0 46.5,25 21.52,21.52 0 0 0 25,3.5 Z"
         id="path968" />
    </g>
    <text
       transform="scale(0.99957892,1.0004213)"
       xml:space="preserve"
       style="font-style:normal;font-weight:normal;font-size:9.33641px;line-height:1.25;font-family:sans-serif;text-align:center;letter-spacing:0px;word-spacing:0px;text-anchor:middle;fill:#000000;fill-opacity:1;stroke:none;stroke-width:0.264583"
       x="236.3575"
       y="78.434799"
       id="text1014"><tspan
         sodipodi:role="line"
         id="tspan1012"
         x="236.3575"
         y="78.434799"
         style="font-style:normal;font-variant:normal;font-weight:normal;font-stretch:normal;font-size:9.33641px;font-family:Arial;-inkscape-font-specification:Arial;text-align:center;text-anchor:middle;stroke-width:0.264583">Lambda</tspan><tspan
         id="tspan1016"
         sodipodi:role="line"
         x="236.3575"
         y="90.213387"
         style="font-style:normal;font-variant:normal;font-weight:normal;font-stretch:normal;font-size:9.33641px;font-family:Arial;-inkscape-font-specification:Arial;text-align:center;text-anchor:middle;stroke-width:0.264583">function</tspan></text>
    <text
       transform="scale(0.99957892,1.0004213)"
       xml:space="preserve"
       style="font-style:normal;font-weight:normal;font-size:9.33641px;line-height:1.25;font-family:sans-serif;text-align:center;letter-spacing:0px;word-spacing:0px;text-anchor:middle;fill:#000000;fill-opacity:1;stroke:none;stroke-width:0.264583"
       x="-113.74805"
       y="76.389351"
       id="text1014-5"><tspan
         id="tspan1016-4"
         sodipodi:role="line"
         x="-113.74805"
         y="76.389351"
         style="font-style:normal;font-variant:normal;font-weight:normal;font-stretch:normal;font-size:9.33641px;font-family:Arial;-inkscape-font-specification:Arial;text-align:center;text-anchor:middle;stroke-width:0.264583">AVR-IoT</tspan><tspan
         sodipodi:role="line"
         x="-113.74805"
         y="88.167938"
         style="font-style:normal;font-variant:normal;font-weight:normal;font-stretch:normal;font-size:9.33641px;font-family:Arial;-inkscape-font-specification:Arial;text-align:center;text-anchor:middle;stroke-width:0.264583"
         id="tspan1102">or PIC-IoT</tspan></text>
    <path
       style="fill:none;stroke:#545b64;stroke-width:0.396999;stroke-linecap:butt;stroke-linejoin:miter;stroke-miterlimit:4;stroke-dasharray:none;stroke-opacity:1;marker-start:url(#TriangleInM);marker-end:url(#marker1214)"
       d="M -88.969082,52.091701 H 69.105787"
       id="path1210" />
    <g
       id="Reference-8"
       transform="matrix(0.77770687,0,0,0.77836225,154.41652,32.496085)"
       style="fill:#3f8624;fill-opacity:1;stroke-width:0.340066">
      <path
         id="path2136"
         d="m 32.56,25.22 h -2 V 19.44 H 19.44 v 5.78 h -2 v -6.78 a 1,1 0 0 1 1,-1 h 13.12 a 1,1 0 0 1 1,1 z"
         class="cls-1"
         style="fill:#3f8624;fill-opacity:1;stroke-width:0.340066" />
      <rect
         id="rect2138"
         height="2"
         width="1.5599999"
         y="27.07"
         x="24.219999"
         class="cls-1"
         style="fill:#3f8624;fill-opacity:1;stroke-width:0.340066" />
      <path
         id="path2140"
         d="m 25,25.06 a 1,1 0 0 1 -0.65,-0.24 l -6.56,-5.62 1.3,-1.52 5.91,5.07 5.91,-5.07 1.3,1.52 -6.56,5.62 A 1,1 0 0 1 25,25.06 Z"
         class="cls-1"
         style="fill:#3f8624;fill-opacity:1;stroke-width:0.340066" />
      <path
         id="path2142"
         d="m 25,48.5 c -5.9,0 -12.25,-1.36 -12.25,-4.35 V 24.93 a 2.18,2.18 0 0 1 0.08,-0.57 c 0.31,-1.07 1.42,-1.92 3.41,-2.59 l 0.64,1.89 c -1.55,0.53 -2.07,1.05 -2.13,1.26 v 19.23 c 0,0.68 3.59,2.35 10.25,2.35 6.66,0 10.25,-1.67 10.25,-2.35 V 24.93 c -0.06,-0.22 -0.58,-0.74 -2.13,-1.27 l 0.64,-1.89 c 2,0.67 3.1,1.52 3.41,2.6 a 2,2 0 0 1 0.08,0.56 v 19.22 c 0,2.99 -6.35,4.35 -12.25,4.35 z"
         class="cls-1"
         style="fill:#3f8624;fill-opacity:1;stroke-width:0.340066" />
      <path
         id="path2144"
         d="m 25,29.08 c -5.9,0 -12.25,-1.4 -12.25,-4.47 h 2 c 0,0.72 3.59,2.47 10.25,2.47 6.66,0 10.25,-1.75 10.25,-2.47 h 2 c 0,3.07 -6.35,4.47 -12.25,4.47 z"
         class="cls-1"
         style="fill:#3f8624;fill-opacity:1;stroke-width:0.340066" />
      <path
         id="path2146"
         d="m 18.44,10.06 h -6.56 a 1,1 0 0 1 -1,-1 V 2.5 a 1,1 0 0 1 1,-1 h 6.56 a 1,1 0 0 1 1,1 v 6.56 a 1,1 0 0 1 -1,1 z m -5.56,-2 h 4.56 V 3.5 h -4.56 z"
         class="cls-1"
         style="fill:#3f8624;fill-opacity:1;stroke-width:0.340066" />
      <path
         id="path2148"
         d="M 34.38,11 A 4.75,4.75 0 1 1 39.12,6.25 4.76,4.76 0 0 1 34.38,11 Z m 0,-7.5 A 2.75,2.75 0 1 0 37.12,6.25 2.76,2.76 0 0 0 34.38,3.5 Z"
         class="cls-1"
         style="fill:#3f8624;fill-opacity:1;stroke-width:0.340066" />
      <path
         id="path2150"
         d="M 26,16.56 H 24 V 13.74 L 17.91,9.91 19,8.22 l 6.56,4.12 a 1,1 0 0 1 0.47,0.85 z"
         class="cls-1"
         style="fill:#3f8624;fill-opacity:1;stroke-width:0.340066" />
      <path
         id="path2152"
         d="m 26,16.56 h -2 v -3.37 a 1,1 0 0 1 0.47,-0.85 L 31,8.22 32.06,9.91 26,13.74 Z"
         class="cls-1"
         style="fill:#3f8624;fill-opacity:1;stroke-width:0.340066" />
    </g>
    <path
       id="path2184"
       d="M -88.969082,52.091701 H 69.105787"
       style="fill:none;stroke:#545b64;stroke-width:1.85208;stroke-linecap:butt;stroke-linejoin:miter;stroke-miterlimit:4;stroke-dasharray:none;stroke-opacity:1;marker-start:url(#marker2352);marker-end:url(#marker2362)" />
    <g
       id="Reference-49"
       transform="matrix(0.5129556,0,0,0.51338787,-14.865655,39.257005)"
       style="fill:#3f8624;fill-opacity:1;stroke-width:0.515585">
      <path
         id="path1816"
         d="M 25.63,44.69 V 38.58 L 24,42.68 h -1 l -1.6,-4.1 v 6.11 h -1 v -7.8 h 1.23 l 1.85,4.77 1.87,-4.77 h 1.18 v 7.8 z"
         class="cls-1"
         style="fill:#3f8624;fill-opacity:1;stroke-width:0.515585" />
      <path
         id="path1818"
         d="m 28.12,40.79 a 5,5 0 0 1 0.77,-3 2.76,2.76 0 0 1 4.35,0 5,5 0 0 1 0.77,3 5.57,5.57 0 0 1 -0.54,2.62 2.53,2.53 0 0 1 -1.54,1.32 3.35,3.35 0 0 0 0.94,0.55 3.83,3.83 0 0 0 1.06,0.26 v 1 A 4.68,4.68 0 0 1 32.31,46 a 5.61,5.61 0 0 1 -1.4,-1.11 2.62,2.62 0 0 1 -1.52,-0.54 3,3 0 0 1 -0.95,-1.4 6.45,6.45 0 0 1 -0.32,-2.16 z m 1.11,0 a 4.85,4.85 0 0 0 0.46,2.35 1.59,1.59 0 0 0 2.75,0 4.74,4.74 0 0 0 0.46,-2.35 4.65,4.65 0 0 0 -0.46,-2.33 1.59,1.59 0 0 0 -2.75,0 4.77,4.77 0 0 0 -0.46,2.33 z"
         class="cls-1"
         style="fill:#3f8624;fill-opacity:1;stroke-width:0.515585" />
      <path
         id="path1820"
         d="M 36.54,44.69 V 37.8 h -1.93 v -0.91 h 5 v 0.91 h -1.97 v 6.89 z"
         class="cls-1"
         style="fill:#3f8624;fill-opacity:1;stroke-width:0.515585" />
      <path
         id="path1822"
         d="M 42.17,44.69 V 37.8 h -1.94 v -0.91 h 5 v 0.91 h -2 v 6.89 z"
         class="cls-1"
         style="fill:#3f8624;fill-opacity:1;stroke-width:0.515585" />
      <path
         id="path1824"
         d="m 15.62,48.5 h -8 A 6.12,6.12 0 0 1 1.5,42.39 V 7.61 A 6.12,6.12 0 0 1 7.61,1.5 h 34.78 a 6.12,6.12 0 0 1 6.11,6.11 v 23 h -2 v -23 A 4.11,4.11 0 0 0 42.39,3.5 H 7.61 A 4.11,4.11 0 0 0 3.5,7.61 v 34.78 a 4.11,4.11 0 0 0 4.11,4.11 h 8 z"
         class="cls-1"
         style="fill:#3f8624;fill-opacity:1;stroke-width:0.515585" />
      <path
         id="path1826"
         d="M 48.5,48.5 H 17.44 V 32.44 H 48.5 Z m -29.06,-2 H 46.5 V 34.44 H 19.44 Z"
         class="cls-1"
         style="fill:#3f8624;fill-opacity:1;stroke-width:0.515585" />
      <polygon
         id="polygon1828"
         points="48.5,48.5 42.39,48.5 42.39,46.5 46.5,46.5 46.5,42.39 48.5,42.39 "
         class="cls-1"
         style="fill:#3f8624;fill-opacity:1;stroke-width:0.515585" />
    </g>
    <path
       id="path1942"
       d="M -22.554556,52.091701 H -5.0858127"
       style="fill:none;stroke:#545b64;stroke-width:1.85208333;stroke-linecap:butt;stroke-linejoin:miter;stroke-miterlimit:4;stroke-dasharray:none;stroke-opacity:1" />
    <path
       style="fill:none;stroke:#545b64;stroke-width:1.85208;stroke-linecap:butt;stroke-linejoin:miter;stroke-miterlimit:4;stroke-dasharray:none;stroke-dashoffset:0;stroke-opacity:1"
       d="m 127.54073,52.091701 h 32.4396"
       id="path2442" />
    <text
       transform="scale(0.99957892,1.0004213)"
       id="text1014-5-9"
       y="76.317123"
       x="-2.3822472"
       style="font-style:normal;font-weight:normal;font-size:9.33641px;line-height:1.25;font-family:sans-serif;text-align:center;letter-spacing:0px;word-spacing:0px;text-anchor:middle;fill:#000000;fill-opacity:1;stroke:none;stroke-width:0.264583"
       xml:space="preserve"><tspan
         id="tspan1102-5"
         style="font-style:normal;font-variant:normal;font-weight:normal;font-stretch:normal;font-size:9.33641px;font-family:Arial;-inkscape-font-specification:Arial;text-align:center;text-anchor:middle;stroke-width:0.264583"
         y="76.317123"
         x="-2.3822467"
         sodipodi:role="line">IoT MQTT</tspan><tspan
         style="font-style:normal;font-variant:normal;font-weight:normal;font-stretch:normal;font-size:9.33641px;font-family:Arial;-inkscape-font-specification:Arial;text-align:center;text-anchor:middle;stroke-width:0.264583"
         y="88.095711"
         x="-2.3822479"
         sodipodi:role="line"
         id="tspan2507">Protocol</tspan></text>
    <text
       transform="scale(0.99957892,1.0004213)"
       xml:space="preserve"
       style="font-style:normal;font-weight:normal;font-size:10.3738px;line-height:1.25;font-family:sans-serif;letter-spacing:0px;word-spacing:0px;fill:#000000;fill-opacity:1;stroke:none;stroke-width:0.264583"
       x="-11.852383"
       y="77.754761"
       id="text2503"><tspan
         sodipodi:role="line"
         id="tspan2501"
         x="-11.852383"
         y="77.754761"
         style="stroke-width:0.264583" /></text>
    <text
       transform="scale(0.99957892,1.0004213)"
       xml:space="preserve"
       style="font-style:normal;font-weight:normal;font-size:9.33641px;line-height:1.25;font-family:sans-serif;text-align:center;letter-spacing:0px;word-spacing:0px;text-anchor:middle;fill:#000000;fill-opacity:1;stroke:none;stroke-width:0.264583"
       x="173.69308"
       y="83.111107"
       id="text2513"><tspan
         id="tspan2511"
         sodipodi:role="line"
         x="173.69308"
         y="83.111107"
         style="font-style:normal;font-variant:normal;font-weight:normal;font-stretch:normal;font-size:9.33641px;font-family:Arial;-inkscape-font-specification:Arial;text-align:center;text-anchor:middle;stroke-width:0.264583">IoT Rule</tspan></text>
    <path
       style="fill:none;stroke:#545b64;stroke-width:1.85208;stroke-linecap:butt;stroke-linejoin:miter;stroke-miterlimit:4;stroke-dasharray:none;stroke-opacity:1;marker-end:url(#marker2550)"
       d="m 188.08897,52.091701 h 25.57288"
       id="path2536" />
    <g
       id="Reference-3"
       transform="matrix(0.54439481,0,0,0.54485357,288.22792,31.523132)"
       style="fill:#cd2264;fill-opacity:1;stroke-width:0.485809">
      <rect
         height="75"
         width="75"
         class="cls-1"
         data-name="Pink Light BG"
         id="Pink_Light_BG"
         x="0"
         y="0"
         style="fill:#cd2264;fill-opacity:1;stroke-width:0.485809" />
      <g
         data-name="Product Icon"
         id="Product_Icon-5"
         style="fill:#ffffff;fill-opacity:1;stroke-width:0.485809">
        <path
           id="path2771"
           d="m 31.5,48 h -11 A 6.11,6.11 0 0 1 17.36,47.06 10.18,10.18 0 0 1 12.5,38.17 9.09,9.09 0 0 1 19,29 c 0,-0.26 0,-0.52 0,-0.78 a 13.7,13.7 0 0 1 7.82,-12.08 13.12,13.12 0 0 1 14.79,2.93 15.05,15.05 0 0 1 3,4.4 5.86,5.86 0 0 1 3.68,-1.3 c 2.72,0 5.78,2.06 6.34,6.58 2.57,0.61 7.85,2.71 7.85,9.51 a 9,9 0 0 1 -4.73,8.39 l -1,-1.75 a 7.08,7.08 0 0 0 3.7,-6.64 c 0,-5.88 -4.87,-7.34 -7,-7.7 A 1,1 0 0 1 52.8,30.14 1,1 0 0 1 52.63,29.42 c -0.29,-3.63 -2.41,-5.25 -4.4,-5.25 A 4,4 0 0 0 45,25.86 1,1 0 0 1 44.05,26.26 1,1 0 0 1 43.26,25.6 13.6,13.6 0 0 0 40.12,20.48 11.16,11.16 0 0 0 27.61,18 11.76,11.76 0 0 0 21,28.2 a 12.34,12.34 0 0 0 0.08,1.38 1,1 0 0 1 -0.81,1.11 7.24,7.24 0 0 0 -5.78,7.48 8.13,8.13 0 0 0 3.93,7.2 4,4 0 0 0 2.08,0.63 h 11 z"
           class="cls-2"
           style="fill:#ffffff;fill-opacity:1;stroke-width:0.485809" />
        <path
           id="path2773"
           d="m 61.39,54 -7.1,-7.13 A 10.61,10.61 0 1 0 49.43,52 l 7,7 a 3.52,3.52 0 0 0 2.5,1 3.48,3.48 0 0 0 2.49,-1 3.52,3.52 0 0 0 -0.03,-5 z M 44.6,51.17 a 8.59,8.59 0 1 1 8.59,-8.59 8.59,8.59 0 0 1 -8.59,8.59 z M 60,57.55 a 1.57,1.57 0 0 1 -2.16,0 l -6.66,-6.66 a 10.48,10.48 0 0 0 2.12,-2.24 l 6.7,6.74 a 1.54,1.54 0 0 1 0,2.16 z"
           class="cls-2"
           style="fill:#ffffff;fill-opacity:1;stroke-width:0.485809" />
        <path
           id="path2775"
           d="m 47.35,37.93 -1.19,1.61 a 3.37,3.37 0 0 0 -5.34,3.2 3.3,3.3 0 0 0 1.33,2.26 L 41,46.56 a 5.37,5.37 0 0 1 6.39,-8.63 z"
           class="cls-2"
           style="fill:#ffffff;fill-opacity:1;stroke-width:0.485809" />
      </g>
    </g>
    <path
       id="path2829"
       d="m 254.49204,52.091701 h 25.57288"
       style="fill:none;stroke:#545b64;stroke-width:1.85208;stroke-linecap:butt;stroke-linejoin:miter;stroke-miterlimit:4;stroke-dasharray:none;stroke-opacity:1;marker-end:url(#marker2833)" />
    <g
       style="fill:#232f3e;fill-opacity:0.94902;stroke-width:0.164025"
       id="Working"
       transform="matrix(0.77770687,0,0,0.77836225,43.14814,-40.91273)">
      <rect
         style="fill:#232f3e;fill-opacity:1;stroke-width:0.340066"
         id="rect2979"
         height="35"
         width="35"
         class="cls-1"
         x="0"
         y="0" />
      <path
         style="fill:#ffffff;fill-opacity:0.94902;stroke-width:0.340066"
         id="path2981"
         d="m 11.38,16.17 a 2.6,2.6 0 0 0 0.11,0.83 4.22,4.22 0 0 0 0.3,0.67 0.4,0.4 0 0 1 0.07,0.21 0.36,0.36 0 0 1 -0.18,0.28 l -0.59,0.39 A 0.43,0.43 0 0 1 10.85,18.63 0.38,0.38 0 0 1 10.57,18.5 2.38,2.38 0 0 1 10.23,18.07 C 10.14,17.91 10.05,17.73 9.95,17.52 A 3.44,3.44 0 0 1 7.21,18.81 2.54,2.54 0 0 1 5.35,18.14 2.36,2.36 0 0 1 4.67,16.35 2.43,2.43 0 0 1 5.51,14.43 3.43,3.43 0 0 1 7.8,13.71 a 6.75,6.75 0 0 1 1,0.07 c 0.35,0.05 0.7,0.12 1.07,0.2 V 13.3 a 2.06,2.06 0 0 0 -0.44,-1.49 2.12,2.12 0 0 0 -1.52,-0.43 4.4,4.4 0 0 0 -1,0.12 6.85,6.85 0 0 0 -1,0.32 L 5.58,11.94 H 5.44 c -0.14,0 -0.2,-0.1 -0.2,-0.29 v -0.46 a 0.62,0.62 0 0 1 0.06,-0.32 0.78,0.78 0 0 1 0.27,-0.2 6,6 0 0 1 1.17,-0.42 5.7,5.7 0 0 1 1.45,-0.18 3.37,3.37 0 0 1 2.44,0.76 3,3 0 0 1 0.77,2.29 z M 7.6,17.59 a 3,3 0 0 0 1,-0.17 2,2 0 0 0 0.88,-0.6 1.36,1.36 0 0 0 0.32,-0.59 3.18,3.18 0 0 0 0.09,-0.81 V 15 A 7.52,7.52 0 0 0 9,14.87 c -0.3,0 -0.59,0 -0.88,0 a 2.13,2.13 0 0 0 -1.38,0.37 1.3,1.3 0 0 0 -0.46,1.08 1.3,1.3 0 0 0 0.34,1 1.33,1.33 0 0 0 0.98,0.27 z m 7.49,1 a 0.56,0.56 0 0 1 -0.36,-0.09 0.73,0.73 0 0 1 -0.2,-0.37 l -2.18,-7.2 a 1.39,1.39 0 0 1 -0.08,-0.38 c 0,-0.15 0.07,-0.23 0.22,-0.23 h 0.92 a 0.56,0.56 0 0 1 0.36,0.09 0.74,0.74 0 0 1 0.19,0.37 L 15.53,17 17,10.79 a 0.61,0.61 0 0 1 0.18,-0.37 0.59,0.59 0 0 1 0.37,-0.09 h 0.75 a 0.62,0.62 0 0 1 0.38,0.09 0.74,0.74 0 0 1 0.18,0.37 l 1.45,6.21 1.61,-6.24 a 0.74,0.74 0 0 1 0.19,-0.37 0.56,0.56 0 0 1 0.36,-0.09 h 0.87 a 0.21,0.21 0 0 1 0.23,0.23 1,1 0 0 1 0,0.15 c 0,0 0,0.13 -0.06,0.23 l -2.26,7.2 a 0.74,0.74 0 0 1 -0.19,0.37 0.6,0.6 0 0 1 -0.36,0.09 h -0.8 a 0.53,0.53 0 0 1 -0.37,-0.1 0.64,0.64 0 0 1 -0.18,-0.37 l -1.45,-6 -1.44,6 a 0.64,0.64 0 0 1 -0.18,0.37 0.55,0.55 0 0 1 -0.37,0.1 z m 12,0.24 A 6.29,6.29 0 0 1 25.65,18.67 4.21,4.21 0 0 1 24.58,18.3 0.69,0.69 0 0 1 24.29,18.04 0.66,0.66 0 0 1 24.23,17.77 V 17.3 c 0,-0.19 0.07,-0.29 0.21,-0.29 a 0.57,0.57 0 0 1 0.18,0 l 0.23,0.1 a 4.76,4.76 0 0 0 1,0.32 5.24,5.24 0 0 0 1.11,0.12 2.47,2.47 0 0 0 1.36,-0.31 1,1 0 0 0 0.48,-0.88 0.88,0.88 0 0 0 -0.25,-0.65 2.29,2.29 0 0 0 -0.94,-0.49 l -1.35,-0.43 a 2.83,2.83 0 0 1 -1.49,-0.94 2.24,2.24 0 0 1 -0.47,-1.36 2,2 0 0 1 0.25,-1 2.47,2.47 0 0 1 0.67,-0.77 3,3 0 0 1 1,-0.48 4.1,4.1 0 0 1 1.18,-0.16 4.4,4.4 0 0 1 0.62,0 l 0.61,0.1 0.53,0.15 0.39,0.16 a 1.18,1.18 0 0 1 0.28,0.23 0.57,0.57 0 0 1 0.08,0.31 v 0.44 q 0,0.3 -0.21,0.3 a 0.92,0.92 0 0 1 -0.36,-0.12 4.35,4.35 0 0 0 -1.8,-0.36 2.51,2.51 0 0 0 -1.24,0.26 0.92,0.92 0 0 0 -0.44,0.84 0.91,0.91 0 0 0 0.28,0.66 2.78,2.78 0 0 0 1,0.51 l 1.32,0.42 a 2.88,2.88 0 0 1 1.44,0.9 2.1,2.1 0 0 1 0.43,1.31 2.38,2.38 0 0 1 -0.24,1.08 2.34,2.34 0 0 1 -0.68,0.82 3,3 0 0 1 -1,0.53 4.59,4.59 0 0 1 -1.35,0.22 z"
         class="cls-2" />
      <path
         style="fill:#ffffff;fill-opacity:0.94902;stroke-width:0.340066"
         id="path2983"
         d="M 28.82,23.43 A 20.07,20.07 0 0 1 17.47,26.9 20.54,20.54 0 0 1 3.61,21.62 C 3.32,21.36 3.61,21 3.93,21.2 a 27.81,27.81 0 0 0 13.86,3.68 27.54,27.54 0 0 0 10.58,-2.16 c 0.52,-0.22 0.96,0.34 0.45,0.71 z"
         class="cls-3" />
      <path
         style="fill:#ffffff;fill-opacity:0.94902;stroke-width:0.340066"
         id="path2985"
         d="m 30.1,22 c -0.4,-0.51 -2.6,-0.24 -3.59,-0.12 -0.3,0 -0.34,-0.23 -0.07,-0.42 1.75,-1.23 4.63,-0.88 5,-0.46 0.37,0.42 -0.09,3.3 -1.74,4.68 -0.25,0.21 -0.49,0.09 -0.38,-0.18 0.34,-0.95 1.17,-3.02 0.78,-3.5 z"
         class="cls-3" />
    </g>
  </g>
</svg>
