<?xml version="1.0" encoding="UTF-8" standalone="no"?>
<svg
   xmlns:dc="http://purl.org/dc/elements/1.1/"
   xmlns:cc="http://creativecommons.org/ns#"
   xmlns:rdf="http://www.w3.org/1999/02/22-rdf-syntax-ns#"
   xmlns:svg="http://www.w3.org/2000/svg"
   xmlns="http://www.w3.org/2000/svg"
   xmlns:sodipodi="http://sodipodi.sourceforge.net/DTD/sodipodi-0.dtd"
   xmlns:inkscape="http://www.inkscape.org/namespaces/inkscape"
   sodipodi:docname="next.svg"
   inkscape:version="1.0 (4035a4fb49, 2020-05-01)"
   id="svg8"
   version="1.1"
   viewBox="0 0 343.95833 37.030054"
   height="139.9561"
   width="1300">
  <defs
     id="defs2">
    <pattern
       y="0"
       x="0"
       height="6"
       width="6"
       patternUnits="userSpaceOnUse"
       id="EMFhbasepattern" />
    <pattern
       id="EMFhbasepattern-5"
       patternUnits="userSpaceOnUse"
       width="6"
       height="6"
       x="0"
       y="0" />
    <pattern
       id="EMFhbasepattern-7"
       patternUnits="userSpaceOnUse"
       width="6"
       height="6"
       x="0"
       y="0" />
  </defs>
  <sodipodi:namedview
     inkscape:document-rotation="0"
     fit-margin-bottom="0"
     fit-margin-right="0"
     fit-margin-left="0"
     fit-margin-top="0"
     inkscape:window-maximized="1"
     inkscape:window-y="-8"
     inkscape:window-x="-8"
     inkscape:window-height="1137"
     inkscape:window-width="1920"
     inkscape:snap-page="true"
     inkscape:snap-global="true"
     units="px"
     showgrid="false"
     inkscape:current-layer="layer1"
     inkscape:document-units="mm"
     inkscape:cy="-231.55334"
     inkscape:cx="545.66213"
     inkscape:zoom="0.7"
     inkscape:pageshadow="2"
     inkscape:pageopacity="0.0"
     borderopacity="1.0"
     bordercolor="#666666"
     pagecolor="#ffffff"
     id="base" />
  <metadata
     id="metadata5">
    <rdf:RDF>
      <cc:Work
         rdf:about="">
        <dc:format>image/svg+xml</dc:format>
        <dc:type
           rdf:resource="http://purl.org/dc/dcmitype/StillImage" />
        <dc:title />
      </cc:Work>
    </rdf:RDF>
  </metadata>
  <g
     transform="translate(18.758024,-252.02661)"
     id="layer1"
     inkscape:groupmode="layer"
     inkscape:label="Layer 1">
    <rect
       rx="1.7103499"
       ry="1.4827397"
       y="252.57567"
       x="14.048535"
       height="36.030052"
       width="278.34521"
       id="rect817"
       style="opacity:0.97;fill:#7f7f7f;fill-opacity:1;stroke:#000000;stroke-width:1;stroke-linecap:butt;stroke-linejoin:round;stroke-miterlimit:4;stroke-dasharray:none;stroke-dashoffset:0;stroke-opacity:0;paint-order:normal" />
    <g
       style="font-style:normal;font-weight:normal;font-size:9.87778px;line-height:1.25;font-family:sans-serif;letter-spacing:0px;word-spacing:0px;fill:#000000;fill-opacity:1;stroke:none;stroke-width:0.264583"
       id="text827"
       aria-label="Next Tutorial">
      <path
         id="path882"
         style="font-style:normal;font-variant:normal;font-weight:bold;font-stretch:normal;font-size:11.2889px;line-height:1.25;font-family:sans-serif;-inkscape-font-specification:'sans-serif Bold';fill:#ffffff;fill-opacity:1;stroke-width:0.264583"
         d="m 120.1041,267.86475 h -2.0395 l -3.48369,-5.63343 v 5.63343 h -1.94028 v -8.20761 h 2.53008 l 2.99311,4.70187 v -4.70187 h 1.94028 z" />
      <path
         id="path884"
         style="font-style:normal;font-variant:normal;font-weight:bold;font-stretch:normal;font-size:11.2889px;line-height:1.25;font-family:sans-serif;-inkscape-font-specification:'sans-serif Bold';fill:#ffffff;fill-opacity:1;stroke-width:0.264583"
         d="m 128.19594,265.13623 h -4.54201 q 0.0441,0.7276 0.55121,1.11345 0.51263,0.38585 1.50482,0.38585 0.62839,0 1.21819,-0.22599 0.5898,-0.226 0.93155,-0.48507 h 0.22049 v 1.59301 q -0.67248,0.2701 -1.2678,0.39136 -0.59531,0.12127 -1.3174,0.12127 -1.86311,0 -2.8553,-0.83785 -0.99219,-0.83785 -0.99219,-2.38676 0,-1.53238 0.93707,-2.42535 0.94258,-0.89848 2.57969,-0.89848 1.51033,0 2.27101,0.76619 0.76067,0.76067 0.76067,2.19384 z m -1.97335,-1.16307 q -0.0165,-0.62287 -0.30868,-0.93706 -0.29214,-0.3142 -0.90951,-0.3142 -0.57326,0 -0.94257,0.29766 -0.36932,0.29766 -0.41342,0.9536 z" />
      <path
         id="path886"
         style="font-style:normal;font-variant:normal;font-weight:bold;font-stretch:normal;font-size:11.2889px;line-height:1.25;font-family:sans-serif;-inkscape-font-specification:'sans-serif Bold';fill:#ffffff;fill-opacity:1;stroke-width:0.264583"
         d="m 136.06731,267.86475 h -2.31511 l -1.32292,-1.85209 -1.35599,1.85209 h -2.27101 l 2.44189,-3.09232 -2.4033,-3.09784 h 2.3151 l 1.30087,1.81901 1.30638,-1.81901 h 2.27653 l -2.40882,3.04823 z" />
      <path
         id="path888"
         style="font-style:normal;font-variant:normal;font-weight:bold;font-stretch:normal;font-size:11.2889px;line-height:1.25;font-family:sans-serif;-inkscape-font-specification:'sans-serif Bold';fill:#ffffff;fill-opacity:1;stroke-width:0.264583"
         d="m 141.11644,267.80962 q -0.3197,0.0827 -0.67799,0.12678 -0.35829,0.0496 -0.87644,0.0496 -1.15755,0 -1.7253,-0.46853 -0.56224,-0.46853 -0.56224,-1.60404 v -2.89388 h -0.8158 v -1.34497 h 0.8158 v -1.7694 h 1.98437 v 1.7694 h 1.8576 v 1.34497 h -1.8576 v 2.19384 q 0,0.32522 0.006,0.56775 0.006,0.24254 0.0882,0.43546 0.0772,0.19293 0.2701,0.30868 0.19843,0.11024 0.57326,0.11024 0.15434,0 0.40239,-0.0661 0.25356,-0.0661 0.35278,-0.12127 h 0.16536 z" />
      <path
         id="path890"
         style="font-style:normal;font-variant:normal;font-weight:bold;font-stretch:normal;font-size:11.2889px;line-height:1.25;font-family:sans-serif;-inkscape-font-specification:'sans-serif Bold';fill:#ffffff;fill-opacity:1;stroke-width:0.264583"
         d="m 152.68646,261.24464 h -2.56315 v 6.62011 h -2.11667 v -6.62011 h -2.56315 v -1.5875 h 7.24297 z" />
      <path
         id="path892"
         style="font-style:normal;font-variant:normal;font-weight:bold;font-stretch:normal;font-size:11.2889px;line-height:1.25;font-family:sans-serif;-inkscape-font-specification:'sans-serif Bold';fill:#ffffff;fill-opacity:1;stroke-width:0.264583"
         d="m 160.01763,267.86475 h -1.98437 v -0.68351 q -0.55122,0.41892 -1.00873,0.63941 -0.45751,0.21497 -1.09141,0.21497 -1.02526,0 -1.58199,-0.5898 -0.55121,-0.5898 -0.55121,-1.74184 v -4.02939 h 1.9954 v 3.07027 q 0,0.46854 0.0276,0.78273 0.0331,0.30868 0.14332,0.51263 0.10473,0.20395 0.31419,0.29766 0.21497,0.0937 0.59531,0.0937 0.25356,0 0.56224,-0.0937 0.30868,-0.0937 0.59532,-0.27561 v -4.38768 h 1.98437 z" />
      <path
         id="path894"
         style="font-style:normal;font-variant:normal;font-weight:bold;font-stretch:normal;font-size:11.2889px;line-height:1.25;font-family:sans-serif;-inkscape-font-specification:'sans-serif Bold';fill:#ffffff;fill-opacity:1;stroke-width:0.264583"
         d="m 165.85501,267.80962 q -0.31971,0.0827 -0.678,0.12678 -0.35829,0.0496 -0.87643,0.0496 -1.15755,0 -1.7253,-0.46853 -0.56225,-0.46853 -0.56225,-1.60404 v -2.89388 h -0.81579 v -1.34497 h 0.81579 v -1.7694 h 1.98438 v 1.7694 h 1.8576 v 1.34497 h -1.8576 v 2.19384 q 0,0.32522 0.006,0.56775 0.006,0.24254 0.0882,0.43546 0.0772,0.19293 0.27009,0.30868 0.19844,0.11024 0.57327,0.11024 0.15434,0 0.40239,-0.0661 0.25356,-0.0661 0.35277,-0.12127 h 0.16537 z" />
      <path
         id="path896"
         style="font-style:normal;font-variant:normal;font-weight:bold;font-stretch:normal;font-size:11.2889px;line-height:1.25;font-family:sans-serif;-inkscape-font-specification:'sans-serif Bold';fill:#ffffff;fill-opacity:1;stroke-width:0.264583"
         d="m 173.36257,264.77243 q 0,1.52686 -0.89297,2.40881 -0.88746,0.87643 -2.49701,0.87643 -1.60955,0 -2.50252,-0.87643 -0.88745,-0.88195 -0.88745,-2.40881 0,-1.5379 0.89297,-2.41433 0.89848,-0.87643 2.497,-0.87643 1.62058,0 2.50252,0.88194 0.88746,0.88195 0.88746,2.40882 z m -2.44189,1.50481 q 0.19293,-0.23702 0.28664,-0.56775 0.0992,-0.33624 0.0992,-0.92604 0,-0.5457 -0.0992,-0.91502 -0.0992,-0.36931 -0.27561,-0.5898 -0.17639,-0.226 -0.42444,-0.3197 -0.24804,-0.0937 -0.53468,-0.0937 -0.28663,0 -0.51263,0.0772 -0.22048,0.0772 -0.42443,0.30868 -0.18191,0.21497 -0.29215,0.5898 -0.10473,0.37483 -0.10473,0.94258 0,0.50712 0.0937,0.88194 0.0937,0.36932 0.27561,0.59532 0.17638,0.21497 0.41892,0.31419 0.24805,0.0992 0.56224,0.0992 0.2701,0 0.51263,-0.0882 0.24805,-0.0937 0.41892,-0.30869 z" />
      <path
         id="path898"
         style="font-style:normal;font-variant:normal;font-weight:bold;font-stretch:normal;font-size:11.2889px;line-height:1.25;font-family:sans-serif;-inkscape-font-specification:'sans-serif Bold';fill:#ffffff;fill-opacity:1;stroke-width:0.264583"
         d="m 179.28263,263.56526 h -0.17639 q -0.12678,-0.0441 -0.4079,-0.0661 -0.28112,-0.022 -0.46853,-0.022 -0.42444,0 -0.74966,0.0551 -0.32521,0.0551 -0.70004,0.18741 v 4.14515 h -1.98438 v -6.19016 h 1.98438 v 0.90951 q 0.65595,-0.56224 1.14102,-0.74414 0.48507,-0.18742 0.89297,-0.18742 0.10473,0 0.23702,0.006 0.13229,0.006 0.23151,0.0165 z" />
      <path
         id="path900"
         style="font-style:normal;font-variant:normal;font-weight:bold;font-stretch:normal;font-size:11.2889px;line-height:1.25;font-family:sans-serif;-inkscape-font-specification:'sans-serif Bold';fill:#ffffff;fill-opacity:1;stroke-width:0.264583"
         d="m 182.40251,267.86475 h -1.98438 v -6.19016 h 1.98438 z m 0.0551,-7.0721 h -2.09462 v -1.50482 h 2.09462 z" />
      <path
         id="path902"
         style="font-style:normal;font-variant:normal;font-weight:bold;font-stretch:normal;font-size:11.2889px;line-height:1.25;font-family:sans-serif;-inkscape-font-specification:'sans-serif Bold';fill:#ffffff;fill-opacity:1;stroke-width:0.264583"
         d="m 188.02491,266.24968 v -1.28984 q -0.40239,0.0331 -0.87092,0.0937 -0.46853,0.0551 -0.71107,0.13229 -0.29765,0.0937 -0.45751,0.27561 -0.15434,0.17638 -0.15434,0.46853 0,0.19292 0.0331,0.31419 0.0331,0.12127 0.16536,0.23151 0.12678,0.11025 0.30317,0.16537 0.17639,0.0496 0.55121,0.0496 0.29766,0 0.60083,-0.12127 0.30868,-0.12127 0.54019,-0.31971 z m 0,0.95912 q -0.15985,0.12127 -0.39687,0.29214 -0.23703,0.17088 -0.44649,0.2701 -0.29214,0.13229 -0.60634,0.19292 -0.31419,0.0661 -0.68902,0.0661 -0.88194,0 -1.47725,-0.5457 -0.59532,-0.54571 -0.59532,-1.39458 0,-0.67799 0.30317,-1.10794 0.30317,-0.42995 0.8599,-0.678 0.55121,-0.24805 1.36701,-0.35278 0.8158,-0.10473 1.69224,-0.15434 v -0.0331 q 0,-0.51263 -0.41893,-0.70556 -0.41892,-0.19843 -1.23472,-0.19843 -0.49058,0 -1.04731,0.17639 -0.55673,0.17087 -0.79926,0.26458 h -0.18191 v -1.4938 q 0.3142,-0.0827 1.01975,-0.19292 0.71107,-0.11576 1.42214,-0.11576 1.69223,0 2.44189,0.52366 0.75516,0.51814 0.75516,1.6316 v 4.21129 h -1.96784 z" />
      <path
         id="path904"
         style="font-style:normal;font-variant:normal;font-weight:bold;font-stretch:normal;font-size:11.2889px;line-height:1.25;font-family:sans-serif;-inkscape-font-specification:'sans-serif Bold';fill:#ffffff;fill-opacity:1;stroke-width:0.264583"
         d="m 193.80165,267.86475 h -1.98437 v -8.57692 h 1.98437 z" />
    </g>
    <text
       id="text839"
       y="289.05667"
       x="119.58125"
       style="font-style:normal;font-weight:normal;font-size:10.5833px;line-height:1.25;font-family:sans-serif;letter-spacing:0px;word-spacing:0px;writing-mode:tb-rl;fill:#000000;fill-opacity:1;stroke:none;stroke-width:0.264583"
       xml:space="preserve"><tspan
         style="stroke-width:0.264583"
         y="119.58125"
         x="289.05667"
         id="tspan837"
         sodipodi:role="line" /></text>
    <g
       style="font-style:normal;font-weight:normal;font-size:8.46667px;line-height:1.25;font-family:sans-serif;letter-spacing:0px;word-spacing:0px;fill:#000000;fill-opacity:1;stroke:none;stroke-width:0.264583"
       id="text827-8"
       aria-label="Designing for Scale! - Simulating an IoT Network">
      <path
         id="path907"
         style="font-style:italic;font-variant:normal;font-weight:bold;font-stretch:normal;font-size:8.46667px;line-height:1.25;font-family:sans-serif;-inkscape-font-specification:'sans-serif Bold';fill:#ffffff;fill-opacity:1;stroke-width:0.264583"
         d="m 42.993199,276.58735 q 0,1.04593 -0.549837,1.93063 -0.549838,0.8847 -1.409734,1.35599 -0.520898,0.28112 -1.087272,0.3762 -0.566374,0.091 -1.35599,0.091 h -2.228289 l 1.422136,-6.1557 h 1.992644 q 0.880567,0 1.418002,0.13642 0.537435,0.13643 0.868164,0.36794 0.454753,0.31419 0.690398,0.78548 0.239778,0.46716 0.239778,1.11208 z m -1.661914,0.14469 q 0,-0.42168 -0.157097,-0.72347 -0.157096,-0.30592 -0.479557,-0.49196 -0.148828,-0.0827 -0.305925,-0.12402 -0.152962,-0.0455 -0.3514,-0.0661 -0.190169,-0.0165 -0.434082,-0.0165 -0.243913,0 -0.425814,0 h -0.05374 l -0.909506,3.9026 h 0.144694 q 0.239779,0 0.51263,0 0.272852,0 0.442351,-0.0207 0.219108,-0.0207 0.392741,-0.0661 0.177767,-0.0455 0.388607,-0.15297 0.595313,-0.30592 0.91364,-0.91364 0.322461,-0.60771 0.322461,-1.32705 z" />
      <path
         id="path909"
         style="font-style:italic;font-variant:normal;font-weight:bold;font-stretch:normal;font-size:8.46667px;line-height:1.25;font-family:sans-serif;-inkscape-font-specification:'sans-serif Bold';fill:#ffffff;fill-opacity:1;stroke-width:0.264583"
         d="m 47.069438,277.42244 q 0.0124,-0.0744 0.01654,-0.13643 0.0083,-0.062 0.0083,-0.12815 0,-0.3266 -0.202572,-0.50023 -0.202572,-0.17363 -0.582911,-0.17363 -0.458886,0 -0.773079,0.24804 -0.310059,0.24805 -0.47129,0.6904 z m -1.136882,3.04271 q -1.186491,0 -1.831414,-0.52503 -0.644922,-0.52504 -0.644922,-1.45108 0,-0.63252 0.21084,-1.16169 0.21084,-0.52916 0.607715,-0.93017 0.380339,-0.38861 0.950847,-0.61598 0.570508,-0.22738 1.252637,-0.22738 1.037663,0 1.562696,0.42168 0.529167,0.41754 0.529167,1.2361 0,0.28112 -0.05788,0.54984 -0.05374,0.26871 -0.144694,0.5333 h -3.447853 q 0,0.0248 0,0.0496 0,0.0207 0,0.0455 0,0.48369 0.338998,0.75655 0.338997,0.27285 1.037663,0.27285 0.487826,0 0.921908,-0.16537 0.438216,-0.16536 0.760677,-0.36793 h 0.165365 l -0.276986,1.19476 q -0.434082,0.19017 -0.913639,0.28525 -0.479558,0.0992 -1.021127,0.0992 z" />
      <path
         id="path911"
         style="font-style:italic;font-variant:normal;font-weight:bold;font-stretch:normal;font-size:8.46667px;line-height:1.25;font-family:sans-serif;-inkscape-font-specification:'sans-serif Bold';fill:#ffffff;fill-opacity:1;stroke-width:0.264583"
         d="m 50.723996,280.46928 q -0.595312,0 -1.153418,-0.11162 -0.558106,-0.11162 -0.855762,-0.26045 l 0.285254,-1.2237 h 0.136426 q 0.09095,0.0786 0.227376,0.17364 0.14056,0.0951 0.396875,0.19843 0.219109,0.0951 0.508497,0.16537 0.289388,0.0661 0.624251,0.0661 0.500228,0 0.748275,-0.11576 0.252181,-0.11576 0.252181,-0.33073 0,-0.16536 -0.177767,-0.25218 -0.177767,-0.0868 -0.735872,-0.21497 -0.946713,-0.21911 -1.298113,-0.52917 -0.347266,-0.31006 -0.347266,-0.77308 0,-0.78548 0.7028,-1.2361 0.7028,-0.45475 1.901694,-0.45475 0.520898,0 1.041797,0.10748 0.520899,0.10336 0.764811,0.22324 l -0.272851,1.17409 h -0.128158 q -0.293522,-0.22737 -0.711068,-0.36793 -0.413411,-0.1447 -0.851628,-0.1447 -0.475423,0 -0.731738,0.11576 -0.252181,0.11162 -0.252181,0.34726 0,0.18191 0.219108,0.28112 0.219108,0.0951 0.690397,0.19844 0.876433,0.19017 1.260906,0.47956 0.388606,0.28939 0.388606,0.81029 0,0.77721 -0.711068,1.22783 -0.711068,0.44648 -1.922364,0.44648 z" />
      <path
         id="path913"
         style="font-style:italic;font-variant:normal;font-weight:bold;font-stretch:normal;font-size:8.46667px;line-height:1.25;font-family:sans-serif;-inkscape-font-specification:'sans-serif Bold';fill:#ffffff;fill-opacity:1;stroke-width:0.264583"
         d="m 56.53243,275.69851 -1.074871,4.64262 h -1.49655 l 1.074871,-4.64262 z m 0.454752,-1.79007 -0.260449,1.12861 h -1.579232 l 0.260449,-1.12861 z" />
      <path
         id="path915"
         style="font-style:italic;font-variant:normal;font-weight:bold;font-stretch:normal;font-size:8.46667px;line-height:1.25;font-family:sans-serif;-inkscape-font-specification:'sans-serif Bold';fill:#ffffff;fill-opacity:1;stroke-width:0.264583"
         d="m 62.44835,275.69851 -0.934311,4.10931 q -0.152962,0.66146 -0.434082,1.09968 -0.28112,0.43822 -0.682129,0.69867 -0.413412,0.26871 -0.897103,0.3762 -0.483692,0.10749 -1.087273,0.10749 -0.500228,0 -0.959115,-0.062 -0.458887,-0.0579 -0.77308,-0.13642 l 0.227377,-1.14102 h 0.181901 q 0.343132,0.13229 0.694531,0.21084 0.3514,0.0786 0.624252,0.0786 0.392741,0 0.682129,-0.0744 0.289388,-0.0703 0.454753,-0.20671 0.177767,-0.14469 0.28112,-0.35553 0.107487,-0.21084 0.173633,-0.51677 l 0.02067,-0.0868 q -0.322461,0.2191 -0.640788,0.34726 -0.318327,0.12816 -0.719336,0.12816 -0.781348,0 -1.223698,-0.39274 -0.438217,-0.39274 -0.438217,-1.18649 0,-1.3684 0.77308,-2.24483 0.77308,-0.88056 1.876889,-0.88056 0.396875,0 0.719336,0.0951 0.326595,0.0951 0.525033,0.23978 l 0.103353,-0.20671 z m -1.744598,1.07487 q -0.119889,-0.0537 -0.318326,-0.0992 -0.194304,-0.0496 -0.343132,-0.0496 -0.665593,0 -1.070736,0.50023 -0.405144,0.50023 -0.405144,1.28571 0,0.35554 0.173633,0.55397 0.173633,0.19844 0.624252,0.19844 0.219108,0 0.44235,-0.0827 0.227377,-0.0868 0.425814,-0.20257 z" />
      <path
         id="path917"
         style="font-style:italic;font-variant:normal;font-weight:bold;font-stretch:normal;font-size:8.46667px;line-height:1.25;font-family:sans-serif;-inkscape-font-specification:'sans-serif Bold';fill:#ffffff;fill-opacity:1;stroke-width:0.264583"
         d="m 68.211308,276.74858 q 0,0.12402 -0.01654,0.26872 -0.01654,0.14469 -0.05374,0.30179 l -0.694532,3.02204 h -1.504818 l 0.529167,-2.30271 q 0.05788,-0.25631 0.09095,-0.43821 0.03307,-0.1819 0.03307,-0.339 0,-0.26872 -0.136426,-0.39274 -0.136426,-0.12403 -0.500228,-0.12403 -0.177767,0 -0.409277,0.0786 -0.231511,0.0744 -0.520899,0.22738 l -0.756543,3.29076 h -1.49655 l 1.070736,-4.64262 h 1.49655 l -0.11989,0.51263 q 0.458887,-0.30179 0.835092,-0.47129 0.380339,-0.16949 0.835091,-0.16949 0.624252,0 0.971518,0.30179 0.347265,0.30179 0.347265,0.87643 z" />
      <path
         id="path919"
         style="font-style:italic;font-variant:normal;font-weight:bold;font-stretch:normal;font-size:8.46667px;line-height:1.25;font-family:sans-serif;-inkscape-font-specification:'sans-serif Bold';fill:#ffffff;fill-opacity:1;stroke-width:0.264583"
         d="m 71.382175,275.69851 -1.074871,4.64262 h -1.49655 l 1.07487,-4.64262 z m 0.454752,-1.79007 -0.260449,1.12861 h -1.579232 l 0.260449,-1.12861 z" />
      <path
         id="path921"
         style="font-style:italic;font-variant:normal;font-weight:bold;font-stretch:normal;font-size:8.46667px;line-height:1.25;font-family:sans-serif;-inkscape-font-specification:'sans-serif Bold';fill:#ffffff;fill-opacity:1;stroke-width:0.264583"
         d="m 77.141,276.74858 q 0,0.12402 -0.01654,0.26872 -0.01654,0.14469 -0.05374,0.30179 l -0.694532,3.02204 H 74.87137 l 0.529167,-2.30271 q 0.05788,-0.25631 0.09095,-0.43821 0.03307,-0.1819 0.03307,-0.339 0,-0.26872 -0.136425,-0.39274 -0.136426,-0.12403 -0.500229,-0.12403 -0.177767,0 -0.409277,0.0786 -0.231511,0.0744 -0.520899,0.22738 l -0.756543,3.29076 h -1.49655 l 1.070736,-4.64262 h 1.49655 l -0.119889,0.51263 q 0.458887,-0.30179 0.835091,-0.47129 0.380339,-0.16949 0.835092,-0.16949 0.624251,0 0.971517,0.30179 0.347266,0.30179 0.347266,0.87643 z" />
      <path
         id="path923"
         style="font-style:italic;font-variant:normal;font-weight:bold;font-stretch:normal;font-size:8.46667px;line-height:1.25;font-family:sans-serif;-inkscape-font-specification:'sans-serif Bold';fill:#ffffff;fill-opacity:1;stroke-width:0.264583"
         d="m 83.333905,275.69851 -0.93431,4.10931 q -0.152963,0.66146 -0.434083,1.09968 -0.28112,0.43822 -0.682129,0.69867 -0.413411,0.26871 -0.897103,0.3762 -0.483692,0.10749 -1.087273,0.10749 -0.500228,0 -0.959115,-0.062 -0.458887,-0.0579 -0.773079,-0.13642 l 0.227376,-1.14102 h 0.181901 q 0.343132,0.13229 0.694532,0.21084 0.3514,0.0786 0.624251,0.0786 0.392741,0 0.682129,-0.0744 0.289389,-0.0703 0.454753,-0.20671 0.177767,-0.14469 0.28112,-0.35553 0.107487,-0.21084 0.173633,-0.51677 l 0.02067,-0.0868 q -0.322462,0.2191 -0.640788,0.34726 -0.318327,0.12816 -0.719337,0.12816 -0.781348,0 -1.223698,-0.39274 -0.438216,-0.39274 -0.438216,-1.18649 0,-1.3684 0.773079,-2.24483 0.77308,-0.88056 1.876889,-0.88056 0.396875,0 0.719336,0.0951 0.326595,0.0951 0.525033,0.23978 l 0.103353,-0.20671 z m -1.744597,1.07487 q -0.11989,-0.0537 -0.318327,-0.0992 -0.194304,-0.0496 -0.343132,-0.0496 -0.665593,0 -1.070736,0.50023 -0.405143,0.50023 -0.405143,1.28571 0,0.35554 0.173633,0.55397 0.173632,0.19844 0.624251,0.19844 0.219108,0 0.442351,-0.0827 0.227376,-0.0868 0.425813,-0.20257 z" />
      <path
         id="path925"
         style="font-style:italic;font-variant:normal;font-weight:bold;font-stretch:normal;font-size:8.46667px;line-height:1.25;font-family:sans-serif;-inkscape-font-specification:'sans-serif Bold';fill:#ffffff;fill-opacity:1;stroke-width:0.264583"
         d="m 89.183678,275.69851 h 1.149284 l -0.223242,0.97979 h -1.099675 l -0.847494,3.66283 h -1.49655 l 0.847494,-3.66283 h -0.636654 l 0.223242,-0.97979 h 0.636654 l 0.02894,-0.11989 q 0.190169,-0.83922 0.694531,-1.2733 0.504363,-0.43822 1.492416,-0.43822 0.363803,0 0.63252,0.0248 0.268718,0.0207 0.463021,0.0579 l -0.243913,1.05007 H 90.69263 q -0.09508,-0.0331 -0.272851,-0.0661 -0.173633,-0.0372 -0.322462,-0.0372 -0.413411,0 -0.603581,0.16123 -0.186035,0.16124 -0.30179,0.60772 z" />
      <path
         id="path927"
         style="font-style:italic;font-variant:normal;font-weight:bold;font-stretch:normal;font-size:8.46667px;line-height:1.25;font-family:sans-serif;-inkscape-font-specification:'sans-serif Bold';fill:#ffffff;fill-opacity:1;stroke-width:0.264583"
         d="m 95.479937,277.39763 q 0,0.6532 -0.219108,1.2237 -0.219108,0.57051 -0.615984,0.97979 -0.413411,0.42581 -0.959115,0.65732 -0.545703,0.22738 -1.273307,0.22738 -1.037664,0 -1.591635,-0.49609 -0.553972,-0.4961 -0.553972,-1.37253 0,-0.62012 0.206706,-1.17822 0.206706,-0.55811 0.611849,-0.98392 0.392741,-0.41755 0.963249,-0.65733 0.574643,-0.24391 1.285711,-0.24391 1.041797,0 1.591634,0.49196 0.553972,0.48782 0.553972,1.35185 z m -1.934767,1.52136 q 0.19017,-0.28939 0.285255,-0.63252 0.09922,-0.34313 0.09922,-0.83509 0,-0.42582 -0.186035,-0.65319 -0.186035,-0.23151 -0.591179,-0.23151 -0.314192,0 -0.553971,0.15296 -0.235645,0.15296 -0.417546,0.43408 -0.169499,0.26045 -0.268717,0.64492 -0.09508,0.38448 -0.09508,0.78962 0,0.47542 0.21084,0.68213 0.21084,0.20257 0.578776,0.20257 0.268718,0 0.516765,-0.14469 0.248047,-0.14883 0.421679,-0.40928 z" />
      <path
         id="path929"
         style="font-style:italic;font-variant:normal;font-weight:bold;font-stretch:normal;font-size:8.46667px;line-height:1.25;font-family:sans-serif;-inkscape-font-specification:'sans-serif Bold';fill:#ffffff;fill-opacity:1;stroke-width:0.264583"
         d="m 100.04814,277.11651 h -0.132293 q -0.09922,-0.0331 -0.28112,-0.0496 -0.181901,-0.0165 -0.359668,-0.0165 -0.293523,0 -0.566374,0.0455 -0.272852,0.0413 -0.56224,0.13643 l -0.719336,3.10886 h -1.49655 l 1.07487,-4.64262 h 1.49655 l -0.157097,0.68213 q 0.42168,-0.31006 0.839226,-0.50436 0.42168,-0.1943 0.847492,-0.1943 0.0786,0 0.17363,0.004 0.0992,0.004 0.17364,0.0124 z" />
      <path
         id="path931"
         style="font-style:italic;font-variant:normal;font-weight:bold;font-stretch:normal;font-size:8.46667px;line-height:1.25;font-family:sans-serif;-inkscape-font-specification:'sans-serif Bold';fill:#ffffff;fill-opacity:1;stroke-width:0.264583"
         d="m 105.38114,280.45275 q -0.78961,0 -1.40973,-0.13643 -0.61598,-0.13643 -1.0666,-0.339 l 0.31833,-1.47588 h 0.17363 q 0.42581,0.38861 1.00045,0.60358 0.57465,0.21084 1.23611,0.21084 0.67799,0 0.99632,-0.1819 0.31832,-0.18603 0.31832,-0.52916 0,-0.12816 -0.0537,-0.21911 -0.0496,-0.0951 -0.19844,-0.18604 -0.14883,-0.091 -0.40927,-0.17776 -0.25632,-0.0909 -0.6656,-0.20671 -0.45062,-0.12402 -0.81028,-0.26872 -0.35554,-0.14469 -0.60772,-0.34313 -0.25218,-0.20257 -0.38447,-0.46715 -0.12816,-0.26459 -0.12816,-0.63252 0,-0.92605 0.81442,-1.47588 0.81856,-0.55397 2.23656,-0.55397 0.68213,0 1.28571,0.11162 0.60771,0.11162 1.02939,0.30179 l -0.30179,1.418 h -0.1695 q -0.32246,-0.29766 -0.85162,-0.4961 -0.52504,-0.20257 -1.14929,-0.20257 -0.61185,0 -0.94671,0.17777 -0.33486,0.17777 -0.33486,0.49196 0,0.14469 0.0496,0.23978 0.0496,0.0951 0.20257,0.18603 0.13229,0.0827 0.41754,0.18191 0.28526,0.0951 0.66973,0.19843 1.03353,0.27699 1.47588,0.64906 0.44235,0.37207 0.44235,1.00872 0,0.5333 -0.23978,0.93845 -0.23978,0.40514 -0.66146,0.65732 -0.44235,0.26872 -1.00459,0.39274 -0.56224,0.12403 -1.27331,0.12403 z" />
      <path
         id="path933"
         style="font-style:italic;font-variant:normal;font-weight:bold;font-stretch:normal;font-size:8.46667px;line-height:1.25;font-family:sans-serif;-inkscape-font-specification:'sans-serif Bold';fill:#ffffff;fill-opacity:1;stroke-width:0.264583"
         d="m 111.4583,280.46515 q -0.47542,0 -0.89297,-0.11989 -0.41341,-0.11576 -0.72347,-0.3638 -0.30179,-0.24392 -0.47129,-0.61185 -0.1695,-0.36794 -0.1695,-0.85163 0,-0.62425 0.23565,-1.15755 0.23978,-0.53744 0.66973,-0.93845 0.42168,-0.39274 1.02939,-0.62011 0.60772,-0.23151 1.31465,-0.23151 0.42581,0 0.84336,0.0951 0.42168,0.0951 0.78135,0.27699 l -0.3142,1.26917 h -0.21084 q -0.24391,-0.29352 -0.55397,-0.43408 -0.30592,-0.1447 -0.69039,-0.1447 -0.7028,0 -1.12862,0.50023 -0.42581,0.4961 -0.42581,1.24024 0,0.51676 0.26045,0.77308 0.26458,0.25631 0.81855,0.25631 0.42995,0 0.78135,-0.17363 0.35553,-0.17777 0.60771,-0.39274 h 0.21084 l -0.31419,1.26917 q -0.44648,0.1943 -0.78548,0.27699 -0.33486,0.0827 -0.8723,0.0827 z" />
      <path
         id="path935"
         style="font-style:italic;font-variant:normal;font-weight:bold;font-stretch:normal;font-size:8.46667px;line-height:1.25;font-family:sans-serif;-inkscape-font-specification:'sans-serif Bold';fill:#ffffff;fill-opacity:1;stroke-width:0.264583"
         d="m 117.35768,278.15004 q -0.39688,0.0331 -0.74414,0.0786 -0.34727,0.0455 -0.59118,0.13229 -0.25218,0.0909 -0.38447,0.25632 -0.13229,0.16536 -0.13229,0.43822 0,0.23977 0.17363,0.33899 0.17777,0.0951 0.51263,0.0951 0.21911,0 0.46715,-0.0992 0.25219,-0.10335 0.47129,-0.26045 z m -0.39274,1.69913 q -0.14056,0.0909 -0.339,0.2191 -0.19844,0.12816 -0.36794,0.20258 -0.23151,0.0951 -0.43408,0.14469 -0.20257,0.0496 -0.56224,0.0496 -0.57877,0 -0.94671,-0.32246 -0.3638,-0.3266 -0.3638,-0.8475 0,-0.54983 0.26045,-0.93017 0.26045,-0.38447 0.77308,-0.61185 0.47955,-0.21498 1.14101,-0.31006 0.6656,-0.0951 1.43868,-0.14056 0.004,-0.0248 0.0165,-0.0786 0.0124,-0.0579 0.0124,-0.12816 0,-0.29352 -0.27285,-0.40927 -0.27285,-0.11989 -0.81442,-0.11989 -0.36793,0 -0.81442,0.12402 -0.44235,0.12402 -0.66559,0.20671 h -0.13643 l 0.21911,-1.09968 q 0.26045,-0.0661 0.80615,-0.14883 0.54571,-0.0827 1.08728,-0.0827 1.0914,0 1.5999,0.28526 0.51263,0.28525 0.51263,0.8847 0,0.0827 -0.0165,0.21497 -0.0124,0.13229 -0.0372,0.23151 l -0.72761,3.15847 h -1.48001 z" />
      <path
         id="path937"
         style="font-style:italic;font-variant:normal;font-weight:bold;font-stretch:normal;font-size:8.46667px;line-height:1.25;font-family:sans-serif;-inkscape-font-specification:'sans-serif Bold';fill:#ffffff;fill-opacity:1;stroke-width:0.264583"
         d="m 122.67829,273.90844 -1.48828,6.43269 h -1.49655 l 1.48828,-6.43269 z" />
      <path
         id="path939"
         style="font-style:italic;font-variant:normal;font-weight:bold;font-stretch:normal;font-size:8.46667px;line-height:1.25;font-family:sans-serif;-inkscape-font-specification:'sans-serif Bold';fill:#ffffff;fill-opacity:1;stroke-width:0.264583"
         d="m 126.34525,277.42244 q 0.0124,-0.0744 0.0165,-0.13643 0.008,-0.062 0.008,-0.12815 0,-0.3266 -0.20258,-0.50023 -0.20257,-0.17363 -0.58291,-0.17363 -0.45888,0 -0.77308,0.24804 -0.31006,0.24805 -0.47129,0.6904 z m -1.13688,3.04271 q -1.18649,0 -1.83141,-0.52503 -0.64493,-0.52504 -0.64493,-1.45108 0,-0.63252 0.21084,-1.16169 0.21084,-0.52916 0.60772,-0.93017 0.38034,-0.38861 0.95084,-0.61598 0.57051,-0.22738 1.25264,-0.22738 1.03767,0 1.5627,0.42168 0.52916,0.41754 0.52916,1.2361 0,0.28112 -0.0579,0.54984 -0.0538,0.26871 -0.1447,0.5333 h -3.44785 q 0,0.0248 0,0.0496 0,0.0207 0,0.0455 0,0.48369 0.339,0.75655 0.339,0.27285 1.03766,0.27285 0.48783,0 0.92191,-0.16537 0.43821,-0.16536 0.76068,-0.36793 h 0.16536 l -0.27699,1.19476 q -0.43408,0.19017 -0.91363,0.28525 -0.47956,0.0992 -1.02113,0.0992 z" />
      <path
         id="path941"
         style="font-style:italic;font-variant:normal;font-weight:bold;font-stretch:normal;font-size:8.46667px;line-height:1.25;font-family:sans-serif;-inkscape-font-specification:'sans-serif Bold';fill:#ffffff;fill-opacity:1;stroke-width:0.264583"
         d="m 131.49636,274.18543 -1.20303,4.38216 h -1.34772 l 0.82269,-4.38216 z m -1.45108,6.1557 h -1.67018 l 0.25218,-1.09141 h 1.67019 z" />
      <path
         id="path943"
         style="font-style:italic;font-variant:normal;font-weight:bold;font-stretch:normal;font-size:8.46667px;line-height:1.25;font-family:sans-serif;-inkscape-font-specification:'sans-serif Bold';fill:#ffffff;fill-opacity:1;stroke-width:0.264583"
         d="m 137.91251,278.19965 h -3.15433 l 0.27285,-1.19062 h 3.15433 z" />
      <path
         id="path945"
         style="font-style:italic;font-variant:normal;font-weight:bold;font-stretch:normal;font-size:8.46667px;line-height:1.25;font-family:sans-serif;-inkscape-font-specification:'sans-serif Bold';fill:#ffffff;fill-opacity:1;stroke-width:0.264583"
         d="m 143.81189,280.45275 q -0.78961,0 -1.40973,-0.13643 -0.61598,-0.13643 -1.0666,-0.339 l 0.31832,-1.47588 h 0.17364 q 0.42581,0.38861 1.00045,0.60358 0.57464,0.21084 1.2361,0.21084 0.678,0 0.99633,-0.1819 0.31832,-0.18603 0.31832,-0.52916 0,-0.12816 -0.0537,-0.21911 -0.0496,-0.0951 -0.19844,-0.18604 -0.14883,-0.091 -0.40928,-0.17776 -0.25631,-0.0909 -0.66559,-0.20671 -0.45062,-0.12402 -0.81029,-0.26872 -0.35553,-0.14469 -0.60771,-0.34313 -0.25218,-0.20257 -0.38447,-0.46715 -0.12816,-0.26459 -0.12816,-0.63252 0,-0.92605 0.81442,-1.47588 0.81855,-0.55397 2.23656,-0.55397 0.68213,0 1.28571,0.11162 0.60771,0.11162 1.02939,0.30179 l -0.30179,1.418 h -0.1695 q -0.32246,-0.29766 -0.85163,-0.4961 -0.52503,-0.20257 -1.14928,-0.20257 -0.61185,0 -0.94671,0.17777 -0.33487,0.17777 -0.33487,0.49196 0,0.14469 0.0496,0.23978 0.0496,0.0951 0.20258,0.18603 0.13229,0.0827 0.41754,0.18191 0.28525,0.0951 0.66973,0.19843 1.03353,0.27699 1.47588,0.64906 0.44235,0.37207 0.44235,1.00872 0,0.5333 -0.23978,0.93845 -0.23978,0.40514 -0.66146,0.65732 -0.44235,0.26872 -1.00459,0.39274 -0.56224,0.12403 -1.27331,0.12403 z" />
      <path
         id="path947"
         style="font-style:italic;font-variant:normal;font-weight:bold;font-stretch:normal;font-size:8.46667px;line-height:1.25;font-family:sans-serif;-inkscape-font-specification:'sans-serif Bold';fill:#ffffff;fill-opacity:1;stroke-width:0.264583"
         d="m 150.06267,275.69851 -1.07487,4.64262 h -1.49655 l 1.07487,-4.64262 z m 0.45476,-1.79007 -0.26045,1.12861 h -1.57923 l 0.26044,-1.12861 z" />
      <path
         id="path949"
         style="font-style:italic;font-variant:normal;font-weight:bold;font-stretch:normal;font-size:8.46667px;line-height:1.25;font-family:sans-serif;-inkscape-font-specification:'sans-serif Bold';fill:#ffffff;fill-opacity:1;stroke-width:0.264583"
         d="m 158.75672,276.73204 q 0,0.12816 -0.0207,0.27699 -0.0165,0.14883 -0.0537,0.31006 l -0.69867,3.02204 h -1.50482 l 0.53744,-2.31924 q 0.0537,-0.23978 0.0951,-0.45889 0.0455,-0.21911 0.0455,-0.35553 0,-0.23978 -0.13229,-0.3514 -0.13229,-0.11163 -0.47129,-0.11163 -0.16123,0 -0.36794,0.0786 -0.20257,0.0744 -0.49196,0.22738 l -0.76068,3.29076 h -1.50481 l 0.53743,-2.31924 q 0.0455,-0.20258 0.0909,-0.43822 0.0455,-0.23564 0.0455,-0.35967 0,-0.25218 -0.12816,-0.3638 -0.12402,-0.11576 -0.46716,-0.11576 -0.17776,0 -0.3886,0.0827 -0.21084,0.0827 -0.47543,0.22324 l -0.76067,3.29076 h -1.49655 l 1.07487,-4.64262 h 1.49655 l -0.11989,0.51263 q 0.45475,-0.30179 0.81855,-0.47129 0.36794,-0.16949 0.79375,-0.16949 0.45889,0 0.77308,0.2067 0.3142,0.20257 0.43822,0.59945 0.55397,-0.40101 0.99219,-0.60358 0.43821,-0.20257 0.84749,-0.20257 0.61185,0 0.93431,0.30179 0.32246,0.30179 0.32246,0.85989 z" />
      <path
         id="path951"
         style="font-style:italic;font-variant:normal;font-weight:bold;font-stretch:normal;font-size:8.46667px;line-height:1.25;font-family:sans-serif;-inkscape-font-specification:'sans-serif Bold';fill:#ffffff;fill-opacity:1;stroke-width:0.264583"
         d="m 165.05298,275.69851 -1.07487,4.64262 h -1.49655 l 0.11989,-0.51263 q -0.22324,0.14469 -0.43822,0.27285 -0.21084,0.12402 -0.40101,0.19843 -0.23978,0.0992 -0.43821,0.1323 -0.19844,0.0372 -0.39275,0.0372 -0.61184,0 -0.96738,-0.29352 -0.3514,-0.29352 -0.3514,-0.86816 0,-0.1571 0.0165,-0.28939 0.0165,-0.13643 0.0537,-0.29766 l 0.69867,-3.02204 h 1.50482 l -0.53331,2.30271 q -0.062,0.26458 -0.0951,0.45475 -0.0289,0.19017 -0.0289,0.32246 0,0.27285 0.13229,0.39687 0.13229,0.11989 0.50023,0.11989 0.1819,0 0.41755,-0.0785 0.23978,-0.0786 0.51676,-0.22738 l 0.76068,-3.29076 z" />
      <path
         id="path953"
         style="font-style:italic;font-variant:normal;font-weight:bold;font-stretch:normal;font-size:8.46667px;line-height:1.25;font-family:sans-serif;-inkscape-font-specification:'sans-serif Bold';fill:#ffffff;fill-opacity:1;stroke-width:0.264583"
         d="m 168.36853,273.90844 -1.48828,6.43269 h -1.49655 l 1.48828,-6.43269 z" />
      <path
         id="path955"
         style="font-style:italic;font-variant:normal;font-weight:bold;font-stretch:normal;font-size:8.46667px;line-height:1.25;font-family:sans-serif;-inkscape-font-specification:'sans-serif Bold';fill:#ffffff;fill-opacity:1;stroke-width:0.264583"
         d="m 171.59729,278.15004 q -0.39688,0.0331 -0.74414,0.0786 -0.34727,0.0455 -0.59118,0.13229 -0.25218,0.0909 -0.38447,0.25632 -0.1323,0.16536 -0.1323,0.43822 0,0.23977 0.17364,0.33899 0.17776,0.0951 0.51263,0.0951 0.21911,0 0.46715,-0.0992 0.25218,-0.10335 0.47129,-0.26045 z m -0.39274,1.69913 q -0.14056,0.0909 -0.339,0.2191 -0.19844,0.12816 -0.36794,0.20258 -0.23151,0.0951 -0.43408,0.14469 -0.20257,0.0496 -0.56224,0.0496 -0.57877,0 -0.94671,-0.32246 -0.3638,-0.3266 -0.3638,-0.8475 0,-0.54983 0.26045,-0.93017 0.26045,-0.38447 0.77308,-0.61185 0.47955,-0.21498 1.14101,-0.31006 0.66559,-0.0951 1.43867,-0.14056 0.004,-0.0248 0.0165,-0.0786 0.0124,-0.0579 0.0124,-0.12816 0,-0.29352 -0.27285,-0.40927 -0.27285,-0.11989 -0.81442,-0.11989 -0.36794,0 -0.81442,0.12402 -0.44235,0.12402 -0.66559,0.20671 h -0.13643 l 0.21911,-1.09968 q 0.26045,-0.0661 0.80615,-0.14883 0.54571,-0.0827 1.08727,-0.0827 1.09141,0 1.59991,0.28526 0.51263,0.28525 0.51263,0.8847 0,0.0827 -0.0165,0.21497 -0.0124,0.13229 -0.0372,0.23151 l -0.7276,3.15847 h -1.48001 z" />
      <path
         id="path957"
         style="font-style:italic;font-variant:normal;font-weight:bold;font-stretch:normal;font-size:8.46667px;line-height:1.25;font-family:sans-serif;-inkscape-font-specification:'sans-serif Bold';fill:#ffffff;fill-opacity:1;stroke-width:0.264583"
         d="m 175.71487,280.43208 q -0.77308,0 -1.10381,-0.25219 -0.33073,-0.25631 -0.33073,-0.75654 0,-0.13229 0.0207,-0.25631 0.0207,-0.12403 0.0537,-0.28939 l 0.50437,-2.19935 h -0.61185 l 0.22737,-0.97979 h 0.61185 l 0.30593,-1.32705 h 1.49241 l -0.30592,1.32705 h 1.39733 l -0.22738,0.97979 h -1.39733 l -0.38447,1.67432 q -0.0413,0.17363 -0.0786,0.3514 -0.0372,0.17363 -0.0372,0.29765 0,0.24805 0.13643,0.34727 0.14056,0.0951 0.42995,0.0951 0.11575,0 0.30179,-0.0413 0.19017,-0.0455 0.30179,-0.0992 h 0.12402 l -0.23151,0.99632 q -0.25218,0.062 -0.5333,0.0951 -0.27698,0.0372 -0.66559,0.0372 z" />
      <path
         id="path959"
         style="font-style:italic;font-variant:normal;font-weight:bold;font-stretch:normal;font-size:8.46667px;line-height:1.25;font-family:sans-serif;-inkscape-font-specification:'sans-serif Bold';fill:#ffffff;fill-opacity:1;stroke-width:0.264583"
         d="m 180.35748,275.69851 -1.07487,4.64262 h -1.49655 l 1.07487,-4.64262 z m 0.45475,-1.79007 -0.26044,1.12861 h -1.57924 l 0.26045,-1.12861 z" />
      <path
         id="path961"
         style="font-style:italic;font-variant:normal;font-weight:bold;font-stretch:normal;font-size:8.46667px;line-height:1.25;font-family:sans-serif;-inkscape-font-specification:'sans-serif Bold';fill:#ffffff;fill-opacity:1;stroke-width:0.264583"
         d="m 186.1163,276.74858 q 0,0.12402 -0.0165,0.26872 -0.0165,0.14469 -0.0537,0.30179 l -0.69453,3.02204 h -1.50482 l 0.52917,-2.30271 q 0.0579,-0.25631 0.0909,-0.43821 0.0331,-0.1819 0.0331,-0.339 0,-0.26872 -0.13643,-0.39274 -0.13642,-0.12403 -0.50022,-0.12403 -0.17777,0 -0.40928,0.0786 -0.23151,0.0744 -0.5209,0.22738 l -0.75654,3.29076 h -1.49655 l 1.07073,-4.64262 h 1.49655 l -0.11989,0.51263 q 0.45889,-0.30179 0.8351,-0.47129 0.38033,-0.16949 0.83509,-0.16949 0.62425,0 0.97151,0.30179 0.34727,0.30179 0.34727,0.87643 z" />
      <path
         id="path963"
         style="font-style:italic;font-variant:normal;font-weight:bold;font-stretch:normal;font-size:8.46667px;line-height:1.25;font-family:sans-serif;-inkscape-font-specification:'sans-serif Bold';fill:#ffffff;fill-opacity:1;stroke-width:0.264583"
         d="m 192.30921,275.69851 -0.93431,4.10931 q -0.15296,0.66146 -0.43408,1.09968 -0.28112,0.43822 -0.68213,0.69867 -0.41341,0.26871 -0.89711,0.3762 -0.48369,0.10749 -1.08727,0.10749 -0.50023,0 -0.95911,-0.062 -0.45889,-0.0579 -0.77308,-0.13642 l 0.22737,-1.14102 h 0.1819 q 0.34314,0.13229 0.69454,0.21084 0.3514,0.0786 0.62425,0.0786 0.39274,0 0.68213,-0.0744 0.28938,-0.0703 0.45475,-0.20671 0.17777,-0.14469 0.28112,-0.35553 0.10749,-0.21084 0.17363,-0.51677 l 0.0207,-0.0868 q -0.32246,0.2191 -0.64079,0.34726 -0.31832,0.12816 -0.71933,0.12816 -0.78135,0 -1.2237,-0.39274 -0.43822,-0.39274 -0.43822,-1.18649 0,-1.3684 0.77308,-2.24483 0.77308,-0.88056 1.87689,-0.88056 0.39688,0 0.71934,0.0951 0.32659,0.0951 0.52503,0.23978 l 0.10335,-0.20671 z m -1.7446,1.07487 q -0.11989,-0.0537 -0.31833,-0.0992 -0.1943,-0.0496 -0.34313,-0.0496 -0.66559,0 -1.07073,0.50023 -0.40515,0.50023 -0.40515,1.28571 0,0.35554 0.17364,0.55397 0.17363,0.19844 0.62425,0.19844 0.21911,0 0.44235,-0.0827 0.22737,-0.0868 0.42581,-0.20257 z" />
      <path
         id="path965"
         style="font-style:italic;font-variant:normal;font-weight:bold;font-stretch:normal;font-size:8.46667px;line-height:1.25;font-family:sans-serif;-inkscape-font-specification:'sans-serif Bold';fill:#ffffff;fill-opacity:1;stroke-width:0.264583"
         d="m 198.84938,278.15004 q -0.39688,0.0331 -0.74414,0.0786 -0.34727,0.0455 -0.59118,0.13229 -0.25218,0.0909 -0.38447,0.25632 -0.1323,0.16536 -0.1323,0.43822 0,0.23977 0.17364,0.33899 0.17776,0.0951 0.51263,0.0951 0.21911,0 0.46715,-0.0992 0.25218,-0.10335 0.47129,-0.26045 z m -0.39274,1.69913 q -0.14056,0.0909 -0.339,0.2191 -0.19844,0.12816 -0.36794,0.20258 -0.23151,0.0951 -0.43408,0.14469 -0.20257,0.0496 -0.56224,0.0496 -0.57877,0 -0.94671,-0.32246 -0.3638,-0.3266 -0.3638,-0.8475 0,-0.54983 0.26045,-0.93017 0.26045,-0.38447 0.77308,-0.61185 0.47955,-0.21498 1.14101,-0.31006 0.66559,-0.0951 1.43867,-0.14056 0.004,-0.0248 0.0165,-0.0786 0.0124,-0.0579 0.0124,-0.12816 0,-0.29352 -0.27285,-0.40927 -0.27285,-0.11989 -0.81442,-0.11989 -0.36794,0 -0.81442,0.12402 -0.44235,0.12402 -0.66559,0.20671 h -0.13643 l 0.21911,-1.09968 q 0.26045,-0.0661 0.80615,-0.14883 0.54571,-0.0827 1.08727,-0.0827 1.09141,0 1.59991,0.28526 0.51263,0.28525 0.51263,0.8847 0,0.0827 -0.0165,0.21497 -0.0124,0.13229 -0.0372,0.23151 l -0.7276,3.15847 h -1.48001 z" />
      <path
         id="path967"
         style="font-style:italic;font-variant:normal;font-weight:bold;font-stretch:normal;font-size:8.46667px;line-height:1.25;font-family:sans-serif;-inkscape-font-specification:'sans-serif Bold';fill:#ffffff;fill-opacity:1;stroke-width:0.264583"
         d="m 206.62152,276.74858 q 0,0.12402 -0.0165,0.26872 -0.0165,0.14469 -0.0537,0.30179 l -0.69453,3.02204 h -1.50482 l 0.52917,-2.30271 q 0.0579,-0.25631 0.091,-0.43821 0.0331,-0.1819 0.0331,-0.339 0,-0.26872 -0.13643,-0.39274 -0.13642,-0.12403 -0.50023,-0.12403 -0.17776,0 -0.40927,0.0786 -0.23151,0.0744 -0.5209,0.22738 l -0.75654,3.29076 h -1.49655 l 1.07073,-4.64262 h 1.49655 l -0.11989,0.51263 q 0.45889,-0.30179 0.83509,-0.47129 0.38034,-0.16949 0.8351,-0.16949 0.62425,0 0.97151,0.30179 0.34727,0.30179 0.34727,0.87643 z" />
      <path
         id="path969"
         style="font-style:italic;font-variant:normal;font-weight:bold;font-stretch:normal;font-size:8.46667px;line-height:1.25;font-family:sans-serif;-inkscape-font-specification:'sans-serif Bold';fill:#ffffff;fill-opacity:1;stroke-width:0.264583"
         d="m 213.52549,280.34113 h -3.60495 l 0.25218,-1.09141 h 1.00459 l 0.91777,-3.97289 h -1.00459 l 0.25219,-1.0914 h 3.60494 l -0.25218,1.0914 h -1.00459 l -0.91777,3.97289 h 1.00459 z" />
      <path
         id="path971"
         style="font-style:italic;font-variant:normal;font-weight:bold;font-stretch:normal;font-size:8.46667px;line-height:1.25;font-family:sans-serif;-inkscape-font-specification:'sans-serif Bold';fill:#ffffff;fill-opacity:1;stroke-width:0.264583"
         d="m 220.09874,277.39763 q 0,0.6532 -0.21911,1.2237 -0.2191,0.57051 -0.61598,0.97979 -0.41341,0.42581 -0.95911,0.65732 -0.54571,0.22738 -1.27331,0.22738 -1.03767,0 -1.59164,-0.49609 -0.55397,-0.4961 -0.55397,-1.37253 0,-0.62012 0.20671,-1.17822 0.2067,-0.55811 0.61185,-0.98392 0.39274,-0.41755 0.96325,-0.65733 0.57464,-0.24391 1.28571,-0.24391 1.04179,0 1.59163,0.49196 0.55397,0.48782 0.55397,1.35185 z m -1.93476,1.52136 q 0.19016,-0.28939 0.28525,-0.63252 0.0992,-0.34313 0.0992,-0.83509 0,-0.42582 -0.18604,-0.65319 -0.18603,-0.23151 -0.59118,-0.23151 -0.31419,0 -0.55397,0.15296 -0.23564,0.15296 -0.41754,0.43408 -0.1695,0.26045 -0.26872,0.64492 -0.0951,0.38448 -0.0951,0.78962 0,0.47542 0.21084,0.68213 0.21084,0.20257 0.57878,0.20257 0.26872,0 0.51677,-0.14469 0.24804,-0.14883 0.42168,-0.40928 z" />
      <path
         id="path973"
         style="font-style:italic;font-variant:normal;font-weight:bold;font-stretch:normal;font-size:8.46667px;line-height:1.25;font-family:sans-serif;-inkscape-font-specification:'sans-serif Bold';fill:#ffffff;fill-opacity:1;stroke-width:0.264583"
         d="m 226.6017,275.37605 h -1.91823 l -1.14515,4.96508 h -1.59577 l 1.14515,-4.96508 h -1.91823 l 0.27285,-1.19062 h 5.43223 z" />
      <path
         id="path975"
         style="font-style:italic;font-variant:normal;font-weight:bold;font-stretch:normal;font-size:8.46667px;line-height:1.25;font-family:sans-serif;-inkscape-font-specification:'sans-serif Bold';fill:#ffffff;fill-opacity:1;stroke-width:0.264583"
         d="m 234.89888,280.34113 h -1.35186 l -1.80661,-4.26228 -0.98392,4.26228 h -1.46347 l 1.42213,-6.1557 h 1.77767 l 1.54616,3.5636 0.81856,-3.5636 h 1.46347 z" />
      <path
         id="path977"
         style="font-style:italic;font-variant:normal;font-weight:bold;font-stretch:normal;font-size:8.46667px;line-height:1.25;font-family:sans-serif;-inkscape-font-specification:'sans-serif Bold';fill:#ffffff;fill-opacity:1;stroke-width:0.264583"
         d="m 240.1492,277.42244 q 0.0124,-0.0744 0.0165,-0.13643 0.008,-0.062 0.008,-0.12815 0,-0.3266 -0.20257,-0.50023 -0.20257,-0.17363 -0.58291,-0.17363 -0.45889,0 -0.77308,0.24804 -0.31006,0.24805 -0.47129,0.6904 z m -1.13688,3.04271 q -1.1865,0 -1.83142,-0.52503 -0.64492,-0.52504 -0.64492,-1.45108 0,-0.63252 0.21084,-1.16169 0.21084,-0.52916 0.60772,-0.93017 0.38033,-0.38861 0.95084,-0.61598 0.57051,-0.22738 1.25264,-0.22738 1.03766,0 1.5627,0.42168 0.52916,0.41754 0.52916,1.2361 0,0.28112 -0.0579,0.54984 -0.0537,0.26871 -0.14469,0.5333 h -3.44785 q 0,0.0248 0,0.0496 0,0.0207 0,0.0455 0,0.48369 0.339,0.75655 0.33899,0.27285 1.03766,0.27285 0.48782,0 0.92191,-0.16537 0.43821,-0.16536 0.76067,-0.36793 h 0.16537 l -0.27699,1.19476 q -0.43408,0.19017 -0.91364,0.28525 -0.47955,0.0992 -1.02112,0.0992 z" />
      <path
         id="path979"
         style="font-style:italic;font-variant:normal;font-weight:bold;font-stretch:normal;font-size:8.46667px;line-height:1.25;font-family:sans-serif;-inkscape-font-specification:'sans-serif Bold';fill:#ffffff;fill-opacity:1;stroke-width:0.264583"
         d="m 243.7955,280.43208 q -0.77308,0 -1.10381,-0.25219 -0.33073,-0.25631 -0.33073,-0.75654 0,-0.13229 0.0207,-0.25631 0.0207,-0.12403 0.0537,-0.28939 l 0.50436,-2.19935 h -0.61184 l 0.22737,-0.97979 h 0.61185 l 0.30593,-1.32705 h 1.49241 l -0.30592,1.32705 h 1.39733 l -0.22738,0.97979 h -1.39733 l -0.38447,1.67432 q -0.0413,0.17363 -0.0786,0.3514 -0.0372,0.17363 -0.0372,0.29765 0,0.24805 0.13643,0.34727 0.14056,0.0951 0.42995,0.0951 0.11575,0 0.30179,-0.0413 0.19017,-0.0455 0.30179,-0.0992 h 0.12402 l -0.23151,0.99632 q -0.25218,0.062 -0.5333,0.0951 -0.27699,0.0372 -0.66559,0.0372 z" />
      <path
         id="path981"
         style="font-style:italic;font-variant:normal;font-weight:bold;font-stretch:normal;font-size:8.46667px;line-height:1.25;font-family:sans-serif;-inkscape-font-specification:'sans-serif Bold';fill:#ffffff;fill-opacity:1;stroke-width:0.264583"
         d="m 254.34576,275.69851 -2.42672,4.64262 h -1.57924 l -0.31006,-3.12953 -1.56683,3.12953 h -1.5999 l -0.43822,-4.64262 h 1.52136 l 0.13643,3.19981 1.64951,-3.19981 h 1.31878 l 0.28525,3.19981 1.43868,-3.19981 z" />
      <path
         id="path983"
         style="font-style:italic;font-variant:normal;font-weight:bold;font-stretch:normal;font-size:8.46667px;line-height:1.25;font-family:sans-serif;-inkscape-font-specification:'sans-serif Bold';fill:#ffffff;fill-opacity:1;stroke-width:0.264583"
         d="m 259.52167,277.39763 q 0,0.6532 -0.21911,1.2237 -0.21911,0.57051 -0.61598,0.97979 -0.41341,0.42581 -0.95912,0.65732 -0.5457,0.22738 -1.2733,0.22738 -1.03767,0 -1.59164,-0.49609 -0.55397,-0.4961 -0.55397,-1.37253 0,-0.62012 0.2067,-1.17822 0.20671,-0.55811 0.61185,-0.98392 0.39275,-0.41755 0.96325,-0.65733 0.57465,-0.24391 1.28571,-0.24391 1.0418,0 1.59164,0.49196 0.55397,0.48782 0.55397,1.35185 z m -1.93477,1.52136 q 0.19017,-0.28939 0.28526,-0.63252 0.0992,-0.34313 0.0992,-0.83509 0,-0.42582 -0.18604,-0.65319 -0.18603,-0.23151 -0.59118,-0.23151 -0.31419,0 -0.55397,0.15296 -0.23564,0.15296 -0.41755,0.43408 -0.16949,0.26045 -0.26871,0.64492 -0.0951,0.38448 -0.0951,0.78962 0,0.47542 0.21084,0.68213 0.21084,0.20257 0.57878,0.20257 0.26872,0 0.51676,-0.14469 0.24805,-0.14883 0.42168,-0.40928 z" />
      <path
         id="path985"
         style="font-style:italic;font-variant:normal;font-weight:bold;font-stretch:normal;font-size:8.46667px;line-height:1.25;font-family:sans-serif;-inkscape-font-specification:'sans-serif Bold';fill:#ffffff;fill-opacity:1;stroke-width:0.264583"
         d="m 264.08987,277.11651 h -0.13229 q -0.0992,-0.0331 -0.28112,-0.0496 -0.1819,-0.0165 -0.35966,-0.0165 -0.29353,0 -0.56638,0.0455 -0.27285,0.0413 -0.56224,0.13643 l -0.71933,3.10886 h -1.49655 l 1.07487,-4.64262 h 1.49655 l -0.1571,0.68213 q 0.42168,-0.31006 0.83922,-0.50436 0.42168,-0.1943 0.8475,-0.1943 0.0786,0 0.17363,0.004 0.0992,0.004 0.17363,0.0124 z" />
      <path
         id="path987"
         style="font-style:italic;font-variant:normal;font-weight:bold;font-stretch:normal;font-size:8.46667px;line-height:1.25;font-family:sans-serif;-inkscape-font-specification:'sans-serif Bold';fill:#ffffff;fill-opacity:1;stroke-width:0.264583"
         d="m 269.1707,280.34113 h -1.56683 l -0.91364,-2.05053 -0.65732,0.58705 -0.34313,1.46348 h -1.49655 l 1.48414,-6.43269 h 1.49655 l -0.8847,3.84059 2.07533,-2.05052 h 1.71566 l -2.14974,2.02159 z" />
    </g>
    <g
       style="font-style:normal;font-weight:normal;font-size:5.64444px;line-height:1.25;font-family:sans-serif;letter-spacing:0px;word-spacing:0px;fill:#ffffff;fill-opacity:1;stroke:none;stroke-width:0.264583"
       id="text827-87"
       aria-label="Coming Soon">
      <path
         id="path990"
         style="font-style:italic;font-variant:normal;font-weight:normal;font-stretch:normal;font-size:5.64444px;line-height:1.25;font-family:sans-serif;-inkscape-font-specification:'sans-serif Italic';fill:#ffffff;fill-opacity:1;stroke-width:0.264583"
         d="m 18.755285,259.69481 q -0.779969,0 -1.223697,-0.40239 -0.443728,-0.40514 -0.443728,-1.14653 0,-0.56775 0.170877,-1.05833 0.170876,-0.49058 0.490581,-0.8599 0.316948,-0.3638 0.779969,-0.57326 0.46302,-0.21222 1.033528,-0.21222 0.355533,0 0.672482,0.0882 0.316948,0.0854 0.650433,0.27285 l -0.124023,0.61736 h -0.04134 q -0.09095,-0.091 -0.184657,-0.16812 -0.09095,-0.0799 -0.275608,-0.17363 -0.151584,-0.0799 -0.361045,-0.1323 -0.209462,-0.0551 -0.463021,-0.0551 -0.38585,0 -0.708311,0.16261 -0.322461,0.15985 -0.559483,0.44924 -0.23151,0.28112 -0.363802,0.68351 -0.132291,0.40239 -0.132291,0.85714 0,0.56775 0.2949,0.8847 0.2949,0.31419 0.851627,0.31419 0.261827,0 0.496093,-0.0579 0.237022,-0.0606 0.429948,-0.15158 0.179144,-0.0854 0.32246,-0.17915 0.143316,-0.0937 0.245291,-0.17363 h 0.03858 l -0.129536,0.6339 q -0.289387,0.14607 -0.66697,0.26458 -0.374826,0.11576 -0.799261,0.11576 z" />
      <path
         id="path992"
         style="font-style:italic;font-variant:normal;font-weight:normal;font-stretch:normal;font-size:5.64444px;line-height:1.25;font-family:sans-serif;-inkscape-font-specification:'sans-serif Italic';fill:#ffffff;fill-opacity:1;stroke-width:0.264583"
         d="m 23.84851,257.63051 q 0,0.41341 -0.126779,0.79375 -0.12678,0.38033 -0.35829,0.66145 -0.239778,0.29215 -0.553971,0.45751 -0.314192,0.16261 -0.733116,0.16261 -0.548458,0 -0.857139,-0.31144 -0.305924,-0.31419 -0.305924,-0.8654 0,-0.41341 0.124023,-0.78824 0.12678,-0.37483 0.363802,-0.66697 0.228754,-0.28112 0.559483,-0.44924 0.333485,-0.16812 0.727604,-0.16812 0.531922,0 0.846115,0.30317 0.314192,0.30316 0.314192,0.87092 z m -0.843359,1.16306 q 0.148828,-0.22049 0.225999,-0.50987 0.07993,-0.28939 0.07993,-0.61185 0,-0.38585 -0.184657,-0.58429 -0.184657,-0.19844 -0.520898,-0.19844 -0.26734,0 -0.479557,0.12954 -0.212218,0.12678 -0.366558,0.35002 -0.148828,0.21773 -0.228754,0.50987 -0.07993,0.29215 -0.07993,0.60634 0,0.38034 0.184657,0.58429 0.184657,0.20395 0.523654,0.20395 0.264583,0 0.479557,-0.12678 0.214973,-0.12678 0.366557,-0.35278 z" />
      <path
         id="path994"
         style="font-style:italic;font-variant:normal;font-weight:normal;font-stretch:normal;font-size:5.64444px;line-height:1.25;font-family:sans-serif;-inkscape-font-specification:'sans-serif Italic';fill:#ffffff;fill-opacity:1;stroke-width:0.264583"
         d="m 29.255928,257.22261 q 0,0.091 -0.01378,0.19292 -0.01102,0.10198 -0.03583,0.20671 l -0.46302,1.99815 h -0.518142 l 0.405143,-1.75286 q 0.03307,-0.14607 0.05236,-0.2701 0.02205,-0.12402 0.02205,-0.23151 0,-0.20946 -0.104731,-0.32246 -0.104731,-0.113 -0.399631,-0.113 -0.21773,0 -0.460264,0.12127 -0.242535,0.12127 -0.482313,0.28388 -0.0055,0.0689 -0.01929,0.15709 -0.01102,0.0882 -0.02756,0.1571 l -0.454753,1.97059 h -0.518142 l 0.405143,-1.75286 q 0.03583,-0.17088 0.05788,-0.27836 0.02205,-0.11025 0.02205,-0.22325 0,-0.2508 -0.137803,-0.34175 -0.137804,-0.0937 -0.37207,-0.0937 -0.165365,0 -0.369314,0.0854 -0.20395,0.0827 -0.542947,0.30593 l -0.531922,2.29856 h -0.518142 l 0.711067,-3.07853 h 0.518142 l -0.07993,0.34175 q 0.289388,-0.20119 0.534678,-0.31419 0.248047,-0.113 0.520898,-0.113 0.311437,0 0.504362,0.13229 0.195681,0.13229 0.259071,0.36656 0.363802,-0.26459 0.653189,-0.38034 0.289388,-0.11851 0.570508,-0.11851 0.405143,0 0.609092,0.20119 0.20395,0.2012 0.20395,0.565 z" />
      <path
         id="path996"
         style="font-style:italic;font-variant:normal;font-weight:normal;font-stretch:normal;font-size:5.64444px;line-height:1.25;font-family:sans-serif;-inkscape-font-specification:'sans-serif Italic';fill:#ffffff;fill-opacity:1;stroke-width:0.264583"
         d="m 31.251325,255.48904 -0.124023,0.53743 h -0.584288 l 0.124024,-0.53743 z m -0.275607,1.05282 -0.711067,3.07853 h -0.518142 l 0.711067,-3.07853 z" />
      <path
         id="path998"
         style="font-style:italic;font-variant:normal;font-weight:normal;font-stretch:normal;font-size:5.64444px;line-height:1.25;font-family:sans-serif;-inkscape-font-specification:'sans-serif Italic';fill:#ffffff;fill-opacity:1;stroke-width:0.264583"
         d="m 34.37947,257.24466 q 0,0.0661 -0.01378,0.17914 -0.01103,0.113 -0.03307,0.19844 l -0.463021,1.99815 h -0.518142 l 0.405143,-1.75286 q 0.03307,-0.14607 0.04961,-0.25356 0.01929,-0.11024 0.01929,-0.21773 0,-0.23151 -0.115755,-0.34727 -0.112999,-0.11851 -0.410655,-0.11851 -0.209462,0 -0.463021,0.11576 -0.250802,0.11575 -0.490581,0.27561 l -0.531922,2.29856 h -0.518142 l 0.711067,-3.07853 h 0.518142 l -0.07993,0.34175 q 0.2949,-0.20671 0.551215,-0.31695 0.259071,-0.11024 0.531922,-0.11024 0.402387,0 0.625629,0.20395 0.225998,0.20119 0.225998,0.58429 z" />
      <path
         id="path1000"
         style="font-style:italic;font-variant:normal;font-weight:normal;font-stretch:normal;font-size:5.64444px;line-height:1.25;font-family:sans-serif;-inkscape-font-specification:'sans-serif Italic';fill:#ffffff;fill-opacity:1;stroke-width:0.264583"
         d="m 38.067098,256.54186 -0.625629,2.73678 q -0.181901,0.78272 -0.598068,1.14377 -0.413411,0.3638 -1.152039,0.3638 -0.237023,0 -0.479557,-0.0358 -0.239779,-0.0358 -0.440972,-0.0965 l 0.118511,-0.51539 h 0.02756 q 0.15434,0.0689 0.416167,0.1323 0.261827,0.0634 0.493337,0.0634 0.261828,0 0.443728,-0.0689 0.184657,-0.0661 0.303169,-0.1819 0.115755,-0.11575 0.187413,-0.27009 0.07441,-0.15159 0.115755,-0.34176 l 0.06339,-0.27009 q -0.278364,0.18741 -0.490582,0.28112 -0.212217,0.0909 -0.542946,0.0909 -0.44924,0 -0.702799,-0.27285 -0.253559,-0.27561 -0.253559,-0.77446 0,-0.39963 0.129535,-0.77446 0.132292,-0.37758 0.366558,-0.66972 0.228754,-0.28388 0.548459,-0.45475 0.322461,-0.17088 0.689019,-0.17088 0.264583,0 0.471288,0.0606 0.209462,0.0606 0.363802,0.1571 l 0.06339,-0.13229 z m -0.644921,0.55397 q -0.176389,-0.0909 -0.363802,-0.14056 -0.184657,-0.0524 -0.374826,-0.0524 -0.270096,0 -0.493338,0.12403 -0.220486,0.12126 -0.380338,0.33899 -0.151584,0.20395 -0.237022,0.49334 -0.08268,0.28663 -0.08268,0.57326 0,0.32522 0.148828,0.50437 0.148828,0.17638 0.476801,0.17638 0.228754,0 0.463021,-0.0965 0.234266,-0.0965 0.460264,-0.24253 z" />
      <path
         id="path1002"
         style="font-style:italic;font-variant:normal;font-weight:normal;font-stretch:normal;font-size:5.64444px;line-height:1.25;font-family:sans-serif;-inkscape-font-specification:'sans-serif Italic';fill:#ffffff;fill-opacity:1;stroke-width:0.264583"
         d="m 41.815358,259.69481 q -0.399631,0 -0.760677,-0.0827 -0.361045,-0.0854 -0.708311,-0.25907 l 0.132292,-0.62563 h 0.03858 q 0.264583,0.25081 0.647677,0.38585 0.385851,0.1323 0.74414,0.1323 0.587044,0 0.898481,-0.23151 0.314192,-0.23427 0.314192,-0.59532 0,-0.19017 -0.112999,-0.31695 -0.110243,-0.12677 -0.325217,-0.18741 -0.179145,-0.0496 -0.427191,-0.0937 -0.245291,-0.0469 -0.468533,-0.0992 -0.432704,-0.0965 -0.669726,-0.33073 -0.237022,-0.23427 -0.237022,-0.58153 0,-0.58705 0.496093,-0.97565 0.49885,-0.39137 1.287087,-0.39137 0.429947,0 0.779969,0.0909 0.352777,0.0882 0.606336,0.20947 l -0.124023,0.58704 h -0.03858 q -0.195682,-0.17915 -0.559483,-0.30868 -0.361046,-0.12954 -0.760677,-0.12954 -0.501605,0 -0.802017,0.22049 -0.297656,0.22049 -0.297656,0.55948 0,0.1819 0.107486,0.31971 0.107487,0.1378 0.383095,0.2067 0.176389,0.0413 0.468532,0.10198 0.292144,0.0579 0.490582,0.11024 0.391362,0.10749 0.592556,0.3197 0.203949,0.21222 0.203949,0.53468 0,0.2701 -0.132291,0.53744 -0.132292,0.26734 -0.369314,0.45751 -0.253559,0.20395 -0.595312,0.3197 -0.338998,0.11576 -0.802018,0.11576 z" />
      <path
         id="path1004"
         style="font-style:italic;font-variant:normal;font-weight:normal;font-stretch:normal;font-size:5.64444px;line-height:1.25;font-family:sans-serif;-inkscape-font-specification:'sans-serif Italic';fill:#ffffff;fill-opacity:1;stroke-width:0.264583"
         d="m 47.242069,257.63051 q 0,0.41341 -0.126779,0.79375 -0.126779,0.38033 -0.35829,0.66145 -0.239778,0.29215 -0.553971,0.45751 -0.314192,0.16261 -0.733115,0.16261 -0.548459,0 -0.857139,-0.31144 -0.305925,-0.31419 -0.305925,-0.8654 0,-0.41341 0.124024,-0.78824 0.126779,-0.37483 0.363801,-0.66697 0.228755,-0.28112 0.559484,-0.44924 0.333485,-0.16812 0.727603,-0.16812 0.531922,0 0.846115,0.30317 0.314192,0.30316 0.314192,0.87092 z m -0.843358,1.16306 q 0.148828,-0.22049 0.225998,-0.50987 0.07993,-0.28939 0.07993,-0.61185 0,-0.38585 -0.184657,-0.58429 -0.184657,-0.19844 -0.520898,-0.19844 -0.267339,0 -0.479557,0.12954 -0.212218,0.12678 -0.366558,0.35002 -0.148828,0.21773 -0.228754,0.50987 -0.07993,0.29215 -0.07993,0.60634 0,0.38034 0.184657,0.58429 0.184657,0.20395 0.523654,0.20395 0.264583,0 0.479557,-0.12678 0.214974,-0.12678 0.366558,-0.35278 z" />
      <path
         id="path1006"
         style="font-style:italic;font-variant:normal;font-weight:normal;font-stretch:normal;font-size:5.64444px;line-height:1.25;font-family:sans-serif;-inkscape-font-specification:'sans-serif Italic';fill:#ffffff;fill-opacity:1;stroke-width:0.264583"
         d="m 50.670626,257.63051 q 0,0.41341 -0.12678,0.79375 -0.126779,0.38033 -0.358289,0.66145 -0.239779,0.29215 -0.553971,0.45751 -0.314193,0.16261 -0.733116,0.16261 -0.548459,0 -0.857139,-0.31144 -0.305924,-0.31419 -0.305924,-0.8654 0,-0.41341 0.124023,-0.78824 0.126779,-0.37483 0.363802,-0.66697 0.228754,-0.28112 0.559483,-0.44924 0.333485,-0.16812 0.727604,-0.16812 0.531922,0 0.846114,0.30317 0.314193,0.30316 0.314193,0.87092 z m -0.843359,1.16306 q 0.148828,-0.22049 0.225998,-0.50987 0.07993,-0.28939 0.07993,-0.61185 0,-0.38585 -0.184657,-0.58429 -0.184657,-0.19844 -0.520898,-0.19844 -0.267339,0 -0.479557,0.12954 -0.212217,0.12678 -0.366557,0.35002 -0.148828,0.21773 -0.228755,0.50987 -0.07993,0.29215 -0.07993,0.60634 0,0.38034 0.184657,0.58429 0.184657,0.20395 0.523654,0.20395 0.264583,0 0.479557,-0.12678 0.214974,-0.12678 0.366558,-0.35278 z" />
      <path
         id="path1008"
         style="font-style:italic;font-variant:normal;font-weight:normal;font-stretch:normal;font-size:5.64444px;line-height:1.25;font-family:sans-serif;-inkscape-font-specification:'sans-serif Italic';fill:#ffffff;fill-opacity:1;stroke-width:0.264583"
         d="m 54.157058,257.24466 q 0,0.0661 -0.01378,0.17914 -0.01103,0.113 -0.03307,0.19844 l -0.463021,1.99815 h -0.518142 l 0.405143,-1.75286 q 0.03307,-0.14607 0.04961,-0.25356 0.01929,-0.11024 0.01929,-0.21773 0,-0.23151 -0.115755,-0.34727 -0.112999,-0.11851 -0.410655,-0.11851 -0.209462,0 -0.463021,0.11576 -0.250802,0.11575 -0.490581,0.27561 l -0.531922,2.29856 h -0.518142 l 0.711067,-3.07853 h 0.518142 l -0.07993,0.34175 q 0.2949,-0.20671 0.551215,-0.31695 0.259071,-0.11024 0.531922,-0.11024 0.402387,0 0.625629,0.20395 0.225998,0.20119 0.225998,0.58429 z" />
    </g>
  </g>
</svg>
